G75*
G70*
%OFA0B0*%
%FSLAX24Y24*%
%IPPOS*%
%LPD*%
%AMOC8*
5,1,8,0,0,1.08239X$1,22.5*
%
%ADD10C,0.0600*%
%ADD11C,0.0680*%
%ADD12OC8,0.0600*%
%ADD13C,0.1380*%
%ADD14C,0.0780*%
D10*
X011833Y002890D02*
X011833Y003410D01*
X012833Y003410D02*
X012833Y002890D01*
X013833Y002890D02*
X013833Y003410D01*
X014833Y003410D02*
X014833Y002890D01*
X014833Y005890D02*
X014833Y006410D01*
X013833Y006410D02*
X013833Y005890D01*
X012833Y005890D02*
X012833Y006410D01*
X011833Y006410D02*
X011833Y005890D01*
X027333Y005890D02*
X027333Y006410D01*
X028333Y006410D02*
X028333Y005890D01*
X029333Y005890D02*
X029333Y006410D01*
X030333Y006410D02*
X030333Y005890D01*
X030333Y003410D02*
X030333Y002890D01*
X029333Y002890D02*
X029333Y003410D01*
X028333Y003410D02*
X028333Y002890D01*
X027333Y002890D02*
X027333Y003410D01*
D11*
X023833Y002450D02*
X023833Y001850D01*
X022833Y001850D02*
X022833Y002450D01*
X021833Y002450D02*
X021833Y001850D01*
X019833Y001850D02*
X019833Y002450D01*
X018833Y002450D02*
X018833Y001850D01*
X017833Y001850D02*
X017833Y002450D01*
X018833Y009850D02*
X018833Y010450D01*
X019833Y010450D02*
X019833Y009850D01*
X020833Y009850D02*
X020833Y010450D01*
X021833Y010450D02*
X021833Y009850D01*
X022833Y009850D02*
X022833Y010450D01*
X023833Y010450D02*
X023833Y009850D01*
D12*
X027333Y008650D03*
X028333Y008650D03*
X023833Y005150D03*
X021833Y005150D03*
X019833Y005150D03*
X017833Y005150D03*
X017833Y004150D03*
X019833Y004150D03*
X021833Y004150D03*
X023833Y004150D03*
X012833Y008150D03*
X011833Y008150D03*
D13*
X009333Y001650D03*
X032333Y001650D03*
X032333Y011150D03*
X009333Y011150D03*
D14*
X017833Y009150D03*
X020833Y007150D03*
X023833Y009150D03*
X028333Y007150D03*
X025333Y004650D03*
X031333Y004650D03*
M02*
