G75*
G70*
%OFA0B0*%
%FSLAX24Y24*%
%IPPOS*%
%LPD*%
%AMOC8*
5,1,8,0,0,1.08239X$1,22.5*
%
%ADD10C,0.0100*%
%ADD11C,0.0051*%
%ADD12C,0.0110*%
%ADD13C,0.0000*%
D10*
X007833Y000150D02*
X007833Y012646D01*
X033703Y012646D01*
X033703Y000150D01*
X007833Y000150D01*
D11*
X007833Y012650D02*
X007833Y013918D01*
X007833Y013150D02*
X008857Y013276D01*
X008857Y013024D01*
X007833Y013150D01*
X008857Y013048D01*
X008857Y013099D02*
X007833Y013150D01*
X008857Y013252D01*
X008857Y013201D02*
X007833Y013150D01*
X033833Y013150D01*
X032810Y013048D01*
X032810Y013024D02*
X033833Y013150D01*
X032810Y013252D01*
X032810Y013276D02*
X032810Y013024D01*
X032810Y013099D02*
X033833Y013150D01*
X032810Y013201D01*
X032810Y013276D02*
X033833Y013150D01*
X033833Y012650D02*
X033833Y013918D01*
D12*
X022088Y013726D02*
X021694Y013726D01*
X021989Y014022D01*
X021989Y013431D01*
X021443Y013530D02*
X021345Y013431D01*
X021148Y013431D01*
X021049Y013530D01*
X021443Y013923D01*
X021443Y013530D01*
X021049Y013530D02*
X021049Y013923D01*
X021148Y014022D01*
X021345Y014022D01*
X021443Y013923D01*
X020476Y014022D02*
X020279Y013923D01*
X020083Y013726D01*
X020378Y013726D01*
X020476Y013628D01*
X020476Y013530D01*
X020378Y013431D01*
X020181Y013431D01*
X020083Y013530D01*
X020083Y013726D01*
X019832Y013628D02*
X019733Y013726D01*
X019438Y013726D01*
X019438Y013530D01*
X019537Y013431D01*
X019733Y013431D01*
X019832Y013530D01*
X019832Y013628D01*
X019635Y013923D02*
X019438Y013726D01*
X019635Y013923D02*
X019832Y014022D01*
X020727Y013530D02*
X020826Y013530D01*
X020826Y013431D01*
X020727Y013431D01*
X020727Y013530D01*
D13*
X008683Y011150D02*
X008685Y011200D01*
X008691Y011250D01*
X008701Y011300D01*
X008714Y011348D01*
X008731Y011396D01*
X008752Y011442D01*
X008776Y011486D01*
X008804Y011528D01*
X008835Y011568D01*
X008869Y011605D01*
X008906Y011640D01*
X008945Y011671D01*
X008986Y011700D01*
X009030Y011725D01*
X009076Y011747D01*
X009123Y011765D01*
X009171Y011779D01*
X009220Y011790D01*
X009270Y011797D01*
X009320Y011800D01*
X009371Y011799D01*
X009421Y011794D01*
X009471Y011785D01*
X009519Y011773D01*
X009567Y011756D01*
X009613Y011736D01*
X009658Y011713D01*
X009701Y011686D01*
X009741Y011656D01*
X009779Y011623D01*
X009814Y011587D01*
X009847Y011548D01*
X009876Y011507D01*
X009902Y011464D01*
X009925Y011419D01*
X009944Y011372D01*
X009959Y011324D01*
X009971Y011275D01*
X009979Y011225D01*
X009983Y011175D01*
X009983Y011125D01*
X009979Y011075D01*
X009971Y011025D01*
X009959Y010976D01*
X009944Y010928D01*
X009925Y010881D01*
X009902Y010836D01*
X009876Y010793D01*
X009847Y010752D01*
X009814Y010713D01*
X009779Y010677D01*
X009741Y010644D01*
X009701Y010614D01*
X009658Y010587D01*
X009613Y010564D01*
X009567Y010544D01*
X009519Y010527D01*
X009471Y010515D01*
X009421Y010506D01*
X009371Y010501D01*
X009320Y010500D01*
X009270Y010503D01*
X009220Y010510D01*
X009171Y010521D01*
X009123Y010535D01*
X009076Y010553D01*
X009030Y010575D01*
X008986Y010600D01*
X008945Y010629D01*
X008906Y010660D01*
X008869Y010695D01*
X008835Y010732D01*
X008804Y010772D01*
X008776Y010814D01*
X008752Y010858D01*
X008731Y010904D01*
X008714Y010952D01*
X008701Y011000D01*
X008691Y011050D01*
X008685Y011100D01*
X008683Y011150D01*
X031683Y011150D02*
X031685Y011200D01*
X031691Y011250D01*
X031701Y011300D01*
X031714Y011348D01*
X031731Y011396D01*
X031752Y011442D01*
X031776Y011486D01*
X031804Y011528D01*
X031835Y011568D01*
X031869Y011605D01*
X031906Y011640D01*
X031945Y011671D01*
X031986Y011700D01*
X032030Y011725D01*
X032076Y011747D01*
X032123Y011765D01*
X032171Y011779D01*
X032220Y011790D01*
X032270Y011797D01*
X032320Y011800D01*
X032371Y011799D01*
X032421Y011794D01*
X032471Y011785D01*
X032519Y011773D01*
X032567Y011756D01*
X032613Y011736D01*
X032658Y011713D01*
X032701Y011686D01*
X032741Y011656D01*
X032779Y011623D01*
X032814Y011587D01*
X032847Y011548D01*
X032876Y011507D01*
X032902Y011464D01*
X032925Y011419D01*
X032944Y011372D01*
X032959Y011324D01*
X032971Y011275D01*
X032979Y011225D01*
X032983Y011175D01*
X032983Y011125D01*
X032979Y011075D01*
X032971Y011025D01*
X032959Y010976D01*
X032944Y010928D01*
X032925Y010881D01*
X032902Y010836D01*
X032876Y010793D01*
X032847Y010752D01*
X032814Y010713D01*
X032779Y010677D01*
X032741Y010644D01*
X032701Y010614D01*
X032658Y010587D01*
X032613Y010564D01*
X032567Y010544D01*
X032519Y010527D01*
X032471Y010515D01*
X032421Y010506D01*
X032371Y010501D01*
X032320Y010500D01*
X032270Y010503D01*
X032220Y010510D01*
X032171Y010521D01*
X032123Y010535D01*
X032076Y010553D01*
X032030Y010575D01*
X031986Y010600D01*
X031945Y010629D01*
X031906Y010660D01*
X031869Y010695D01*
X031835Y010732D01*
X031804Y010772D01*
X031776Y010814D01*
X031752Y010858D01*
X031731Y010904D01*
X031714Y010952D01*
X031701Y011000D01*
X031691Y011050D01*
X031685Y011100D01*
X031683Y011150D01*
X031683Y001650D02*
X031685Y001700D01*
X031691Y001750D01*
X031701Y001800D01*
X031714Y001848D01*
X031731Y001896D01*
X031752Y001942D01*
X031776Y001986D01*
X031804Y002028D01*
X031835Y002068D01*
X031869Y002105D01*
X031906Y002140D01*
X031945Y002171D01*
X031986Y002200D01*
X032030Y002225D01*
X032076Y002247D01*
X032123Y002265D01*
X032171Y002279D01*
X032220Y002290D01*
X032270Y002297D01*
X032320Y002300D01*
X032371Y002299D01*
X032421Y002294D01*
X032471Y002285D01*
X032519Y002273D01*
X032567Y002256D01*
X032613Y002236D01*
X032658Y002213D01*
X032701Y002186D01*
X032741Y002156D01*
X032779Y002123D01*
X032814Y002087D01*
X032847Y002048D01*
X032876Y002007D01*
X032902Y001964D01*
X032925Y001919D01*
X032944Y001872D01*
X032959Y001824D01*
X032971Y001775D01*
X032979Y001725D01*
X032983Y001675D01*
X032983Y001625D01*
X032979Y001575D01*
X032971Y001525D01*
X032959Y001476D01*
X032944Y001428D01*
X032925Y001381D01*
X032902Y001336D01*
X032876Y001293D01*
X032847Y001252D01*
X032814Y001213D01*
X032779Y001177D01*
X032741Y001144D01*
X032701Y001114D01*
X032658Y001087D01*
X032613Y001064D01*
X032567Y001044D01*
X032519Y001027D01*
X032471Y001015D01*
X032421Y001006D01*
X032371Y001001D01*
X032320Y001000D01*
X032270Y001003D01*
X032220Y001010D01*
X032171Y001021D01*
X032123Y001035D01*
X032076Y001053D01*
X032030Y001075D01*
X031986Y001100D01*
X031945Y001129D01*
X031906Y001160D01*
X031869Y001195D01*
X031835Y001232D01*
X031804Y001272D01*
X031776Y001314D01*
X031752Y001358D01*
X031731Y001404D01*
X031714Y001452D01*
X031701Y001500D01*
X031691Y001550D01*
X031685Y001600D01*
X031683Y001650D01*
X008683Y001650D02*
X008685Y001700D01*
X008691Y001750D01*
X008701Y001800D01*
X008714Y001848D01*
X008731Y001896D01*
X008752Y001942D01*
X008776Y001986D01*
X008804Y002028D01*
X008835Y002068D01*
X008869Y002105D01*
X008906Y002140D01*
X008945Y002171D01*
X008986Y002200D01*
X009030Y002225D01*
X009076Y002247D01*
X009123Y002265D01*
X009171Y002279D01*
X009220Y002290D01*
X009270Y002297D01*
X009320Y002300D01*
X009371Y002299D01*
X009421Y002294D01*
X009471Y002285D01*
X009519Y002273D01*
X009567Y002256D01*
X009613Y002236D01*
X009658Y002213D01*
X009701Y002186D01*
X009741Y002156D01*
X009779Y002123D01*
X009814Y002087D01*
X009847Y002048D01*
X009876Y002007D01*
X009902Y001964D01*
X009925Y001919D01*
X009944Y001872D01*
X009959Y001824D01*
X009971Y001775D01*
X009979Y001725D01*
X009983Y001675D01*
X009983Y001625D01*
X009979Y001575D01*
X009971Y001525D01*
X009959Y001476D01*
X009944Y001428D01*
X009925Y001381D01*
X009902Y001336D01*
X009876Y001293D01*
X009847Y001252D01*
X009814Y001213D01*
X009779Y001177D01*
X009741Y001144D01*
X009701Y001114D01*
X009658Y001087D01*
X009613Y001064D01*
X009567Y001044D01*
X009519Y001027D01*
X009471Y001015D01*
X009421Y001006D01*
X009371Y001001D01*
X009320Y001000D01*
X009270Y001003D01*
X009220Y001010D01*
X009171Y001021D01*
X009123Y001035D01*
X009076Y001053D01*
X009030Y001075D01*
X008986Y001100D01*
X008945Y001129D01*
X008906Y001160D01*
X008869Y001195D01*
X008835Y001232D01*
X008804Y001272D01*
X008776Y001314D01*
X008752Y001358D01*
X008731Y001404D01*
X008714Y001452D01*
X008701Y001500D01*
X008691Y001550D01*
X008685Y001600D01*
X008683Y001650D01*
M02*
