G75*
G70*
%OFA0B0*%
%FSLAX24Y24*%
%IPPOS*%
%LPD*%
%AMOC8*
5,1,8,0,0,1.08239X$1,22.5*
%
%ADD10C,0.0100*%
%ADD11C,0.0080*%
%ADD12C,0.0050*%
%ADD13C,0.0051*%
%ADD14C,0.0110*%
%ADD15C,0.0000*%
%ADD16C,0.0010*%
%ADD17C,0.0060*%
D10*
X007833Y000150D02*
X007833Y012646D01*
X017703Y012646D01*
X017703Y000150D01*
X007833Y000150D01*
D11*
X010373Y010690D02*
X010654Y010690D01*
X010834Y010690D02*
X010834Y010970D01*
X011044Y010970D01*
X011114Y010900D01*
X011114Y010690D01*
X011294Y010760D02*
X011294Y010900D01*
X011364Y010970D01*
X011574Y010970D01*
X011755Y010900D02*
X011755Y010760D01*
X011825Y010690D01*
X011965Y010690D01*
X012035Y010760D01*
X012035Y010900D01*
X011965Y010970D01*
X011825Y010970D01*
X011755Y010900D01*
X011574Y010690D02*
X011364Y010690D01*
X011294Y010760D01*
X010654Y011110D02*
X010373Y011110D01*
X010373Y010690D01*
X010373Y010900D02*
X010513Y010900D01*
X010974Y011300D02*
X011044Y011300D01*
X011114Y011370D01*
X011114Y011720D01*
X011294Y011580D02*
X011504Y011580D01*
X011574Y011650D01*
X011574Y011790D01*
X011504Y011860D01*
X011294Y011860D01*
X011294Y011440D01*
X011114Y011440D02*
X010904Y011440D01*
X010834Y011510D01*
X010834Y011720D01*
X010654Y011650D02*
X010584Y011580D01*
X010373Y011580D01*
X010373Y011440D02*
X010373Y011860D01*
X010584Y011860D01*
X010654Y011790D01*
X010654Y011650D01*
X011434Y011580D02*
X011574Y011440D01*
X011755Y011510D02*
X011825Y011580D01*
X012035Y011580D01*
X012035Y011650D02*
X012035Y011440D01*
X011825Y011440D01*
X011755Y011510D01*
X011825Y011720D02*
X011965Y011720D01*
X012035Y011650D01*
X012215Y011650D02*
X012285Y011720D01*
X012495Y011720D01*
X012495Y011860D02*
X012495Y011440D01*
X012285Y011440D01*
X012215Y011510D01*
X012215Y011650D01*
X012675Y011720D02*
X012745Y011720D01*
X012745Y011440D01*
X012675Y011440D02*
X012815Y011440D01*
X012982Y011510D02*
X013052Y011440D01*
X013192Y011440D01*
X013262Y011510D01*
X013262Y011650D01*
X013192Y011720D01*
X013052Y011720D01*
X012982Y011650D01*
X012982Y011510D01*
X012745Y011860D02*
X012745Y011930D01*
X012495Y011110D02*
X012495Y010690D01*
X012285Y010690D01*
X012215Y010760D01*
X012215Y010900D01*
X012285Y010970D01*
X012495Y010970D01*
X012675Y010900D02*
X012745Y010970D01*
X012885Y010970D01*
X012956Y010900D01*
X012956Y010830D01*
X012675Y010830D01*
X012675Y010760D02*
X012675Y010900D01*
X012675Y010760D02*
X012745Y010690D01*
X012885Y010690D01*
X013136Y010690D02*
X013136Y010970D01*
X013276Y010970D02*
X013346Y010970D01*
X013276Y010970D02*
X013136Y010830D01*
X013980Y010970D02*
X014120Y010690D01*
X014260Y010970D01*
X014440Y010970D02*
X014580Y011110D01*
X014580Y010690D01*
X014440Y010690D02*
X014720Y010690D01*
X014901Y010690D02*
X014971Y010690D01*
X014971Y010760D01*
X014901Y010760D01*
X014901Y010690D01*
X015131Y010760D02*
X015411Y011040D01*
X015411Y010760D01*
X015341Y010690D01*
X015201Y010690D01*
X015131Y010760D01*
X015131Y011040D01*
X015201Y011110D01*
X015341Y011110D01*
X015411Y011040D01*
D12*
X015333Y009650D02*
X014333Y009650D01*
X013333Y009650D02*
X012333Y009650D01*
X011333Y009650D02*
X010333Y009650D01*
X010333Y008150D01*
X015333Y008150D02*
X015333Y009650D01*
X015333Y006150D02*
X015333Y004650D01*
X010333Y004650D01*
X010333Y006150D01*
X014978Y003845D02*
X015129Y003845D01*
X015054Y003845D02*
X015054Y003470D01*
X014978Y003395D01*
X014903Y003395D01*
X014828Y003470D01*
X015289Y003395D02*
X015289Y003845D01*
X015514Y003845D01*
X015589Y003770D01*
X015589Y003620D01*
X015514Y003545D01*
X015289Y003545D01*
X015749Y003395D02*
X016049Y003395D01*
X015899Y003395D02*
X015899Y003845D01*
X015749Y003695D01*
X014485Y002900D02*
X014440Y002945D01*
X014305Y002945D01*
X014305Y002675D01*
X014440Y002675D01*
X014485Y002720D01*
X014485Y002900D01*
X014190Y002945D02*
X014190Y002675D01*
X014010Y002945D01*
X014010Y002675D01*
X013896Y002720D02*
X013896Y002810D01*
X013806Y002810D01*
X013896Y002720D02*
X013851Y002675D01*
X013761Y002675D01*
X013716Y002720D01*
X013716Y002900D01*
X013761Y002945D01*
X013851Y002945D01*
X013896Y002900D01*
X013306Y002945D02*
X013306Y002675D01*
X013126Y002945D01*
X013126Y002675D01*
X012922Y002675D02*
X012922Y002945D01*
X012832Y002945D02*
X013012Y002945D01*
X012717Y002900D02*
X012717Y002855D01*
X012672Y002810D01*
X012537Y002810D01*
X012537Y002675D02*
X012672Y002675D01*
X012717Y002720D01*
X012717Y002765D01*
X012672Y002810D01*
X012717Y002900D02*
X012672Y002945D01*
X012537Y002945D01*
X012537Y002675D01*
X012128Y002720D02*
X012128Y002765D01*
X012083Y002810D01*
X011948Y002810D01*
X012083Y002810D02*
X012128Y002855D01*
X012128Y002900D01*
X012083Y002945D01*
X011948Y002945D01*
X011948Y002675D01*
X012083Y002675D01*
X012128Y002720D01*
X011538Y002675D02*
X011538Y002855D01*
X011448Y002945D01*
X011358Y002855D01*
X011358Y002675D01*
X011358Y002810D02*
X011538Y002810D01*
D13*
X007833Y012650D02*
X007833Y013918D01*
X007833Y013150D02*
X008857Y013276D01*
X008857Y013024D01*
X007833Y013150D01*
X008857Y013048D01*
X008857Y013099D02*
X007833Y013150D01*
X008857Y013252D01*
X008857Y013201D02*
X007833Y013150D01*
X017833Y013150D01*
X016810Y013048D01*
X016810Y013024D02*
X017833Y013150D01*
X016810Y013252D01*
X016810Y013276D02*
X016810Y013024D01*
X016810Y013099D02*
X017833Y013150D01*
X016810Y013201D01*
X016810Y013276D02*
X017833Y013150D01*
X017833Y012650D02*
X017833Y013918D01*
D14*
X013765Y013726D02*
X013372Y013726D01*
X013667Y014022D01*
X013667Y013431D01*
X013148Y013431D02*
X013148Y013530D01*
X013049Y013530D01*
X013049Y013431D01*
X013148Y013431D01*
X012799Y013530D02*
X012700Y013431D01*
X012503Y013431D01*
X012405Y013530D01*
X012405Y013726D02*
X012602Y013825D01*
X012700Y013825D01*
X012799Y013726D01*
X012799Y013530D01*
X012405Y013726D02*
X012405Y014022D01*
X012799Y014022D01*
X012154Y013923D02*
X012154Y013825D01*
X011760Y013431D01*
X012154Y013431D01*
X012154Y013923D02*
X012056Y014022D01*
X011859Y014022D01*
X011760Y013923D01*
D15*
X008683Y011150D02*
X008685Y011200D01*
X008691Y011250D01*
X008701Y011300D01*
X008714Y011348D01*
X008731Y011396D01*
X008752Y011442D01*
X008776Y011486D01*
X008804Y011528D01*
X008835Y011568D01*
X008869Y011605D01*
X008906Y011640D01*
X008945Y011671D01*
X008986Y011700D01*
X009030Y011725D01*
X009076Y011747D01*
X009123Y011765D01*
X009171Y011779D01*
X009220Y011790D01*
X009270Y011797D01*
X009320Y011800D01*
X009371Y011799D01*
X009421Y011794D01*
X009471Y011785D01*
X009519Y011773D01*
X009567Y011756D01*
X009613Y011736D01*
X009658Y011713D01*
X009701Y011686D01*
X009741Y011656D01*
X009779Y011623D01*
X009814Y011587D01*
X009847Y011548D01*
X009876Y011507D01*
X009902Y011464D01*
X009925Y011419D01*
X009944Y011372D01*
X009959Y011324D01*
X009971Y011275D01*
X009979Y011225D01*
X009983Y011175D01*
X009983Y011125D01*
X009979Y011075D01*
X009971Y011025D01*
X009959Y010976D01*
X009944Y010928D01*
X009925Y010881D01*
X009902Y010836D01*
X009876Y010793D01*
X009847Y010752D01*
X009814Y010713D01*
X009779Y010677D01*
X009741Y010644D01*
X009701Y010614D01*
X009658Y010587D01*
X009613Y010564D01*
X009567Y010544D01*
X009519Y010527D01*
X009471Y010515D01*
X009421Y010506D01*
X009371Y010501D01*
X009320Y010500D01*
X009270Y010503D01*
X009220Y010510D01*
X009171Y010521D01*
X009123Y010535D01*
X009076Y010553D01*
X009030Y010575D01*
X008986Y010600D01*
X008945Y010629D01*
X008906Y010660D01*
X008869Y010695D01*
X008835Y010732D01*
X008804Y010772D01*
X008776Y010814D01*
X008752Y010858D01*
X008731Y010904D01*
X008714Y010952D01*
X008701Y011000D01*
X008691Y011050D01*
X008685Y011100D01*
X008683Y011150D01*
X015683Y011150D02*
X015685Y011200D01*
X015691Y011250D01*
X015701Y011300D01*
X015714Y011348D01*
X015731Y011396D01*
X015752Y011442D01*
X015776Y011486D01*
X015804Y011528D01*
X015835Y011568D01*
X015869Y011605D01*
X015906Y011640D01*
X015945Y011671D01*
X015986Y011700D01*
X016030Y011725D01*
X016076Y011747D01*
X016123Y011765D01*
X016171Y011779D01*
X016220Y011790D01*
X016270Y011797D01*
X016320Y011800D01*
X016371Y011799D01*
X016421Y011794D01*
X016471Y011785D01*
X016519Y011773D01*
X016567Y011756D01*
X016613Y011736D01*
X016658Y011713D01*
X016701Y011686D01*
X016741Y011656D01*
X016779Y011623D01*
X016814Y011587D01*
X016847Y011548D01*
X016876Y011507D01*
X016902Y011464D01*
X016925Y011419D01*
X016944Y011372D01*
X016959Y011324D01*
X016971Y011275D01*
X016979Y011225D01*
X016983Y011175D01*
X016983Y011125D01*
X016979Y011075D01*
X016971Y011025D01*
X016959Y010976D01*
X016944Y010928D01*
X016925Y010881D01*
X016902Y010836D01*
X016876Y010793D01*
X016847Y010752D01*
X016814Y010713D01*
X016779Y010677D01*
X016741Y010644D01*
X016701Y010614D01*
X016658Y010587D01*
X016613Y010564D01*
X016567Y010544D01*
X016519Y010527D01*
X016471Y010515D01*
X016421Y010506D01*
X016371Y010501D01*
X016320Y010500D01*
X016270Y010503D01*
X016220Y010510D01*
X016171Y010521D01*
X016123Y010535D01*
X016076Y010553D01*
X016030Y010575D01*
X015986Y010600D01*
X015945Y010629D01*
X015906Y010660D01*
X015869Y010695D01*
X015835Y010732D01*
X015804Y010772D01*
X015776Y010814D01*
X015752Y010858D01*
X015731Y010904D01*
X015714Y010952D01*
X015701Y011000D01*
X015691Y011050D01*
X015685Y011100D01*
X015683Y011150D01*
X015683Y001650D02*
X015685Y001700D01*
X015691Y001750D01*
X015701Y001800D01*
X015714Y001848D01*
X015731Y001896D01*
X015752Y001942D01*
X015776Y001986D01*
X015804Y002028D01*
X015835Y002068D01*
X015869Y002105D01*
X015906Y002140D01*
X015945Y002171D01*
X015986Y002200D01*
X016030Y002225D01*
X016076Y002247D01*
X016123Y002265D01*
X016171Y002279D01*
X016220Y002290D01*
X016270Y002297D01*
X016320Y002300D01*
X016371Y002299D01*
X016421Y002294D01*
X016471Y002285D01*
X016519Y002273D01*
X016567Y002256D01*
X016613Y002236D01*
X016658Y002213D01*
X016701Y002186D01*
X016741Y002156D01*
X016779Y002123D01*
X016814Y002087D01*
X016847Y002048D01*
X016876Y002007D01*
X016902Y001964D01*
X016925Y001919D01*
X016944Y001872D01*
X016959Y001824D01*
X016971Y001775D01*
X016979Y001725D01*
X016983Y001675D01*
X016983Y001625D01*
X016979Y001575D01*
X016971Y001525D01*
X016959Y001476D01*
X016944Y001428D01*
X016925Y001381D01*
X016902Y001336D01*
X016876Y001293D01*
X016847Y001252D01*
X016814Y001213D01*
X016779Y001177D01*
X016741Y001144D01*
X016701Y001114D01*
X016658Y001087D01*
X016613Y001064D01*
X016567Y001044D01*
X016519Y001027D01*
X016471Y001015D01*
X016421Y001006D01*
X016371Y001001D01*
X016320Y001000D01*
X016270Y001003D01*
X016220Y001010D01*
X016171Y001021D01*
X016123Y001035D01*
X016076Y001053D01*
X016030Y001075D01*
X015986Y001100D01*
X015945Y001129D01*
X015906Y001160D01*
X015869Y001195D01*
X015835Y001232D01*
X015804Y001272D01*
X015776Y001314D01*
X015752Y001358D01*
X015731Y001404D01*
X015714Y001452D01*
X015701Y001500D01*
X015691Y001550D01*
X015685Y001600D01*
X015683Y001650D01*
X008683Y001650D02*
X008685Y001700D01*
X008691Y001750D01*
X008701Y001800D01*
X008714Y001848D01*
X008731Y001896D01*
X008752Y001942D01*
X008776Y001986D01*
X008804Y002028D01*
X008835Y002068D01*
X008869Y002105D01*
X008906Y002140D01*
X008945Y002171D01*
X008986Y002200D01*
X009030Y002225D01*
X009076Y002247D01*
X009123Y002265D01*
X009171Y002279D01*
X009220Y002290D01*
X009270Y002297D01*
X009320Y002300D01*
X009371Y002299D01*
X009421Y002294D01*
X009471Y002285D01*
X009519Y002273D01*
X009567Y002256D01*
X009613Y002236D01*
X009658Y002213D01*
X009701Y002186D01*
X009741Y002156D01*
X009779Y002123D01*
X009814Y002087D01*
X009847Y002048D01*
X009876Y002007D01*
X009902Y001964D01*
X009925Y001919D01*
X009944Y001872D01*
X009959Y001824D01*
X009971Y001775D01*
X009979Y001725D01*
X009983Y001675D01*
X009983Y001625D01*
X009979Y001575D01*
X009971Y001525D01*
X009959Y001476D01*
X009944Y001428D01*
X009925Y001381D01*
X009902Y001336D01*
X009876Y001293D01*
X009847Y001252D01*
X009814Y001213D01*
X009779Y001177D01*
X009741Y001144D01*
X009701Y001114D01*
X009658Y001087D01*
X009613Y001064D01*
X009567Y001044D01*
X009519Y001027D01*
X009471Y001015D01*
X009421Y001006D01*
X009371Y001001D01*
X009320Y001000D01*
X009270Y001003D01*
X009220Y001010D01*
X009171Y001021D01*
X009123Y001035D01*
X009076Y001053D01*
X009030Y001075D01*
X008986Y001100D01*
X008945Y001129D01*
X008906Y001160D01*
X008869Y001195D01*
X008835Y001232D01*
X008804Y001272D01*
X008776Y001314D01*
X008752Y001358D01*
X008731Y001404D01*
X008714Y001452D01*
X008701Y001500D01*
X008691Y001550D01*
X008685Y001600D01*
X008683Y001650D01*
D16*
X012863Y007213D02*
X012888Y007213D01*
X012913Y007238D01*
X012913Y007288D01*
X012938Y007313D01*
X012963Y007313D01*
X012988Y007288D01*
X012988Y007238D01*
X012963Y007213D01*
X012863Y007213D02*
X012838Y007238D01*
X012838Y007288D01*
X012863Y007313D01*
X012838Y007360D02*
X012988Y007360D01*
X012938Y007410D01*
X012988Y007460D01*
X012838Y007460D01*
X012888Y007508D02*
X012838Y007558D01*
X012988Y007558D01*
X012988Y007508D02*
X012988Y007608D01*
D17*
X013083Y002150D02*
X013583Y002150D01*
X013833Y001900D01*
X014083Y002150D01*
X014583Y002150D01*
X014833Y001900D01*
X014833Y001400D01*
X014583Y001150D01*
X014083Y001150D01*
X013833Y001400D01*
X013583Y001150D01*
X013083Y001150D01*
X012833Y001400D01*
X012583Y001150D01*
X012083Y001150D01*
X011833Y001400D01*
X011583Y001150D01*
X011083Y001150D01*
X010833Y001400D01*
X010833Y001900D01*
X011083Y002150D01*
X011583Y002150D01*
X011833Y001900D01*
X012083Y002150D01*
X012583Y002150D01*
X012833Y001900D01*
X012833Y001400D01*
X011833Y001400D02*
X011833Y001900D01*
X012833Y001900D02*
X013083Y002150D01*
X013833Y001900D02*
X013833Y001400D01*
M02*
