G75*
G70*
%OFA0B0*%
%FSLAX24Y24*%
%IPPOS*%
%LPD*%
%AMOC8*
5,1,8,0,0,1.08239X$1,22.5*
%
%ADD10C,0.0100*%
%ADD11C,0.0050*%
%ADD12C,0.0060*%
%ADD13C,0.0080*%
%ADD14C,0.0110*%
%ADD15C,0.0051*%
%ADD16C,0.0020*%
%ADD17C,0.0160*%
%ADD18C,0.0070*%
%ADD19C,0.0000*%
D10*
X001760Y000150D02*
X001760Y024646D01*
X041630Y024646D01*
X041630Y000150D01*
X001760Y000150D01*
D11*
X002468Y000339D02*
X002468Y023961D01*
X041051Y023961D01*
X041051Y000339D01*
X002468Y000339D01*
X005285Y002265D02*
X005375Y002175D01*
X005465Y002265D01*
X005465Y002445D01*
X005579Y002400D02*
X005579Y002220D01*
X005624Y002175D01*
X005714Y002175D01*
X005759Y002220D01*
X005874Y002220D02*
X005874Y002400D01*
X005919Y002445D01*
X006009Y002445D01*
X006054Y002400D01*
X006054Y002220D02*
X006009Y002175D01*
X005919Y002175D01*
X005874Y002220D01*
X005759Y002400D02*
X005714Y002445D01*
X005624Y002445D01*
X005579Y002400D01*
X005285Y002445D02*
X005285Y002265D01*
X006463Y002265D02*
X006598Y002265D01*
X006643Y002310D01*
X006643Y002400D01*
X006598Y002445D01*
X006463Y002445D01*
X006463Y002175D01*
X006553Y002265D02*
X006643Y002175D01*
X006758Y002175D02*
X006938Y002445D01*
X006758Y002445D02*
X006938Y002175D01*
X007347Y002445D02*
X007527Y002445D01*
X007437Y002445D02*
X007437Y002175D01*
X007642Y002175D02*
X007822Y002445D01*
X007642Y002445D02*
X007822Y002175D01*
X008231Y002220D02*
X008231Y002400D01*
X008276Y002445D01*
X008366Y002445D01*
X008411Y002400D01*
X008411Y002310D02*
X008321Y002310D01*
X008411Y002310D02*
X008411Y002220D01*
X008366Y002175D01*
X008276Y002175D01*
X008231Y002220D01*
X008526Y002175D02*
X008526Y002445D01*
X008706Y002175D01*
X008706Y002445D01*
X008820Y002445D02*
X008955Y002445D01*
X009000Y002400D01*
X009000Y002220D01*
X008955Y002175D01*
X008820Y002175D01*
X008820Y002445D01*
X006476Y004470D02*
X006476Y004545D01*
X006400Y004620D01*
X006175Y004620D01*
X006175Y004470D01*
X006250Y004395D01*
X006400Y004395D01*
X006476Y004470D01*
X006325Y004770D02*
X006175Y004620D01*
X006015Y004620D02*
X005940Y004545D01*
X005715Y004545D01*
X005715Y004395D02*
X005715Y004845D01*
X005940Y004845D01*
X006015Y004770D01*
X006015Y004620D01*
X006325Y004770D02*
X006476Y004845D01*
X005555Y004845D02*
X005405Y004845D01*
X005480Y004845D02*
X005480Y004470D01*
X005405Y004395D01*
X005330Y004395D01*
X005255Y004470D01*
X004726Y005205D02*
X004425Y005205D01*
X004575Y005205D02*
X004575Y005655D01*
X004425Y005505D01*
X004265Y005430D02*
X004190Y005355D01*
X003965Y005355D01*
X003965Y005205D02*
X003965Y005655D01*
X004190Y005655D01*
X004265Y005580D01*
X004265Y005430D01*
X003805Y005655D02*
X003655Y005655D01*
X003730Y005655D02*
X003730Y005280D01*
X003655Y005205D01*
X003580Y005205D01*
X003505Y005280D01*
X002626Y003882D02*
X002626Y020418D01*
X040893Y020418D01*
X040893Y003882D01*
X002626Y003882D01*
X007193Y007189D02*
X036326Y007189D01*
X036365Y007191D01*
X036403Y007197D01*
X036440Y007206D01*
X036477Y007219D01*
X036512Y007236D01*
X036545Y007255D01*
X036576Y007278D01*
X036605Y007304D01*
X036631Y007333D01*
X036654Y007364D01*
X036673Y007397D01*
X036690Y007432D01*
X036703Y007469D01*
X036712Y007506D01*
X036718Y007544D01*
X036720Y007583D01*
X036720Y016717D01*
X036624Y016675D02*
X036324Y016675D01*
X036720Y016717D02*
X036718Y016756D01*
X036712Y016794D01*
X036703Y016831D01*
X036690Y016868D01*
X036673Y016903D01*
X036654Y016936D01*
X036631Y016967D01*
X036605Y016996D01*
X036576Y017022D01*
X036545Y017045D01*
X036512Y017064D01*
X036477Y017081D01*
X036440Y017094D01*
X036403Y017103D01*
X036365Y017109D01*
X036326Y017111D01*
X007193Y017111D01*
X007154Y017109D01*
X007116Y017103D01*
X007079Y017094D01*
X007042Y017081D01*
X007007Y017064D01*
X006974Y017045D01*
X006943Y017022D01*
X006914Y016996D01*
X006888Y016967D01*
X006865Y016936D01*
X006846Y016903D01*
X006829Y016868D01*
X006816Y016831D01*
X006807Y016794D01*
X006801Y016756D01*
X006799Y016717D01*
X006799Y007583D01*
X006801Y007544D01*
X006807Y007506D01*
X006816Y007469D01*
X006829Y007432D01*
X006846Y007397D01*
X006865Y007364D01*
X006888Y007333D01*
X006914Y007304D01*
X006943Y007278D01*
X006974Y007255D01*
X007007Y007236D01*
X007042Y007219D01*
X007079Y007206D01*
X007116Y007197D01*
X007154Y007191D01*
X007193Y007189D01*
X012755Y004470D02*
X012830Y004395D01*
X012905Y004395D01*
X012980Y004470D01*
X012980Y004845D01*
X012905Y004845D02*
X013055Y004845D01*
X013215Y004845D02*
X013440Y004845D01*
X013515Y004770D01*
X013515Y004620D01*
X013440Y004545D01*
X013215Y004545D01*
X013215Y004395D02*
X013215Y004845D01*
X013675Y004770D02*
X013750Y004845D01*
X013900Y004845D01*
X013976Y004770D01*
X013976Y004695D01*
X013675Y004395D01*
X013976Y004395D01*
X014168Y002445D02*
X014304Y002445D01*
X014349Y002400D01*
X014349Y002355D01*
X014304Y002310D01*
X014168Y002310D01*
X014168Y002175D02*
X014168Y002445D01*
X014304Y002310D02*
X014349Y002265D01*
X014349Y002220D01*
X014304Y002175D01*
X014168Y002175D01*
X013465Y002175D02*
X013465Y002355D01*
X013375Y002445D01*
X013285Y002355D01*
X013285Y002175D01*
X013285Y002310D02*
X013465Y002310D01*
X015052Y002310D02*
X015188Y002310D01*
X015233Y002265D01*
X015233Y002220D01*
X015188Y002175D01*
X015052Y002175D01*
X015052Y002445D01*
X015188Y002445D01*
X015233Y002400D01*
X015233Y002355D01*
X015188Y002310D01*
X015347Y002445D02*
X015527Y002445D01*
X015437Y002445D02*
X015437Y002175D01*
X015642Y002175D02*
X015642Y002445D01*
X015822Y002175D01*
X015822Y002445D01*
X016231Y002400D02*
X016231Y002220D01*
X016276Y002175D01*
X016366Y002175D01*
X016411Y002220D01*
X016411Y002310D01*
X016321Y002310D01*
X016231Y002400D02*
X016276Y002445D01*
X016366Y002445D01*
X016411Y002400D01*
X016526Y002445D02*
X016706Y002175D01*
X016706Y002445D01*
X016820Y002445D02*
X016955Y002445D01*
X017000Y002400D01*
X017000Y002220D01*
X016955Y002175D01*
X016820Y002175D01*
X016820Y002445D01*
X016526Y002445D02*
X016526Y002175D01*
X018939Y005125D02*
X018864Y005200D01*
X018864Y005500D01*
X018939Y005575D01*
X019089Y005575D01*
X019164Y005500D01*
X019164Y005200D01*
X019089Y005125D01*
X018939Y005125D01*
X019014Y005275D02*
X019164Y005125D01*
X019324Y005125D02*
X019624Y005125D01*
X019474Y005125D02*
X019474Y005575D01*
X019324Y005425D01*
X024255Y004470D02*
X024330Y004395D01*
X024405Y004395D01*
X024480Y004470D01*
X024480Y004845D01*
X024405Y004845D02*
X024555Y004845D01*
X024715Y004845D02*
X024940Y004845D01*
X025015Y004770D01*
X025015Y004620D01*
X024940Y004545D01*
X024715Y004545D01*
X024715Y004395D02*
X024715Y004845D01*
X025175Y004620D02*
X025476Y004620D01*
X025400Y004395D02*
X025400Y004845D01*
X025175Y004620D01*
X025009Y002445D02*
X024874Y002445D01*
X024874Y002175D01*
X025009Y002175D01*
X025054Y002220D01*
X025054Y002400D01*
X025009Y002445D01*
X024759Y002445D02*
X024759Y002175D01*
X024579Y002445D01*
X024579Y002175D01*
X024465Y002220D02*
X024465Y002310D01*
X024375Y002310D01*
X024465Y002220D02*
X024420Y002175D01*
X024330Y002175D01*
X024285Y002220D01*
X024285Y002400D01*
X024330Y002445D01*
X024420Y002445D01*
X024465Y002400D01*
X025463Y002400D02*
X025463Y002220D01*
X025508Y002175D01*
X025598Y002175D01*
X025643Y002220D01*
X025643Y002400D01*
X025598Y002445D01*
X025508Y002445D01*
X025463Y002400D01*
X025758Y002355D02*
X025848Y002445D01*
X025848Y002175D01*
X025758Y002175D02*
X025938Y002175D01*
X026347Y002220D02*
X026527Y002400D01*
X026527Y002220D01*
X026482Y002175D01*
X026392Y002175D01*
X026347Y002220D01*
X026347Y002400D01*
X026392Y002445D01*
X026482Y002445D01*
X026527Y002400D01*
X026642Y002400D02*
X026687Y002445D01*
X026777Y002445D01*
X026822Y002400D01*
X026822Y002355D01*
X026642Y002175D01*
X026822Y002175D01*
X027231Y002175D02*
X027231Y002445D01*
X027366Y002445D01*
X027411Y002400D01*
X027411Y002310D01*
X027366Y002265D01*
X027231Y002265D01*
X027321Y002265D02*
X027411Y002175D01*
X027526Y002175D02*
X027706Y002175D01*
X027820Y002220D02*
X027865Y002175D01*
X027955Y002175D01*
X028000Y002220D01*
X028000Y002265D01*
X027955Y002310D01*
X027865Y002310D01*
X027820Y002355D01*
X027820Y002400D01*
X027865Y002445D01*
X027955Y002445D01*
X028000Y002400D01*
X027706Y002445D02*
X027526Y002445D01*
X027526Y002175D01*
X027526Y002310D02*
X027616Y002310D01*
X028410Y002355D02*
X028455Y002310D01*
X028545Y002310D01*
X028590Y002265D01*
X028590Y002220D01*
X028545Y002175D01*
X028455Y002175D01*
X028410Y002220D01*
X028410Y002355D02*
X028410Y002400D01*
X028455Y002445D01*
X028545Y002445D01*
X028590Y002400D01*
X028704Y002445D02*
X028884Y002445D01*
X028794Y002445D02*
X028794Y002175D01*
X028999Y002175D02*
X028999Y002445D01*
X029134Y002445D01*
X029179Y002400D01*
X029179Y002310D01*
X029134Y002265D01*
X028999Y002265D01*
X029089Y002265D02*
X029179Y002175D01*
X029588Y002265D02*
X029678Y002175D01*
X029768Y002265D01*
X029768Y002445D01*
X029883Y002400D02*
X029883Y002220D01*
X029928Y002175D01*
X030018Y002175D01*
X030063Y002220D01*
X030178Y002220D02*
X030223Y002175D01*
X030313Y002175D01*
X030358Y002220D01*
X030358Y002400D02*
X030313Y002445D01*
X030223Y002445D01*
X030178Y002400D01*
X030178Y002220D01*
X030063Y002400D02*
X030018Y002445D01*
X029928Y002445D01*
X029883Y002400D01*
X029588Y002445D02*
X029588Y002265D01*
X034755Y004470D02*
X034830Y004395D01*
X034905Y004395D01*
X034980Y004470D01*
X034980Y004845D01*
X034905Y004845D02*
X035055Y004845D01*
X035215Y004845D02*
X035440Y004845D01*
X035515Y004770D01*
X035515Y004620D01*
X035440Y004545D01*
X035215Y004545D01*
X035215Y004395D02*
X035215Y004845D01*
X035675Y004770D02*
X035750Y004845D01*
X035900Y004845D01*
X035976Y004770D01*
X035976Y004695D01*
X035900Y004620D01*
X035976Y004545D01*
X035976Y004470D01*
X035900Y004395D01*
X035750Y004395D01*
X035675Y004470D01*
X035825Y004620D02*
X035900Y004620D01*
X029905Y016240D02*
X029905Y016420D01*
X029905Y016330D02*
X029634Y016330D01*
X029724Y016240D01*
X029679Y016535D02*
X029634Y016580D01*
X029634Y016670D01*
X029679Y016715D01*
X029859Y016535D01*
X029905Y016580D01*
X029905Y016670D01*
X029859Y016715D01*
X029679Y016715D01*
X029634Y016829D02*
X029905Y016829D01*
X029814Y016829D02*
X029724Y016965D01*
X029814Y016829D02*
X029905Y016965D01*
X029859Y016535D02*
X029679Y016535D01*
X028985Y016605D02*
X028894Y016515D01*
X028894Y016560D02*
X028894Y016425D01*
X028985Y016425D02*
X028714Y016425D01*
X028714Y016560D01*
X028759Y016605D01*
X028849Y016605D01*
X028894Y016560D01*
X028804Y016720D02*
X028714Y016810D01*
X028985Y016810D01*
X028985Y016720D02*
X028985Y016900D01*
X028405Y017641D02*
X028405Y017821D01*
X028405Y017731D02*
X028134Y017731D01*
X028224Y017641D01*
X028179Y017936D02*
X028134Y017981D01*
X028134Y018071D01*
X028179Y018116D01*
X028359Y017936D01*
X028405Y017981D01*
X028405Y018071D01*
X028359Y018116D01*
X028179Y018116D01*
X028179Y018230D02*
X028134Y018275D01*
X028134Y018365D01*
X028179Y018411D01*
X028359Y018230D01*
X028405Y018275D01*
X028405Y018365D01*
X028359Y018411D01*
X028179Y018411D01*
X028179Y018230D02*
X028359Y018230D01*
X028359Y017936D02*
X028179Y017936D01*
X029284Y018336D02*
X029284Y018471D01*
X029329Y018516D01*
X029419Y018516D01*
X029464Y018471D01*
X029464Y018336D01*
X029464Y018426D02*
X029555Y018516D01*
X029509Y018630D02*
X029555Y018675D01*
X029555Y018765D01*
X029509Y018811D01*
X029464Y018811D01*
X029419Y018765D01*
X029419Y018720D01*
X029419Y018765D02*
X029374Y018811D01*
X029329Y018811D01*
X029284Y018765D01*
X029284Y018675D01*
X029329Y018630D01*
X029284Y018336D02*
X029555Y018336D01*
X029909Y020675D02*
X029985Y020750D01*
X029985Y020825D01*
X029909Y020900D01*
X029534Y020900D01*
X029534Y020825D02*
X029534Y020975D01*
X029534Y021135D02*
X029534Y021361D01*
X029609Y021436D01*
X029759Y021436D01*
X029834Y021361D01*
X029834Y021135D01*
X029985Y021135D02*
X029534Y021135D01*
X029534Y021596D02*
X029759Y021596D01*
X029684Y021746D01*
X029684Y021821D01*
X029759Y021896D01*
X029909Y021896D01*
X029985Y021821D01*
X029985Y021671D01*
X029909Y021596D01*
X029534Y021596D02*
X029534Y021896D01*
X035864Y017050D02*
X035864Y016975D01*
X035939Y016900D01*
X036089Y016900D01*
X036164Y016825D01*
X036164Y016750D01*
X036089Y016675D01*
X035939Y016675D01*
X035864Y016750D01*
X035864Y017050D02*
X035939Y017125D01*
X036089Y017125D01*
X036164Y017050D01*
X036324Y016975D02*
X036474Y017125D01*
X036474Y016675D01*
X005455Y016820D02*
X005379Y016745D01*
X005304Y016745D01*
X005229Y016820D01*
X005229Y016970D01*
X005304Y017045D01*
X005379Y017045D01*
X005455Y016970D01*
X005455Y016820D01*
X005229Y016820D02*
X005154Y016745D01*
X005079Y016745D01*
X005004Y016820D01*
X005004Y016970D01*
X005079Y017045D01*
X005154Y017045D01*
X005229Y016970D01*
X005229Y016584D02*
X005304Y016509D01*
X005304Y016284D01*
X005455Y016284D02*
X005004Y016284D01*
X005004Y016509D01*
X005079Y016584D01*
X005229Y016584D01*
X005004Y016124D02*
X005004Y015974D01*
X005004Y016049D02*
X005379Y016049D01*
X005455Y015974D01*
X005455Y015899D01*
X005379Y015824D01*
X005226Y014655D02*
X005226Y014580D01*
X004925Y014280D01*
X004925Y014205D01*
X004765Y014430D02*
X004690Y014355D01*
X004465Y014355D01*
X004465Y014205D02*
X004465Y014655D01*
X004690Y014655D01*
X004765Y014580D01*
X004765Y014430D01*
X004925Y014655D02*
X005226Y014655D01*
X004305Y014655D02*
X004155Y014655D01*
X004230Y014655D02*
X004230Y014280D01*
X004155Y014205D01*
X004080Y014205D01*
X004005Y014280D01*
X004235Y020925D02*
X004235Y021375D01*
X004460Y021375D01*
X004535Y021300D01*
X004535Y021150D01*
X004460Y021075D01*
X004235Y021075D01*
X004385Y021075D02*
X004535Y020925D01*
X004695Y020925D02*
X004995Y021225D01*
X004995Y021300D01*
X004920Y021375D01*
X004770Y021375D01*
X004695Y021300D01*
X004695Y020925D02*
X004995Y020925D01*
D12*
X005060Y020400D02*
X004810Y020400D01*
X005060Y020400D02*
X005060Y017900D01*
X004810Y017900D01*
X003710Y017900D02*
X003390Y017900D01*
X003390Y020400D01*
X003710Y020400D01*
X003710Y020250D02*
X003710Y019650D01*
X003560Y019650D01*
X003510Y019700D01*
X003910Y019700D01*
X003860Y019650D01*
X003710Y019650D01*
X003710Y019500D01*
X003760Y019550D01*
X003810Y019600D01*
X003860Y019650D01*
X003810Y019600D02*
X003610Y019600D01*
X003660Y019550D01*
X003760Y019550D01*
X003710Y019500D02*
X003660Y019550D01*
X003610Y019600D02*
X003560Y019650D01*
X004010Y017150D02*
X003760Y016900D01*
X003760Y016400D01*
X004010Y016150D01*
X003760Y015900D01*
X003760Y015400D01*
X004010Y015150D01*
X004510Y015150D01*
X004760Y015400D01*
X004760Y015900D01*
X004510Y016150D01*
X004010Y016150D01*
X004510Y016150D02*
X004760Y016400D01*
X004760Y016900D01*
X004510Y017150D01*
X004010Y017150D01*
X004010Y013650D02*
X003760Y013400D01*
X003760Y012900D01*
X004010Y012650D01*
X003760Y012400D01*
X003760Y011900D01*
X004010Y011650D01*
X003760Y011400D01*
X003760Y010900D01*
X004010Y010650D01*
X004510Y010650D01*
X004760Y010900D01*
X004760Y011400D01*
X004510Y011650D01*
X004010Y011650D01*
X004510Y011650D02*
X004760Y011900D01*
X004760Y012400D01*
X004510Y012650D01*
X004010Y012650D01*
X004510Y012650D02*
X004760Y012900D01*
X004760Y013400D01*
X004510Y013650D01*
X004010Y013650D01*
X004010Y009150D02*
X003760Y008900D01*
X003760Y008400D01*
X004010Y008150D01*
X003760Y007900D01*
X003760Y007400D01*
X004010Y007150D01*
X003760Y006900D01*
X003760Y006400D01*
X004010Y006150D01*
X004510Y006150D01*
X004760Y006400D01*
X004760Y006900D01*
X004510Y007150D01*
X004010Y007150D01*
X004510Y007150D02*
X004760Y007400D01*
X004760Y007900D01*
X004510Y008150D01*
X004010Y008150D01*
X004510Y008150D02*
X004760Y008400D01*
X004760Y008900D01*
X004510Y009150D01*
X004010Y009150D01*
X003253Y008580D02*
X003026Y008580D01*
X003026Y008920D01*
X002885Y008864D02*
X002828Y008920D01*
X002715Y008920D01*
X002658Y008864D01*
X002658Y008637D01*
X002715Y008580D01*
X002828Y008580D01*
X002885Y008637D01*
X002516Y008637D02*
X002460Y008580D01*
X002346Y008580D01*
X002290Y008637D01*
X002346Y008750D02*
X002460Y008750D01*
X002516Y008693D01*
X002516Y008637D01*
X002346Y008750D02*
X002290Y008807D01*
X002290Y008864D01*
X002346Y008920D01*
X002460Y008920D01*
X002516Y008864D01*
X002460Y007720D02*
X002346Y007720D01*
X002290Y007664D01*
X002290Y007607D01*
X002346Y007550D01*
X002460Y007550D01*
X002516Y007493D01*
X002516Y007437D01*
X002460Y007380D01*
X002346Y007380D01*
X002290Y007437D01*
X002516Y007664D02*
X002460Y007720D01*
X002658Y007720D02*
X002828Y007720D01*
X002885Y007664D01*
X002885Y007437D01*
X002828Y007380D01*
X002658Y007380D01*
X002658Y007720D01*
X003026Y007607D02*
X003140Y007720D01*
X003253Y007607D01*
X003253Y007380D01*
X003253Y007550D02*
X003026Y007550D01*
X003026Y007607D02*
X003026Y007380D01*
X003026Y006520D02*
X003196Y006520D01*
X003253Y006464D01*
X003253Y006237D01*
X003196Y006180D01*
X003026Y006180D01*
X003026Y006520D01*
X002885Y006520D02*
X002885Y006180D01*
X002658Y006520D01*
X002658Y006180D01*
X002516Y006237D02*
X002460Y006180D01*
X002346Y006180D01*
X002290Y006237D01*
X002290Y006464D01*
X002346Y006520D01*
X002460Y006520D01*
X002516Y006464D01*
X002516Y006350D02*
X002403Y006350D01*
X002516Y006350D02*
X002516Y006237D01*
X005260Y003900D02*
X005510Y004150D01*
X006010Y004150D01*
X006260Y003900D01*
X006510Y004150D01*
X007010Y004150D01*
X007260Y003900D01*
X007260Y003400D01*
X007010Y003150D01*
X006510Y003150D01*
X006260Y003400D01*
X006010Y003150D01*
X005510Y003150D01*
X005260Y003400D01*
X005260Y003900D01*
X006260Y003900D02*
X006260Y003400D01*
X007260Y003400D02*
X007510Y003150D01*
X008010Y003150D01*
X008260Y003400D01*
X008510Y003150D01*
X009010Y003150D01*
X009260Y003400D01*
X009260Y003900D01*
X009010Y004150D01*
X008510Y004150D01*
X008260Y003900D01*
X008260Y003400D01*
X008260Y003900D02*
X008010Y004150D01*
X007510Y004150D01*
X007260Y003900D01*
X012760Y003900D02*
X012760Y003400D01*
X013010Y003150D01*
X013510Y003150D01*
X013760Y003400D01*
X014010Y003150D01*
X014510Y003150D01*
X014760Y003400D01*
X014760Y003900D01*
X014510Y004150D01*
X014010Y004150D01*
X013760Y003900D01*
X013760Y003400D01*
X013760Y003900D02*
X013510Y004150D01*
X013010Y004150D01*
X012760Y003900D01*
X014760Y003900D02*
X015010Y004150D01*
X015510Y004150D01*
X015760Y003900D01*
X016010Y004150D01*
X016510Y004150D01*
X016760Y003900D01*
X016760Y003400D01*
X016510Y003150D01*
X016010Y003150D01*
X015760Y003400D01*
X015510Y003150D01*
X015010Y003150D01*
X014760Y003400D01*
X015760Y003400D02*
X015760Y003900D01*
X018060Y006000D02*
X020460Y006000D01*
X020510Y006002D01*
X020559Y006008D01*
X020608Y006017D01*
X020656Y006030D01*
X020703Y006047D01*
X020748Y006067D01*
X020792Y006091D01*
X020834Y006118D01*
X020874Y006149D01*
X020911Y006182D01*
X020945Y006218D01*
X020977Y006256D01*
X021006Y006297D01*
X021031Y006339D01*
X021053Y006384D01*
X021072Y006430D01*
X021087Y006478D01*
X021098Y006526D01*
X021106Y006575D01*
X021110Y006625D01*
X021110Y006675D01*
X021106Y006725D01*
X021098Y006774D01*
X021087Y006822D01*
X021072Y006870D01*
X021053Y006916D01*
X021031Y006961D01*
X021006Y007003D01*
X020977Y007044D01*
X020945Y007082D01*
X020911Y007118D01*
X020874Y007151D01*
X020834Y007182D01*
X020792Y007209D01*
X020748Y007233D01*
X020703Y007253D01*
X020656Y007270D01*
X020608Y007283D01*
X020559Y007292D01*
X020510Y007298D01*
X020460Y007300D01*
X018060Y007300D01*
X018010Y007298D01*
X017961Y007292D01*
X017912Y007283D01*
X017864Y007270D01*
X017817Y007253D01*
X017772Y007233D01*
X017728Y007209D01*
X017686Y007182D01*
X017646Y007151D01*
X017609Y007118D01*
X017575Y007082D01*
X017543Y007044D01*
X017514Y007003D01*
X017489Y006961D01*
X017467Y006916D01*
X017448Y006870D01*
X017433Y006822D01*
X017422Y006774D01*
X017414Y006725D01*
X017410Y006675D01*
X017410Y006625D01*
X017414Y006575D01*
X017422Y006526D01*
X017433Y006478D01*
X017448Y006430D01*
X017467Y006384D01*
X017489Y006339D01*
X017514Y006297D01*
X017543Y006256D01*
X017575Y006218D01*
X017609Y006182D01*
X017646Y006149D01*
X017686Y006118D01*
X017728Y006091D01*
X017772Y006067D01*
X017817Y006047D01*
X017864Y006030D01*
X017912Y006017D01*
X017961Y006008D01*
X018010Y006002D01*
X018060Y006000D01*
X018760Y006650D02*
X019010Y006650D01*
X019010Y006950D01*
X019160Y006950D02*
X019360Y006950D01*
X019360Y006350D01*
X019160Y006350D01*
X019160Y006950D01*
X019010Y006650D02*
X019010Y006350D01*
X019510Y006350D02*
X019510Y006650D01*
X019760Y006650D01*
X019510Y006650D02*
X019510Y006950D01*
X024260Y003900D02*
X024510Y004150D01*
X025010Y004150D01*
X025260Y003900D01*
X025510Y004150D01*
X026010Y004150D01*
X026260Y003900D01*
X026260Y003400D01*
X026010Y003150D01*
X025510Y003150D01*
X025260Y003400D01*
X025010Y003150D01*
X024510Y003150D01*
X024260Y003400D01*
X024260Y003900D01*
X025260Y003900D02*
X025260Y003400D01*
X026260Y003400D02*
X026510Y003150D01*
X027010Y003150D01*
X027260Y003400D01*
X027510Y003150D01*
X028010Y003150D01*
X028260Y003400D01*
X028510Y003150D01*
X029010Y003150D01*
X029260Y003400D01*
X029510Y003150D01*
X030010Y003150D01*
X030260Y003400D01*
X030260Y003900D01*
X030010Y004150D01*
X029510Y004150D01*
X029260Y003900D01*
X029260Y003400D01*
X029260Y003900D02*
X029010Y004150D01*
X028510Y004150D01*
X028260Y003900D01*
X028260Y003400D01*
X028260Y003900D02*
X028010Y004150D01*
X027510Y004150D01*
X027260Y003900D01*
X027260Y003400D01*
X027260Y003900D02*
X027010Y004150D01*
X026510Y004150D01*
X026260Y003900D01*
X034760Y003900D02*
X034760Y003400D01*
X035010Y003150D01*
X035510Y003150D01*
X035760Y003400D01*
X036010Y003150D01*
X036510Y003150D01*
X036760Y003400D01*
X036760Y003900D01*
X036510Y004150D01*
X036010Y004150D01*
X035760Y003900D01*
X035760Y003400D01*
X035760Y003900D02*
X035510Y004150D01*
X035010Y004150D01*
X034760Y003900D01*
X034790Y002520D02*
X034790Y002293D01*
X034903Y002180D01*
X035016Y002293D01*
X035016Y002520D01*
X035158Y002464D02*
X035158Y002237D01*
X035215Y002180D01*
X035328Y002180D01*
X035385Y002237D01*
X035526Y002237D02*
X035583Y002180D01*
X035696Y002180D01*
X035753Y002237D01*
X035753Y002464D02*
X035696Y002520D01*
X035583Y002520D01*
X035526Y002464D01*
X035526Y002237D01*
X035385Y002464D02*
X035328Y002520D01*
X035215Y002520D01*
X035158Y002464D01*
X036263Y002464D02*
X036263Y002237D01*
X036319Y002180D01*
X036433Y002180D01*
X036490Y002237D01*
X036490Y002350D01*
X036376Y002350D01*
X036263Y002464D02*
X036319Y002520D01*
X036433Y002520D01*
X036490Y002464D01*
X036631Y002520D02*
X036858Y002180D01*
X036858Y002520D01*
X036999Y002520D02*
X036999Y002180D01*
X037170Y002180D01*
X037226Y002237D01*
X037226Y002464D01*
X037170Y002520D01*
X036999Y002520D01*
X036631Y002520D02*
X036631Y002180D01*
D13*
X036667Y001670D02*
X036346Y001670D01*
X036346Y001190D01*
X036667Y001190D01*
X036862Y001190D02*
X036862Y001670D01*
X037102Y001670D01*
X037182Y001590D01*
X037182Y001430D01*
X037102Y001350D01*
X036862Y001350D01*
X037022Y001350D02*
X037182Y001190D01*
X036507Y001430D02*
X036346Y001430D01*
X036151Y001190D02*
X036151Y001670D01*
X035831Y001670D02*
X035831Y001190D01*
X035991Y001350D01*
X036151Y001190D01*
X035635Y001270D02*
X035635Y001590D01*
X035555Y001670D01*
X035395Y001670D01*
X035315Y001590D01*
X035315Y001270D01*
X035395Y001190D01*
X035555Y001190D01*
X035635Y001270D01*
X035120Y001430D02*
X035040Y001350D01*
X034800Y001350D01*
X034800Y001190D02*
X034800Y001670D01*
X035040Y001670D01*
X035120Y001590D01*
X035120Y001430D01*
X028682Y001270D02*
X028602Y001190D01*
X028442Y001190D01*
X028362Y001270D01*
X028362Y001590D01*
X028442Y001670D01*
X028602Y001670D01*
X028682Y001590D01*
X028682Y001270D01*
X028682Y001190D02*
X028522Y001350D01*
X028167Y001190D02*
X027846Y001190D01*
X027846Y001670D01*
X028167Y001670D01*
X028007Y001430D02*
X027846Y001430D01*
X027651Y001430D02*
X027491Y001430D01*
X027651Y001430D02*
X027651Y001270D01*
X027571Y001190D01*
X027411Y001190D01*
X027331Y001270D01*
X027331Y001590D01*
X027411Y001670D01*
X027571Y001670D01*
X027651Y001590D01*
X027135Y001590D02*
X027055Y001670D01*
X026895Y001670D01*
X026815Y001590D01*
X026815Y001510D01*
X026895Y001430D01*
X027055Y001430D01*
X027135Y001350D01*
X027135Y001270D01*
X027055Y001190D01*
X026895Y001190D01*
X026815Y001270D01*
X026620Y001190D02*
X026620Y001670D01*
X026460Y001510D01*
X026300Y001670D01*
X026300Y001190D01*
X020760Y002150D02*
X019760Y002150D01*
X019760Y004150D01*
X020760Y004150D01*
X020760Y002150D01*
X019260Y002150D02*
X018260Y002150D01*
X018260Y004150D01*
X019260Y004150D01*
X019260Y002150D01*
X019010Y003150D02*
X018510Y003150D01*
X020010Y003150D02*
X020510Y003150D01*
X016714Y001590D02*
X016714Y001430D01*
X016634Y001350D01*
X016393Y001350D01*
X016393Y001190D02*
X016393Y001670D01*
X016634Y001670D01*
X016714Y001590D01*
X016553Y001350D02*
X016714Y001190D01*
X016198Y001190D02*
X015878Y001190D01*
X015878Y001670D01*
X016198Y001670D01*
X016038Y001430D02*
X015878Y001430D01*
X015682Y001270D02*
X015682Y001590D01*
X015602Y001670D01*
X015362Y001670D01*
X015362Y001190D01*
X015602Y001190D01*
X015682Y001270D01*
X015167Y001270D02*
X015167Y001590D01*
X015087Y001670D01*
X014927Y001670D01*
X014846Y001590D01*
X014846Y001270D01*
X014927Y001190D01*
X015087Y001190D01*
X015167Y001270D01*
X014651Y001270D02*
X014571Y001190D01*
X014411Y001190D01*
X014331Y001270D01*
X014331Y001590D01*
X014411Y001670D01*
X014571Y001670D01*
X014651Y001590D01*
X014135Y001670D02*
X014135Y001190D01*
X013815Y001670D01*
X013815Y001190D01*
X013620Y001190D02*
X013300Y001190D01*
X013300Y001670D01*
X013620Y001670D01*
X013460Y001430D02*
X013300Y001430D01*
X007475Y001190D02*
X007315Y001190D01*
X007395Y001190D02*
X007395Y001670D01*
X007315Y001670D02*
X007475Y001670D01*
X007120Y001590D02*
X007120Y001430D01*
X007040Y001350D01*
X006800Y001350D01*
X006800Y001190D02*
X006800Y001670D01*
X007040Y001670D01*
X007120Y001590D01*
X005462Y009690D02*
X005302Y009690D01*
X005221Y009770D01*
X005302Y009930D02*
X005462Y009930D01*
X005542Y009850D01*
X005542Y009770D01*
X005462Y009690D01*
X005302Y009930D02*
X005221Y010010D01*
X005221Y010090D01*
X005302Y010170D01*
X005462Y010170D01*
X005542Y010090D01*
X005026Y010170D02*
X005026Y009770D01*
X004946Y009690D01*
X004786Y009690D01*
X004706Y009770D01*
X004706Y010170D01*
X004510Y010090D02*
X004510Y010010D01*
X004430Y009930D01*
X004190Y009930D01*
X004190Y009690D02*
X004430Y009690D01*
X004510Y009770D01*
X004510Y009850D01*
X004430Y009930D01*
X004510Y010090D02*
X004430Y010170D01*
X004190Y010170D01*
X004190Y009690D01*
X003479Y009770D02*
X003399Y009690D01*
X003239Y009690D01*
X003159Y009770D01*
X003159Y010090D01*
X003239Y010170D01*
X003399Y010170D01*
X003479Y010090D01*
X002964Y010090D02*
X002883Y010170D01*
X002723Y010170D01*
X002643Y010090D01*
X002460Y010170D02*
X002300Y010170D01*
X002380Y010170D02*
X002380Y009690D01*
X002300Y009690D02*
X002460Y009690D01*
X002643Y009690D02*
X002964Y010010D01*
X002964Y010090D01*
X002964Y009690D02*
X002643Y009690D01*
X002880Y011190D02*
X002800Y011270D01*
X002880Y011190D02*
X003040Y011190D01*
X003120Y011270D01*
X003120Y011350D01*
X003040Y011430D01*
X002960Y011430D01*
X003040Y011430D02*
X003120Y011510D01*
X003120Y011590D01*
X003040Y011670D01*
X002880Y011670D01*
X002800Y011590D01*
X002800Y012030D02*
X003120Y012350D01*
X003120Y012430D01*
X003040Y012510D01*
X002880Y012510D01*
X002800Y012430D01*
X002800Y012870D02*
X003120Y012870D01*
X002960Y012870D02*
X002960Y013350D01*
X002800Y013190D01*
X002800Y014190D02*
X002800Y014670D01*
X003040Y014670D01*
X003120Y014590D01*
X003120Y014430D01*
X003040Y014350D01*
X002800Y014350D01*
X002960Y014350D02*
X003120Y014190D01*
X003315Y014110D02*
X003635Y014110D01*
X003831Y014350D02*
X003991Y014190D01*
X004151Y014350D01*
X004151Y014670D01*
X004346Y014590D02*
X004427Y014670D01*
X004587Y014670D01*
X004667Y014590D01*
X004667Y014270D01*
X004587Y014190D01*
X004427Y014190D01*
X004346Y014270D01*
X004346Y014590D01*
X003831Y014670D02*
X003831Y014350D01*
X004862Y014190D02*
X004862Y014670D01*
X004862Y014190D02*
X005182Y014190D01*
X003120Y012030D02*
X002800Y012030D01*
X009760Y012150D02*
X009760Y012850D01*
X009860Y012850D01*
X009760Y012150D02*
X009804Y012148D01*
X009847Y012142D01*
X009889Y012133D01*
X009931Y012120D01*
X009971Y012103D01*
X010010Y012083D01*
X010047Y012060D01*
X010081Y012033D01*
X010114Y012004D01*
X010143Y011971D01*
X010170Y011937D01*
X010193Y011900D01*
X010213Y011861D01*
X010230Y011821D01*
X010243Y011779D01*
X010252Y011737D01*
X010258Y011694D01*
X010260Y011650D01*
X010258Y011606D01*
X010252Y011563D01*
X010243Y011521D01*
X010230Y011479D01*
X010213Y011439D01*
X010193Y011400D01*
X010170Y011363D01*
X010143Y011329D01*
X010114Y011296D01*
X010081Y011267D01*
X010047Y011240D01*
X010010Y011217D01*
X009971Y011197D01*
X009931Y011180D01*
X009889Y011167D01*
X009847Y011158D01*
X009804Y011152D01*
X009760Y011150D01*
X009760Y010450D01*
X009860Y010450D01*
X015760Y015650D02*
X015760Y016650D01*
X017760Y016650D01*
X017760Y015650D01*
X015760Y015650D01*
X016760Y015900D02*
X016760Y016400D01*
X023660Y012850D02*
X023760Y012850D01*
X023760Y010450D01*
X023660Y010450D01*
X027610Y015378D02*
X027610Y018922D01*
X028909Y018922D01*
X028909Y015378D01*
X027610Y015378D01*
X029287Y015410D02*
X029287Y017890D01*
X030232Y017890D01*
X030232Y015410D01*
X029287Y015410D01*
X034800Y019190D02*
X034960Y019190D01*
X034880Y019190D02*
X034880Y019670D01*
X034800Y019670D02*
X034960Y019670D01*
X035143Y019590D02*
X035143Y019510D01*
X035223Y019430D01*
X035383Y019430D01*
X035464Y019350D01*
X035464Y019270D01*
X035383Y019190D01*
X035223Y019190D01*
X035143Y019270D01*
X035143Y019590D02*
X035223Y019670D01*
X035383Y019670D01*
X035464Y019590D01*
X035659Y019670D02*
X035659Y019190D01*
X035659Y019350D02*
X035899Y019350D01*
X035979Y019430D01*
X035979Y019590D01*
X035899Y019670D01*
X035659Y019670D01*
X035126Y019878D02*
X035126Y020469D01*
X033393Y020469D01*
X033393Y019878D01*
X030283Y019878D01*
X030283Y023382D01*
X030283Y023422D02*
X038236Y023422D01*
X038236Y019878D01*
X035126Y019878D01*
X033393Y019878D01*
X032510Y020557D02*
X032010Y020557D01*
X036690Y019670D02*
X036690Y019190D01*
X036690Y019430D02*
X037010Y019430D01*
X037010Y019670D02*
X037010Y019190D01*
X037206Y019190D02*
X037446Y019190D01*
X037526Y019270D01*
X037526Y019590D01*
X037446Y019670D01*
X037206Y019670D01*
X037206Y019190D01*
X037721Y019190D02*
X037721Y019670D01*
X037962Y019670D01*
X038042Y019590D01*
X038042Y019430D01*
X037962Y019350D01*
X037721Y019350D01*
X037882Y019350D02*
X038042Y019190D01*
X037867Y016850D02*
X038660Y016850D01*
X039460Y016500D02*
X039460Y014800D01*
X038660Y014450D02*
X037855Y014450D01*
X037060Y014800D02*
X037060Y016500D01*
X037560Y015650D02*
X037562Y015702D01*
X037568Y015754D01*
X037578Y015806D01*
X037591Y015856D01*
X037608Y015906D01*
X037629Y015954D01*
X037654Y016000D01*
X037682Y016044D01*
X037713Y016086D01*
X037747Y016126D01*
X037784Y016163D01*
X037824Y016197D01*
X037866Y016228D01*
X037910Y016256D01*
X037956Y016281D01*
X038004Y016302D01*
X038054Y016319D01*
X038104Y016332D01*
X038156Y016342D01*
X038208Y016348D01*
X038260Y016350D01*
X038312Y016348D01*
X038364Y016342D01*
X038416Y016332D01*
X038466Y016319D01*
X038516Y016302D01*
X038564Y016281D01*
X038610Y016256D01*
X038654Y016228D01*
X038696Y016197D01*
X038736Y016163D01*
X038773Y016126D01*
X038807Y016086D01*
X038838Y016044D01*
X038866Y016000D01*
X038891Y015954D01*
X038912Y015906D01*
X038929Y015856D01*
X038942Y015806D01*
X038952Y015754D01*
X038958Y015702D01*
X038960Y015650D01*
X038958Y015598D01*
X038952Y015546D01*
X038942Y015494D01*
X038929Y015444D01*
X038912Y015394D01*
X038891Y015346D01*
X038866Y015300D01*
X038838Y015256D01*
X038807Y015214D01*
X038773Y015174D01*
X038736Y015137D01*
X038696Y015103D01*
X038654Y015072D01*
X038610Y015044D01*
X038564Y015019D01*
X038516Y014998D01*
X038466Y014981D01*
X038416Y014968D01*
X038364Y014958D01*
X038312Y014952D01*
X038260Y014950D01*
X038208Y014952D01*
X038156Y014958D01*
X038104Y014968D01*
X038054Y014981D01*
X038004Y014998D01*
X037956Y015019D01*
X037910Y015044D01*
X037866Y015072D01*
X037824Y015103D01*
X037784Y015137D01*
X037747Y015174D01*
X037713Y015214D01*
X037682Y015256D01*
X037654Y015300D01*
X037629Y015346D01*
X037608Y015394D01*
X037591Y015444D01*
X037578Y015494D01*
X037568Y015546D01*
X037562Y015598D01*
X037560Y015650D01*
X037540Y013670D02*
X037300Y013670D01*
X037300Y013190D01*
X037300Y013350D02*
X037540Y013350D01*
X037620Y013430D01*
X037620Y013590D01*
X037540Y013670D01*
X037815Y013670D02*
X037815Y013190D01*
X038135Y013190D01*
X038331Y013270D02*
X038411Y013190D01*
X038571Y013190D01*
X038651Y013270D01*
X038651Y013350D01*
X038571Y013430D01*
X038411Y013430D01*
X038331Y013510D01*
X038331Y013590D01*
X038411Y013670D01*
X038571Y013670D01*
X038651Y013590D01*
X038846Y013670D02*
X038846Y013190D01*
X039167Y013190D01*
X039007Y013430D02*
X038846Y013430D01*
X038846Y013670D02*
X039167Y013670D01*
X039362Y013670D02*
X039682Y013670D01*
X039522Y013670D02*
X039522Y013190D01*
X038135Y013670D02*
X037815Y013670D01*
X037815Y013430D02*
X037975Y013430D01*
X037620Y013190D02*
X037460Y013350D01*
X006214Y017190D02*
X005893Y017190D01*
X006053Y017190D02*
X006053Y017670D01*
X005893Y017510D01*
X005698Y017430D02*
X005538Y017430D01*
X005698Y017430D02*
X005698Y017270D01*
X005618Y017190D01*
X005458Y017190D01*
X005378Y017270D01*
X005378Y017590D01*
X005458Y017670D01*
X005618Y017670D01*
X005698Y017590D01*
X005182Y017590D02*
X005182Y017270D01*
X005102Y017190D01*
X004942Y017190D01*
X004862Y017270D01*
X004862Y017590D01*
X004942Y017670D01*
X005102Y017670D01*
X005182Y017590D01*
X004667Y017190D02*
X004346Y017190D01*
X004346Y017670D01*
X004151Y017510D02*
X004151Y017190D01*
X004151Y017430D02*
X003831Y017430D01*
X003831Y017510D02*
X003831Y017190D01*
X003635Y017190D02*
X003635Y017670D01*
X003831Y017510D02*
X003991Y017670D01*
X004151Y017510D01*
X003635Y017190D02*
X003315Y017670D01*
X003315Y017190D01*
X003120Y017190D02*
X003120Y017510D01*
X002960Y017670D01*
X002800Y017510D01*
X002800Y017190D01*
X002800Y017430D02*
X003120Y017430D01*
D14*
X000880Y013404D02*
X000781Y013404D01*
X000683Y013306D01*
X000683Y013011D01*
X000880Y013011D01*
X000978Y013109D01*
X000978Y013306D01*
X000880Y013404D01*
X000683Y013011D02*
X000486Y013208D01*
X000388Y013404D01*
X000486Y012760D02*
X000388Y012661D01*
X000388Y012465D01*
X000486Y012366D01*
X000585Y012366D01*
X000683Y012465D01*
X000683Y012760D01*
X000880Y012760D02*
X000486Y012760D01*
X000880Y012760D02*
X000978Y012661D01*
X000978Y012465D01*
X000880Y012366D01*
X000880Y012142D02*
X000978Y012142D01*
X000978Y012044D01*
X000880Y012044D01*
X000880Y012142D01*
X000880Y011793D02*
X000978Y011695D01*
X000978Y011498D01*
X000880Y011399D01*
X000486Y011793D01*
X000880Y011793D01*
X000880Y011399D02*
X000486Y011399D01*
X000388Y011498D01*
X000388Y011695D01*
X000486Y011793D01*
X000388Y011148D02*
X000486Y010952D01*
X000683Y010755D01*
X000683Y011050D01*
X000781Y011148D01*
X000880Y011148D01*
X000978Y011050D01*
X000978Y010853D01*
X000880Y010755D01*
X000683Y010755D01*
X019315Y008796D02*
X019315Y008205D01*
X019315Y008402D02*
X019610Y008402D01*
X019708Y008500D01*
X019708Y008697D01*
X019610Y008796D01*
X019315Y008796D01*
X019959Y008599D02*
X019959Y008303D01*
X020057Y008205D01*
X020353Y008205D01*
X020353Y008107D02*
X020254Y008008D01*
X020156Y008008D01*
X020353Y008107D02*
X020353Y008599D01*
X020604Y008796D02*
X020604Y008205D01*
X020604Y008402D02*
X020899Y008402D01*
X020997Y008500D01*
X020997Y008697D01*
X020899Y008796D01*
X020604Y008796D01*
X020800Y008402D02*
X020997Y008205D01*
X021248Y008303D02*
X021347Y008402D01*
X021642Y008402D01*
X021642Y008500D02*
X021642Y008205D01*
X021347Y008205D01*
X021248Y008303D01*
X021347Y008599D02*
X021543Y008599D01*
X021642Y008500D01*
X021893Y008500D02*
X021893Y008303D01*
X021991Y008205D01*
X022286Y008205D01*
X022286Y008796D01*
X022286Y008599D02*
X021991Y008599D01*
X021893Y008500D01*
X022537Y008599D02*
X022636Y008599D01*
X022636Y008205D01*
X022734Y008205D02*
X022537Y008205D01*
X022967Y008303D02*
X022967Y008500D01*
X023065Y008599D01*
X023262Y008599D01*
X023361Y008500D01*
X023361Y008303D01*
X023262Y008205D01*
X023065Y008205D01*
X022967Y008303D01*
X022636Y008796D02*
X022636Y008894D01*
X024256Y008796D02*
X024453Y008796D01*
X024354Y008796D02*
X024354Y008205D01*
X024256Y008205D02*
X024453Y008205D01*
X024686Y008205D02*
X024686Y008599D01*
X024981Y008599D01*
X025079Y008500D01*
X025079Y008205D01*
X025429Y008303D02*
X025429Y008697D01*
X025527Y008599D02*
X025330Y008599D01*
X025429Y008303D02*
X025527Y008205D01*
X025760Y008303D02*
X025760Y008500D01*
X025858Y008599D01*
X026055Y008599D01*
X026154Y008500D01*
X026154Y008402D01*
X025760Y008402D01*
X025760Y008303D02*
X025858Y008205D01*
X026055Y008205D01*
X026405Y008205D02*
X026405Y008599D01*
X026601Y008599D02*
X026700Y008599D01*
X026601Y008599D02*
X026405Y008402D01*
X026942Y008500D02*
X027139Y008500D01*
X027040Y008697D02*
X027040Y008205D01*
X027371Y008303D02*
X027470Y008402D01*
X027765Y008402D01*
X027765Y008500D02*
X027765Y008205D01*
X027470Y008205D01*
X027371Y008303D01*
X027470Y008599D02*
X027667Y008599D01*
X027765Y008500D01*
X028016Y008500D02*
X028016Y008303D01*
X028114Y008205D01*
X028410Y008205D01*
X028660Y008303D02*
X028660Y008500D01*
X028759Y008599D01*
X028956Y008599D01*
X029054Y008500D01*
X029054Y008402D01*
X028660Y008402D01*
X028660Y008303D02*
X028759Y008205D01*
X028956Y008205D01*
X028410Y008599D02*
X028114Y008599D01*
X028016Y008500D01*
X027139Y008796D02*
X027040Y008697D01*
X029950Y008796D02*
X029950Y008205D01*
X030245Y008205D01*
X030343Y008303D01*
X030343Y008402D01*
X030245Y008500D01*
X029950Y008500D01*
X030245Y008500D02*
X030343Y008599D01*
X030343Y008697D01*
X030245Y008796D01*
X029950Y008796D01*
X030594Y008500D02*
X030594Y008303D01*
X030693Y008205D01*
X030889Y008205D01*
X030988Y008303D01*
X030988Y008500D01*
X030889Y008599D01*
X030693Y008599D01*
X030594Y008500D01*
X031239Y008303D02*
X031337Y008402D01*
X031632Y008402D01*
X031632Y008500D02*
X031632Y008205D01*
X031337Y008205D01*
X031239Y008303D01*
X031337Y008599D02*
X031534Y008599D01*
X031632Y008500D01*
X031883Y008402D02*
X032080Y008599D01*
X032178Y008599D01*
X032420Y008500D02*
X032519Y008599D01*
X032814Y008599D01*
X032814Y008796D02*
X032814Y008205D01*
X032519Y008205D01*
X032420Y008303D01*
X032420Y008500D01*
X031883Y008599D02*
X031883Y008205D01*
X033709Y008599D02*
X033906Y008205D01*
X034103Y008599D01*
X034354Y008599D02*
X034551Y008796D01*
X034551Y008205D01*
X034354Y008205D02*
X034748Y008205D01*
X034999Y008205D02*
X035097Y008205D01*
X035097Y008303D01*
X034999Y008303D01*
X034999Y008205D01*
X035321Y008303D02*
X035321Y008697D01*
X035419Y008796D01*
X035616Y008796D01*
X035715Y008697D01*
X035321Y008303D01*
X035419Y008205D01*
X035616Y008205D01*
X035715Y008303D01*
X035715Y008697D01*
X022915Y025431D02*
X023014Y025530D01*
X023014Y025628D01*
X022915Y025726D01*
X022620Y025726D01*
X022620Y025530D01*
X022719Y025431D01*
X022915Y025431D01*
X022620Y025726D02*
X022817Y025923D01*
X023014Y026022D01*
X022396Y025530D02*
X022396Y025431D01*
X022298Y025431D01*
X022298Y025530D01*
X022396Y025530D01*
X022047Y025431D02*
X021653Y025431D01*
X021850Y025431D02*
X021850Y026022D01*
X021653Y025825D01*
X021402Y025923D02*
X021009Y025530D01*
X021107Y025431D01*
X021304Y025431D01*
X021402Y025530D01*
X021402Y025923D01*
X021304Y026022D01*
X021107Y026022D01*
X021009Y025923D01*
X021009Y025530D01*
X020758Y025431D02*
X020364Y025431D01*
X020561Y025431D02*
X020561Y026022D01*
X020364Y025825D01*
D15*
X001760Y000150D02*
X000492Y000150D01*
X001260Y000150D02*
X001362Y001174D01*
X001385Y001174D02*
X001260Y000150D01*
X001157Y001174D01*
X001134Y001174D02*
X001385Y001174D01*
X001311Y001174D02*
X001260Y000150D01*
X001208Y001174D01*
X001134Y001174D02*
X001260Y000150D01*
X001260Y024150D01*
X001362Y023126D01*
X001385Y023126D02*
X001260Y024150D01*
X001157Y023126D01*
X001134Y023126D02*
X001385Y023126D01*
X001311Y023126D02*
X001260Y024150D01*
X001208Y023126D01*
X001134Y023126D02*
X001260Y024150D01*
X001760Y024150D02*
X000492Y024150D01*
X001760Y024150D02*
X001760Y025918D01*
X001760Y025150D02*
X002783Y025048D01*
X002783Y025024D02*
X001760Y025150D01*
X002783Y025252D01*
X002783Y025276D02*
X002783Y025024D01*
X002783Y025099D02*
X001760Y025150D01*
X002783Y025201D01*
X002783Y025276D02*
X001760Y025150D01*
X041760Y025150D01*
X040736Y025048D01*
X040736Y025024D02*
X041760Y025150D01*
X040736Y025252D01*
X040736Y025276D02*
X040736Y025024D01*
X040736Y025099D02*
X041760Y025150D01*
X040736Y025201D01*
X040736Y025276D02*
X041760Y025150D01*
X041760Y025918D02*
X041760Y024150D01*
D16*
X017137Y017093D02*
X017137Y017057D01*
X017101Y017020D01*
X017137Y016983D01*
X017137Y016947D01*
X017101Y016910D01*
X017027Y016910D01*
X016991Y016947D01*
X016916Y016947D02*
X016880Y016910D01*
X016806Y016910D01*
X016770Y016947D01*
X016770Y017093D01*
X016806Y017130D01*
X016880Y017130D01*
X016916Y017093D01*
X016991Y017093D02*
X017027Y017130D01*
X017101Y017130D01*
X017137Y017093D01*
X017101Y017020D02*
X017064Y017020D01*
X011064Y011880D02*
X011064Y011660D01*
X010991Y011660D02*
X011137Y011660D01*
X010991Y011807D02*
X011064Y011880D01*
X010916Y011880D02*
X010916Y011697D01*
X010880Y011660D01*
X010806Y011660D01*
X010770Y011697D01*
X010770Y011880D01*
X017816Y003528D02*
X017779Y003491D01*
X017779Y003418D01*
X017816Y003381D01*
X017816Y003307D02*
X017779Y003270D01*
X017779Y003197D01*
X017816Y003160D01*
X017963Y003160D01*
X018000Y003197D01*
X018000Y003270D01*
X017963Y003307D01*
X018000Y003381D02*
X017853Y003528D01*
X017816Y003528D01*
X018000Y003528D02*
X018000Y003381D01*
X021019Y003012D02*
X021240Y003012D01*
X021240Y002939D02*
X021240Y003086D01*
X021093Y002939D02*
X021019Y003012D01*
X021056Y002865D02*
X021019Y002828D01*
X021019Y002755D01*
X021056Y002718D01*
X021203Y002718D01*
X021240Y002755D01*
X021240Y002828D01*
X021203Y002865D01*
D17*
X020460Y005800D02*
X018060Y005800D01*
X018003Y005802D01*
X017947Y005808D01*
X017891Y005817D01*
X017835Y005830D01*
X017781Y005847D01*
X017728Y005867D01*
X017677Y005891D01*
X017627Y005919D01*
X017579Y005949D01*
X017533Y005983D01*
X017490Y006020D01*
X017449Y006059D01*
X017411Y006101D01*
X017376Y006146D01*
X017344Y006193D01*
X017315Y006242D01*
X017289Y006292D01*
X017267Y006345D01*
X017248Y006398D01*
X017233Y006453D01*
X017222Y006509D01*
X017214Y006565D01*
X017210Y006622D01*
X017210Y006678D01*
X017214Y006735D01*
X017222Y006791D01*
X017233Y006847D01*
X017248Y006902D01*
X017267Y006955D01*
X017289Y007008D01*
X017315Y007058D01*
X017344Y007107D01*
X017376Y007154D01*
X017411Y007199D01*
X017449Y007241D01*
X017490Y007280D01*
X017533Y007317D01*
X017579Y007351D01*
X017627Y007381D01*
X017677Y007409D01*
X017728Y007433D01*
X017781Y007453D01*
X017835Y007470D01*
X017891Y007483D01*
X017947Y007492D01*
X018003Y007498D01*
X018060Y007500D01*
X020460Y007500D01*
X020517Y007498D01*
X020573Y007492D01*
X020629Y007483D01*
X020685Y007470D01*
X020739Y007453D01*
X020792Y007433D01*
X020843Y007409D01*
X020893Y007381D01*
X020941Y007351D01*
X020987Y007317D01*
X021030Y007280D01*
X021071Y007241D01*
X021109Y007199D01*
X021144Y007154D01*
X021176Y007107D01*
X021205Y007058D01*
X021231Y007008D01*
X021253Y006955D01*
X021272Y006902D01*
X021287Y006847D01*
X021298Y006791D01*
X021306Y006735D01*
X021310Y006678D01*
X021310Y006622D01*
X021306Y006565D01*
X021298Y006509D01*
X021287Y006453D01*
X021272Y006398D01*
X021253Y006345D01*
X021231Y006292D01*
X021205Y006242D01*
X021176Y006193D01*
X021144Y006146D01*
X021109Y006101D01*
X021071Y006059D01*
X021030Y006020D01*
X020987Y005983D01*
X020941Y005949D01*
X020893Y005919D01*
X020843Y005891D01*
X020792Y005867D01*
X020739Y005847D01*
X020685Y005830D01*
X020629Y005817D01*
X020573Y005808D01*
X020517Y005802D01*
X020460Y005800D01*
D18*
X025795Y022185D02*
X026215Y022185D01*
X026439Y022290D02*
X026544Y022185D01*
X026754Y022185D01*
X026859Y022290D01*
X027084Y022185D02*
X027399Y022185D01*
X027504Y022290D01*
X027504Y022710D01*
X027399Y022816D01*
X027084Y022816D01*
X027084Y022185D01*
X026439Y022290D02*
X026439Y022710D01*
X026544Y022816D01*
X026754Y022816D01*
X026859Y022710D01*
X027728Y022605D02*
X027938Y022816D01*
X027938Y022185D01*
X027728Y022185D02*
X028149Y022185D01*
X025795Y022185D02*
X025795Y022816D01*
D19*
X039575Y022977D02*
X039577Y023021D01*
X039583Y023065D01*
X039593Y023108D01*
X039606Y023150D01*
X039624Y023190D01*
X039645Y023229D01*
X039669Y023266D01*
X039696Y023301D01*
X039727Y023333D01*
X039760Y023362D01*
X039796Y023388D01*
X039834Y023410D01*
X039874Y023429D01*
X039915Y023445D01*
X039958Y023457D01*
X040001Y023465D01*
X040045Y023469D01*
X040089Y023469D01*
X040133Y023465D01*
X040176Y023457D01*
X040219Y023445D01*
X040260Y023429D01*
X040300Y023410D01*
X040338Y023388D01*
X040374Y023362D01*
X040407Y023333D01*
X040438Y023301D01*
X040465Y023266D01*
X040489Y023229D01*
X040510Y023190D01*
X040528Y023150D01*
X040541Y023108D01*
X040551Y023065D01*
X040557Y023021D01*
X040559Y022977D01*
X040557Y022933D01*
X040551Y022889D01*
X040541Y022846D01*
X040528Y022804D01*
X040510Y022764D01*
X040489Y022725D01*
X040465Y022688D01*
X040438Y022653D01*
X040407Y022621D01*
X040374Y022592D01*
X040338Y022566D01*
X040300Y022544D01*
X040260Y022525D01*
X040219Y022509D01*
X040176Y022497D01*
X040133Y022489D01*
X040089Y022485D01*
X040045Y022485D01*
X040001Y022489D01*
X039958Y022497D01*
X039915Y022509D01*
X039874Y022525D01*
X039834Y022544D01*
X039796Y022566D01*
X039760Y022592D01*
X039727Y022621D01*
X039696Y022653D01*
X039669Y022688D01*
X039645Y022725D01*
X039624Y022764D01*
X039606Y022804D01*
X039593Y022846D01*
X039583Y022889D01*
X039577Y022933D01*
X039575Y022977D01*
X039575Y001323D02*
X039577Y001367D01*
X039583Y001411D01*
X039593Y001454D01*
X039606Y001496D01*
X039624Y001536D01*
X039645Y001575D01*
X039669Y001612D01*
X039696Y001647D01*
X039727Y001679D01*
X039760Y001708D01*
X039796Y001734D01*
X039834Y001756D01*
X039874Y001775D01*
X039915Y001791D01*
X039958Y001803D01*
X040001Y001811D01*
X040045Y001815D01*
X040089Y001815D01*
X040133Y001811D01*
X040176Y001803D01*
X040219Y001791D01*
X040260Y001775D01*
X040300Y001756D01*
X040338Y001734D01*
X040374Y001708D01*
X040407Y001679D01*
X040438Y001647D01*
X040465Y001612D01*
X040489Y001575D01*
X040510Y001536D01*
X040528Y001496D01*
X040541Y001454D01*
X040551Y001411D01*
X040557Y001367D01*
X040559Y001323D01*
X040557Y001279D01*
X040551Y001235D01*
X040541Y001192D01*
X040528Y001150D01*
X040510Y001110D01*
X040489Y001071D01*
X040465Y001034D01*
X040438Y000999D01*
X040407Y000967D01*
X040374Y000938D01*
X040338Y000912D01*
X040300Y000890D01*
X040260Y000871D01*
X040219Y000855D01*
X040176Y000843D01*
X040133Y000835D01*
X040089Y000831D01*
X040045Y000831D01*
X040001Y000835D01*
X039958Y000843D01*
X039915Y000855D01*
X039874Y000871D01*
X039834Y000890D01*
X039796Y000912D01*
X039760Y000938D01*
X039727Y000967D01*
X039696Y000999D01*
X039669Y001034D01*
X039645Y001071D01*
X039624Y001110D01*
X039606Y001150D01*
X039593Y001192D01*
X039583Y001235D01*
X039577Y001279D01*
X039575Y001323D01*
X002960Y001323D02*
X002962Y001367D01*
X002968Y001411D01*
X002978Y001454D01*
X002991Y001496D01*
X003009Y001536D01*
X003030Y001575D01*
X003054Y001612D01*
X003081Y001647D01*
X003112Y001679D01*
X003145Y001708D01*
X003181Y001734D01*
X003219Y001756D01*
X003259Y001775D01*
X003300Y001791D01*
X003343Y001803D01*
X003386Y001811D01*
X003430Y001815D01*
X003474Y001815D01*
X003518Y001811D01*
X003561Y001803D01*
X003604Y001791D01*
X003645Y001775D01*
X003685Y001756D01*
X003723Y001734D01*
X003759Y001708D01*
X003792Y001679D01*
X003823Y001647D01*
X003850Y001612D01*
X003874Y001575D01*
X003895Y001536D01*
X003913Y001496D01*
X003926Y001454D01*
X003936Y001411D01*
X003942Y001367D01*
X003944Y001323D01*
X003942Y001279D01*
X003936Y001235D01*
X003926Y001192D01*
X003913Y001150D01*
X003895Y001110D01*
X003874Y001071D01*
X003850Y001034D01*
X003823Y000999D01*
X003792Y000967D01*
X003759Y000938D01*
X003723Y000912D01*
X003685Y000890D01*
X003645Y000871D01*
X003604Y000855D01*
X003561Y000843D01*
X003518Y000835D01*
X003474Y000831D01*
X003430Y000831D01*
X003386Y000835D01*
X003343Y000843D01*
X003300Y000855D01*
X003259Y000871D01*
X003219Y000890D01*
X003181Y000912D01*
X003145Y000938D01*
X003112Y000967D01*
X003081Y000999D01*
X003054Y001034D01*
X003030Y001071D01*
X003009Y001110D01*
X002991Y001150D01*
X002978Y001192D01*
X002968Y001235D01*
X002962Y001279D01*
X002960Y001323D01*
X002960Y022977D02*
X002962Y023021D01*
X002968Y023065D01*
X002978Y023108D01*
X002991Y023150D01*
X003009Y023190D01*
X003030Y023229D01*
X003054Y023266D01*
X003081Y023301D01*
X003112Y023333D01*
X003145Y023362D01*
X003181Y023388D01*
X003219Y023410D01*
X003259Y023429D01*
X003300Y023445D01*
X003343Y023457D01*
X003386Y023465D01*
X003430Y023469D01*
X003474Y023469D01*
X003518Y023465D01*
X003561Y023457D01*
X003604Y023445D01*
X003645Y023429D01*
X003685Y023410D01*
X003723Y023388D01*
X003759Y023362D01*
X003792Y023333D01*
X003823Y023301D01*
X003850Y023266D01*
X003874Y023229D01*
X003895Y023190D01*
X003913Y023150D01*
X003926Y023108D01*
X003936Y023065D01*
X003942Y023021D01*
X003944Y022977D01*
X003942Y022933D01*
X003936Y022889D01*
X003926Y022846D01*
X003913Y022804D01*
X003895Y022764D01*
X003874Y022725D01*
X003850Y022688D01*
X003823Y022653D01*
X003792Y022621D01*
X003759Y022592D01*
X003723Y022566D01*
X003685Y022544D01*
X003645Y022525D01*
X003604Y022509D01*
X003561Y022497D01*
X003518Y022489D01*
X003474Y022485D01*
X003430Y022485D01*
X003386Y022489D01*
X003343Y022497D01*
X003300Y022509D01*
X003259Y022525D01*
X003219Y022544D01*
X003181Y022566D01*
X003145Y022592D01*
X003112Y022621D01*
X003081Y022653D01*
X003054Y022688D01*
X003030Y022725D01*
X003009Y022764D01*
X002991Y022804D01*
X002978Y022846D01*
X002968Y022889D01*
X002962Y022933D01*
X002960Y022977D01*
M02*
