G75*
G70*
%OFA0B0*%
%FSLAX24Y24*%
%IPPOS*%
%LPD*%
%AMOC8*
5,1,8,0,0,1.08239X$1,22.5*
%
%ADD10C,0.0520*%
%ADD11C,0.0660*%
%ADD12C,0.0650*%
%ADD13OC8,0.0740*%
%ADD14C,0.0600*%
%ADD15C,0.0740*%
%ADD16C,0.0120*%
%ADD17C,0.0700*%
%ADD18C,0.0160*%
D10*
X010260Y009890D02*
X010260Y010410D01*
X011260Y010410D02*
X011260Y009890D01*
X012260Y009890D02*
X012260Y010410D01*
X013260Y010410D02*
X013260Y009890D01*
X014260Y009890D02*
X014260Y010410D01*
X015260Y010410D02*
X015260Y009890D01*
X016260Y009890D02*
X016260Y010410D01*
X017260Y010410D02*
X017260Y009890D01*
X018260Y009890D02*
X018260Y010410D01*
X019260Y010410D02*
X019260Y009890D01*
X020260Y009890D02*
X020260Y010410D01*
X021260Y010410D02*
X021260Y009890D01*
X022260Y009890D02*
X022260Y010410D01*
X023260Y010410D02*
X023260Y009890D01*
X023260Y012890D02*
X023260Y013410D01*
X022260Y013410D02*
X022260Y012890D01*
X021260Y012890D02*
X021260Y013410D01*
X020260Y013410D02*
X020260Y012890D01*
X019260Y012890D02*
X019260Y013410D01*
X018260Y013410D02*
X018260Y012890D01*
X017260Y012890D02*
X017260Y013410D01*
X016260Y013410D02*
X016260Y012890D01*
X015260Y012890D02*
X015260Y013410D01*
X014260Y013410D02*
X014260Y012890D01*
X013260Y012890D02*
X013260Y013410D01*
X012260Y013410D02*
X012260Y012890D01*
X011260Y012890D02*
X011260Y013410D01*
X010260Y013410D02*
X010260Y012890D01*
X004520Y018150D02*
X004000Y018150D01*
X004000Y019150D02*
X004520Y019150D01*
X004520Y020150D02*
X004000Y020150D01*
X006405Y022717D02*
X006405Y023237D01*
X007405Y023237D02*
X007405Y022717D01*
X008405Y022717D02*
X008405Y023237D01*
X009405Y023237D02*
X009405Y022717D01*
X010405Y022717D02*
X010405Y023237D01*
X011405Y023237D02*
X011405Y022717D01*
X012405Y022717D02*
X012405Y023237D01*
X013405Y023237D02*
X013405Y022717D01*
X014405Y022717D02*
X014405Y023237D01*
X015405Y023237D02*
X015405Y022717D01*
X016405Y022717D02*
X016405Y023237D01*
X017405Y023237D02*
X017405Y022717D01*
X018405Y022717D02*
X018405Y023237D01*
X019405Y023237D02*
X019405Y022717D01*
X020405Y022717D02*
X020405Y023237D01*
X021405Y023237D02*
X021405Y022717D01*
D11*
X024760Y019650D03*
X017760Y019650D03*
X028260Y013150D03*
X024760Y012650D03*
X024760Y010150D03*
X028260Y010150D03*
X020210Y006650D03*
X018310Y006650D03*
D12*
X018760Y003650D03*
X018760Y002650D03*
X020260Y002650D03*
X020260Y003650D03*
X017260Y016150D03*
X016260Y016150D03*
D13*
X032260Y021150D03*
X033260Y021150D03*
X034260Y021150D03*
X035260Y021150D03*
X036260Y021150D03*
X036260Y022150D03*
X035260Y022150D03*
X034260Y022150D03*
X033260Y022150D03*
X032260Y022150D03*
D14*
X005760Y003950D02*
X005760Y003350D01*
X006760Y003350D02*
X006760Y003950D01*
X007760Y003950D02*
X007760Y003350D01*
X008760Y003350D02*
X008760Y003950D01*
X004560Y006650D02*
X003960Y006650D01*
X003960Y007650D02*
X004560Y007650D01*
X004560Y008650D02*
X003960Y008650D01*
X003960Y011150D02*
X004560Y011150D01*
X004560Y012150D02*
X003960Y012150D01*
X003960Y013150D02*
X004560Y013150D01*
X004560Y015650D02*
X003960Y015650D01*
X003960Y016650D02*
X004560Y016650D01*
X013260Y003950D02*
X013260Y003350D01*
X014260Y003350D02*
X014260Y003950D01*
X015260Y003950D02*
X015260Y003350D01*
X016260Y003350D02*
X016260Y003950D01*
X024760Y003950D02*
X024760Y003350D01*
X025760Y003350D02*
X025760Y003950D01*
X026760Y003950D02*
X026760Y003350D01*
X027760Y003350D02*
X027760Y003950D01*
X028760Y003950D02*
X028760Y003350D01*
X029760Y003350D02*
X029760Y003950D01*
X035260Y003950D02*
X035260Y003350D01*
X036260Y003350D02*
X036260Y003950D01*
D15*
X037370Y014370D03*
X039150Y014370D03*
X039150Y016930D03*
X037370Y016930D03*
X029760Y018650D03*
X028260Y019650D03*
X028260Y014650D03*
X029760Y014650D03*
D16*
X028260Y013150D02*
X028260Y010150D01*
X026760Y012650D02*
X026760Y006150D01*
X025760Y006150D02*
X025760Y012650D01*
X024760Y012650D02*
X024760Y010150D01*
X018260Y011650D02*
X015260Y011650D01*
X019260Y015150D02*
X019760Y014650D01*
X025760Y014650D01*
X026760Y015650D02*
X020260Y015650D01*
X019260Y015150D02*
X013260Y015150D01*
X014260Y016650D02*
X014260Y018650D01*
X016260Y020650D02*
X023260Y020650D01*
X024760Y019650D02*
X017760Y019650D01*
X017760Y018650D02*
X026760Y018650D01*
X026760Y017650D02*
X021260Y017650D01*
X019260Y016650D02*
X026760Y016650D01*
X034260Y014650D02*
X034260Y019650D01*
X016260Y008650D02*
X010260Y008650D01*
X008260Y010150D02*
X008260Y015150D01*
X005760Y015150D02*
X005760Y020150D01*
X016260Y005150D02*
X021760Y005150D01*
X024760Y005150D02*
X031260Y005150D01*
D17*
X031260Y005150D03*
X026760Y006150D03*
X025760Y006150D03*
X024760Y005150D03*
X021760Y005150D03*
X016260Y005150D03*
X016260Y008650D03*
X015260Y011650D03*
X018260Y011650D03*
X013260Y014150D03*
X013260Y015150D03*
X014260Y016650D03*
X014260Y018650D03*
X016260Y020650D03*
X017760Y018650D03*
X019260Y016650D03*
X020260Y015650D03*
X021260Y017650D03*
X023260Y020650D03*
X026760Y018650D03*
X026760Y017650D03*
X026760Y016650D03*
X026760Y015650D03*
X025760Y014650D03*
X025760Y013650D03*
X025760Y012650D03*
X026760Y012650D03*
X034260Y014650D03*
X034260Y019650D03*
X010260Y008650D03*
X008260Y010150D03*
X008260Y015150D03*
X005760Y015150D03*
X005760Y020150D03*
D18*
X013260Y014150D02*
X025260Y014150D01*
X025760Y013650D01*
M02*
