G75*
G70*
%OFA0B0*%
%FSLAX24Y24*%
%IPPOS*%
%LPD*%
%AMOC8*
5,1,8,0,0,1.08239X$1,22.5*
%
%ADD10C,0.0600*%
%ADD11C,0.0709*%
%ADD12C,0.0400*%
%ADD13C,0.0100*%
%ADD14C,0.0240*%
D10*
X004333Y001350D02*
X004333Y001950D01*
X005333Y001950D02*
X005333Y001350D01*
X006333Y001350D02*
X006333Y001950D01*
X005833Y011850D02*
X005833Y012450D01*
X004833Y012450D02*
X004833Y011850D01*
D11*
X003365Y009815D02*
X003365Y009107D01*
X007302Y009107D02*
X007302Y009815D01*
X007302Y003910D02*
X007302Y003201D01*
X005333Y003201D02*
X005333Y003910D01*
X003365Y003910D02*
X003365Y003201D01*
D12*
X003333Y003150D02*
X004333Y002150D01*
X005333Y001650D02*
X005333Y003556D01*
X006333Y002150D02*
X007333Y003150D01*
X007333Y010150D02*
X005833Y012150D01*
X004833Y012150D02*
X003333Y010150D01*
D13*
X005333Y003556D02*
X005333Y003150D01*
X004333Y002150D02*
X004333Y001650D01*
X006333Y001650D02*
X006333Y002150D01*
D14*
X007333Y003150D02*
X007302Y003556D01*
X003365Y003556D02*
X003333Y003150D01*
X003333Y009150D02*
X003333Y010150D01*
X007333Y010150D02*
X007333Y009150D01*
M02*
