G75*
G70*
%OFA0B0*%
%FSLAX24Y24*%
%IPPOS*%
%LPD*%
%AMOC8*
5,1,8,0,0,1.08239X$1,22.5*
%
%ADD10C,0.0100*%
%ADD11C,0.0080*%
%ADD12C,0.0051*%
%ADD13C,0.0110*%
%ADD14C,0.0000*%
%ADD15C,0.0060*%
%ADD16C,0.0040*%
D10*
X000333Y000150D02*
X000333Y013646D01*
X010203Y013646D01*
X010203Y000150D01*
X000333Y000150D01*
D11*
X008623Y003690D02*
X008623Y003900D01*
X008693Y003970D01*
X008833Y003970D01*
X008903Y003900D01*
X008903Y003690D01*
X009043Y003690D02*
X008623Y003690D01*
X009373Y003690D02*
X009653Y003690D01*
X009793Y003830D01*
X009653Y003970D01*
X009373Y003970D01*
X009583Y004150D02*
X009723Y004150D01*
X009793Y004220D01*
X009793Y004361D01*
X009723Y004431D01*
X009583Y004431D01*
X009513Y004361D01*
X009513Y004220D01*
X009583Y004150D01*
X009183Y004291D02*
X009183Y004361D01*
X009113Y004431D01*
X008763Y004431D01*
X008623Y004611D02*
X008623Y004821D01*
X008693Y004891D01*
X008833Y004891D01*
X008903Y004821D01*
X008903Y004611D01*
X008903Y004751D02*
X009043Y004891D01*
X008973Y005071D02*
X008903Y005141D01*
X008903Y005351D01*
X008833Y005351D02*
X009043Y005351D01*
X009043Y005141D01*
X008973Y005071D01*
X008763Y005141D02*
X008763Y005281D01*
X008833Y005351D01*
X008833Y005532D02*
X008763Y005602D01*
X008763Y005812D01*
X008623Y005812D02*
X009043Y005812D01*
X009043Y005602D01*
X008973Y005532D01*
X008833Y005532D01*
X008763Y005992D02*
X008763Y006062D01*
X009043Y006062D01*
X009043Y005992D02*
X009043Y006132D01*
X008973Y006299D02*
X009043Y006369D01*
X009043Y006509D01*
X008973Y006579D01*
X008833Y006579D01*
X008763Y006509D01*
X008763Y006369D01*
X008833Y006299D01*
X008973Y006299D01*
X008623Y006062D02*
X008553Y006062D01*
X009513Y006049D02*
X009513Y005909D01*
X009583Y005838D01*
X009723Y005838D01*
X009793Y005909D01*
X009793Y006049D01*
X009653Y006119D02*
X009653Y005838D01*
X009583Y005658D02*
X009793Y005658D01*
X009793Y005518D02*
X009583Y005518D01*
X009513Y005588D01*
X009583Y005658D01*
X009583Y005518D02*
X009513Y005448D01*
X009513Y005378D01*
X009793Y005378D01*
X009793Y005198D02*
X009513Y005198D01*
X009793Y005198D02*
X009793Y004988D01*
X009723Y004918D01*
X009513Y004918D01*
X009373Y004681D02*
X009793Y004681D01*
X009793Y004611D02*
X009793Y004751D01*
X009373Y004681D02*
X009373Y004611D01*
X009043Y004611D02*
X008623Y004611D01*
X008444Y004540D02*
X008444Y010642D01*
X008325Y010760D01*
X005333Y010760D01*
X002341Y010760D01*
X002223Y010642D01*
X002223Y004540D01*
X005333Y004540D01*
X008444Y004540D01*
X008444Y004500D02*
X008444Y004264D01*
X008325Y004146D01*
X002341Y004146D01*
X002223Y004264D01*
X002223Y004500D01*
X008763Y004150D02*
X008973Y004150D01*
X009043Y004220D01*
X009043Y004431D01*
X009513Y006049D02*
X009583Y006119D01*
X009653Y006119D01*
X009513Y006759D02*
X009793Y006899D01*
X009513Y007040D01*
X009513Y007220D02*
X009373Y007360D01*
X009793Y007360D01*
X009793Y007220D02*
X009793Y007500D01*
X009793Y007680D02*
X009793Y007750D01*
X009723Y007750D01*
X009723Y007680D01*
X009793Y007680D01*
X009723Y007910D02*
X009443Y007910D01*
X009373Y007980D01*
X009373Y008120D01*
X009443Y008191D01*
X009723Y007910D01*
X009793Y007980D01*
X009793Y008120D01*
X009723Y008191D01*
X009443Y008191D01*
X003798Y007650D02*
X003800Y007728D01*
X003806Y007805D01*
X003816Y007882D01*
X003829Y007959D01*
X003847Y008035D01*
X003868Y008110D01*
X003894Y008183D01*
X003922Y008255D01*
X003955Y008326D01*
X003991Y008395D01*
X004030Y008462D01*
X004073Y008527D01*
X004119Y008590D01*
X004168Y008650D01*
X004220Y008708D01*
X004275Y008763D01*
X004333Y008815D01*
X004393Y008864D01*
X004456Y008910D01*
X004521Y008953D01*
X004588Y008992D01*
X004657Y009028D01*
X004728Y009061D01*
X004800Y009089D01*
X004873Y009115D01*
X004948Y009136D01*
X005024Y009154D01*
X005101Y009167D01*
X005178Y009177D01*
X005255Y009183D01*
X005333Y009185D01*
X005411Y009183D01*
X005488Y009177D01*
X005565Y009167D01*
X005642Y009154D01*
X005718Y009136D01*
X005793Y009115D01*
X005866Y009089D01*
X005938Y009061D01*
X006009Y009028D01*
X006078Y008992D01*
X006145Y008953D01*
X006210Y008910D01*
X006273Y008864D01*
X006333Y008815D01*
X006391Y008763D01*
X006446Y008708D01*
X006498Y008650D01*
X006547Y008590D01*
X006593Y008527D01*
X006636Y008462D01*
X006675Y008395D01*
X006711Y008326D01*
X006744Y008255D01*
X006772Y008183D01*
X006798Y008110D01*
X006819Y008035D01*
X006837Y007959D01*
X006850Y007882D01*
X006860Y007805D01*
X006866Y007728D01*
X006868Y007650D01*
X006866Y007572D01*
X006860Y007495D01*
X006850Y007418D01*
X006837Y007341D01*
X006819Y007265D01*
X006798Y007190D01*
X006772Y007117D01*
X006744Y007045D01*
X006711Y006974D01*
X006675Y006905D01*
X006636Y006838D01*
X006593Y006773D01*
X006547Y006710D01*
X006498Y006650D01*
X006446Y006592D01*
X006391Y006537D01*
X006333Y006485D01*
X006273Y006436D01*
X006210Y006390D01*
X006145Y006347D01*
X006078Y006308D01*
X006009Y006272D01*
X005938Y006239D01*
X005866Y006211D01*
X005793Y006185D01*
X005718Y006164D01*
X005642Y006146D01*
X005565Y006133D01*
X005488Y006123D01*
X005411Y006117D01*
X005333Y006115D01*
X005255Y006117D01*
X005178Y006123D01*
X005101Y006133D01*
X005024Y006146D01*
X004948Y006164D01*
X004873Y006185D01*
X004800Y006211D01*
X004728Y006239D01*
X004657Y006272D01*
X004588Y006308D01*
X004521Y006347D01*
X004456Y006390D01*
X004393Y006436D01*
X004333Y006485D01*
X004275Y006537D01*
X004220Y006592D01*
X004168Y006650D01*
X004119Y006710D01*
X004073Y006773D01*
X004030Y006838D01*
X003991Y006905D01*
X003955Y006974D01*
X003922Y007045D01*
X003894Y007117D01*
X003868Y007190D01*
X003847Y007265D01*
X003829Y007341D01*
X003816Y007418D01*
X003806Y007495D01*
X003800Y007572D01*
X003798Y007650D01*
X004191Y007650D02*
X004193Y007717D01*
X004199Y007784D01*
X004209Y007850D01*
X004222Y007916D01*
X004240Y007981D01*
X004261Y008044D01*
X004286Y008106D01*
X004315Y008167D01*
X004347Y008226D01*
X004382Y008283D01*
X004421Y008337D01*
X004463Y008390D01*
X004508Y008440D01*
X004556Y008487D01*
X004606Y008531D01*
X004659Y008572D01*
X004714Y008610D01*
X004772Y008645D01*
X004831Y008676D01*
X004892Y008703D01*
X004955Y008728D01*
X005019Y008748D01*
X005084Y008764D01*
X005149Y008777D01*
X005216Y008786D01*
X005283Y008791D01*
X005350Y008792D01*
X005417Y008789D01*
X005483Y008782D01*
X005550Y008771D01*
X005615Y008757D01*
X005680Y008738D01*
X005743Y008716D01*
X005805Y008690D01*
X005865Y008661D01*
X005923Y008628D01*
X005980Y008591D01*
X006034Y008552D01*
X006085Y008509D01*
X006135Y008463D01*
X006181Y008415D01*
X006224Y008364D01*
X006265Y008310D01*
X006302Y008255D01*
X006336Y008197D01*
X006366Y008137D01*
X006393Y008075D01*
X006416Y008012D01*
X006435Y007948D01*
X006451Y007883D01*
X006463Y007817D01*
X006471Y007750D01*
X006475Y007684D01*
X006475Y007616D01*
X006471Y007550D01*
X006463Y007483D01*
X006451Y007417D01*
X006435Y007352D01*
X006416Y007288D01*
X006393Y007225D01*
X006366Y007163D01*
X006336Y007103D01*
X006302Y007045D01*
X006265Y006990D01*
X006224Y006936D01*
X006181Y006885D01*
X006135Y006837D01*
X006085Y006791D01*
X006034Y006748D01*
X005980Y006709D01*
X005923Y006672D01*
X005865Y006639D01*
X005805Y006610D01*
X005743Y006584D01*
X005680Y006562D01*
X005615Y006543D01*
X005550Y006529D01*
X005483Y006518D01*
X005417Y006511D01*
X005350Y006508D01*
X005283Y006509D01*
X005216Y006514D01*
X005149Y006523D01*
X005084Y006536D01*
X005019Y006552D01*
X004955Y006572D01*
X004892Y006597D01*
X004831Y006624D01*
X004772Y006655D01*
X004714Y006690D01*
X004659Y006728D01*
X004606Y006769D01*
X004556Y006813D01*
X004508Y006860D01*
X004463Y006910D01*
X004421Y006963D01*
X004382Y007017D01*
X004347Y007074D01*
X004315Y007133D01*
X004286Y007194D01*
X004261Y007256D01*
X004240Y007319D01*
X004222Y007384D01*
X004209Y007450D01*
X004199Y007516D01*
X004193Y007583D01*
X004191Y007650D01*
X003404Y007650D02*
X003406Y007745D01*
X003413Y007839D01*
X003425Y007933D01*
X003441Y008026D01*
X003462Y008119D01*
X003487Y008210D01*
X003517Y008300D01*
X003551Y008388D01*
X003589Y008475D01*
X003632Y008559D01*
X003678Y008642D01*
X003729Y008722D01*
X003784Y008799D01*
X003842Y008874D01*
X003904Y008945D01*
X003969Y009014D01*
X004038Y009079D01*
X004109Y009141D01*
X004184Y009199D01*
X004261Y009254D01*
X004341Y009305D01*
X004424Y009351D01*
X004508Y009394D01*
X004595Y009432D01*
X004683Y009466D01*
X004773Y009496D01*
X004864Y009521D01*
X004957Y009542D01*
X005050Y009558D01*
X005144Y009570D01*
X005238Y009577D01*
X005333Y009579D01*
X005428Y009577D01*
X005522Y009570D01*
X005616Y009558D01*
X005709Y009542D01*
X005802Y009521D01*
X005893Y009496D01*
X005983Y009466D01*
X006071Y009432D01*
X006158Y009394D01*
X006242Y009351D01*
X006325Y009305D01*
X006405Y009254D01*
X006482Y009199D01*
X006557Y009141D01*
X006628Y009079D01*
X006697Y009014D01*
X006762Y008945D01*
X006824Y008874D01*
X006882Y008799D01*
X006937Y008722D01*
X006988Y008642D01*
X007034Y008559D01*
X007077Y008475D01*
X007115Y008388D01*
X007149Y008300D01*
X007179Y008210D01*
X007204Y008119D01*
X007225Y008026D01*
X007241Y007933D01*
X007253Y007839D01*
X007260Y007745D01*
X007262Y007650D01*
X007260Y007555D01*
X007253Y007461D01*
X007241Y007367D01*
X007225Y007274D01*
X007204Y007181D01*
X007179Y007090D01*
X007149Y007000D01*
X007115Y006912D01*
X007077Y006825D01*
X007034Y006741D01*
X006988Y006658D01*
X006937Y006578D01*
X006882Y006501D01*
X006824Y006426D01*
X006762Y006355D01*
X006697Y006286D01*
X006628Y006221D01*
X006557Y006159D01*
X006482Y006101D01*
X006405Y006046D01*
X006325Y005995D01*
X006242Y005949D01*
X006158Y005906D01*
X006071Y005868D01*
X005983Y005834D01*
X005893Y005804D01*
X005802Y005779D01*
X005709Y005758D01*
X005616Y005742D01*
X005522Y005730D01*
X005428Y005723D01*
X005333Y005721D01*
X005238Y005723D01*
X005144Y005730D01*
X005050Y005742D01*
X004957Y005758D01*
X004864Y005779D01*
X004773Y005804D01*
X004683Y005834D01*
X004595Y005868D01*
X004508Y005906D01*
X004424Y005949D01*
X004341Y005995D01*
X004261Y006046D01*
X004184Y006101D01*
X004109Y006159D01*
X004038Y006221D01*
X003969Y006286D01*
X003904Y006355D01*
X003842Y006426D01*
X003784Y006501D01*
X003729Y006578D01*
X003678Y006658D01*
X003632Y006741D01*
X003589Y006825D01*
X003551Y006912D01*
X003517Y007000D01*
X003487Y007090D01*
X003462Y007181D01*
X003441Y007274D01*
X003425Y007367D01*
X003413Y007461D01*
X003406Y007555D01*
X003404Y007650D01*
D12*
X000333Y013650D02*
X000333Y014918D01*
X000333Y014150D02*
X001357Y014276D01*
X001357Y014024D01*
X000333Y014150D01*
X001357Y014048D01*
X001357Y014099D02*
X000333Y014150D01*
X001357Y014252D01*
X001357Y014201D02*
X000333Y014150D01*
X010333Y014150D01*
X009310Y014048D01*
X009310Y014024D02*
X010333Y014150D01*
X009310Y014252D01*
X009310Y014276D02*
X009310Y014024D01*
X009310Y014099D02*
X010333Y014150D01*
X009310Y014201D01*
X009310Y014276D02*
X010333Y014150D01*
X010333Y013650D02*
X010333Y014918D01*
D13*
X006265Y014726D02*
X005872Y014726D01*
X006167Y015022D01*
X006167Y014431D01*
X005648Y014431D02*
X005648Y014530D01*
X005549Y014530D01*
X005549Y014431D01*
X005648Y014431D01*
X005299Y014530D02*
X005200Y014431D01*
X005003Y014431D01*
X004905Y014530D01*
X004905Y014726D02*
X005102Y014825D01*
X005200Y014825D01*
X005299Y014726D01*
X005299Y014530D01*
X004905Y014726D02*
X004905Y015022D01*
X005299Y015022D01*
X004654Y014923D02*
X004556Y015022D01*
X004359Y015022D01*
X004260Y014923D01*
X004654Y014923D02*
X004654Y014825D01*
X004260Y014431D01*
X004654Y014431D01*
D14*
X001183Y012150D02*
X001185Y012200D01*
X001191Y012250D01*
X001201Y012300D01*
X001214Y012348D01*
X001231Y012396D01*
X001252Y012442D01*
X001276Y012486D01*
X001304Y012528D01*
X001335Y012568D01*
X001369Y012605D01*
X001406Y012640D01*
X001445Y012671D01*
X001486Y012700D01*
X001530Y012725D01*
X001576Y012747D01*
X001623Y012765D01*
X001671Y012779D01*
X001720Y012790D01*
X001770Y012797D01*
X001820Y012800D01*
X001871Y012799D01*
X001921Y012794D01*
X001971Y012785D01*
X002019Y012773D01*
X002067Y012756D01*
X002113Y012736D01*
X002158Y012713D01*
X002201Y012686D01*
X002241Y012656D01*
X002279Y012623D01*
X002314Y012587D01*
X002347Y012548D01*
X002376Y012507D01*
X002402Y012464D01*
X002425Y012419D01*
X002444Y012372D01*
X002459Y012324D01*
X002471Y012275D01*
X002479Y012225D01*
X002483Y012175D01*
X002483Y012125D01*
X002479Y012075D01*
X002471Y012025D01*
X002459Y011976D01*
X002444Y011928D01*
X002425Y011881D01*
X002402Y011836D01*
X002376Y011793D01*
X002347Y011752D01*
X002314Y011713D01*
X002279Y011677D01*
X002241Y011644D01*
X002201Y011614D01*
X002158Y011587D01*
X002113Y011564D01*
X002067Y011544D01*
X002019Y011527D01*
X001971Y011515D01*
X001921Y011506D01*
X001871Y011501D01*
X001820Y011500D01*
X001770Y011503D01*
X001720Y011510D01*
X001671Y011521D01*
X001623Y011535D01*
X001576Y011553D01*
X001530Y011575D01*
X001486Y011600D01*
X001445Y011629D01*
X001406Y011660D01*
X001369Y011695D01*
X001335Y011732D01*
X001304Y011772D01*
X001276Y011814D01*
X001252Y011858D01*
X001231Y011904D01*
X001214Y011952D01*
X001201Y012000D01*
X001191Y012050D01*
X001185Y012100D01*
X001183Y012150D01*
X008183Y012150D02*
X008185Y012200D01*
X008191Y012250D01*
X008201Y012300D01*
X008214Y012348D01*
X008231Y012396D01*
X008252Y012442D01*
X008276Y012486D01*
X008304Y012528D01*
X008335Y012568D01*
X008369Y012605D01*
X008406Y012640D01*
X008445Y012671D01*
X008486Y012700D01*
X008530Y012725D01*
X008576Y012747D01*
X008623Y012765D01*
X008671Y012779D01*
X008720Y012790D01*
X008770Y012797D01*
X008820Y012800D01*
X008871Y012799D01*
X008921Y012794D01*
X008971Y012785D01*
X009019Y012773D01*
X009067Y012756D01*
X009113Y012736D01*
X009158Y012713D01*
X009201Y012686D01*
X009241Y012656D01*
X009279Y012623D01*
X009314Y012587D01*
X009347Y012548D01*
X009376Y012507D01*
X009402Y012464D01*
X009425Y012419D01*
X009444Y012372D01*
X009459Y012324D01*
X009471Y012275D01*
X009479Y012225D01*
X009483Y012175D01*
X009483Y012125D01*
X009479Y012075D01*
X009471Y012025D01*
X009459Y011976D01*
X009444Y011928D01*
X009425Y011881D01*
X009402Y011836D01*
X009376Y011793D01*
X009347Y011752D01*
X009314Y011713D01*
X009279Y011677D01*
X009241Y011644D01*
X009201Y011614D01*
X009158Y011587D01*
X009113Y011564D01*
X009067Y011544D01*
X009019Y011527D01*
X008971Y011515D01*
X008921Y011506D01*
X008871Y011501D01*
X008820Y011500D01*
X008770Y011503D01*
X008720Y011510D01*
X008671Y011521D01*
X008623Y011535D01*
X008576Y011553D01*
X008530Y011575D01*
X008486Y011600D01*
X008445Y011629D01*
X008406Y011660D01*
X008369Y011695D01*
X008335Y011732D01*
X008304Y011772D01*
X008276Y011814D01*
X008252Y011858D01*
X008231Y011904D01*
X008214Y011952D01*
X008201Y012000D01*
X008191Y012050D01*
X008185Y012100D01*
X008183Y012150D01*
X008183Y001650D02*
X008185Y001700D01*
X008191Y001750D01*
X008201Y001800D01*
X008214Y001848D01*
X008231Y001896D01*
X008252Y001942D01*
X008276Y001986D01*
X008304Y002028D01*
X008335Y002068D01*
X008369Y002105D01*
X008406Y002140D01*
X008445Y002171D01*
X008486Y002200D01*
X008530Y002225D01*
X008576Y002247D01*
X008623Y002265D01*
X008671Y002279D01*
X008720Y002290D01*
X008770Y002297D01*
X008820Y002300D01*
X008871Y002299D01*
X008921Y002294D01*
X008971Y002285D01*
X009019Y002273D01*
X009067Y002256D01*
X009113Y002236D01*
X009158Y002213D01*
X009201Y002186D01*
X009241Y002156D01*
X009279Y002123D01*
X009314Y002087D01*
X009347Y002048D01*
X009376Y002007D01*
X009402Y001964D01*
X009425Y001919D01*
X009444Y001872D01*
X009459Y001824D01*
X009471Y001775D01*
X009479Y001725D01*
X009483Y001675D01*
X009483Y001625D01*
X009479Y001575D01*
X009471Y001525D01*
X009459Y001476D01*
X009444Y001428D01*
X009425Y001381D01*
X009402Y001336D01*
X009376Y001293D01*
X009347Y001252D01*
X009314Y001213D01*
X009279Y001177D01*
X009241Y001144D01*
X009201Y001114D01*
X009158Y001087D01*
X009113Y001064D01*
X009067Y001044D01*
X009019Y001027D01*
X008971Y001015D01*
X008921Y001006D01*
X008871Y001001D01*
X008820Y001000D01*
X008770Y001003D01*
X008720Y001010D01*
X008671Y001021D01*
X008623Y001035D01*
X008576Y001053D01*
X008530Y001075D01*
X008486Y001100D01*
X008445Y001129D01*
X008406Y001160D01*
X008369Y001195D01*
X008335Y001232D01*
X008304Y001272D01*
X008276Y001314D01*
X008252Y001358D01*
X008231Y001404D01*
X008214Y001452D01*
X008201Y001500D01*
X008191Y001550D01*
X008185Y001600D01*
X008183Y001650D01*
X001183Y001650D02*
X001185Y001700D01*
X001191Y001750D01*
X001201Y001800D01*
X001214Y001848D01*
X001231Y001896D01*
X001252Y001942D01*
X001276Y001986D01*
X001304Y002028D01*
X001335Y002068D01*
X001369Y002105D01*
X001406Y002140D01*
X001445Y002171D01*
X001486Y002200D01*
X001530Y002225D01*
X001576Y002247D01*
X001623Y002265D01*
X001671Y002279D01*
X001720Y002290D01*
X001770Y002297D01*
X001820Y002300D01*
X001871Y002299D01*
X001921Y002294D01*
X001971Y002285D01*
X002019Y002273D01*
X002067Y002256D01*
X002113Y002236D01*
X002158Y002213D01*
X002201Y002186D01*
X002241Y002156D01*
X002279Y002123D01*
X002314Y002087D01*
X002347Y002048D01*
X002376Y002007D01*
X002402Y001964D01*
X002425Y001919D01*
X002444Y001872D01*
X002459Y001824D01*
X002471Y001775D01*
X002479Y001725D01*
X002483Y001675D01*
X002483Y001625D01*
X002479Y001575D01*
X002471Y001525D01*
X002459Y001476D01*
X002444Y001428D01*
X002425Y001381D01*
X002402Y001336D01*
X002376Y001293D01*
X002347Y001252D01*
X002314Y001213D01*
X002279Y001177D01*
X002241Y001144D01*
X002201Y001114D01*
X002158Y001087D01*
X002113Y001064D01*
X002067Y001044D01*
X002019Y001027D01*
X001971Y001015D01*
X001921Y001006D01*
X001871Y001001D01*
X001820Y001000D01*
X001770Y001003D01*
X001720Y001010D01*
X001671Y001021D01*
X001623Y001035D01*
X001576Y001053D01*
X001530Y001075D01*
X001486Y001100D01*
X001445Y001129D01*
X001406Y001160D01*
X001369Y001195D01*
X001335Y001232D01*
X001304Y001272D01*
X001276Y001314D01*
X001252Y001358D01*
X001231Y001404D01*
X001214Y001452D01*
X001201Y001500D01*
X001191Y001550D01*
X001185Y001600D01*
X001183Y001650D01*
D15*
X003833Y001400D02*
X004083Y001150D01*
X004583Y001150D01*
X004833Y001400D01*
X005083Y001150D01*
X005583Y001150D01*
X005833Y001400D01*
X006083Y001150D01*
X006583Y001150D01*
X006833Y001400D01*
X006833Y001900D01*
X006583Y002150D01*
X006083Y002150D01*
X005833Y001900D01*
X005833Y001400D01*
X004833Y001400D02*
X004833Y001900D01*
X005083Y002150D01*
X005583Y002150D01*
X005833Y001900D01*
X004833Y001900D02*
X004583Y002150D01*
X004083Y002150D01*
X003833Y001900D01*
X003833Y001400D01*
X004583Y011650D02*
X005083Y011650D01*
X005333Y011900D01*
X005583Y011650D01*
X006083Y011650D01*
X006333Y011900D01*
X006333Y012400D01*
X006083Y012650D01*
X005583Y012650D01*
X005333Y012400D01*
X005333Y011900D01*
X004583Y011650D02*
X004333Y011900D01*
X004333Y012400D01*
X004583Y012650D01*
X005083Y012650D01*
X005333Y012400D01*
D16*
X001813Y007517D02*
X001813Y007210D01*
X001813Y007363D02*
X001353Y007363D01*
X001506Y007210D01*
X001430Y007056D02*
X001583Y007056D01*
X001660Y006979D01*
X001660Y006749D01*
X001813Y006749D02*
X001353Y006749D01*
X001353Y006979D01*
X001430Y007056D01*
X001660Y006903D02*
X001813Y007056D01*
X002892Y004107D02*
X002892Y003437D01*
X003837Y003437D02*
X003837Y004107D01*
X004861Y004107D02*
X004861Y003437D01*
X005806Y003437D02*
X005806Y004107D01*
X006829Y004107D02*
X006829Y003437D01*
X007774Y003437D02*
X007774Y004107D01*
M02*
