%
M48
M72
T01C0.0160
T02C0.0160
T03C0.0160
T04C0.0160
T05C0.0160
T06C0.0160
T07C0.0160
%
T01
X19841Y5870
X20825Y5870
X20825Y6650
X19841Y6650
T02
X9833Y5150
X9833Y4150
X11833Y2650
X12833Y2650
X14833Y2650
X15833Y2650
X18833Y2650
X19833Y2650
X20833Y2650
X21833Y2650
X25833Y2650
X26833Y2650
X27833Y2650
X28833Y2650
X29833Y2650
T03
X27833Y7181
X25865Y9150
X25865Y10134
X29802Y10134
X29802Y9150
T04
X27833Y9150
X26849Y7181
X25865Y7181
X28818Y7181
X29802Y7181
T05
X22703Y7720
X17963Y7720
T06
X13833Y8619
X11983Y7437
X13833Y6256
T07
X9333Y1650
X9333Y9150
X32833Y9150
X32833Y1650
M30
