G75*
G70*
%OFA0B0*%
%FSLAX24Y24*%
%IPPOS*%
%LPD*%
%AMOC8*
5,1,8,0,0,1.08239X$1,22.5*
%
%ADD10C,0.0100*%
%ADD11C,0.0051*%
%ADD12C,0.0110*%
%ADD13C,0.0000*%
D10*
X007833Y000150D02*
X007833Y010650D01*
X034833Y010650D01*
X034703Y010646D02*
X034703Y000150D01*
X007833Y000150D01*
D11*
X007833Y010650D02*
X007833Y011918D01*
X007833Y011150D02*
X008857Y011252D01*
X008857Y011276D02*
X008857Y011024D01*
X007833Y011150D01*
X008857Y011048D01*
X008857Y011099D02*
X007833Y011150D01*
X008857Y011201D01*
X008857Y011276D02*
X007833Y011150D01*
X034833Y011150D01*
X033810Y011048D01*
X033810Y011024D02*
X034833Y011150D01*
X033810Y011252D01*
X033810Y011276D02*
X033810Y011024D01*
X033810Y011099D02*
X034833Y011150D01*
X033810Y011201D01*
X033810Y011276D02*
X034833Y011150D01*
X034833Y010650D02*
X034833Y011918D01*
D12*
X022588Y011923D02*
X022588Y011825D01*
X022489Y011726D01*
X022292Y011726D01*
X022194Y011825D01*
X022194Y011923D01*
X022292Y012022D01*
X022489Y012022D01*
X022588Y011923D01*
X022489Y011726D02*
X022588Y011628D01*
X022588Y011530D01*
X022489Y011431D01*
X022292Y011431D01*
X022194Y011530D01*
X022194Y011628D01*
X022292Y011726D01*
X021943Y011726D02*
X021943Y011530D01*
X021845Y011431D01*
X021648Y011431D01*
X021549Y011530D01*
X021549Y011726D02*
X021746Y011825D01*
X021845Y011825D01*
X021943Y011726D01*
X021549Y011726D02*
X021549Y012022D01*
X021943Y012022D01*
X021326Y011530D02*
X021326Y011431D01*
X021227Y011431D01*
X021227Y011530D01*
X021326Y011530D01*
X020976Y011530D02*
X020878Y011431D01*
X020681Y011431D01*
X020583Y011530D01*
X020583Y011628D01*
X020681Y011726D01*
X020878Y011726D01*
X020976Y011628D01*
X020976Y011530D01*
X020878Y011726D02*
X020976Y011825D01*
X020976Y011923D01*
X020878Y012022D01*
X020681Y012022D01*
X020583Y011923D01*
X020583Y011825D01*
X020681Y011726D01*
X020332Y011628D02*
X020233Y011726D01*
X019938Y011726D01*
X019938Y011530D01*
X020037Y011431D01*
X020233Y011431D01*
X020332Y011530D01*
X020332Y011628D01*
X020135Y011923D02*
X019938Y011726D01*
X020135Y011923D02*
X020332Y012022D01*
D13*
X025629Y010134D02*
X025631Y010164D01*
X025637Y010194D01*
X025646Y010223D01*
X025659Y010250D01*
X025676Y010275D01*
X025695Y010298D01*
X025718Y010319D01*
X025743Y010336D01*
X025769Y010350D01*
X025798Y010360D01*
X025827Y010367D01*
X025857Y010370D01*
X025888Y010369D01*
X025918Y010364D01*
X025947Y010355D01*
X025974Y010343D01*
X026000Y010328D01*
X026024Y010309D01*
X026045Y010287D01*
X026063Y010263D01*
X026078Y010236D01*
X026089Y010208D01*
X026097Y010179D01*
X026101Y010149D01*
X026101Y010119D01*
X026097Y010089D01*
X026089Y010060D01*
X026078Y010032D01*
X026063Y010005D01*
X026045Y009981D01*
X026024Y009959D01*
X026000Y009940D01*
X025974Y009925D01*
X025947Y009913D01*
X025918Y009904D01*
X025888Y009899D01*
X025857Y009898D01*
X025827Y009901D01*
X025798Y009908D01*
X025769Y009918D01*
X025743Y009932D01*
X025718Y009949D01*
X025695Y009970D01*
X025676Y009993D01*
X025659Y010018D01*
X025646Y010045D01*
X025637Y010074D01*
X025631Y010104D01*
X025629Y010134D01*
X025629Y009150D02*
X025631Y009180D01*
X025637Y009210D01*
X025646Y009239D01*
X025659Y009266D01*
X025676Y009291D01*
X025695Y009314D01*
X025718Y009335D01*
X025743Y009352D01*
X025769Y009366D01*
X025798Y009376D01*
X025827Y009383D01*
X025857Y009386D01*
X025888Y009385D01*
X025918Y009380D01*
X025947Y009371D01*
X025974Y009359D01*
X026000Y009344D01*
X026024Y009325D01*
X026045Y009303D01*
X026063Y009279D01*
X026078Y009252D01*
X026089Y009224D01*
X026097Y009195D01*
X026101Y009165D01*
X026101Y009135D01*
X026097Y009105D01*
X026089Y009076D01*
X026078Y009048D01*
X026063Y009021D01*
X026045Y008997D01*
X026024Y008975D01*
X026000Y008956D01*
X025974Y008941D01*
X025947Y008929D01*
X025918Y008920D01*
X025888Y008915D01*
X025857Y008914D01*
X025827Y008917D01*
X025798Y008924D01*
X025769Y008934D01*
X025743Y008948D01*
X025718Y008965D01*
X025695Y008986D01*
X025676Y009009D01*
X025659Y009034D01*
X025646Y009061D01*
X025637Y009090D01*
X025631Y009120D01*
X025629Y009150D01*
X029566Y009150D02*
X029568Y009180D01*
X029574Y009210D01*
X029583Y009239D01*
X029596Y009266D01*
X029613Y009291D01*
X029632Y009314D01*
X029655Y009335D01*
X029680Y009352D01*
X029706Y009366D01*
X029735Y009376D01*
X029764Y009383D01*
X029794Y009386D01*
X029825Y009385D01*
X029855Y009380D01*
X029884Y009371D01*
X029911Y009359D01*
X029937Y009344D01*
X029961Y009325D01*
X029982Y009303D01*
X030000Y009279D01*
X030015Y009252D01*
X030026Y009224D01*
X030034Y009195D01*
X030038Y009165D01*
X030038Y009135D01*
X030034Y009105D01*
X030026Y009076D01*
X030015Y009048D01*
X030000Y009021D01*
X029982Y008997D01*
X029961Y008975D01*
X029937Y008956D01*
X029911Y008941D01*
X029884Y008929D01*
X029855Y008920D01*
X029825Y008915D01*
X029794Y008914D01*
X029764Y008917D01*
X029735Y008924D01*
X029706Y008934D01*
X029680Y008948D01*
X029655Y008965D01*
X029632Y008986D01*
X029613Y009009D01*
X029596Y009034D01*
X029583Y009061D01*
X029574Y009090D01*
X029568Y009120D01*
X029566Y009150D01*
X029566Y010134D02*
X029568Y010164D01*
X029574Y010194D01*
X029583Y010223D01*
X029596Y010250D01*
X029613Y010275D01*
X029632Y010298D01*
X029655Y010319D01*
X029680Y010336D01*
X029706Y010350D01*
X029735Y010360D01*
X029764Y010367D01*
X029794Y010370D01*
X029825Y010369D01*
X029855Y010364D01*
X029884Y010355D01*
X029911Y010343D01*
X029937Y010328D01*
X029961Y010309D01*
X029982Y010287D01*
X030000Y010263D01*
X030015Y010236D01*
X030026Y010208D01*
X030034Y010179D01*
X030038Y010149D01*
X030038Y010119D01*
X030034Y010089D01*
X030026Y010060D01*
X030015Y010032D01*
X030000Y010005D01*
X029982Y009981D01*
X029961Y009959D01*
X029937Y009940D01*
X029911Y009925D01*
X029884Y009913D01*
X029855Y009904D01*
X029825Y009899D01*
X029794Y009898D01*
X029764Y009901D01*
X029735Y009908D01*
X029706Y009918D01*
X029680Y009932D01*
X029655Y009949D01*
X029632Y009970D01*
X029613Y009993D01*
X029596Y010018D01*
X029583Y010045D01*
X029574Y010074D01*
X029568Y010104D01*
X029566Y010134D01*
X032183Y009150D02*
X032185Y009200D01*
X032191Y009250D01*
X032201Y009300D01*
X032214Y009348D01*
X032231Y009396D01*
X032252Y009442D01*
X032276Y009486D01*
X032304Y009528D01*
X032335Y009568D01*
X032369Y009605D01*
X032406Y009640D01*
X032445Y009671D01*
X032486Y009700D01*
X032530Y009725D01*
X032576Y009747D01*
X032623Y009765D01*
X032671Y009779D01*
X032720Y009790D01*
X032770Y009797D01*
X032820Y009800D01*
X032871Y009799D01*
X032921Y009794D01*
X032971Y009785D01*
X033019Y009773D01*
X033067Y009756D01*
X033113Y009736D01*
X033158Y009713D01*
X033201Y009686D01*
X033241Y009656D01*
X033279Y009623D01*
X033314Y009587D01*
X033347Y009548D01*
X033376Y009507D01*
X033402Y009464D01*
X033425Y009419D01*
X033444Y009372D01*
X033459Y009324D01*
X033471Y009275D01*
X033479Y009225D01*
X033483Y009175D01*
X033483Y009125D01*
X033479Y009075D01*
X033471Y009025D01*
X033459Y008976D01*
X033444Y008928D01*
X033425Y008881D01*
X033402Y008836D01*
X033376Y008793D01*
X033347Y008752D01*
X033314Y008713D01*
X033279Y008677D01*
X033241Y008644D01*
X033201Y008614D01*
X033158Y008587D01*
X033113Y008564D01*
X033067Y008544D01*
X033019Y008527D01*
X032971Y008515D01*
X032921Y008506D01*
X032871Y008501D01*
X032820Y008500D01*
X032770Y008503D01*
X032720Y008510D01*
X032671Y008521D01*
X032623Y008535D01*
X032576Y008553D01*
X032530Y008575D01*
X032486Y008600D01*
X032445Y008629D01*
X032406Y008660D01*
X032369Y008695D01*
X032335Y008732D01*
X032304Y008772D01*
X032276Y008814D01*
X032252Y008858D01*
X032231Y008904D01*
X032214Y008952D01*
X032201Y009000D01*
X032191Y009050D01*
X032185Y009100D01*
X032183Y009150D01*
X027597Y007181D02*
X027599Y007211D01*
X027605Y007241D01*
X027614Y007270D01*
X027627Y007297D01*
X027644Y007322D01*
X027663Y007345D01*
X027686Y007366D01*
X027711Y007383D01*
X027737Y007397D01*
X027766Y007407D01*
X027795Y007414D01*
X027825Y007417D01*
X027856Y007416D01*
X027886Y007411D01*
X027915Y007402D01*
X027942Y007390D01*
X027968Y007375D01*
X027992Y007356D01*
X028013Y007334D01*
X028031Y007310D01*
X028046Y007283D01*
X028057Y007255D01*
X028065Y007226D01*
X028069Y007196D01*
X028069Y007166D01*
X028065Y007136D01*
X028057Y007107D01*
X028046Y007079D01*
X028031Y007052D01*
X028013Y007028D01*
X027992Y007006D01*
X027968Y006987D01*
X027942Y006972D01*
X027915Y006960D01*
X027886Y006951D01*
X027856Y006946D01*
X027825Y006945D01*
X027795Y006948D01*
X027766Y006955D01*
X027737Y006965D01*
X027711Y006979D01*
X027686Y006996D01*
X027663Y007017D01*
X027644Y007040D01*
X027627Y007065D01*
X027614Y007092D01*
X027605Y007121D01*
X027599Y007151D01*
X027597Y007181D01*
X032183Y001650D02*
X032185Y001700D01*
X032191Y001750D01*
X032201Y001800D01*
X032214Y001848D01*
X032231Y001896D01*
X032252Y001942D01*
X032276Y001986D01*
X032304Y002028D01*
X032335Y002068D01*
X032369Y002105D01*
X032406Y002140D01*
X032445Y002171D01*
X032486Y002200D01*
X032530Y002225D01*
X032576Y002247D01*
X032623Y002265D01*
X032671Y002279D01*
X032720Y002290D01*
X032770Y002297D01*
X032820Y002300D01*
X032871Y002299D01*
X032921Y002294D01*
X032971Y002285D01*
X033019Y002273D01*
X033067Y002256D01*
X033113Y002236D01*
X033158Y002213D01*
X033201Y002186D01*
X033241Y002156D01*
X033279Y002123D01*
X033314Y002087D01*
X033347Y002048D01*
X033376Y002007D01*
X033402Y001964D01*
X033425Y001919D01*
X033444Y001872D01*
X033459Y001824D01*
X033471Y001775D01*
X033479Y001725D01*
X033483Y001675D01*
X033483Y001625D01*
X033479Y001575D01*
X033471Y001525D01*
X033459Y001476D01*
X033444Y001428D01*
X033425Y001381D01*
X033402Y001336D01*
X033376Y001293D01*
X033347Y001252D01*
X033314Y001213D01*
X033279Y001177D01*
X033241Y001144D01*
X033201Y001114D01*
X033158Y001087D01*
X033113Y001064D01*
X033067Y001044D01*
X033019Y001027D01*
X032971Y001015D01*
X032921Y001006D01*
X032871Y001001D01*
X032820Y001000D01*
X032770Y001003D01*
X032720Y001010D01*
X032671Y001021D01*
X032623Y001035D01*
X032576Y001053D01*
X032530Y001075D01*
X032486Y001100D01*
X032445Y001129D01*
X032406Y001160D01*
X032369Y001195D01*
X032335Y001232D01*
X032304Y001272D01*
X032276Y001314D01*
X032252Y001358D01*
X032231Y001404D01*
X032214Y001452D01*
X032201Y001500D01*
X032191Y001550D01*
X032185Y001600D01*
X032183Y001650D01*
X008683Y001650D02*
X008685Y001700D01*
X008691Y001750D01*
X008701Y001800D01*
X008714Y001848D01*
X008731Y001896D01*
X008752Y001942D01*
X008776Y001986D01*
X008804Y002028D01*
X008835Y002068D01*
X008869Y002105D01*
X008906Y002140D01*
X008945Y002171D01*
X008986Y002200D01*
X009030Y002225D01*
X009076Y002247D01*
X009123Y002265D01*
X009171Y002279D01*
X009220Y002290D01*
X009270Y002297D01*
X009320Y002300D01*
X009371Y002299D01*
X009421Y002294D01*
X009471Y002285D01*
X009519Y002273D01*
X009567Y002256D01*
X009613Y002236D01*
X009658Y002213D01*
X009701Y002186D01*
X009741Y002156D01*
X009779Y002123D01*
X009814Y002087D01*
X009847Y002048D01*
X009876Y002007D01*
X009902Y001964D01*
X009925Y001919D01*
X009944Y001872D01*
X009959Y001824D01*
X009971Y001775D01*
X009979Y001725D01*
X009983Y001675D01*
X009983Y001625D01*
X009979Y001575D01*
X009971Y001525D01*
X009959Y001476D01*
X009944Y001428D01*
X009925Y001381D01*
X009902Y001336D01*
X009876Y001293D01*
X009847Y001252D01*
X009814Y001213D01*
X009779Y001177D01*
X009741Y001144D01*
X009701Y001114D01*
X009658Y001087D01*
X009613Y001064D01*
X009567Y001044D01*
X009519Y001027D01*
X009471Y001015D01*
X009421Y001006D01*
X009371Y001001D01*
X009320Y001000D01*
X009270Y001003D01*
X009220Y001010D01*
X009171Y001021D01*
X009123Y001035D01*
X009076Y001053D01*
X009030Y001075D01*
X008986Y001100D01*
X008945Y001129D01*
X008906Y001160D01*
X008869Y001195D01*
X008835Y001232D01*
X008804Y001272D01*
X008776Y001314D01*
X008752Y001358D01*
X008731Y001404D01*
X008714Y001452D01*
X008701Y001500D01*
X008691Y001550D01*
X008685Y001600D01*
X008683Y001650D01*
X008683Y009150D02*
X008685Y009200D01*
X008691Y009250D01*
X008701Y009300D01*
X008714Y009348D01*
X008731Y009396D01*
X008752Y009442D01*
X008776Y009486D01*
X008804Y009528D01*
X008835Y009568D01*
X008869Y009605D01*
X008906Y009640D01*
X008945Y009671D01*
X008986Y009700D01*
X009030Y009725D01*
X009076Y009747D01*
X009123Y009765D01*
X009171Y009779D01*
X009220Y009790D01*
X009270Y009797D01*
X009320Y009800D01*
X009371Y009799D01*
X009421Y009794D01*
X009471Y009785D01*
X009519Y009773D01*
X009567Y009756D01*
X009613Y009736D01*
X009658Y009713D01*
X009701Y009686D01*
X009741Y009656D01*
X009779Y009623D01*
X009814Y009587D01*
X009847Y009548D01*
X009876Y009507D01*
X009902Y009464D01*
X009925Y009419D01*
X009944Y009372D01*
X009959Y009324D01*
X009971Y009275D01*
X009979Y009225D01*
X009983Y009175D01*
X009983Y009125D01*
X009979Y009075D01*
X009971Y009025D01*
X009959Y008976D01*
X009944Y008928D01*
X009925Y008881D01*
X009902Y008836D01*
X009876Y008793D01*
X009847Y008752D01*
X009814Y008713D01*
X009779Y008677D01*
X009741Y008644D01*
X009701Y008614D01*
X009658Y008587D01*
X009613Y008564D01*
X009567Y008544D01*
X009519Y008527D01*
X009471Y008515D01*
X009421Y008506D01*
X009371Y008501D01*
X009320Y008500D01*
X009270Y008503D01*
X009220Y008510D01*
X009171Y008521D01*
X009123Y008535D01*
X009076Y008553D01*
X009030Y008575D01*
X008986Y008600D01*
X008945Y008629D01*
X008906Y008660D01*
X008869Y008695D01*
X008835Y008732D01*
X008804Y008772D01*
X008776Y008814D01*
X008752Y008858D01*
X008731Y008904D01*
X008714Y008952D01*
X008701Y009000D01*
X008691Y009050D01*
X008685Y009100D01*
X008683Y009150D01*
M02*
