G75*
G70*
%OFA0B0*%
%FSLAX24Y24*%
%IPPOS*%
%LPD*%
%AMOC8*
5,1,8,0,0,1.08239X$1,22.5*
%
%ADD10C,0.1700*%
%ADD11C,0.0600*%
%ADD12C,0.0860*%
%ADD13C,0.0660*%
%ADD14C,0.1300*%
%ADD15C,0.0400*%
D10*
X013833Y006256D03*
X011983Y007437D03*
X013833Y008619D03*
D11*
X010133Y005150D02*
X009533Y005150D01*
X009533Y004150D02*
X010133Y004150D01*
X011833Y002950D02*
X011833Y002350D01*
X012833Y002350D02*
X012833Y002950D01*
X014833Y002950D02*
X014833Y002350D01*
X015833Y002350D02*
X015833Y002950D01*
X018833Y002950D02*
X018833Y002350D01*
X019833Y002350D02*
X019833Y002950D01*
X020833Y002950D02*
X020833Y002350D01*
X021833Y002350D02*
X021833Y002950D01*
X025833Y002950D02*
X025833Y002350D01*
X026833Y002350D02*
X026833Y002950D01*
X027833Y002950D02*
X027833Y002350D01*
X028833Y002350D02*
X028833Y002950D01*
X029833Y002950D02*
X029833Y002350D01*
D12*
X029802Y007181D03*
X028818Y007181D03*
X026849Y007181D03*
X025865Y007181D03*
X027833Y009150D03*
D13*
X020825Y006650D03*
X019841Y006650D03*
X019841Y005870D03*
X020825Y005870D03*
D14*
X022703Y007720D03*
X017963Y007720D03*
D15*
X009833Y003150D02*
X008833Y003150D01*
X008833Y005150D01*
X009833Y005150D01*
X009833Y007150D01*
X010121Y007437D01*
X011983Y007437D01*
X013164Y008619D01*
X013833Y008619D01*
X018833Y006150D02*
X019333Y006650D01*
X019833Y006650D01*
X020833Y006650D02*
X021333Y006650D01*
X021833Y006150D01*
X021833Y002650D01*
X020833Y002650D02*
X020833Y005650D01*
X019833Y005650D02*
X019833Y002650D01*
X018833Y002650D02*
X018833Y001150D01*
X024333Y001150D01*
X024333Y008150D01*
X024833Y008650D01*
X027333Y008650D01*
X027833Y009150D01*
X026833Y007150D02*
X026833Y002650D01*
X025833Y002650D02*
X025833Y007150D01*
X028833Y007150D02*
X028833Y002650D01*
X029833Y002650D02*
X029833Y007150D01*
X018833Y006150D02*
X018833Y002650D01*
X015833Y002650D02*
X015833Y004150D01*
X013833Y004150D01*
X012833Y004150D01*
X009833Y004150D01*
X009833Y003150D02*
X010333Y002650D01*
X011833Y002650D01*
X011833Y001150D01*
X014833Y001150D01*
X018833Y001150D01*
X014833Y001150D02*
X014833Y002650D01*
X012833Y002650D02*
X012833Y004150D01*
X013833Y004150D02*
X013833Y005650D01*
X024333Y001150D02*
X027833Y001150D01*
X027833Y002650D01*
M02*
