G75*
G70*
%OFA0B0*%
%FSLAX24Y24*%
%IPPOS*%
%LPD*%
%AMOC8*
5,1,8,0,0,1.08239X$1,22.5*
%
%ADD10C,0.0110*%
%ADD11C,0.0100*%
D10*
X009837Y001803D02*
X009936Y001705D01*
X010133Y001705D01*
X010231Y001803D01*
X009837Y002197D01*
X009837Y001803D01*
X010231Y001803D02*
X010231Y002197D01*
X010133Y002296D01*
X009936Y002296D01*
X009837Y002197D01*
X010482Y002197D02*
X010482Y002099D01*
X010875Y001705D01*
X010482Y001705D01*
X010482Y002197D02*
X010580Y002296D01*
X010777Y002296D01*
X010875Y002197D01*
X011771Y002197D02*
X011771Y001803D01*
X011869Y001705D01*
X012066Y001705D01*
X012165Y001803D01*
X012066Y002000D02*
X011771Y002000D01*
X011771Y002197D02*
X011869Y002296D01*
X012066Y002296D01*
X012165Y002197D01*
X012165Y002099D01*
X012066Y002000D01*
X012612Y002296D02*
X012809Y002099D01*
X012612Y002296D02*
X012612Y001705D01*
X012809Y001705D02*
X012415Y001705D01*
X013705Y001803D02*
X013803Y001705D01*
X014000Y001705D01*
X014098Y001803D01*
X014098Y001902D01*
X014000Y002000D01*
X013803Y002000D01*
X013705Y001902D01*
X013705Y001803D01*
X013803Y002000D02*
X013705Y002099D01*
X013705Y002197D01*
X013803Y002296D01*
X014000Y002296D01*
X014098Y002197D01*
X014098Y002099D01*
X014000Y002000D01*
X014349Y001705D02*
X014743Y001705D01*
X014546Y001705D02*
X014546Y002296D01*
X014743Y002099D01*
X015638Y002197D02*
X015638Y002296D01*
X016032Y002296D01*
X015638Y002197D02*
X016032Y001803D01*
X016032Y001705D01*
X016283Y001705D02*
X016676Y001705D01*
X016480Y001705D02*
X016480Y002296D01*
X016676Y002099D01*
X017572Y002296D02*
X017769Y002197D01*
X017966Y002000D01*
X017670Y002000D01*
X017572Y001902D01*
X017572Y001803D01*
X017670Y001705D01*
X017867Y001705D01*
X017966Y001803D01*
X017966Y002000D01*
X018216Y001705D02*
X018610Y001705D01*
X018413Y001705D02*
X018413Y002296D01*
X018610Y002099D01*
X019506Y002000D02*
X019506Y001803D01*
X019604Y001705D01*
X019801Y001705D01*
X019899Y001803D01*
X019899Y002000D02*
X019702Y002099D01*
X019604Y002099D01*
X019506Y002000D01*
X019899Y002000D02*
X019899Y002296D01*
X019506Y002296D01*
X020347Y002296D02*
X020544Y002099D01*
X020347Y002296D02*
X020347Y001705D01*
X020544Y001705D02*
X020150Y001705D01*
X021439Y002000D02*
X021833Y002000D01*
X021538Y002296D01*
X021538Y001705D01*
X022084Y001705D02*
X022477Y001705D01*
X022281Y001705D02*
X022281Y002296D01*
X022477Y002099D01*
X023373Y002099D02*
X023471Y002000D01*
X023373Y001902D01*
X023373Y001803D01*
X023471Y001705D01*
X023668Y001705D01*
X023766Y001803D01*
X024017Y001705D02*
X024411Y001705D01*
X024214Y001705D02*
X024214Y002296D01*
X024411Y002099D01*
X023766Y002197D02*
X023668Y002296D01*
X023471Y002296D01*
X023373Y002197D01*
X023373Y002099D01*
X023471Y002000D02*
X023570Y002000D01*
X025306Y002099D02*
X025306Y002197D01*
X025405Y002296D01*
X025602Y002296D01*
X025700Y002197D01*
X025306Y002099D02*
X025700Y001705D01*
X025306Y001705D01*
X025951Y001705D02*
X026345Y001705D01*
X026148Y001705D02*
X026148Y002296D01*
X026345Y002099D01*
X027240Y001705D02*
X027634Y001705D01*
X027437Y001705D02*
X027437Y002296D01*
X027634Y002099D01*
X028081Y002296D02*
X028278Y002099D01*
X028081Y002296D02*
X028081Y001705D01*
X027885Y001705D02*
X028278Y001705D01*
X028180Y002755D02*
X028278Y002853D01*
X027885Y003247D01*
X027885Y002853D01*
X027983Y002755D01*
X028180Y002755D01*
X028278Y002853D02*
X028278Y003247D01*
X028180Y003346D01*
X027983Y003346D01*
X027885Y003247D01*
X027634Y003149D02*
X027437Y003346D01*
X027437Y002755D01*
X027634Y002755D02*
X027240Y002755D01*
X026345Y002853D02*
X025951Y003247D01*
X025951Y002853D01*
X026049Y002755D01*
X026246Y002755D01*
X026345Y002853D01*
X026345Y003247D01*
X026246Y003346D01*
X026049Y003346D01*
X025951Y003247D01*
X025700Y003247D02*
X025602Y003346D01*
X025405Y003346D01*
X025306Y003247D01*
X025306Y003149D01*
X025700Y002755D01*
X025306Y002755D01*
X024411Y002853D02*
X024017Y003247D01*
X024017Y002853D01*
X024116Y002755D01*
X024313Y002755D01*
X024411Y002853D01*
X024411Y003247D01*
X024313Y003346D01*
X024116Y003346D01*
X024017Y003247D01*
X023766Y003247D02*
X023668Y003346D01*
X023471Y003346D01*
X023373Y003247D01*
X023373Y003149D01*
X023471Y003050D01*
X023373Y002952D01*
X023373Y002853D01*
X023471Y002755D01*
X023668Y002755D01*
X023766Y002853D01*
X023570Y003050D02*
X023471Y003050D01*
X022477Y002853D02*
X022477Y003247D01*
X022379Y003346D01*
X022182Y003346D01*
X022084Y003247D01*
X022477Y002853D01*
X022379Y002755D01*
X022182Y002755D01*
X022084Y002853D01*
X022084Y003247D01*
X021833Y003050D02*
X021538Y003346D01*
X021538Y002755D01*
X021439Y003050D02*
X021833Y003050D01*
X020544Y002853D02*
X020150Y003247D01*
X020150Y002853D01*
X020248Y002755D01*
X020445Y002755D01*
X020544Y002853D01*
X020544Y003247D01*
X020445Y003346D01*
X020248Y003346D01*
X020150Y003247D01*
X019899Y003346D02*
X019899Y003050D01*
X019702Y003149D01*
X019604Y003149D01*
X019506Y003050D01*
X019506Y002853D01*
X019604Y002755D01*
X019801Y002755D01*
X019899Y002853D01*
X019899Y003346D02*
X019506Y003346D01*
X018610Y003247D02*
X018512Y003346D01*
X018315Y003346D01*
X018216Y003247D01*
X018610Y002853D01*
X018512Y002755D01*
X018315Y002755D01*
X018216Y002853D01*
X018216Y003247D01*
X017966Y003050D02*
X017769Y003247D01*
X017572Y003346D01*
X017670Y003050D02*
X017572Y002952D01*
X017572Y002853D01*
X017670Y002755D01*
X017867Y002755D01*
X017966Y002853D01*
X017966Y003050D01*
X017670Y003050D01*
X018610Y002853D02*
X018610Y003247D01*
X016676Y003247D02*
X016676Y002853D01*
X016283Y003247D01*
X016283Y002853D01*
X016381Y002755D01*
X016578Y002755D01*
X016676Y002853D01*
X016032Y002853D02*
X016032Y002755D01*
X016032Y002853D02*
X015638Y003247D01*
X015638Y003346D01*
X016032Y003346D01*
X016283Y003247D02*
X016381Y003346D01*
X016578Y003346D01*
X016676Y003247D01*
X014743Y003247D02*
X014743Y002853D01*
X014349Y003247D01*
X014349Y002853D01*
X014448Y002755D01*
X014644Y002755D01*
X014743Y002853D01*
X014098Y002853D02*
X014098Y002952D01*
X014000Y003050D01*
X013803Y003050D01*
X013705Y002952D01*
X013705Y002853D01*
X013803Y002755D01*
X014000Y002755D01*
X014098Y002853D01*
X014000Y003050D02*
X014098Y003149D01*
X014098Y003247D01*
X014000Y003346D01*
X013803Y003346D01*
X013705Y003247D01*
X013705Y003149D01*
X013803Y003050D01*
X014349Y003247D02*
X014448Y003346D01*
X014644Y003346D01*
X014743Y003247D01*
X012809Y003247D02*
X012809Y002853D01*
X012415Y003247D01*
X012415Y002853D01*
X012514Y002755D01*
X012711Y002755D01*
X012809Y002853D01*
X012165Y002853D02*
X012066Y002755D01*
X011869Y002755D01*
X011771Y002853D01*
X011771Y003247D01*
X011869Y003346D01*
X012066Y003346D01*
X012165Y003247D01*
X012165Y003149D01*
X012066Y003050D01*
X011771Y003050D01*
X012415Y003247D02*
X012514Y003346D01*
X012711Y003346D01*
X012809Y003247D01*
X010875Y003149D02*
X010679Y003346D01*
X010679Y002755D01*
X010875Y002755D02*
X010482Y002755D01*
X010231Y002853D02*
X009837Y003247D01*
X009837Y002853D01*
X009936Y002755D01*
X010133Y002755D01*
X010231Y002853D01*
X010231Y003247D01*
X010133Y003346D01*
X009936Y003346D01*
X009837Y003247D01*
D11*
X008283Y004696D02*
X008283Y000600D01*
X029753Y000600D01*
X029753Y004696D01*
X008283Y004696D01*
X008283Y004681D02*
X029753Y004681D01*
X029753Y004583D02*
X008283Y004583D01*
X008283Y004484D02*
X029753Y004484D01*
X029753Y004386D02*
X008283Y004386D01*
X008283Y004287D02*
X029753Y004287D01*
X029753Y004189D02*
X008283Y004189D01*
X008283Y004090D02*
X029753Y004090D01*
X029753Y003992D02*
X008283Y003992D01*
X008283Y003893D02*
X029753Y003893D01*
X029753Y003795D02*
X008283Y003795D01*
X008283Y003696D02*
X029753Y003696D01*
X029753Y003598D02*
X028416Y003598D01*
X028375Y003638D02*
X028375Y003638D01*
X028352Y003648D01*
X028249Y003691D01*
X027914Y003691D01*
X027808Y003646D01*
X027788Y003638D01*
X027788Y003638D01*
X027788Y003638D01*
X027710Y003560D01*
X027632Y003638D01*
X027506Y003691D01*
X027368Y003691D01*
X027330Y003675D01*
X027242Y003638D01*
X027144Y003541D01*
X027092Y003414D01*
X027092Y003067D01*
X027045Y003047D01*
X026948Y002950D01*
X026895Y002824D01*
X026895Y002686D01*
X026948Y002560D01*
X027045Y002463D01*
X027120Y002431D01*
X027092Y002364D01*
X027092Y002017D01*
X027045Y001997D01*
X026948Y001900D01*
X026895Y001774D01*
X026895Y001636D01*
X026948Y001510D01*
X027045Y001413D01*
X027171Y001360D01*
X027702Y001360D01*
X027759Y001384D01*
X027816Y001360D01*
X028347Y001360D01*
X028474Y001413D01*
X028571Y001510D01*
X028623Y001636D01*
X028623Y001774D01*
X028571Y001900D01*
X028569Y001902D01*
X028571Y001903D01*
X028623Y002030D01*
X028623Y002167D01*
X028571Y002294D01*
X028389Y002476D01*
X028474Y002561D01*
X028571Y002658D01*
X028623Y002785D01*
X028623Y002922D01*
X028623Y003178D01*
X028623Y003316D01*
X028593Y003389D01*
X028571Y003443D01*
X028472Y003541D01*
X028472Y003542D01*
X028375Y003638D01*
X028375Y003638D01*
X028514Y003499D02*
X029753Y003499D01*
X029753Y003401D02*
X028588Y003401D01*
X028623Y003302D02*
X029753Y003302D01*
X029753Y003204D02*
X028623Y003204D01*
X028623Y003105D02*
X029753Y003105D01*
X029753Y003007D02*
X028623Y003007D01*
X028623Y002908D02*
X029753Y002908D01*
X029753Y002810D02*
X028623Y002810D01*
X028593Y002711D02*
X029753Y002711D01*
X029753Y002613D02*
X028525Y002613D01*
X028474Y002561D02*
X028474Y002561D01*
X028427Y002514D02*
X029753Y002514D01*
X029753Y002416D02*
X028449Y002416D01*
X028548Y002317D02*
X029753Y002317D01*
X029753Y002219D02*
X028602Y002219D01*
X028623Y002120D02*
X029753Y002120D01*
X029753Y002022D02*
X028620Y002022D01*
X028579Y001923D02*
X029753Y001923D01*
X029753Y001825D02*
X028602Y001825D01*
X028623Y001726D02*
X029753Y001726D01*
X029753Y001628D02*
X028620Y001628D01*
X028579Y001529D02*
X029753Y001529D01*
X029753Y001431D02*
X028492Y001431D01*
X029753Y001332D02*
X008283Y001332D01*
X008283Y001234D02*
X029753Y001234D01*
X029753Y001135D02*
X008283Y001135D01*
X008283Y001037D02*
X029753Y001037D01*
X029753Y000938D02*
X008283Y000938D01*
X008283Y000840D02*
X029753Y000840D01*
X029753Y000741D02*
X008283Y000741D01*
X008283Y000643D02*
X029753Y000643D01*
X027027Y001431D02*
X026558Y001431D01*
X026540Y001413D02*
X026637Y001510D01*
X026690Y001636D01*
X026690Y001774D01*
X026637Y001900D01*
X026636Y001902D01*
X026637Y001903D01*
X026690Y002030D01*
X026690Y002167D01*
X026637Y002294D01*
X026455Y002476D01*
X026540Y002561D01*
X026540Y002561D01*
X026637Y002658D01*
X026690Y002785D01*
X026690Y002922D01*
X026690Y003178D01*
X026690Y003316D01*
X026659Y003389D01*
X026637Y003443D01*
X026539Y003541D01*
X026538Y003542D01*
X026442Y003638D01*
X026442Y003638D01*
X026418Y003648D01*
X026315Y003691D01*
X025981Y003691D01*
X025874Y003646D01*
X025854Y003638D01*
X025854Y003638D01*
X025826Y003610D01*
X025797Y003638D01*
X025777Y003646D01*
X025670Y003691D01*
X025336Y003691D01*
X025233Y003648D01*
X025209Y003638D01*
X025113Y003542D01*
X025112Y003541D01*
X025014Y003443D01*
X024992Y003389D01*
X024961Y003316D01*
X024961Y003080D01*
X025014Y002953D01*
X025015Y002952D01*
X025014Y002950D01*
X024961Y002824D01*
X024961Y002686D01*
X025014Y002560D01*
X025098Y002476D01*
X025014Y002393D01*
X024992Y002339D01*
X024961Y002266D01*
X024961Y002030D01*
X025014Y001903D01*
X025015Y001902D01*
X025014Y001900D01*
X024961Y001774D01*
X024961Y001636D01*
X025014Y001510D01*
X025111Y001413D01*
X025238Y001360D01*
X025769Y001360D01*
X025826Y001384D01*
X025882Y001360D01*
X026413Y001360D01*
X026540Y001413D01*
X026645Y001529D02*
X026940Y001529D01*
X026899Y001628D02*
X026686Y001628D01*
X026690Y001726D02*
X026895Y001726D01*
X026916Y001825D02*
X026669Y001825D01*
X026645Y001923D02*
X026970Y001923D01*
X027092Y002022D02*
X026686Y002022D01*
X026690Y002120D02*
X027092Y002120D01*
X027092Y002219D02*
X026668Y002219D01*
X026614Y002317D02*
X027092Y002317D01*
X027113Y002416D02*
X026516Y002416D01*
X026493Y002514D02*
X026993Y002514D01*
X026926Y002613D02*
X026592Y002613D01*
X026659Y002711D02*
X026895Y002711D01*
X026895Y002810D02*
X026690Y002810D01*
X026690Y002908D02*
X026930Y002908D01*
X027004Y003007D02*
X026690Y003007D01*
X026690Y003105D02*
X027092Y003105D01*
X027092Y003204D02*
X026690Y003204D01*
X026690Y003302D02*
X027092Y003302D01*
X027092Y003401D02*
X026655Y003401D01*
X026581Y003499D02*
X027127Y003499D01*
X027201Y003598D02*
X026482Y003598D01*
X026442Y003638D02*
X026442Y003638D01*
X025854Y003638D02*
X025854Y003638D01*
X025797Y003638D02*
X025797Y003638D01*
X025797Y003638D01*
X025209Y003638D02*
X025209Y003638D01*
X025209Y003638D01*
X025169Y003598D02*
X024549Y003598D01*
X024508Y003638D02*
X024508Y003638D01*
X024485Y003648D01*
X024381Y003691D01*
X024047Y003691D01*
X023941Y003646D01*
X023920Y003638D01*
X023892Y003610D01*
X023863Y003638D01*
X023840Y003648D01*
X023737Y003691D01*
X023403Y003691D01*
X023296Y003646D01*
X023276Y003638D01*
X023276Y003638D01*
X023276Y003638D01*
X023082Y003444D01*
X023080Y003443D01*
X023059Y003391D01*
X023028Y003316D01*
X023028Y003080D01*
X023040Y003050D01*
X023028Y003020D01*
X023028Y002785D01*
X023080Y002658D01*
X023179Y002560D01*
X023213Y002525D01*
X023082Y002394D01*
X023080Y002393D01*
X023059Y002341D01*
X023028Y002266D01*
X023028Y002030D01*
X023040Y002000D01*
X023028Y001970D01*
X023028Y001735D01*
X023080Y001608D01*
X023179Y001510D01*
X023276Y001413D01*
X023403Y001360D01*
X023737Y001360D01*
X023843Y001404D01*
X023949Y001360D01*
X024480Y001360D01*
X024606Y001413D01*
X024704Y001510D01*
X024756Y001636D01*
X024756Y001774D01*
X024704Y001900D01*
X024702Y001902D01*
X024704Y001903D01*
X024756Y002030D01*
X024756Y002167D01*
X024704Y002294D01*
X024522Y002476D01*
X024606Y002561D01*
X024606Y002561D01*
X024704Y002658D01*
X024714Y002684D01*
X024756Y002785D01*
X024756Y003316D01*
X024726Y003389D01*
X024704Y003443D01*
X024605Y003541D01*
X024604Y003542D01*
X024508Y003638D01*
X024508Y003638D01*
X024647Y003499D02*
X025070Y003499D01*
X024997Y003401D02*
X024721Y003401D01*
X024756Y003302D02*
X024961Y003302D01*
X024961Y003204D02*
X024756Y003204D01*
X024756Y003105D02*
X024961Y003105D01*
X024992Y003007D02*
X024756Y003007D01*
X024756Y002908D02*
X024996Y002908D01*
X024961Y002810D02*
X024756Y002810D01*
X024725Y002711D02*
X024961Y002711D01*
X024992Y002613D02*
X024658Y002613D01*
X024560Y002514D02*
X025060Y002514D01*
X025037Y002416D02*
X024582Y002416D01*
X024681Y002317D02*
X024983Y002317D01*
X024961Y002219D02*
X024735Y002219D01*
X024756Y002120D02*
X024961Y002120D01*
X024965Y002022D02*
X024752Y002022D01*
X024712Y001923D02*
X025006Y001923D01*
X024983Y001825D02*
X024735Y001825D01*
X024756Y001726D02*
X024961Y001726D01*
X024965Y001628D02*
X024752Y001628D01*
X024712Y001529D02*
X025006Y001529D01*
X025093Y001431D02*
X024624Y001431D01*
X023258Y001431D02*
X022691Y001431D01*
X022673Y001413D02*
X022770Y001510D01*
X022822Y001636D01*
X022822Y001774D01*
X022770Y001900D01*
X022768Y001902D01*
X022770Y001903D01*
X022822Y002030D01*
X022822Y002167D01*
X022770Y002294D01*
X022588Y002476D01*
X022673Y002561D01*
X022770Y002658D01*
X022822Y002785D01*
X022822Y002922D01*
X022822Y003178D01*
X022822Y003316D01*
X022792Y003389D01*
X022770Y003443D01*
X022671Y003541D01*
X022671Y003542D01*
X022574Y003638D01*
X022551Y003648D01*
X022448Y003691D01*
X022114Y003691D01*
X022007Y003646D01*
X021987Y003638D01*
X021987Y003638D01*
X021987Y003638D01*
X021888Y003540D01*
X021860Y003511D01*
X021733Y003638D01*
X021606Y003691D01*
X021469Y003691D01*
X021342Y003638D01*
X021245Y003541D01*
X021193Y003414D01*
X021193Y003292D01*
X021147Y003246D01*
X021094Y003119D01*
X021094Y002982D01*
X021147Y002855D01*
X021193Y002809D01*
X021193Y002686D01*
X021245Y002560D01*
X021279Y002525D01*
X021245Y002491D01*
X021193Y002364D01*
X021193Y002242D01*
X021147Y002196D01*
X021094Y002069D01*
X021094Y001932D01*
X021147Y001805D01*
X021193Y001759D01*
X021193Y001636D01*
X021245Y001510D01*
X021342Y001413D01*
X021469Y001360D01*
X021606Y001360D01*
X021733Y001413D01*
X021811Y001490D01*
X021888Y001413D01*
X022015Y001360D01*
X022546Y001360D01*
X022673Y001413D01*
X022778Y001529D02*
X023159Y001529D01*
X023072Y001628D02*
X022819Y001628D01*
X022822Y001726D02*
X023031Y001726D01*
X023028Y001825D02*
X022801Y001825D01*
X022778Y001923D02*
X023028Y001923D01*
X023031Y002022D02*
X022819Y002022D01*
X022822Y002120D02*
X023028Y002120D01*
X023028Y002219D02*
X022801Y002219D01*
X022747Y002317D02*
X023049Y002317D01*
X023080Y002393D02*
X023080Y002393D01*
X023103Y002416D02*
X022648Y002416D01*
X022626Y002514D02*
X023202Y002514D01*
X023126Y002613D02*
X022724Y002613D01*
X022673Y002561D02*
X022673Y002561D01*
X022792Y002711D02*
X023058Y002711D01*
X023028Y002810D02*
X022822Y002810D01*
X022822Y002908D02*
X023028Y002908D01*
X023028Y003007D02*
X022822Y003007D01*
X022822Y003105D02*
X023028Y003105D01*
X023028Y003204D02*
X022822Y003204D01*
X022822Y003302D02*
X023028Y003302D01*
X023063Y003401D02*
X022787Y003401D01*
X022713Y003499D02*
X023137Y003499D01*
X023080Y003443D02*
X023080Y003443D01*
X023235Y003598D02*
X022615Y003598D01*
X022574Y003638D02*
X022574Y003638D01*
X022574Y003638D01*
X021946Y003598D02*
X021773Y003598D01*
X021888Y003540D02*
X021888Y003540D01*
X021302Y003598D02*
X020681Y003598D01*
X020641Y003638D02*
X020641Y003638D01*
X020737Y003542D01*
X020738Y003541D01*
X020836Y003443D01*
X020858Y003389D01*
X020889Y003316D01*
X020889Y003178D01*
X020889Y002922D01*
X020889Y002785D01*
X020836Y002658D01*
X020739Y002561D01*
X020739Y002561D01*
X020654Y002476D01*
X020836Y002294D01*
X020889Y002167D01*
X020889Y002030D01*
X020836Y001903D01*
X020835Y001902D01*
X020836Y001900D01*
X020889Y001774D01*
X020889Y001636D01*
X020836Y001510D01*
X020739Y001413D01*
X020612Y001360D01*
X020081Y001360D01*
X019975Y001404D01*
X019869Y001360D01*
X019535Y001360D01*
X019409Y001413D01*
X019311Y001510D01*
X019213Y001608D01*
X019161Y001735D01*
X019161Y002069D01*
X019193Y002148D01*
X019161Y002227D01*
X019161Y002364D01*
X019213Y002491D01*
X019297Y002574D01*
X019213Y002658D01*
X019161Y002785D01*
X019161Y003119D01*
X019193Y003198D01*
X019161Y003277D01*
X019161Y003414D01*
X019213Y003541D01*
X019310Y003638D01*
X019437Y003691D01*
X019968Y003691D01*
X020074Y003647D01*
X020180Y003691D01*
X020514Y003691D01*
X020617Y003648D01*
X020641Y003638D01*
X020641Y003638D01*
X020780Y003499D02*
X021228Y003499D01*
X021193Y003401D02*
X020854Y003401D01*
X020889Y003302D02*
X021193Y003302D01*
X021129Y003204D02*
X020889Y003204D01*
X020889Y003105D02*
X021094Y003105D01*
X021094Y003007D02*
X020889Y003007D01*
X020889Y002908D02*
X021125Y002908D01*
X021192Y002810D02*
X020889Y002810D01*
X020858Y002711D02*
X021193Y002711D01*
X021223Y002613D02*
X020791Y002613D01*
X020692Y002514D02*
X021268Y002514D01*
X021214Y002416D02*
X020715Y002416D01*
X020813Y002317D02*
X021193Y002317D01*
X021170Y002219D02*
X020868Y002219D01*
X020889Y002120D02*
X021115Y002120D01*
X021094Y002022D02*
X020885Y002022D01*
X020844Y001923D02*
X021098Y001923D01*
X021139Y001825D02*
X020868Y001825D01*
X020889Y001726D02*
X021193Y001726D01*
X021196Y001628D02*
X020885Y001628D01*
X020844Y001529D02*
X021237Y001529D01*
X021324Y001431D02*
X020757Y001431D01*
X021751Y001431D02*
X021870Y001431D01*
X019391Y001431D02*
X018823Y001431D01*
X018806Y001413D02*
X018903Y001510D01*
X018955Y001636D01*
X018955Y001774D01*
X018903Y001900D01*
X018901Y001902D01*
X018903Y001903D01*
X018955Y002030D01*
X018955Y002167D01*
X018903Y002294D01*
X018721Y002476D01*
X018806Y002561D01*
X018903Y002658D01*
X018955Y002785D01*
X018955Y002922D01*
X018955Y003178D01*
X018955Y003316D01*
X018925Y003389D01*
X018903Y003443D01*
X018804Y003541D01*
X018803Y003542D01*
X018707Y003638D01*
X018684Y003648D01*
X018580Y003691D01*
X018246Y003691D01*
X018140Y003646D01*
X018119Y003638D01*
X018021Y003540D01*
X017995Y003513D01*
X017984Y003525D01*
X017973Y003531D01*
X017964Y003540D01*
X017912Y003561D01*
X017665Y003685D01*
X017528Y003695D01*
X017398Y003651D01*
X017294Y003561D01*
X017233Y003438D01*
X017223Y003302D01*
X017021Y003302D01*
X017021Y003316D02*
X016991Y003389D01*
X016969Y003443D01*
X016870Y003541D01*
X016870Y003542D01*
X016773Y003638D01*
X016750Y003648D01*
X016647Y003691D01*
X016313Y003691D01*
X016207Y003647D01*
X016101Y003691D01*
X015570Y003691D01*
X015443Y003638D01*
X015346Y003541D01*
X015293Y003414D01*
X015293Y003178D01*
X015346Y003052D01*
X015687Y002711D01*
X015687Y002686D01*
X015706Y002641D01*
X015570Y002641D01*
X015443Y002588D01*
X015346Y002491D01*
X015293Y002364D01*
X015293Y002128D01*
X015346Y002002D01*
X015687Y001661D01*
X015687Y001636D01*
X015739Y001510D01*
X015836Y001413D01*
X015963Y001360D01*
X016101Y001360D01*
X016157Y001384D01*
X016214Y001360D01*
X016745Y001360D01*
X016872Y001413D01*
X016969Y001510D01*
X017021Y001636D01*
X017021Y001774D01*
X016969Y001900D01*
X016968Y001902D01*
X016969Y001903D01*
X017021Y002030D01*
X017021Y002167D01*
X016969Y002294D01*
X016787Y002476D01*
X016872Y002561D01*
X016969Y002658D01*
X017021Y002785D01*
X017021Y002922D01*
X017021Y003178D01*
X017021Y003316D01*
X016986Y003401D02*
X017230Y003401D01*
X017223Y003302D02*
X017266Y003171D01*
X017284Y003151D01*
X017279Y003147D01*
X017257Y003094D01*
X017227Y003020D01*
X017227Y002785D01*
X017279Y002658D01*
X017365Y002573D01*
X017294Y002511D01*
X017233Y002388D01*
X017223Y002252D01*
X017266Y002121D01*
X017284Y002101D01*
X017279Y002097D01*
X017257Y002044D01*
X017227Y001970D01*
X017227Y001735D01*
X017279Y001608D01*
X017376Y001511D01*
X017475Y001413D01*
X017602Y001360D01*
X017936Y001360D01*
X018042Y001404D01*
X018148Y001360D01*
X018679Y001360D01*
X018806Y001413D01*
X018911Y001529D02*
X019292Y001529D01*
X019205Y001628D02*
X018951Y001628D01*
X018955Y001726D02*
X019164Y001726D01*
X019161Y001825D02*
X018934Y001825D01*
X018911Y001923D02*
X019161Y001923D01*
X019161Y002022D02*
X018952Y002022D01*
X018955Y002120D02*
X019182Y002120D01*
X019164Y002219D02*
X018934Y002219D01*
X018880Y002317D02*
X019161Y002317D01*
X019182Y002416D02*
X018781Y002416D01*
X018759Y002514D02*
X019236Y002514D01*
X019259Y002613D02*
X018857Y002613D01*
X018806Y002561D02*
X018806Y002561D01*
X018925Y002711D02*
X019191Y002711D01*
X019161Y002810D02*
X018955Y002810D01*
X018955Y002908D02*
X019161Y002908D01*
X019161Y003007D02*
X018955Y003007D01*
X018955Y003105D02*
X019161Y003105D01*
X019191Y003204D02*
X018955Y003204D01*
X018955Y003302D02*
X019161Y003302D01*
X019161Y003401D02*
X018920Y003401D01*
X018846Y003499D02*
X019196Y003499D01*
X019270Y003598D02*
X018748Y003598D01*
X018707Y003638D02*
X018707Y003638D01*
X018707Y003638D01*
X018119Y003638D02*
X018119Y003638D01*
X018119Y003638D01*
X018079Y003598D02*
X017839Y003598D01*
X018021Y003540D02*
X018021Y003540D01*
X017336Y003598D02*
X016814Y003598D01*
X016773Y003638D02*
X016773Y003638D01*
X016773Y003638D01*
X016912Y003499D02*
X017263Y003499D01*
X017256Y003204D02*
X017021Y003204D01*
X017021Y003105D02*
X017262Y003105D01*
X017227Y003007D02*
X017021Y003007D01*
X017021Y002908D02*
X017227Y002908D01*
X017227Y002810D02*
X017021Y002810D01*
X016991Y002711D02*
X017257Y002711D01*
X017325Y002613D02*
X016923Y002613D01*
X016872Y002561D02*
X016872Y002561D01*
X016825Y002514D02*
X017297Y002514D01*
X017246Y002416D02*
X016848Y002416D01*
X016946Y002317D02*
X017228Y002317D01*
X017234Y002219D02*
X017000Y002219D01*
X017021Y002120D02*
X017267Y002120D01*
X017248Y002022D02*
X017018Y002022D01*
X016977Y001923D02*
X017227Y001923D01*
X017227Y001825D02*
X017000Y001825D01*
X017021Y001726D02*
X017231Y001726D01*
X017271Y001628D02*
X017018Y001628D01*
X016977Y001529D02*
X017358Y001529D01*
X017457Y001431D02*
X016890Y001431D01*
X015818Y001431D02*
X014956Y001431D01*
X014938Y001413D02*
X015035Y001510D01*
X015088Y001636D01*
X015088Y001774D01*
X015035Y001900D01*
X015034Y001902D01*
X015035Y001903D01*
X015088Y002030D01*
X015088Y002167D01*
X015035Y002294D01*
X014853Y002476D01*
X014938Y002561D01*
X014938Y002561D01*
X015035Y002658D01*
X015088Y002785D01*
X015088Y002922D01*
X015088Y003178D01*
X015088Y003316D01*
X015057Y003389D01*
X015035Y003443D01*
X014937Y003541D01*
X014936Y003542D01*
X014840Y003638D01*
X014840Y003638D01*
X014817Y003648D01*
X014713Y003691D01*
X014379Y003691D01*
X014272Y003646D01*
X014252Y003638D01*
X014224Y003610D01*
X014195Y003638D01*
X014172Y003648D01*
X014068Y003691D01*
X013734Y003691D01*
X013628Y003646D01*
X013608Y003638D01*
X013608Y003638D01*
X013608Y003638D01*
X013414Y003444D01*
X013412Y003443D01*
X013412Y003443D01*
X013391Y003391D01*
X013360Y003316D01*
X013360Y003080D01*
X013372Y003050D01*
X013360Y003020D01*
X013360Y002785D01*
X013412Y002658D01*
X013511Y002560D01*
X013545Y002525D01*
X013414Y002394D01*
X013412Y002393D01*
X013412Y002393D01*
X013391Y002341D01*
X013360Y002266D01*
X013360Y002030D01*
X013372Y002000D01*
X013360Y001970D01*
X013360Y001735D01*
X013412Y001608D01*
X013511Y001510D01*
X013608Y001413D01*
X013734Y001360D01*
X014068Y001360D01*
X014174Y001404D01*
X014280Y001360D01*
X014811Y001360D01*
X014938Y001413D01*
X015043Y001529D02*
X015731Y001529D01*
X015691Y001628D02*
X015084Y001628D01*
X015088Y001726D02*
X015621Y001726D01*
X015523Y001825D02*
X015067Y001825D01*
X015043Y001923D02*
X015424Y001923D01*
X015338Y002022D02*
X015084Y002022D01*
X015088Y002120D02*
X015297Y002120D01*
X015293Y002219D02*
X015067Y002219D01*
X015012Y002317D02*
X015293Y002317D01*
X015315Y002416D02*
X014914Y002416D01*
X014891Y002514D02*
X015369Y002514D01*
X015502Y002613D02*
X014990Y002613D01*
X015057Y002711D02*
X015686Y002711D01*
X015588Y002810D02*
X015088Y002810D01*
X015088Y002908D02*
X015489Y002908D01*
X015391Y003007D02*
X015088Y003007D01*
X015088Y003105D02*
X015324Y003105D01*
X015293Y003204D02*
X015088Y003204D01*
X015088Y003302D02*
X015293Y003302D01*
X015293Y003401D02*
X015053Y003401D01*
X014979Y003499D02*
X015328Y003499D01*
X015402Y003598D02*
X014880Y003598D01*
X014840Y003638D02*
X014840Y003638D01*
X014252Y003638D02*
X014252Y003638D01*
X014252Y003638D01*
X014195Y003638D02*
X014195Y003638D01*
X014195Y003638D01*
X013567Y003598D02*
X012947Y003598D01*
X012906Y003638D02*
X012906Y003638D01*
X012883Y003648D01*
X012779Y003691D01*
X012445Y003691D01*
X012339Y003646D01*
X012318Y003638D01*
X012290Y003610D01*
X012262Y003638D01*
X012262Y003638D01*
X012241Y003646D01*
X012135Y003691D01*
X011801Y003691D01*
X011697Y003648D01*
X011674Y003638D01*
X011674Y003638D01*
X011674Y003638D01*
X011578Y003542D01*
X011577Y003541D01*
X011478Y003443D01*
X011456Y003389D01*
X011426Y003316D01*
X011426Y002785D01*
X011478Y002658D01*
X011575Y002561D01*
X011575Y002561D01*
X011611Y002525D01*
X011578Y002492D01*
X011577Y002491D01*
X011478Y002393D01*
X011456Y002339D01*
X011426Y002266D01*
X011426Y001735D01*
X011478Y001608D01*
X011575Y001511D01*
X011674Y001413D01*
X011801Y001360D01*
X012135Y001360D01*
X012241Y001404D01*
X012347Y001360D01*
X012878Y001360D01*
X013005Y001413D01*
X013102Y001510D01*
X013154Y001636D01*
X013154Y001774D01*
X013102Y001900D01*
X013100Y001902D01*
X013102Y001903D01*
X013154Y002030D01*
X013154Y002167D01*
X013102Y002294D01*
X012920Y002476D01*
X013005Y002561D01*
X013102Y002658D01*
X013154Y002785D01*
X013154Y002922D01*
X013154Y003178D01*
X013154Y003316D01*
X013124Y003389D01*
X013102Y003443D01*
X013003Y003541D01*
X013002Y003542D01*
X012906Y003638D01*
X012906Y003638D01*
X013045Y003499D02*
X013469Y003499D01*
X013395Y003401D02*
X013119Y003401D01*
X013154Y003302D02*
X013360Y003302D01*
X013360Y003204D02*
X013154Y003204D01*
X013154Y003105D02*
X013360Y003105D01*
X013360Y003007D02*
X013154Y003007D01*
X013154Y002908D02*
X013360Y002908D01*
X013360Y002810D02*
X013154Y002810D01*
X013124Y002711D02*
X013390Y002711D01*
X013458Y002613D02*
X013056Y002613D01*
X013005Y002561D02*
X013005Y002561D01*
X012958Y002514D02*
X013534Y002514D01*
X013435Y002416D02*
X012980Y002416D01*
X013079Y002317D02*
X013381Y002317D01*
X013360Y002219D02*
X013133Y002219D01*
X013154Y002120D02*
X013360Y002120D01*
X013363Y002022D02*
X013151Y002022D01*
X013110Y001923D02*
X013360Y001923D01*
X013360Y001825D02*
X013133Y001825D01*
X013154Y001726D02*
X013363Y001726D01*
X013404Y001628D02*
X013150Y001628D01*
X013110Y001529D02*
X013491Y001529D01*
X013590Y001431D02*
X013023Y001431D01*
X011656Y001431D02*
X011089Y001431D01*
X011071Y001413D02*
X011168Y001510D01*
X011220Y001636D01*
X011220Y001774D01*
X011168Y001900D01*
X011117Y001951D01*
X011168Y002002D01*
X011220Y002128D01*
X011220Y002266D01*
X011168Y002393D01*
X011084Y002476D01*
X011168Y002560D01*
X011220Y002686D01*
X011220Y002824D01*
X011168Y002950D01*
X011167Y002952D01*
X011168Y002953D01*
X011220Y003080D01*
X011220Y003217D01*
X011168Y003344D01*
X010874Y003638D01*
X010747Y003691D01*
X010610Y003691D01*
X010572Y003675D01*
X010483Y003638D01*
X010406Y003560D01*
X010328Y003638D01*
X010328Y003638D01*
X010305Y003648D01*
X010201Y003691D01*
X009867Y003691D01*
X009761Y003646D01*
X009740Y003638D01*
X009642Y003540D01*
X009545Y003443D01*
X009545Y003443D01*
X009539Y003428D01*
X009492Y003316D01*
X009492Y002785D01*
X009545Y002658D01*
X009643Y002560D01*
X009678Y002525D01*
X009642Y002490D01*
X009545Y002393D01*
X009545Y002393D01*
X009539Y002378D01*
X009492Y002266D01*
X009492Y001735D01*
X009545Y001608D01*
X009643Y001510D01*
X009740Y001413D01*
X009867Y001360D01*
X010201Y001360D01*
X010307Y001404D01*
X010413Y001360D01*
X010944Y001360D01*
X011071Y001413D01*
X011176Y001529D02*
X011557Y001529D01*
X011470Y001628D02*
X011217Y001628D01*
X011220Y001726D02*
X011430Y001726D01*
X011426Y001825D02*
X011199Y001825D01*
X011145Y001923D02*
X011426Y001923D01*
X011426Y002022D02*
X011176Y002022D01*
X011217Y002120D02*
X011426Y002120D01*
X011426Y002219D02*
X011220Y002219D01*
X011199Y002317D02*
X011447Y002317D01*
X011501Y002416D02*
X011145Y002416D01*
X011122Y002514D02*
X011600Y002514D01*
X011524Y002613D02*
X011190Y002613D01*
X011220Y002711D02*
X011456Y002711D01*
X011426Y002810D02*
X011220Y002810D01*
X011186Y002908D02*
X011426Y002908D01*
X011426Y003007D02*
X011190Y003007D01*
X011220Y003105D02*
X011426Y003105D01*
X011426Y003204D02*
X011220Y003204D01*
X011185Y003302D02*
X011426Y003302D01*
X011461Y003401D02*
X011112Y003401D01*
X011013Y003499D02*
X011535Y003499D01*
X011633Y003598D02*
X010915Y003598D01*
X010443Y003598D02*
X010368Y003598D01*
X010328Y003638D02*
X010328Y003638D01*
X009740Y003638D02*
X009740Y003638D01*
X009740Y003638D01*
X009700Y003598D02*
X008283Y003598D01*
X008283Y003499D02*
X009601Y003499D01*
X009642Y003540D02*
X009642Y003540D01*
X009545Y003443D02*
X009545Y003443D01*
X009527Y003401D02*
X008283Y003401D01*
X008283Y003302D02*
X009492Y003302D01*
X009492Y003204D02*
X008283Y003204D01*
X008283Y003105D02*
X009492Y003105D01*
X009492Y003007D02*
X008283Y003007D01*
X008283Y002908D02*
X009492Y002908D01*
X009492Y002810D02*
X008283Y002810D01*
X008283Y002711D02*
X009523Y002711D01*
X009590Y002613D02*
X008283Y002613D01*
X008283Y002514D02*
X009666Y002514D01*
X009568Y002416D02*
X008283Y002416D01*
X008283Y002317D02*
X009514Y002317D01*
X009492Y002219D02*
X008283Y002219D01*
X008283Y002120D02*
X009492Y002120D01*
X009492Y002022D02*
X008283Y002022D01*
X008283Y001923D02*
X009492Y001923D01*
X009492Y001825D02*
X008283Y001825D01*
X008283Y001726D02*
X009496Y001726D01*
X009537Y001628D02*
X008283Y001628D01*
X008283Y001529D02*
X009624Y001529D01*
X009722Y001431D02*
X008283Y001431D01*
X012262Y003638D02*
X012262Y003638D01*
X012318Y003638D02*
X012318Y003638D01*
X018013Y002442D02*
X018063Y002463D01*
X018091Y002491D01*
X018112Y002470D01*
X018074Y002379D01*
X018021Y002432D01*
X018013Y002442D01*
X018038Y002416D02*
X018090Y002416D01*
X021796Y002525D02*
X021830Y002560D01*
X021848Y002602D01*
X021890Y002560D01*
X021979Y002470D01*
X021942Y002379D01*
X021796Y002525D01*
X021807Y002514D02*
X021935Y002514D01*
X021957Y002416D02*
X021905Y002416D01*
X023863Y003638D02*
X023863Y003638D01*
X023863Y003638D01*
X023920Y003638D02*
X023920Y003638D01*
X027673Y003598D02*
X027747Y003598D01*
M02*
