G75*
G70*
%OFA0B0*%
%FSLAX24Y24*%
%IPPOS*%
%LPD*%
%AMOC8*
5,1,8,0,0,1.08239X$1,22.5*
%
%ADD10C,0.0000*%
%ADD11C,0.0051*%
%ADD12C,0.0110*%
D10*
X007833Y000150D02*
X007833Y005146D01*
X030203Y005146D01*
X030203Y000150D01*
X007833Y000150D01*
D11*
X007833Y005150D02*
X007833Y006418D01*
X007833Y005650D02*
X008857Y005752D01*
X008857Y005776D02*
X008857Y005524D01*
X007833Y005650D01*
X008857Y005548D01*
X008857Y005599D02*
X007833Y005650D01*
X008857Y005701D01*
X008857Y005776D02*
X007833Y005650D01*
X030333Y005650D01*
X029310Y005548D01*
X029310Y005524D02*
X030333Y005650D01*
X029310Y005752D01*
X029310Y005776D02*
X029310Y005524D01*
X029310Y005599D02*
X030333Y005650D01*
X029310Y005701D01*
X029310Y005776D02*
X030333Y005650D01*
X030333Y005150D02*
X030333Y006418D01*
D12*
X020338Y006522D02*
X019944Y006522D01*
X019944Y006226D01*
X020141Y006325D01*
X020239Y006325D01*
X020338Y006226D01*
X020338Y006030D01*
X020239Y005931D01*
X020042Y005931D01*
X019944Y006030D01*
X019693Y005931D02*
X019299Y005931D01*
X019496Y005931D02*
X019496Y006522D01*
X019299Y006325D01*
X018726Y006423D02*
X018726Y006522D01*
X018333Y006522D01*
X018082Y006522D02*
X017688Y006522D01*
X017688Y006226D01*
X017885Y006325D01*
X017983Y006325D01*
X018082Y006226D01*
X018082Y006030D01*
X017983Y005931D01*
X017787Y005931D01*
X017688Y006030D01*
X018333Y006030D02*
X018333Y005931D01*
X018333Y006030D02*
X018726Y006423D01*
X018977Y006030D02*
X019076Y006030D01*
X019076Y005931D01*
X018977Y005931D01*
X018977Y006030D01*
M02*
