<?xml version="1.0" encoding="UTF-8"?>
<svg xmlns="http://www.w3.org/2000/svg" xmlns:xlink="http://www.w3.org/1999/xlink" width="1565pt" height="839pt" viewBox="0 0 1565 839" version="1.1">
<g id="surface1">
<path style="fill:none;stroke-width:0.01;stroke-linecap:round;stroke-linejoin:miter;stroke:rgb(0%,0%,0%);stroke-opacity:1;stroke-miterlimit:10;" d="M 0.7833 0.015 L 0.7833 1.264603 " transform="matrix(600,0,0,-600,-466.979992,845)"/>
<path style="fill:none;stroke-width:0.01;stroke-linecap:round;stroke-linejoin:miter;stroke:rgb(0%,0%,0%);stroke-opacity:1;stroke-miterlimit:10;" d="M 0.7833 1.264603 L 3.370299 1.264603 " transform="matrix(600,0,0,-600,-466.979992,845)"/>
<path style="fill:none;stroke-width:0.01;stroke-linecap:round;stroke-linejoin:miter;stroke:rgb(0%,0%,0%);stroke-opacity:1;stroke-miterlimit:10;" d="M 3.370299 1.264603 L 3.370299 0.015 " transform="matrix(600,0,0,-600,-466.979992,845)"/>
<path style="fill:none;stroke-width:0.01;stroke-linecap:round;stroke-linejoin:miter;stroke:rgb(0%,0%,0%);stroke-opacity:1;stroke-miterlimit:10;" d="M 3.370299 0.015 L 0.7833 0.015 " transform="matrix(600,0,0,-600,-466.979992,845)"/>
<path style="fill:none;stroke-width:0.0051;stroke-linecap:round;stroke-linejoin:miter;stroke:rgb(0%,0%,0%);stroke-opacity:1;stroke-miterlimit:10;" d="M 0.7833 1.265 L 0.7833 1.391797 " transform="matrix(600,0,0,-600,-466.979992,845)"/>
<path style="fill:none;stroke-width:0.0051;stroke-linecap:round;stroke-linejoin:miter;stroke:rgb(0%,0%,0%);stroke-opacity:1;stroke-miterlimit:10;" d="M 0.7833 1.315 L 0.885702 1.327598 " transform="matrix(600,0,0,-600,-466.979992,845)"/>
<path style="fill:none;stroke-width:0.0051;stroke-linecap:round;stroke-linejoin:miter;stroke:rgb(0%,0%,0%);stroke-opacity:1;stroke-miterlimit:10;" d="M 0.885702 1.327598 L 0.885702 1.302402 " transform="matrix(600,0,0,-600,-466.979992,845)"/>
<path style="fill:none;stroke-width:0.0051;stroke-linecap:round;stroke-linejoin:miter;stroke:rgb(0%,0%,0%);stroke-opacity:1;stroke-miterlimit:10;" d="M 0.885702 1.302402 L 0.7833 1.315 " transform="matrix(600,0,0,-600,-466.979992,845)"/>
<path style="fill:none;stroke-width:0.0051;stroke-linecap:round;stroke-linejoin:miter;stroke:rgb(0%,0%,0%);stroke-opacity:1;stroke-miterlimit:10;" d="M 0.7833 1.315 L 0.885702 1.304798 " transform="matrix(600,0,0,-600,-466.979992,845)"/>
<path style="fill:none;stroke-width:0.0051;stroke-linecap:round;stroke-linejoin:miter;stroke:rgb(0%,0%,0%);stroke-opacity:1;stroke-miterlimit:10;" d="M 0.885702 1.309902 L 0.7833 1.315 " transform="matrix(600,0,0,-600,-466.979992,845)"/>
<path style="fill:none;stroke-width:0.0051;stroke-linecap:round;stroke-linejoin:miter;stroke:rgb(0%,0%,0%);stroke-opacity:1;stroke-miterlimit:10;" d="M 0.7833 1.315 L 0.885702 1.325202 " transform="matrix(600,0,0,-600,-466.979992,845)"/>
<path style="fill:none;stroke-width:0.0051;stroke-linecap:round;stroke-linejoin:miter;stroke:rgb(0%,0%,0%);stroke-opacity:1;stroke-miterlimit:10;" d="M 0.885702 1.320098 L 0.7833 1.315 " transform="matrix(600,0,0,-600,-466.979992,845)"/>
<path style="fill:none;stroke-width:0.0051;stroke-linecap:round;stroke-linejoin:miter;stroke:rgb(0%,0%,0%);stroke-opacity:1;stroke-miterlimit:10;" d="M 0.7833 1.315 L 3.3833 1.315 " transform="matrix(600,0,0,-600,-466.979992,845)"/>
<path style="fill:none;stroke-width:0.0051;stroke-linecap:round;stroke-linejoin:miter;stroke:rgb(0%,0%,0%);stroke-opacity:1;stroke-miterlimit:10;" d="M 3.3833 1.315 L 3.281002 1.304798 " transform="matrix(600,0,0,-600,-466.979992,845)"/>
<path style="fill:none;stroke-width:0.0051;stroke-linecap:round;stroke-linejoin:miter;stroke:rgb(0%,0%,0%);stroke-opacity:1;stroke-miterlimit:10;" d="M 3.281002 1.302402 L 3.3833 1.315 " transform="matrix(600,0,0,-600,-466.979992,845)"/>
<path style="fill:none;stroke-width:0.0051;stroke-linecap:round;stroke-linejoin:miter;stroke:rgb(0%,0%,0%);stroke-opacity:1;stroke-miterlimit:10;" d="M 3.3833 1.315 L 3.281002 1.325202 " transform="matrix(600,0,0,-600,-466.979992,845)"/>
<path style="fill:none;stroke-width:0.0051;stroke-linecap:round;stroke-linejoin:miter;stroke:rgb(0%,0%,0%);stroke-opacity:1;stroke-miterlimit:10;" d="M 3.281002 1.327598 L 3.281002 1.302402 " transform="matrix(600,0,0,-600,-466.979992,845)"/>
<path style="fill:none;stroke-width:0.0051;stroke-linecap:round;stroke-linejoin:miter;stroke:rgb(0%,0%,0%);stroke-opacity:1;stroke-miterlimit:10;" d="M 3.281002 1.309902 L 3.3833 1.315 " transform="matrix(600,0,0,-600,-466.979992,845)"/>
<path style="fill:none;stroke-width:0.0051;stroke-linecap:round;stroke-linejoin:miter;stroke:rgb(0%,0%,0%);stroke-opacity:1;stroke-miterlimit:10;" d="M 3.3833 1.315 L 3.281002 1.320098 " transform="matrix(600,0,0,-600,-466.979992,845)"/>
<path style="fill:none;stroke-width:0.0051;stroke-linecap:round;stroke-linejoin:miter;stroke:rgb(0%,0%,0%);stroke-opacity:1;stroke-miterlimit:10;" d="M 3.281002 1.327598 L 3.3833 1.315 " transform="matrix(600,0,0,-600,-466.979992,845)"/>
<path style="fill:none;stroke-width:0.0051;stroke-linecap:round;stroke-linejoin:miter;stroke:rgb(0%,0%,0%);stroke-opacity:1;stroke-miterlimit:10;" d="M 3.3833 1.265 L 3.3833 1.391797 " transform="matrix(600,0,0,-600,-466.979992,845)"/>
<path style="fill:none;stroke-width:0.011;stroke-linecap:round;stroke-linejoin:miter;stroke:rgb(0%,0%,0%);stroke-opacity:1;stroke-miterlimit:10;" d="M 2.208801 1.372598 L 2.1694 1.372598 " transform="matrix(600,0,0,-600,-466.979992,845)"/>
<path style="fill:none;stroke-width:0.011;stroke-linecap:round;stroke-linejoin:miter;stroke:rgb(0%,0%,0%);stroke-opacity:1;stroke-miterlimit:10;" d="M 2.1694 1.372598 L 2.198899 1.402201 " transform="matrix(600,0,0,-600,-466.979992,845)"/>
<path style="fill:none;stroke-width:0.011;stroke-linecap:round;stroke-linejoin:miter;stroke:rgb(0%,0%,0%);stroke-opacity:1;stroke-miterlimit:10;" d="M 2.198899 1.402201 L 2.198899 1.343099 " transform="matrix(600,0,0,-600,-466.979992,845)"/>
<path style="fill:none;stroke-width:0.011;stroke-linecap:round;stroke-linejoin:miter;stroke:rgb(0%,0%,0%);stroke-opacity:1;stroke-miterlimit:10;" d="M 2.144303 1.353001 L 2.134498 1.343099 " transform="matrix(600,0,0,-600,-466.979992,845)"/>
<path style="fill:none;stroke-width:0.011;stroke-linecap:round;stroke-linejoin:miter;stroke:rgb(0%,0%,0%);stroke-opacity:1;stroke-miterlimit:10;" d="M 2.134498 1.343099 L 2.114797 1.343099 " transform="matrix(600,0,0,-600,-466.979992,845)"/>
<path style="fill:none;stroke-width:0.011;stroke-linecap:round;stroke-linejoin:miter;stroke:rgb(0%,0%,0%);stroke-opacity:1;stroke-miterlimit:10;" d="M 2.114797 1.343099 L 2.104902 1.353001 " transform="matrix(600,0,0,-600,-466.979992,845)"/>
<path style="fill:none;stroke-width:0.011;stroke-linecap:round;stroke-linejoin:miter;stroke:rgb(0%,0%,0%);stroke-opacity:1;stroke-miterlimit:10;" d="M 2.104902 1.353001 L 2.144303 1.392298 " transform="matrix(600,0,0,-600,-466.979992,845)"/>
<path style="fill:none;stroke-width:0.011;stroke-linecap:round;stroke-linejoin:miter;stroke:rgb(0%,0%,0%);stroke-opacity:1;stroke-miterlimit:10;" d="M 2.144303 1.392298 L 2.144303 1.353001 " transform="matrix(600,0,0,-600,-466.979992,845)"/>
<path style="fill:none;stroke-width:0.011;stroke-linecap:round;stroke-linejoin:miter;stroke:rgb(0%,0%,0%);stroke-opacity:1;stroke-miterlimit:10;" d="M 2.104902 1.353001 L 2.104902 1.392298 " transform="matrix(600,0,0,-600,-466.979992,845)"/>
<path style="fill:none;stroke-width:0.011;stroke-linecap:round;stroke-linejoin:miter;stroke:rgb(0%,0%,0%);stroke-opacity:1;stroke-miterlimit:10;" d="M 2.104902 1.392298 L 2.114797 1.402201 " transform="matrix(600,0,0,-600,-466.979992,845)"/>
<path style="fill:none;stroke-width:0.011;stroke-linecap:round;stroke-linejoin:miter;stroke:rgb(0%,0%,0%);stroke-opacity:1;stroke-miterlimit:10;" d="M 2.114797 1.402201 L 2.134498 1.402201 " transform="matrix(600,0,0,-600,-466.979992,845)"/>
<path style="fill:none;stroke-width:0.011;stroke-linecap:round;stroke-linejoin:miter;stroke:rgb(0%,0%,0%);stroke-opacity:1;stroke-miterlimit:10;" d="M 2.134498 1.402201 L 2.144303 1.392298 " transform="matrix(600,0,0,-600,-466.979992,845)"/>
<path style="fill:none;stroke-width:0.011;stroke-linecap:round;stroke-linejoin:miter;stroke:rgb(0%,0%,0%);stroke-opacity:1;stroke-miterlimit:10;" d="M 2.047597 1.402201 L 2.027903 1.392298 " transform="matrix(600,0,0,-600,-466.979992,845)"/>
<path style="fill:none;stroke-width:0.011;stroke-linecap:round;stroke-linejoin:miter;stroke:rgb(0%,0%,0%);stroke-opacity:1;stroke-miterlimit:10;" d="M 2.027903 1.392298 L 2.0083 1.372598 " transform="matrix(600,0,0,-600,-466.979992,845)"/>
<path style="fill:none;stroke-width:0.011;stroke-linecap:round;stroke-linejoin:miter;stroke:rgb(0%,0%,0%);stroke-opacity:1;stroke-miterlimit:10;" d="M 2.0083 1.372598 L 2.037799 1.372598 " transform="matrix(600,0,0,-600,-466.979992,845)"/>
<path style="fill:none;stroke-width:0.011;stroke-linecap:round;stroke-linejoin:miter;stroke:rgb(0%,0%,0%);stroke-opacity:1;stroke-miterlimit:10;" d="M 2.037799 1.372598 L 2.047597 1.362799 " transform="matrix(600,0,0,-600,-466.979992,845)"/>
<path style="fill:none;stroke-width:0.011;stroke-linecap:round;stroke-linejoin:miter;stroke:rgb(0%,0%,0%);stroke-opacity:1;stroke-miterlimit:10;" d="M 2.047597 1.362799 L 2.047597 1.353001 " transform="matrix(600,0,0,-600,-466.979992,845)"/>
<path style="fill:none;stroke-width:0.011;stroke-linecap:round;stroke-linejoin:miter;stroke:rgb(0%,0%,0%);stroke-opacity:1;stroke-miterlimit:10;" d="M 2.047597 1.353001 L 2.037799 1.343099 " transform="matrix(600,0,0,-600,-466.979992,845)"/>
<path style="fill:none;stroke-width:0.011;stroke-linecap:round;stroke-linejoin:miter;stroke:rgb(0%,0%,0%);stroke-opacity:1;stroke-miterlimit:10;" d="M 2.037799 1.343099 L 2.018098 1.343099 " transform="matrix(600,0,0,-600,-466.979992,845)"/>
<path style="fill:none;stroke-width:0.011;stroke-linecap:round;stroke-linejoin:miter;stroke:rgb(0%,0%,0%);stroke-opacity:1;stroke-miterlimit:10;" d="M 2.018098 1.343099 L 2.0083 1.353001 " transform="matrix(600,0,0,-600,-466.979992,845)"/>
<path style="fill:none;stroke-width:0.011;stroke-linecap:round;stroke-linejoin:miter;stroke:rgb(0%,0%,0%);stroke-opacity:1;stroke-miterlimit:10;" d="M 2.0083 1.353001 L 2.0083 1.372598 " transform="matrix(600,0,0,-600,-466.979992,845)"/>
<path style="fill:none;stroke-width:0.011;stroke-linecap:round;stroke-linejoin:miter;stroke:rgb(0%,0%,0%);stroke-opacity:1;stroke-miterlimit:10;" d="M 1.983202 1.362799 L 1.9733 1.372598 " transform="matrix(600,0,0,-600,-466.979992,845)"/>
<path style="fill:none;stroke-width:0.011;stroke-linecap:round;stroke-linejoin:miter;stroke:rgb(0%,0%,0%);stroke-opacity:1;stroke-miterlimit:10;" d="M 1.9733 1.372598 L 1.943801 1.372598 " transform="matrix(600,0,0,-600,-466.979992,845)"/>
<path style="fill:none;stroke-width:0.011;stroke-linecap:round;stroke-linejoin:miter;stroke:rgb(0%,0%,0%);stroke-opacity:1;stroke-miterlimit:10;" d="M 1.943801 1.372598 L 1.943801 1.353001 " transform="matrix(600,0,0,-600,-466.979992,845)"/>
<path style="fill:none;stroke-width:0.011;stroke-linecap:round;stroke-linejoin:miter;stroke:rgb(0%,0%,0%);stroke-opacity:1;stroke-miterlimit:10;" d="M 1.943801 1.353001 L 1.953697 1.343099 " transform="matrix(600,0,0,-600,-466.979992,845)"/>
<path style="fill:none;stroke-width:0.011;stroke-linecap:round;stroke-linejoin:miter;stroke:rgb(0%,0%,0%);stroke-opacity:1;stroke-miterlimit:10;" d="M 1.953697 1.343099 L 1.9733 1.343099 " transform="matrix(600,0,0,-600,-466.979992,845)"/>
<path style="fill:none;stroke-width:0.011;stroke-linecap:round;stroke-linejoin:miter;stroke:rgb(0%,0%,0%);stroke-opacity:1;stroke-miterlimit:10;" d="M 1.9733 1.343099 L 1.983202 1.353001 " transform="matrix(600,0,0,-600,-466.979992,845)"/>
<path style="fill:none;stroke-width:0.011;stroke-linecap:round;stroke-linejoin:miter;stroke:rgb(0%,0%,0%);stroke-opacity:1;stroke-miterlimit:10;" d="M 1.983202 1.353001 L 1.983202 1.362799 " transform="matrix(600,0,0,-600,-466.979992,845)"/>
<path style="fill:none;stroke-width:0.011;stroke-linecap:round;stroke-linejoin:miter;stroke:rgb(0%,0%,0%);stroke-opacity:1;stroke-miterlimit:10;" d="M 1.963502 1.392298 L 1.943801 1.372598 " transform="matrix(600,0,0,-600,-466.979992,845)"/>
<path style="fill:none;stroke-width:0.011;stroke-linecap:round;stroke-linejoin:miter;stroke:rgb(0%,0%,0%);stroke-opacity:1;stroke-miterlimit:10;" d="M 1.963502 1.392298 L 1.983202 1.402201 " transform="matrix(600,0,0,-600,-466.979992,845)"/>
<path style="fill:none;stroke-width:0.011;stroke-linecap:round;stroke-linejoin:miter;stroke:rgb(0%,0%,0%);stroke-opacity:1;stroke-miterlimit:10;" d="M 2.072701 1.353001 L 2.082597 1.353001 " transform="matrix(600,0,0,-600,-466.979992,845)"/>
<path style="fill:none;stroke-width:0.011;stroke-linecap:round;stroke-linejoin:miter;stroke:rgb(0%,0%,0%);stroke-opacity:1;stroke-miterlimit:10;" d="M 2.082597 1.353001 L 2.082597 1.343099 " transform="matrix(600,0,0,-600,-466.979992,845)"/>
<path style="fill:none;stroke-width:0.011;stroke-linecap:round;stroke-linejoin:miter;stroke:rgb(0%,0%,0%);stroke-opacity:1;stroke-miterlimit:10;" d="M 2.082597 1.343099 L 2.072701 1.343099 " transform="matrix(600,0,0,-600,-466.979992,845)"/>
<path style="fill:none;stroke-width:0.011;stroke-linecap:round;stroke-linejoin:miter;stroke:rgb(0%,0%,0%);stroke-opacity:1;stroke-miterlimit:10;" d="M 2.072701 1.343099 L 2.072701 1.353001 " transform="matrix(600,0,0,-600,-466.979992,845)"/>
<path style="fill:none;stroke-width:0.052;stroke-linecap:round;stroke-linejoin:miter;stroke:rgb(0%,0%,0%);stroke-opacity:1;stroke-miterlimit:10;" d="M 1.1833 0.288997 L 1.1833 0.341003 " transform="matrix(600,0,0,-600,-466.979992,845)"/>
<path style="fill:none;stroke-width:0.052;stroke-linecap:round;stroke-linejoin:miter;stroke:rgb(0%,0%,0%);stroke-opacity:1;stroke-miterlimit:10;" d="M 1.2833 0.341003 L 1.2833 0.288997 " transform="matrix(600,0,0,-600,-466.979992,845)"/>
<path style="fill:none;stroke-width:0.052;stroke-linecap:round;stroke-linejoin:miter;stroke:rgb(0%,0%,0%);stroke-opacity:1;stroke-miterlimit:10;" d="M 1.3833 0.288997 L 1.3833 0.341003 " transform="matrix(600,0,0,-600,-466.979992,845)"/>
<path style="fill:none;stroke-width:0.052;stroke-linecap:round;stroke-linejoin:miter;stroke:rgb(0%,0%,0%);stroke-opacity:1;stroke-miterlimit:10;" d="M 1.4833 0.341003 L 1.4833 0.288997 " transform="matrix(600,0,0,-600,-466.979992,845)"/>
<path style="fill:none;stroke-width:0.052;stroke-linecap:round;stroke-linejoin:miter;stroke:rgb(0%,0%,0%);stroke-opacity:1;stroke-miterlimit:10;" d="M 1.4833 0.588997 L 1.4833 0.641003 " transform="matrix(600,0,0,-600,-466.979992,845)"/>
<path style="fill:none;stroke-width:0.052;stroke-linecap:round;stroke-linejoin:miter;stroke:rgb(0%,0%,0%);stroke-opacity:1;stroke-miterlimit:10;" d="M 1.3833 0.641003 L 1.3833 0.588997 " transform="matrix(600,0,0,-600,-466.979992,845)"/>
<path style="fill:none;stroke-width:0.052;stroke-linecap:round;stroke-linejoin:miter;stroke:rgb(0%,0%,0%);stroke-opacity:1;stroke-miterlimit:10;" d="M 1.2833 0.588997 L 1.2833 0.641003 " transform="matrix(600,0,0,-600,-466.979992,845)"/>
<path style="fill:none;stroke-width:0.052;stroke-linecap:round;stroke-linejoin:miter;stroke:rgb(0%,0%,0%);stroke-opacity:1;stroke-miterlimit:10;" d="M 1.1833 0.641003 L 1.1833 0.588997 " transform="matrix(600,0,0,-600,-466.979992,845)"/>
<path style="fill:none;stroke-width:0.052;stroke-linecap:round;stroke-linejoin:miter;stroke:rgb(0%,0%,0%);stroke-opacity:1;stroke-miterlimit:10;" d="M 2.7333 0.588997 L 2.7333 0.641003 " transform="matrix(600,0,0,-600,-466.979992,845)"/>
<path style="fill:none;stroke-width:0.052;stroke-linecap:round;stroke-linejoin:miter;stroke:rgb(0%,0%,0%);stroke-opacity:1;stroke-miterlimit:10;" d="M 2.8333 0.641003 L 2.8333 0.588997 " transform="matrix(600,0,0,-600,-466.979992,845)"/>
<path style="fill:none;stroke-width:0.052;stroke-linecap:round;stroke-linejoin:miter;stroke:rgb(0%,0%,0%);stroke-opacity:1;stroke-miterlimit:10;" d="M 2.9333 0.588997 L 2.9333 0.641003 " transform="matrix(600,0,0,-600,-466.979992,845)"/>
<path style="fill:none;stroke-width:0.052;stroke-linecap:round;stroke-linejoin:miter;stroke:rgb(0%,0%,0%);stroke-opacity:1;stroke-miterlimit:10;" d="M 3.0333 0.641003 L 3.0333 0.588997 " transform="matrix(600,0,0,-600,-466.979992,845)"/>
<path style="fill:none;stroke-width:0.052;stroke-linecap:round;stroke-linejoin:miter;stroke:rgb(0%,0%,0%);stroke-opacity:1;stroke-miterlimit:10;" d="M 3.0333 0.341003 L 3.0333 0.288997 " transform="matrix(600,0,0,-600,-466.979992,845)"/>
<path style="fill:none;stroke-width:0.052;stroke-linecap:round;stroke-linejoin:miter;stroke:rgb(0%,0%,0%);stroke-opacity:1;stroke-miterlimit:10;" d="M 2.9333 0.288997 L 2.9333 0.341003 " transform="matrix(600,0,0,-600,-466.979992,845)"/>
<path style="fill:none;stroke-width:0.052;stroke-linecap:round;stroke-linejoin:miter;stroke:rgb(0%,0%,0%);stroke-opacity:1;stroke-miterlimit:10;" d="M 2.8333 0.341003 L 2.8333 0.288997 " transform="matrix(600,0,0,-600,-466.979992,845)"/>
<path style="fill:none;stroke-width:0.052;stroke-linecap:round;stroke-linejoin:miter;stroke:rgb(0%,0%,0%);stroke-opacity:1;stroke-miterlimit:10;" d="M 2.7333 0.288997 L 2.7333 0.341003 " transform="matrix(600,0,0,-600,-466.979992,845)"/>
<path style="fill:none;stroke-width:0.06;stroke-linecap:round;stroke-linejoin:miter;stroke:rgb(0%,0%,0%);stroke-opacity:1;stroke-miterlimit:10;" d="M 2.3833 0.245 L 2.3833 0.185 " transform="matrix(600,0,0,-600,-466.979992,845)"/>
<path style="fill:none;stroke-width:0.06;stroke-linecap:round;stroke-linejoin:miter;stroke:rgb(0%,0%,0%);stroke-opacity:1;stroke-miterlimit:10;" d="M 2.2833 0.185 L 2.2833 0.245 " transform="matrix(600,0,0,-600,-466.979992,845)"/>
<path style="fill:none;stroke-width:0.06;stroke-linecap:round;stroke-linejoin:miter;stroke:rgb(0%,0%,0%);stroke-opacity:1;stroke-miterlimit:10;" d="M 2.1833 0.245 L 2.1833 0.185 " transform="matrix(600,0,0,-600,-466.979992,845)"/>
<path style="fill:none;stroke-width:0.06;stroke-linecap:round;stroke-linejoin:miter;stroke:rgb(0%,0%,0%);stroke-opacity:1;stroke-miterlimit:10;" d="M 1.9833 0.185 L 1.9833 0.245 " transform="matrix(600,0,0,-600,-466.979992,845)"/>
<path style="fill:none;stroke-width:0.06;stroke-linecap:round;stroke-linejoin:miter;stroke:rgb(0%,0%,0%);stroke-opacity:1;stroke-miterlimit:10;" d="M 1.8833 0.245 L 1.8833 0.185 " transform="matrix(600,0,0,-600,-466.979992,845)"/>
<path style="fill:none;stroke-width:0.06;stroke-linecap:round;stroke-linejoin:miter;stroke:rgb(0%,0%,0%);stroke-opacity:1;stroke-miterlimit:10;" d="M 1.7833 0.185 L 1.7833 0.245 " transform="matrix(600,0,0,-600,-466.979992,845)"/>
<path style="fill:none;stroke-width:0.06;stroke-linecap:round;stroke-linejoin:miter;stroke:rgb(0%,0%,0%);stroke-opacity:1;stroke-miterlimit:10;" d="M 1.8833 0.985 L 1.8833 1.045 " transform="matrix(600,0,0,-600,-466.979992,845)"/>
<path style="fill:none;stroke-width:0.06;stroke-linecap:round;stroke-linejoin:miter;stroke:rgb(0%,0%,0%);stroke-opacity:1;stroke-miterlimit:10;" d="M 1.9833 1.045 L 1.9833 0.985 " transform="matrix(600,0,0,-600,-466.979992,845)"/>
<path style="fill:none;stroke-width:0.06;stroke-linecap:round;stroke-linejoin:miter;stroke:rgb(0%,0%,0%);stroke-opacity:1;stroke-miterlimit:10;" d="M 2.0833 0.985 L 2.0833 1.045 " transform="matrix(600,0,0,-600,-466.979992,845)"/>
<path style="fill:none;stroke-width:0.06;stroke-linecap:round;stroke-linejoin:miter;stroke:rgb(0%,0%,0%);stroke-opacity:1;stroke-miterlimit:10;" d="M 2.1833 1.045 L 2.1833 0.985 " transform="matrix(600,0,0,-600,-466.979992,845)"/>
<path style="fill:none;stroke-width:0.06;stroke-linecap:round;stroke-linejoin:miter;stroke:rgb(0%,0%,0%);stroke-opacity:1;stroke-miterlimit:10;" d="M 2.2833 0.985 L 2.2833 1.045 " transform="matrix(600,0,0,-600,-466.979992,845)"/>
<path style="fill:none;stroke-width:0.06;stroke-linecap:round;stroke-linejoin:miter;stroke:rgb(0%,0%,0%);stroke-opacity:1;stroke-miterlimit:10;" d="M 2.3833 1.045 L 2.3833 0.985 " transform="matrix(600,0,0,-600,-466.979992,845)"/>
<path style=" stroke:none;fill-rule:evenodd;fill:rgb(0%,0%,0%);fill-opacity:1;" d="M 1188.601562 319.539062 L 1179.460938 310.398438 L 1166.539062 310.398438 L 1157.398438 319.539062 L 1157.398438 332.460938 L 1166.539062 341.601562 L 1179.460938 341.601562 L 1188.601562 332.460938 L 1188.601562 319.539062 "/>
<path style=" stroke:none;fill-rule:evenodd;fill:rgb(0%,0%,0%);fill-opacity:1;" d="M 1248.601562 319.539062 L 1239.460938 310.398438 L 1226.539062 310.398438 L 1217.398438 319.539062 L 1217.398438 332.460938 L 1226.539062 341.601562 L 1239.460938 341.601562 L 1248.601562 332.460938 L 1248.601562 319.539062 "/>
<path style=" stroke:none;fill-rule:evenodd;fill:rgb(0%,0%,0%);fill-opacity:1;" d="M 978.601562 529.539062 L 969.460938 520.398438 L 956.539062 520.398438 L 947.398438 529.539062 L 947.398438 542.460938 L 956.539062 551.601562 L 969.460938 551.601562 L 978.601562 542.460938 L 978.601562 529.539062 "/>
<path style=" stroke:none;fill-rule:evenodd;fill:rgb(0%,0%,0%);fill-opacity:1;" d="M 858.601562 529.539062 L 849.460938 520.398438 L 836.539062 520.398438 L 827.398438 529.539062 L 827.398438 542.460938 L 836.539062 551.601562 L 849.460938 551.601562 L 858.601562 542.460938 L 858.601562 529.539062 "/>
<path style=" stroke:none;fill-rule:evenodd;fill:rgb(0%,0%,0%);fill-opacity:1;" d="M 738.601562 529.539062 L 729.460938 520.398438 L 716.539062 520.398438 L 707.398438 529.539062 L 707.398438 542.460938 L 716.539062 551.601562 L 729.460938 551.601562 L 738.601562 542.460938 L 738.601562 529.539062 "/>
<path style=" stroke:none;fill-rule:evenodd;fill:rgb(0%,0%,0%);fill-opacity:1;" d="M 618.601562 529.539062 L 609.460938 520.398438 L 596.539062 520.398438 L 587.398438 529.539062 L 587.398438 542.460938 L 596.539062 551.601562 L 609.460938 551.601562 L 618.601562 542.460938 L 618.601562 529.539062 "/>
<path style=" stroke:none;fill-rule:evenodd;fill:rgb(0%,0%,0%);fill-opacity:1;" d="M 618.601562 589.539062 L 609.460938 580.398438 L 596.539062 580.398438 L 587.398438 589.539062 L 587.398438 602.460938 L 596.539062 611.601562 L 609.460938 611.601562 L 618.601562 602.460938 L 618.601562 589.539062 "/>
<path style=" stroke:none;fill-rule:evenodd;fill:rgb(0%,0%,0%);fill-opacity:1;" d="M 738.601562 589.539062 L 729.460938 580.398438 L 716.539062 580.398438 L 707.398438 589.539062 L 707.398438 602.460938 L 716.539062 611.601562 L 729.460938 611.601562 L 738.601562 602.460938 L 738.601562 589.539062 "/>
<path style=" stroke:none;fill-rule:evenodd;fill:rgb(0%,0%,0%);fill-opacity:1;" d="M 858.601562 589.539062 L 849.460938 580.398438 L 836.539062 580.398438 L 827.398438 589.539062 L 827.398438 602.460938 L 836.539062 611.601562 L 849.460938 611.601562 L 858.601562 602.460938 L 858.601562 589.539062 "/>
<path style=" stroke:none;fill-rule:evenodd;fill:rgb(0%,0%,0%);fill-opacity:1;" d="M 978.601562 589.539062 L 969.460938 580.398438 L 956.539062 580.398438 L 947.398438 589.539062 L 947.398438 602.460938 L 956.539062 611.601562 L 969.460938 611.601562 L 978.601562 602.460938 L 978.601562 589.539062 "/>
<path style=" stroke:none;fill-rule:evenodd;fill:rgb(0%,0%,0%);fill-opacity:1;" d="M 318.601562 349.539062 L 309.460938 340.398438 L 296.539062 340.398438 L 287.398438 349.539062 L 287.398438 362.460938 L 296.539062 371.601562 L 309.460938 371.601562 L 318.601562 362.460938 L 318.601562 349.539062 "/>
<path style=" stroke:none;fill-rule:evenodd;fill:rgb(0%,0%,0%);fill-opacity:1;" d="M 258.601562 349.539062 L 249.460938 340.398438 L 236.539062 340.398438 L 227.398438 349.539062 L 227.398438 362.460938 L 236.539062 371.601562 L 249.460938 371.601562 L 258.601562 362.460938 L 258.601562 349.539062 "/>
<path style="fill:none;stroke-width:0.024;stroke-linecap:round;stroke-linejoin:miter;stroke:rgb(0%,0%,0%);stroke-opacity:1;stroke-miterlimit:10;" d="M 1.0833 1.165 L 1.0833 0.315 " transform="matrix(600,0,0,-600,-466.979992,845)"/>
<path style="fill:none;stroke-width:0.024;stroke-linecap:round;stroke-linejoin:miter;stroke:rgb(0%,0%,0%);stroke-opacity:1;stroke-miterlimit:10;" d="M 1.0833 0.315 L 1.1833 0.315 " transform="matrix(600,0,0,-600,-466.979992,845)"/>
<path style="fill:none;stroke-width:0.024;stroke-linecap:round;stroke-linejoin:miter;stroke:rgb(0%,0%,0%);stroke-opacity:1;stroke-miterlimit:10;" d="M 1.2833 0.315 L 1.2833 0.415 " transform="matrix(600,0,0,-600,-466.979992,845)"/>
<path style="fill:none;stroke-width:0.024;stroke-linecap:round;stroke-linejoin:miter;stroke:rgb(0%,0%,0%);stroke-opacity:1;stroke-miterlimit:10;" d="M 1.2833 0.415 L 1.1333 0.415 " transform="matrix(600,0,0,-600,-466.979992,845)"/>
<path style="fill:none;stroke-width:0.024;stroke-linecap:round;stroke-linejoin:miter;stroke:rgb(0%,0%,0%);stroke-opacity:1;stroke-miterlimit:10;" d="M 1.1333 0.415 L 1.1333 1.115 " transform="matrix(600,0,0,-600,-466.979992,845)"/>
<path style="fill:none;stroke-width:0.024;stroke-linecap:round;stroke-linejoin:miter;stroke:rgb(0%,0%,0%);stroke-opacity:1;stroke-miterlimit:10;" d="M 1.1333 1.115 L 2.1833 1.115 " transform="matrix(600,0,0,-600,-466.979992,845)"/>
<path style="fill:none;stroke-width:0.024;stroke-linecap:round;stroke-linejoin:miter;stroke:rgb(0%,0%,0%);stroke-opacity:1;stroke-miterlimit:10;" d="M 2.1833 1.115 L 2.1833 1.015 " transform="matrix(600,0,0,-600,-466.979992,845)"/>
<path style="fill:none;stroke-width:0.024;stroke-linecap:round;stroke-linejoin:miter;stroke:rgb(0%,0%,0%);stroke-opacity:1;stroke-miterlimit:10;" d="M 2.1833 1.015 L 2.1833 0.765 " transform="matrix(600,0,0,-600,-466.979992,845)"/>
<path style="fill:none;stroke-width:0.024;stroke-linecap:round;stroke-linejoin:miter;stroke:rgb(0%,0%,0%);stroke-opacity:1;stroke-miterlimit:10;" d="M 2.1833 0.765 L 2.5333 0.765 " transform="matrix(600,0,0,-600,-466.979992,845)"/>
<path style="fill:none;stroke-width:0.024;stroke-linecap:round;stroke-linejoin:miter;stroke:rgb(0%,0%,0%);stroke-opacity:1;stroke-miterlimit:10;" d="M 2.5333 0.765 L 2.6333 0.415 " transform="matrix(600,0,0,-600,-466.979992,845)"/>
<path style="fill:none;stroke-width:0.024;stroke-linecap:round;stroke-linejoin:miter;stroke:rgb(0%,0%,0%);stroke-opacity:1;stroke-miterlimit:10;" d="M 2.6333 0.415 L 2.6333 0.215 " transform="matrix(600,0,0,-600,-466.979992,845)"/>
<path style="fill:none;stroke-width:0.024;stroke-linecap:round;stroke-linejoin:miter;stroke:rgb(0%,0%,0%);stroke-opacity:1;stroke-miterlimit:10;" d="M 2.6333 0.215 L 2.8333 0.215 " transform="matrix(600,0,0,-600,-466.979992,845)"/>
<path style="fill:none;stroke-width:0.024;stroke-linecap:round;stroke-linejoin:miter;stroke:rgb(0%,0%,0%);stroke-opacity:1;stroke-miterlimit:10;" d="M 2.8333 0.215 L 2.8333 0.315 " transform="matrix(600,0,0,-600,-466.979992,845)"/>
<path style="fill:none;stroke-width:0.024;stroke-linecap:round;stroke-linejoin:miter;stroke:rgb(0%,0%,0%);stroke-opacity:1;stroke-miterlimit:10;" d="M 2.7333 0.315 L 2.7333 0.415 " transform="matrix(600,0,0,-600,-466.979992,845)"/>
<path style="fill:none;stroke-width:0.024;stroke-linecap:round;stroke-linejoin:miter;stroke:rgb(0%,0%,0%);stroke-opacity:1;stroke-miterlimit:10;" d="M 2.7333 0.415 L 2.5833 0.815 " transform="matrix(600,0,0,-600,-466.979992,845)"/>
<path style="fill:none;stroke-width:0.024;stroke-linecap:round;stroke-linejoin:miter;stroke:rgb(0%,0%,0%);stroke-opacity:1;stroke-miterlimit:10;" d="M 2.5833 0.815 L 2.2833 0.815 " transform="matrix(600,0,0,-600,-466.979992,845)"/>
<path style="fill:none;stroke-width:0.024;stroke-linecap:round;stroke-linejoin:miter;stroke:rgb(0%,0%,0%);stroke-opacity:1;stroke-miterlimit:10;" d="M 2.2833 0.815 L 2.2833 1.015 " transform="matrix(600,0,0,-600,-466.979992,845)"/>
<path style="fill:none;stroke-width:0.024;stroke-linecap:round;stroke-linejoin:miter;stroke:rgb(0%,0%,0%);stroke-opacity:1;stroke-miterlimit:10;" d="M 2.2833 1.015 L 2.2833 1.165 " transform="matrix(600,0,0,-600,-466.979992,845)"/>
<path style="fill:none;stroke-width:0.024;stroke-linecap:round;stroke-linejoin:miter;stroke:rgb(0%,0%,0%);stroke-opacity:1;stroke-miterlimit:10;" d="M 2.2833 1.165 L 1.0833 1.165 " transform="matrix(600,0,0,-600,-466.979992,845)"/>
<path style="fill:none;stroke-width:0.024;stroke-linecap:round;stroke-linejoin:miter;stroke:rgb(0%,0%,0%);stroke-opacity:1;stroke-miterlimit:10;" d="M 1.1833 0.915 L 1.7833 0.915 " transform="matrix(600,0,0,-600,-466.979992,845)"/>
<path style="fill:none;stroke-width:0.024;stroke-linecap:round;stroke-linejoin:miter;stroke:rgb(0%,0%,0%);stroke-opacity:1;stroke-miterlimit:10;" d="M 1.8833 0.815 L 1.8833 1.015 " transform="matrix(600,0,0,-600,-466.979992,845)"/>
<path style="fill:none;stroke-width:0.024;stroke-linecap:round;stroke-linejoin:miter;stroke:rgb(0%,0%,0%);stroke-opacity:1;stroke-miterlimit:10;" d="M 1.8833 1.015 L 1.9833 1.015 " transform="matrix(600,0,0,-600,-466.979992,845)"/>
<path style="fill:none;stroke-width:0.024;stroke-linecap:round;stroke-linejoin:miter;stroke:rgb(0%,0%,0%);stroke-opacity:1;stroke-miterlimit:10;" d="M 2.0833 1.015 L 2.0833 0.715 " transform="matrix(600,0,0,-600,-466.979992,845)"/>
<path style="fill:none;stroke-width:0.024;stroke-linecap:round;stroke-linejoin:miter;stroke:rgb(0%,0%,0%);stroke-opacity:1;stroke-miterlimit:10;" d="M 2.0833 0.715 L 1.2833 0.715 " transform="matrix(600,0,0,-600,-466.979992,845)"/>
<path style="fill:none;stroke-width:0.024;stroke-linecap:round;stroke-linejoin:miter;stroke:rgb(0%,0%,0%);stroke-opacity:1;stroke-miterlimit:10;" d="M 1.2833 0.715 L 1.2833 0.615 " transform="matrix(600,0,0,-600,-466.979992,845)"/>
<path style="fill:none;stroke-width:0.024;stroke-linecap:round;stroke-linejoin:miter;stroke:rgb(0%,0%,0%);stroke-opacity:1;stroke-miterlimit:10;" d="M 1.1833 0.615 L 1.1833 0.815 " transform="matrix(600,0,0,-600,-466.979992,845)"/>
<path style="fill:none;stroke-width:0.024;stroke-linecap:round;stroke-linejoin:miter;stroke:rgb(0%,0%,0%);stroke-opacity:1;stroke-miterlimit:10;" d="M 1.1833 0.815 L 1.1833 0.915 " transform="matrix(600,0,0,-600,-466.979992,845)"/>
<path style="fill:none;stroke-width:0.024;stroke-linecap:round;stroke-linejoin:miter;stroke:rgb(0%,0%,0%);stroke-opacity:1;stroke-miterlimit:10;" d="M 1.2333 0.815 L 1.2833 0.815 " transform="matrix(600,0,0,-600,-466.979992,845)"/>
<path style="fill:none;stroke-width:0.024;stroke-linecap:round;stroke-linejoin:miter;stroke:rgb(0%,0%,0%);stroke-opacity:1;stroke-miterlimit:10;" d="M 1.2833 0.815 L 1.8833 0.815 " transform="matrix(600,0,0,-600,-466.979992,845)"/>
<path style="fill:none;stroke-width:0.024;stroke-linecap:round;stroke-linejoin:miter;stroke:rgb(0%,0%,0%);stroke-opacity:1;stroke-miterlimit:10;" d="M 1.7833 0.615 L 1.4833 0.615 " transform="matrix(600,0,0,-600,-466.979992,845)"/>
<path style="fill:none;stroke-width:0.024;stroke-linecap:round;stroke-linejoin:miter;stroke:rgb(0%,0%,0%);stroke-opacity:1;stroke-miterlimit:10;" d="M 1.3833 0.615 L 1.3833 0.515 " transform="matrix(600,0,0,-600,-466.979992,845)"/>
<path style="fill:none;stroke-width:0.024;stroke-linecap:round;stroke-linejoin:miter;stroke:rgb(0%,0%,0%);stroke-opacity:1;stroke-miterlimit:10;" d="M 1.3833 0.515 L 1.3333 0.465 " transform="matrix(600,0,0,-600,-466.979992,845)"/>
<path style="fill:none;stroke-width:0.024;stroke-linecap:round;stroke-linejoin:miter;stroke:rgb(0%,0%,0%);stroke-opacity:1;stroke-miterlimit:10;" d="M 1.3333 0.465 L 1.3333 0.115 " transform="matrix(600,0,0,-600,-466.979992,845)"/>
<path style="fill:none;stroke-width:0.024;stroke-linecap:round;stroke-linejoin:miter;stroke:rgb(0%,0%,0%);stroke-opacity:1;stroke-miterlimit:10;" d="M 1.3333 0.115 L 1.4833 0.115 " transform="matrix(600,0,0,-600,-466.979992,845)"/>
<path style="fill:none;stroke-width:0.024;stroke-linecap:round;stroke-linejoin:miter;stroke:rgb(0%,0%,0%);stroke-opacity:1;stroke-miterlimit:10;" d="M 1.4833 0.115 L 1.4833 0.315 " transform="matrix(600,0,0,-600,-466.979992,845)"/>
<path style="fill:none;stroke-width:0.024;stroke-linecap:round;stroke-linejoin:miter;stroke:rgb(0%,0%,0%);stroke-opacity:1;stroke-miterlimit:10;" d="M 1.3833 0.315 L 1.4333 0.465 " transform="matrix(600,0,0,-600,-466.979992,845)"/>
<path style="fill:none;stroke-width:0.024;stroke-linecap:round;stroke-linejoin:miter;stroke:rgb(0%,0%,0%);stroke-opacity:1;stroke-miterlimit:10;" d="M 1.4333 0.465 L 2.1333 0.465 " transform="matrix(600,0,0,-600,-466.979992,845)"/>
<path style="fill:none;stroke-width:0.024;stroke-linecap:round;stroke-linejoin:miter;stroke:rgb(0%,0%,0%);stroke-opacity:1;stroke-miterlimit:10;" d="M 2.1333 0.465 L 2.1833 0.515 " transform="matrix(600,0,0,-600,-466.979992,845)"/>
<path style="fill:none;stroke-width:0.024;stroke-linecap:round;stroke-linejoin:miter;stroke:rgb(0%,0%,0%);stroke-opacity:1;stroke-miterlimit:10;" d="M 1.9833 0.515 L 1.9833 0.615 " transform="matrix(600,0,0,-600,-466.979992,845)"/>
<path style="fill:none;stroke-width:0.024;stroke-linecap:round;stroke-linejoin:miter;stroke:rgb(0%,0%,0%);stroke-opacity:1;stroke-miterlimit:10;" d="M 1.9833 0.615 L 2.4833 0.615 " transform="matrix(600,0,0,-600,-466.979992,845)"/>
<path style="fill:none;stroke-width:0.024;stroke-linecap:round;stroke-linejoin:miter;stroke:rgb(0%,0%,0%);stroke-opacity:1;stroke-miterlimit:10;" d="M 2.4833 0.615 L 2.4833 0.515 " transform="matrix(600,0,0,-600,-466.979992,845)"/>
<path style="fill:none;stroke-width:0.024;stroke-linecap:round;stroke-linejoin:miter;stroke:rgb(0%,0%,0%);stroke-opacity:1;stroke-miterlimit:10;" d="M 2.4833 0.515 L 2.5333 0.465 " transform="matrix(600,0,0,-600,-466.979992,845)"/>
<path style="fill:none;stroke-width:0.024;stroke-linecap:round;stroke-linejoin:miter;stroke:rgb(0%,0%,0%);stroke-opacity:1;stroke-miterlimit:10;" d="M 2.3833 0.415 L 2.3833 0.215 " transform="matrix(600,0,0,-600,-466.979992,845)"/>
<path style="fill:none;stroke-width:0.024;stroke-linecap:round;stroke-linejoin:miter;stroke:rgb(0%,0%,0%);stroke-opacity:1;stroke-miterlimit:10;" d="M 2.2833 0.215 L 2.2833 0.115 " transform="matrix(600,0,0,-600,-466.979992,845)"/>
<path style="fill:none;stroke-width:0.024;stroke-linecap:round;stroke-linejoin:miter;stroke:rgb(0%,0%,0%);stroke-opacity:1;stroke-miterlimit:10;" d="M 2.2833 0.115 L 1.8833 0.115 " transform="matrix(600,0,0,-600,-466.979992,845)"/>
<path style="fill:none;stroke-width:0.024;stroke-linecap:round;stroke-linejoin:miter;stroke:rgb(0%,0%,0%);stroke-opacity:1;stroke-miterlimit:10;" d="M 1.8833 0.115 L 1.8833 0.215 " transform="matrix(600,0,0,-600,-466.979992,845)"/>
<path style="fill:none;stroke-width:0.024;stroke-linecap:round;stroke-linejoin:miter;stroke:rgb(0%,0%,0%);stroke-opacity:1;stroke-miterlimit:10;" d="M 1.7833 0.215 L 1.7833 0.415 " transform="matrix(600,0,0,-600,-466.979992,845)"/>
<path style="fill:none;stroke-width:0.024;stroke-linecap:round;stroke-linejoin:miter;stroke:rgb(0%,0%,0%);stroke-opacity:1;stroke-miterlimit:10;" d="M 1.9833 0.415 L 1.9833 0.215 " transform="matrix(600,0,0,-600,-466.979992,845)"/>
<path style="fill:none;stroke-width:0.024;stroke-linecap:round;stroke-linejoin:miter;stroke:rgb(0%,0%,0%);stroke-opacity:1;stroke-miterlimit:10;" d="M 2.1833 0.215 L 2.1833 0.415 " transform="matrix(600,0,0,-600,-466.979992,845)"/>
<path style="fill:none;stroke-width:0.024;stroke-linecap:round;stroke-linejoin:miter;stroke:rgb(0%,0%,0%);stroke-opacity:1;stroke-miterlimit:10;" d="M 2.3833 0.515 L 2.5333 0.265 " transform="matrix(600,0,0,-600,-466.979992,845)"/>
<path style="fill:none;stroke-width:0.024;stroke-linecap:round;stroke-linejoin:miter;stroke:rgb(0%,0%,0%);stroke-opacity:1;stroke-miterlimit:10;" d="M 2.5333 0.265 L 2.5333 0.165 " transform="matrix(600,0,0,-600,-466.979992,845)"/>
<path style="fill:none;stroke-width:0.024;stroke-linecap:round;stroke-linejoin:miter;stroke:rgb(0%,0%,0%);stroke-opacity:1;stroke-miterlimit:10;" d="M 2.5333 0.165 L 2.9333 0.165 " transform="matrix(600,0,0,-600,-466.979992,845)"/>
<path style="fill:none;stroke-width:0.024;stroke-linecap:round;stroke-linejoin:miter;stroke:rgb(0%,0%,0%);stroke-opacity:1;stroke-miterlimit:10;" d="M 2.9333 0.165 L 2.9333 0.315 " transform="matrix(600,0,0,-600,-466.979992,845)"/>
<path style="fill:none;stroke-width:0.024;stroke-linecap:round;stroke-linejoin:miter;stroke:rgb(0%,0%,0%);stroke-opacity:1;stroke-miterlimit:10;" d="M 3.0333 0.315 L 3.0333 0.115 " transform="matrix(600,0,0,-600,-466.979992,845)"/>
<path style="fill:none;stroke-width:0.024;stroke-linecap:round;stroke-linejoin:miter;stroke:rgb(0%,0%,0%);stroke-opacity:1;stroke-miterlimit:10;" d="M 3.0333 0.115 L 2.2833 0.115 " transform="matrix(600,0,0,-600,-466.979992,845)"/>
<path style="fill:none;stroke-width:0.024;stroke-linecap:round;stroke-linejoin:miter;stroke:rgb(0%,0%,0%);stroke-opacity:1;stroke-miterlimit:10;" d="M 1.8833 0.115 L 1.4833 0.115 " transform="matrix(600,0,0,-600,-466.979992,845)"/>
<path style="fill:none;stroke-width:0.024;stroke-linecap:round;stroke-linejoin:miter;stroke:rgb(0%,0%,0%);stroke-opacity:1;stroke-miterlimit:10;" d="M 1.3333 0.465 L 1.2333 0.465 " transform="matrix(600,0,0,-600,-466.979992,845)"/>
<path style="fill:none;stroke-width:0.024;stroke-linecap:round;stroke-linejoin:miter;stroke:rgb(0%,0%,0%);stroke-opacity:1;stroke-miterlimit:10;" d="M 1.2333 0.465 L 1.2333 0.815 " transform="matrix(600,0,0,-600,-466.979992,845)"/>
<path style="fill:none;stroke-width:0.024;stroke-linecap:round;stroke-linejoin:miter;stroke:rgb(0%,0%,0%);stroke-opacity:1;stroke-miterlimit:10;" d="M 1.7833 0.615 L 1.7833 0.515 " transform="matrix(600,0,0,-600,-466.979992,845)"/>
<path style="fill:none;stroke-width:0.024;stroke-linecap:round;stroke-linejoin:miter;stroke:rgb(0%,0%,0%);stroke-opacity:1;stroke-miterlimit:10;" d="M 2.3833 0.865 L 2.3833 0.915 " transform="matrix(600,0,0,-600,-466.979992,845)"/>
<path style="fill:none;stroke-width:0.024;stroke-linecap:round;stroke-linejoin:miter;stroke:rgb(0%,0%,0%);stroke-opacity:1;stroke-miterlimit:10;" d="M 2.3833 0.915 L 2.3833 1.015 " transform="matrix(600,0,0,-600,-466.979992,845)"/>
<path style="fill:none;stroke-width:0.024;stroke-linecap:round;stroke-linejoin:miter;stroke:rgb(0%,0%,0%);stroke-opacity:1;stroke-miterlimit:10;" d="M 2.3833 0.865 L 2.7333 0.865 " transform="matrix(600,0,0,-600,-466.979992,845)"/>
<path style="fill:none;stroke-width:0.024;stroke-linecap:round;stroke-linejoin:miter;stroke:rgb(0%,0%,0%);stroke-opacity:1;stroke-miterlimit:10;" d="M 2.7333 0.865 L 2.7333 0.615 " transform="matrix(600,0,0,-600,-466.979992,845)"/>
<path style="fill:none;stroke-width:0.024;stroke-linecap:round;stroke-linejoin:miter;stroke:rgb(0%,0%,0%);stroke-opacity:1;stroke-miterlimit:10;" d="M 2.8333 0.615 L 2.8333 0.715 " transform="matrix(600,0,0,-600,-466.979992,845)"/>
<path style="fill:none;stroke-width:0.024;stroke-linecap:round;stroke-linejoin:miter;stroke:rgb(0%,0%,0%);stroke-opacity:1;stroke-miterlimit:10;" d="M 2.9333 0.615 L 3.0333 0.515 " transform="matrix(600,0,0,-600,-466.979992,845)"/>
<path style="fill:none;stroke-width:0.024;stroke-linecap:round;stroke-linejoin:miter;stroke:rgb(0%,0%,0%);stroke-opacity:1;stroke-miterlimit:10;" d="M 3.0333 0.515 L 3.0333 0.315 " transform="matrix(600,0,0,-600,-466.979992,845)"/>
<path style="fill:none;stroke-width:0.024;stroke-linecap:round;stroke-linejoin:miter;stroke:rgb(0%,0%,0%);stroke-opacity:1;stroke-miterlimit:10;" d="M 3.1333 0.465 L 3.1333 0.615 " transform="matrix(600,0,0,-600,-466.979992,845)"/>
<path style="fill:none;stroke-width:0.024;stroke-linecap:round;stroke-linejoin:miter;stroke:rgb(0%,0%,0%);stroke-opacity:1;stroke-miterlimit:10;" d="M 3.1333 0.615 L 3.0333 0.615 " transform="matrix(600,0,0,-600,-466.979992,845)"/>
<path style="fill:none;stroke-width:0.024;stroke-linecap:round;stroke-linejoin:miter;stroke:rgb(0%,0%,0%);stroke-opacity:1;stroke-miterlimit:10;" d="M 2.9333 0.615 L 2.9333 0.865 " transform="matrix(600,0,0,-600,-466.979992,845)"/>
<path style="fill:none;stroke-width:0.024;stroke-linecap:round;stroke-linejoin:miter;stroke:rgb(0%,0%,0%);stroke-opacity:1;stroke-miterlimit:10;" d="M 2.9333 0.865 L 2.8333 0.865 " transform="matrix(600,0,0,-600,-466.979992,845)"/>
<path style=" stroke:none;fill-rule:evenodd;fill:rgb(0%,0%,0%);fill-opacity:1;" d="M 1254 416 C 1254 388 1212 388 1212 416 C 1212 444 1254 444 1254 416 "/>
<path style=" stroke:none;fill-rule:evenodd;fill:rgb(0%,0%,0%);fill-opacity:1;" d="M 984 296 C 984 268 942 268 942 296 C 942 324 984 324 984 296 "/>
<path style=" stroke:none;fill-rule:evenodd;fill:rgb(0%,0%,0%);fill-opacity:1;" d="M 804 416 C 804 388 762 388 762 416 C 762 444 804 444 804 416 "/>
<path style=" stroke:none;fill-rule:evenodd;fill:rgb(0%,0%,0%);fill-opacity:1;" d="M 624 296 C 624 268 582 268 582 296 C 582 324 624 324 624 296 "/>
<path style=" stroke:none;fill-rule:evenodd;fill:rgb(0%,0%,0%);fill-opacity:1;" d="M 1074 566 C 1074 538 1032 538 1032 566 C 1032 594 1074 594 1074 566 "/>
<path style=" stroke:none;fill-rule:evenodd;fill:rgb(0%,0%,0%);fill-opacity:1;" d="M 1434 566 C 1434 538 1392 538 1392 566 C 1392 594 1434 594 1434 566 "/>
<path style=" stroke:none;fill-rule:evenodd;fill:rgb(100%,100%,100%);fill-opacity:1;" d="M 787.800781 416 C 787.800781 409.601562 778.199219 409.601562 778.199219 416 C 778.199219 422.398438 787.800781 422.398438 787.800781 416 "/>
<path style=" stroke:none;fill-rule:evenodd;fill:rgb(100%,100%,100%);fill-opacity:1;" d="M 607.800781 296 C 607.800781 289.601562 598.199219 289.601562 598.199219 296 C 598.199219 302.398438 607.800781 302.398438 607.800781 296 "/>
<path style=" stroke:none;fill-rule:evenodd;fill:rgb(100%,100%,100%);fill-opacity:1;" d="M 967.800781 296 C 967.800781 289.601562 958.199219 289.601562 958.199219 296 C 958.199219 302.398438 967.800781 302.398438 967.800781 296 "/>
<path style=" stroke:none;fill-rule:evenodd;fill:rgb(100%,100%,100%);fill-opacity:1;" d="M 1237.800781 416 C 1237.800781 409.601562 1228.199219 409.601562 1228.199219 416 C 1228.199219 422.398438 1237.800781 422.398438 1237.800781 416 "/>
<path style=" stroke:none;fill-rule:evenodd;fill:rgb(100%,100%,100%);fill-opacity:1;" d="M 1057.800781 566 C 1057.800781 559.601562 1048.199219 559.601562 1048.199219 566 C 1048.199219 572.398438 1057.800781 572.398438 1057.800781 566 "/>
<path style=" stroke:none;fill-rule:evenodd;fill:rgb(100%,100%,100%);fill-opacity:1;" d="M 1417.800781 566 C 1417.800781 559.601562 1408.199219 559.601562 1408.199219 566 C 1408.199219 572.398438 1417.800781 572.398438 1417.800781 566 "/>
<path style=" stroke:none;fill-rule:evenodd;fill:rgb(100%,100%,100%);fill-opacity:1;" d="M 1357.800781 656 C 1357.800781 649.601562 1348.199219 649.601562 1348.199219 656 C 1348.199219 662.398438 1357.800781 662.398438 1357.800781 656 "/>
<path style=" stroke:none;fill-rule:evenodd;fill:rgb(100%,100%,100%);fill-opacity:1;" d="M 1297.800781 656 C 1297.800781 649.601562 1288.199219 649.601562 1288.199219 656 C 1288.199219 662.398438 1297.800781 662.398438 1297.800781 656 "/>
<path style=" stroke:none;fill-rule:evenodd;fill:rgb(100%,100%,100%);fill-opacity:1;" d="M 1237.800781 656 C 1237.800781 649.601562 1228.199219 649.601562 1228.199219 656 C 1228.199219 662.398438 1237.800781 662.398438 1237.800781 656 "/>
<path style=" stroke:none;fill-rule:evenodd;fill:rgb(100%,100%,100%);fill-opacity:1;" d="M 1177.800781 656 C 1177.800781 649.601562 1168.199219 649.601562 1168.199219 656 C 1168.199219 662.398438 1177.800781 662.398438 1177.800781 656 "/>
<path style=" stroke:none;fill-rule:evenodd;fill:rgb(100%,100%,100%);fill-opacity:1;" d="M 967.800781 596 C 967.800781 589.601562 958.199219 589.601562 958.199219 596 C 958.199219 602.398438 967.800781 602.398438 967.800781 596 "/>
<path style=" stroke:none;fill-rule:evenodd;fill:rgb(100%,100%,100%);fill-opacity:1;" d="M 847.800781 596 C 847.800781 589.601562 838.199219 589.601562 838.199219 596 C 838.199219 602.398438 847.800781 602.398438 847.800781 596 "/>
<path style=" stroke:none;fill-rule:evenodd;fill:rgb(100%,100%,100%);fill-opacity:1;" d="M 727.800781 596 C 727.800781 589.601562 718.199219 589.601562 718.199219 596 C 718.199219 602.398438 727.800781 602.398438 727.800781 596 "/>
<path style=" stroke:none;fill-rule:evenodd;fill:rgb(100%,100%,100%);fill-opacity:1;" d="M 607.800781 596 C 607.800781 589.601562 598.199219 589.601562 598.199219 596 C 598.199219 602.398438 607.800781 602.398438 607.800781 596 "/>
<path style=" stroke:none;fill-rule:evenodd;fill:rgb(100%,100%,100%);fill-opacity:1;" d="M 607.800781 536 C 607.800781 529.601562 598.199219 529.601562 598.199219 536 C 598.199219 542.398438 607.800781 542.398438 607.800781 536 "/>
<path style=" stroke:none;fill-rule:evenodd;fill:rgb(100%,100%,100%);fill-opacity:1;" d="M 727.800781 536 C 727.800781 529.601562 718.199219 529.601562 718.199219 536 C 718.199219 542.398438 727.800781 542.398438 727.800781 536 "/>
<path style=" stroke:none;fill-rule:evenodd;fill:rgb(100%,100%,100%);fill-opacity:1;" d="M 847.800781 536 C 847.800781 529.601562 838.199219 529.601562 838.199219 536 C 838.199219 542.398438 847.800781 542.398438 847.800781 536 "/>
<path style=" stroke:none;fill-rule:evenodd;fill:rgb(100%,100%,100%);fill-opacity:1;" d="M 967.800781 536 C 967.800781 529.601562 958.199219 529.601562 958.199219 536 C 958.199219 542.398438 967.800781 542.398438 967.800781 536 "/>
<path style=" stroke:none;fill-rule:evenodd;fill:rgb(100%,100%,100%);fill-opacity:1;" d="M 1177.800781 476 C 1177.800781 469.601562 1168.199219 469.601562 1168.199219 476 C 1168.199219 482.398438 1177.800781 482.398438 1177.800781 476 "/>
<path style=" stroke:none;fill-rule:evenodd;fill:rgb(100%,100%,100%);fill-opacity:1;" d="M 1237.800781 476 C 1237.800781 469.601562 1228.199219 469.601562 1228.199219 476 C 1228.199219 482.398438 1237.800781 482.398438 1237.800781 476 "/>
<path style=" stroke:none;fill-rule:evenodd;fill:rgb(100%,100%,100%);fill-opacity:1;" d="M 1297.800781 476 C 1297.800781 469.601562 1288.199219 469.601562 1288.199219 476 C 1288.199219 482.398438 1297.800781 482.398438 1297.800781 476 "/>
<path style=" stroke:none;fill-rule:evenodd;fill:rgb(100%,100%,100%);fill-opacity:1;" d="M 1357.800781 476 C 1357.800781 469.601562 1348.199219 469.601562 1348.199219 476 C 1348.199219 482.398438 1357.800781 482.398438 1357.800781 476 "/>
<path style=" stroke:none;fill-rule:evenodd;fill:rgb(100%,100%,100%);fill-opacity:1;" d="M 1237.800781 326 C 1237.800781 319.601562 1228.199219 319.601562 1228.199219 326 C 1228.199219 332.398438 1237.800781 332.398438 1237.800781 326 "/>
<path style=" stroke:none;fill-rule:evenodd;fill:rgb(100%,100%,100%);fill-opacity:1;" d="M 1177.800781 326 C 1177.800781 319.601562 1168.199219 319.601562 1168.199219 326 C 1168.199219 332.398438 1177.800781 332.398438 1177.800781 326 "/>
<path style=" stroke:none;fill-rule:evenodd;fill:rgb(100%,100%,100%);fill-opacity:1;" d="M 427.800781 476 C 427.800781 469.601562 418.199219 469.601562 418.199219 476 C 418.199219 482.398438 427.800781 482.398438 427.800781 476 "/>
<path style=" stroke:none;fill-rule:evenodd;fill:rgb(100%,100%,100%);fill-opacity:1;" d="M 367.800781 476 C 367.800781 469.601562 358.199219 469.601562 358.199219 476 C 358.199219 482.398438 367.800781 482.398438 367.800781 476 "/>
<path style=" stroke:none;fill-rule:evenodd;fill:rgb(100%,100%,100%);fill-opacity:1;" d="M 307.800781 476 C 307.800781 469.601562 298.199219 469.601562 298.199219 476 C 298.199219 482.398438 307.800781 482.398438 307.800781 476 "/>
<path style=" stroke:none;fill-rule:evenodd;fill:rgb(100%,100%,100%);fill-opacity:1;" d="M 247.800781 476 C 247.800781 469.601562 238.199219 469.601562 238.199219 476 C 238.199219 482.398438 247.800781 482.398438 247.800781 476 "/>
<path style=" stroke:none;fill-rule:evenodd;fill:rgb(100%,100%,100%);fill-opacity:1;" d="M 247.800781 356 C 247.800781 349.601562 238.199219 349.601562 238.199219 356 C 238.199219 362.398438 247.800781 362.398438 247.800781 356 "/>
<path style=" stroke:none;fill-rule:evenodd;fill:rgb(100%,100%,100%);fill-opacity:1;" d="M 307.800781 356 C 307.800781 349.601562 298.199219 349.601562 298.199219 356 C 298.199219 362.398438 307.800781 362.398438 307.800781 356 "/>
<path style=" stroke:none;fill-rule:evenodd;fill:rgb(100%,100%,100%);fill-opacity:1;" d="M 307.800781 656 C 307.800781 649.601562 298.199219 649.601562 298.199219 656 C 298.199219 662.398438 307.800781 662.398438 307.800781 656 "/>
<path style=" stroke:none;fill-rule:evenodd;fill:rgb(100%,100%,100%);fill-opacity:1;" d="M 247.800781 656 C 247.800781 649.601562 238.199219 649.601562 238.199219 656 C 238.199219 662.398438 247.800781 662.398438 247.800781 656 "/>
<path style=" stroke:none;fill-rule:evenodd;fill:rgb(100%,100%,100%);fill-opacity:1;" d="M 367.800781 656 C 367.800781 649.601562 358.199219 649.601562 358.199219 656 C 358.199219 662.398438 367.800781 662.398438 367.800781 656 "/>
<path style=" stroke:none;fill-rule:evenodd;fill:rgb(100%,100%,100%);fill-opacity:1;" d="M 427.800781 656 C 427.800781 649.601562 418.199219 649.601562 418.199219 656 C 418.199219 662.398438 427.800781 662.398438 427.800781 656 "/>
<path style=" stroke:none;fill-rule:evenodd;fill:rgb(100%,100%,100%);fill-opacity:1;" d="M 607.800781 716 C 607.800781 709.601562 598.199219 709.601562 598.199219 716 C 598.199219 722.398438 607.800781 722.398438 607.800781 716 "/>
<path style=" stroke:none;fill-rule:evenodd;fill:rgb(100%,100%,100%);fill-opacity:1;" d="M 667.800781 716 C 667.800781 709.601562 658.199219 709.601562 658.199219 716 C 658.199219 722.398438 667.800781 722.398438 667.800781 716 "/>
<path style=" stroke:none;fill-rule:evenodd;fill:rgb(100%,100%,100%);fill-opacity:1;" d="M 727.800781 716 C 727.800781 709.601562 718.199219 709.601562 718.199219 716 C 718.199219 722.398438 727.800781 722.398438 727.800781 716 "/>
<path style=" stroke:none;fill-rule:evenodd;fill:rgb(100%,100%,100%);fill-opacity:1;" d="M 847.800781 716 C 847.800781 709.601562 838.199219 709.601562 838.199219 716 C 838.199219 722.398438 847.800781 722.398438 847.800781 716 "/>
<path style=" stroke:none;fill-rule:evenodd;fill:rgb(100%,100%,100%);fill-opacity:1;" d="M 907.800781 716 C 907.800781 709.601562 898.199219 709.601562 898.199219 716 C 898.199219 722.398438 907.800781 722.398438 907.800781 716 "/>
<path style=" stroke:none;fill-rule:evenodd;fill:rgb(100%,100%,100%);fill-opacity:1;" d="M 967.800781 716 C 967.800781 709.601562 958.199219 709.601562 958.199219 716 C 958.199219 722.398438 967.800781 722.398438 967.800781 716 "/>
<path style=" stroke:none;fill-rule:evenodd;fill:rgb(100%,100%,100%);fill-opacity:1;" d="M 967.800781 236 C 967.800781 229.601562 958.199219 229.601562 958.199219 236 C 958.199219 242.398438 967.800781 242.398438 967.800781 236 "/>
<path style=" stroke:none;fill-rule:evenodd;fill:rgb(100%,100%,100%);fill-opacity:1;" d="M 907.800781 236 C 907.800781 229.601562 898.199219 229.601562 898.199219 236 C 898.199219 242.398438 907.800781 242.398438 907.800781 236 "/>
<path style=" stroke:none;fill-rule:evenodd;fill:rgb(100%,100%,100%);fill-opacity:1;" d="M 847.800781 236 C 847.800781 229.601562 838.199219 229.601562 838.199219 236 C 838.199219 242.398438 847.800781 242.398438 847.800781 236 "/>
<path style=" stroke:none;fill-rule:evenodd;fill:rgb(100%,100%,100%);fill-opacity:1;" d="M 787.800781 236 C 787.800781 229.601562 778.199219 229.601562 778.199219 236 C 778.199219 242.398438 787.800781 242.398438 787.800781 236 "/>
<path style=" stroke:none;fill-rule:evenodd;fill:rgb(100%,100%,100%);fill-opacity:1;" d="M 727.800781 236 C 727.800781 229.601562 718.199219 229.601562 718.199219 236 C 718.199219 242.398438 727.800781 242.398438 727.800781 236 "/>
<path style=" stroke:none;fill-rule:evenodd;fill:rgb(100%,100%,100%);fill-opacity:1;" d="M 667.800781 236 C 667.800781 229.601562 658.199219 229.601562 658.199219 236 C 658.199219 242.398438 667.800781 242.398438 667.800781 236 "/>
<path style=" stroke:none;fill-rule:evenodd;fill:rgb(100%,100%,100%);fill-opacity:1;" d="M 97.800781 746 C 97.800781 739.601562 88.199219 739.601562 88.199219 746 C 88.199219 752.398438 97.800781 752.398438 97.800781 746 "/>
<path style=" stroke:none;fill-rule:evenodd;fill:rgb(100%,100%,100%);fill-opacity:1;" d="M 1477.800781 746 C 1477.800781 739.601562 1468.199219 739.601562 1468.199219 746 C 1468.199219 752.398438 1477.800781 752.398438 1477.800781 746 "/>
<path style=" stroke:none;fill-rule:evenodd;fill:rgb(100%,100%,100%);fill-opacity:1;" d="M 1477.800781 176 C 1477.800781 169.601562 1468.199219 169.601562 1468.199219 176 C 1468.199219 182.398438 1477.800781 182.398438 1477.800781 176 "/>
<path style=" stroke:none;fill-rule:evenodd;fill:rgb(100%,100%,100%);fill-opacity:1;" d="M 97.800781 176 C 97.800781 169.601562 88.199219 169.601562 88.199219 176 C 88.199219 182.398438 97.800781 182.398438 97.800781 176 "/>
</g>
</svg>
