<?xml version="1.0" encoding="UTF-8"?>
<svg xmlns="http://www.w3.org/2000/svg" xmlns:xlink="http://www.w3.org/1999/xlink" width="605pt" height="839pt" viewBox="0 0 605 839" version="1.1">
<g id="surface1">
<path style="fill:none;stroke-width:0.01;stroke-linecap:round;stroke-linejoin:miter;stroke:rgb(0%,0%,0%);stroke-opacity:1;stroke-miterlimit:10;" d="M 0.7833 0.015 L 0.7833 1.264603 " transform="matrix(600,0,0,-600,-466.979992,845)"/>
<path style="fill:none;stroke-width:0.01;stroke-linecap:round;stroke-linejoin:miter;stroke:rgb(0%,0%,0%);stroke-opacity:1;stroke-miterlimit:10;" d="M 0.7833 1.264603 L 1.770299 1.264603 " transform="matrix(600,0,0,-600,-466.979992,845)"/>
<path style="fill:none;stroke-width:0.01;stroke-linecap:round;stroke-linejoin:miter;stroke:rgb(0%,0%,0%);stroke-opacity:1;stroke-miterlimit:10;" d="M 1.770299 1.264603 L 1.770299 0.015 " transform="matrix(600,0,0,-600,-466.979992,845)"/>
<path style="fill:none;stroke-width:0.01;stroke-linecap:round;stroke-linejoin:miter;stroke:rgb(0%,0%,0%);stroke-opacity:1;stroke-miterlimit:10;" d="M 1.770299 0.015 L 0.7833 0.015 " transform="matrix(600,0,0,-600,-466.979992,845)"/>
<path style="fill:none;stroke-width:0.0051;stroke-linecap:round;stroke-linejoin:miter;stroke:rgb(0%,0%,0%);stroke-opacity:1;stroke-miterlimit:10;" d="M 0.7833 1.265 L 0.7833 1.391797 " transform="matrix(600,0,0,-600,-466.979992,845)"/>
<path style="fill:none;stroke-width:0.0051;stroke-linecap:round;stroke-linejoin:miter;stroke:rgb(0%,0%,0%);stroke-opacity:1;stroke-miterlimit:10;" d="M 0.7833 1.315 L 0.885702 1.327598 " transform="matrix(600,0,0,-600,-466.979992,845)"/>
<path style="fill:none;stroke-width:0.0051;stroke-linecap:round;stroke-linejoin:miter;stroke:rgb(0%,0%,0%);stroke-opacity:1;stroke-miterlimit:10;" d="M 0.885702 1.327598 L 0.885702 1.302402 " transform="matrix(600,0,0,-600,-466.979992,845)"/>
<path style="fill:none;stroke-width:0.0051;stroke-linecap:round;stroke-linejoin:miter;stroke:rgb(0%,0%,0%);stroke-opacity:1;stroke-miterlimit:10;" d="M 0.885702 1.302402 L 0.7833 1.315 " transform="matrix(600,0,0,-600,-466.979992,845)"/>
<path style="fill:none;stroke-width:0.0051;stroke-linecap:round;stroke-linejoin:miter;stroke:rgb(0%,0%,0%);stroke-opacity:1;stroke-miterlimit:10;" d="M 0.7833 1.315 L 0.885702 1.304798 " transform="matrix(600,0,0,-600,-466.979992,845)"/>
<path style="fill:none;stroke-width:0.0051;stroke-linecap:round;stroke-linejoin:miter;stroke:rgb(0%,0%,0%);stroke-opacity:1;stroke-miterlimit:10;" d="M 0.885702 1.309902 L 0.7833 1.315 " transform="matrix(600,0,0,-600,-466.979992,845)"/>
<path style="fill:none;stroke-width:0.0051;stroke-linecap:round;stroke-linejoin:miter;stroke:rgb(0%,0%,0%);stroke-opacity:1;stroke-miterlimit:10;" d="M 0.7833 1.315 L 0.885702 1.325202 " transform="matrix(600,0,0,-600,-466.979992,845)"/>
<path style="fill:none;stroke-width:0.0051;stroke-linecap:round;stroke-linejoin:miter;stroke:rgb(0%,0%,0%);stroke-opacity:1;stroke-miterlimit:10;" d="M 0.885702 1.320098 L 0.7833 1.315 " transform="matrix(600,0,0,-600,-466.979992,845)"/>
<path style="fill:none;stroke-width:0.0051;stroke-linecap:round;stroke-linejoin:miter;stroke:rgb(0%,0%,0%);stroke-opacity:1;stroke-miterlimit:10;" d="M 0.7833 1.315 L 1.7833 1.315 " transform="matrix(600,0,0,-600,-466.979992,845)"/>
<path style="fill:none;stroke-width:0.0051;stroke-linecap:round;stroke-linejoin:miter;stroke:rgb(0%,0%,0%);stroke-opacity:1;stroke-miterlimit:10;" d="M 1.7833 1.315 L 1.681002 1.304798 " transform="matrix(600,0,0,-600,-466.979992,845)"/>
<path style="fill:none;stroke-width:0.0051;stroke-linecap:round;stroke-linejoin:miter;stroke:rgb(0%,0%,0%);stroke-opacity:1;stroke-miterlimit:10;" d="M 1.681002 1.302402 L 1.7833 1.315 " transform="matrix(600,0,0,-600,-466.979992,845)"/>
<path style="fill:none;stroke-width:0.0051;stroke-linecap:round;stroke-linejoin:miter;stroke:rgb(0%,0%,0%);stroke-opacity:1;stroke-miterlimit:10;" d="M 1.7833 1.315 L 1.681002 1.325202 " transform="matrix(600,0,0,-600,-466.979992,845)"/>
<path style="fill:none;stroke-width:0.0051;stroke-linecap:round;stroke-linejoin:miter;stroke:rgb(0%,0%,0%);stroke-opacity:1;stroke-miterlimit:10;" d="M 1.681002 1.327598 L 1.681002 1.302402 " transform="matrix(600,0,0,-600,-466.979992,845)"/>
<path style="fill:none;stroke-width:0.0051;stroke-linecap:round;stroke-linejoin:miter;stroke:rgb(0%,0%,0%);stroke-opacity:1;stroke-miterlimit:10;" d="M 1.681002 1.309902 L 1.7833 1.315 " transform="matrix(600,0,0,-600,-466.979992,845)"/>
<path style="fill:none;stroke-width:0.0051;stroke-linecap:round;stroke-linejoin:miter;stroke:rgb(0%,0%,0%);stroke-opacity:1;stroke-miterlimit:10;" d="M 1.7833 1.315 L 1.681002 1.320098 " transform="matrix(600,0,0,-600,-466.979992,845)"/>
<path style="fill:none;stroke-width:0.0051;stroke-linecap:round;stroke-linejoin:miter;stroke:rgb(0%,0%,0%);stroke-opacity:1;stroke-miterlimit:10;" d="M 1.681002 1.327598 L 1.7833 1.315 " transform="matrix(600,0,0,-600,-466.979992,845)"/>
<path style="fill:none;stroke-width:0.0051;stroke-linecap:round;stroke-linejoin:miter;stroke:rgb(0%,0%,0%);stroke-opacity:1;stroke-miterlimit:10;" d="M 1.7833 1.265 L 1.7833 1.391797 " transform="matrix(600,0,0,-600,-466.979992,845)"/>
<path style="fill:none;stroke-width:0.011;stroke-linecap:round;stroke-linejoin:miter;stroke:rgb(0%,0%,0%);stroke-opacity:1;stroke-miterlimit:10;" d="M 1.376503 1.372598 L 1.3372 1.372598 " transform="matrix(600,0,0,-600,-466.979992,845)"/>
<path style="fill:none;stroke-width:0.011;stroke-linecap:round;stroke-linejoin:miter;stroke:rgb(0%,0%,0%);stroke-opacity:1;stroke-miterlimit:10;" d="M 1.3372 1.372598 L 1.366698 1.402201 " transform="matrix(600,0,0,-600,-466.979992,845)"/>
<path style="fill:none;stroke-width:0.011;stroke-linecap:round;stroke-linejoin:miter;stroke:rgb(0%,0%,0%);stroke-opacity:1;stroke-miterlimit:10;" d="M 1.366698 1.402201 L 1.366698 1.343099 " transform="matrix(600,0,0,-600,-466.979992,845)"/>
<path style="fill:none;stroke-width:0.011;stroke-linecap:round;stroke-linejoin:miter;stroke:rgb(0%,0%,0%);stroke-opacity:1;stroke-miterlimit:10;" d="M 1.314797 1.343099 L 1.314797 1.353001 " transform="matrix(600,0,0,-600,-466.979992,845)"/>
<path style="fill:none;stroke-width:0.011;stroke-linecap:round;stroke-linejoin:miter;stroke:rgb(0%,0%,0%);stroke-opacity:1;stroke-miterlimit:10;" d="M 1.314797 1.353001 L 1.304902 1.353001 " transform="matrix(600,0,0,-600,-466.979992,845)"/>
<path style="fill:none;stroke-width:0.011;stroke-linecap:round;stroke-linejoin:miter;stroke:rgb(0%,0%,0%);stroke-opacity:1;stroke-miterlimit:10;" d="M 1.304902 1.353001 L 1.304902 1.343099 " transform="matrix(600,0,0,-600,-466.979992,845)"/>
<path style="fill:none;stroke-width:0.011;stroke-linecap:round;stroke-linejoin:miter;stroke:rgb(0%,0%,0%);stroke-opacity:1;stroke-miterlimit:10;" d="M 1.304902 1.343099 L 1.314797 1.343099 " transform="matrix(600,0,0,-600,-466.979992,845)"/>
<path style="fill:none;stroke-width:0.011;stroke-linecap:round;stroke-linejoin:miter;stroke:rgb(0%,0%,0%);stroke-opacity:1;stroke-miterlimit:10;" d="M 1.279902 1.353001 L 1.269999 1.343099 " transform="matrix(600,0,0,-600,-466.979992,845)"/>
<path style="fill:none;stroke-width:0.011;stroke-linecap:round;stroke-linejoin:miter;stroke:rgb(0%,0%,0%);stroke-opacity:1;stroke-miterlimit:10;" d="M 1.269999 1.343099 L 1.250299 1.343099 " transform="matrix(600,0,0,-600,-466.979992,845)"/>
<path style="fill:none;stroke-width:0.011;stroke-linecap:round;stroke-linejoin:miter;stroke:rgb(0%,0%,0%);stroke-opacity:1;stroke-miterlimit:10;" d="M 1.250299 1.343099 L 1.240501 1.353001 " transform="matrix(600,0,0,-600,-466.979992,845)"/>
<path style="fill:none;stroke-width:0.011;stroke-linecap:round;stroke-linejoin:miter;stroke:rgb(0%,0%,0%);stroke-opacity:1;stroke-miterlimit:10;" d="M 1.240501 1.372598 L 1.260201 1.3825 " transform="matrix(600,0,0,-600,-466.979992,845)"/>
<path style="fill:none;stroke-width:0.011;stroke-linecap:round;stroke-linejoin:miter;stroke:rgb(0%,0%,0%);stroke-opacity:1;stroke-miterlimit:10;" d="M 1.260201 1.3825 L 1.269999 1.3825 " transform="matrix(600,0,0,-600,-466.979992,845)"/>
<path style="fill:none;stroke-width:0.011;stroke-linecap:round;stroke-linejoin:miter;stroke:rgb(0%,0%,0%);stroke-opacity:1;stroke-miterlimit:10;" d="M 1.269999 1.3825 L 1.279902 1.372598 " transform="matrix(600,0,0,-600,-466.979992,845)"/>
<path style="fill:none;stroke-width:0.011;stroke-linecap:round;stroke-linejoin:miter;stroke:rgb(0%,0%,0%);stroke-opacity:1;stroke-miterlimit:10;" d="M 1.279902 1.372598 L 1.279902 1.353001 " transform="matrix(600,0,0,-600,-466.979992,845)"/>
<path style="fill:none;stroke-width:0.011;stroke-linecap:round;stroke-linejoin:miter;stroke:rgb(0%,0%,0%);stroke-opacity:1;stroke-miterlimit:10;" d="M 1.240501 1.372598 L 1.240501 1.402201 " transform="matrix(600,0,0,-600,-466.979992,845)"/>
<path style="fill:none;stroke-width:0.011;stroke-linecap:round;stroke-linejoin:miter;stroke:rgb(0%,0%,0%);stroke-opacity:1;stroke-miterlimit:10;" d="M 1.240501 1.402201 L 1.279902 1.402201 " transform="matrix(600,0,0,-600,-466.979992,845)"/>
<path style="fill:none;stroke-width:0.011;stroke-linecap:round;stroke-linejoin:miter;stroke:rgb(0%,0%,0%);stroke-opacity:1;stroke-miterlimit:10;" d="M 1.215403 1.392298 L 1.215403 1.3825 " transform="matrix(600,0,0,-600,-466.979992,845)"/>
<path style="fill:none;stroke-width:0.011;stroke-linecap:round;stroke-linejoin:miter;stroke:rgb(0%,0%,0%);stroke-opacity:1;stroke-miterlimit:10;" d="M 1.215403 1.3825 L 1.176002 1.343099 " transform="matrix(600,0,0,-600,-466.979992,845)"/>
<path style="fill:none;stroke-width:0.011;stroke-linecap:round;stroke-linejoin:miter;stroke:rgb(0%,0%,0%);stroke-opacity:1;stroke-miterlimit:10;" d="M 1.176002 1.343099 L 1.215403 1.343099 " transform="matrix(600,0,0,-600,-466.979992,845)"/>
<path style="fill:none;stroke-width:0.011;stroke-linecap:round;stroke-linejoin:miter;stroke:rgb(0%,0%,0%);stroke-opacity:1;stroke-miterlimit:10;" d="M 1.215403 1.392298 L 1.205598 1.402201 " transform="matrix(600,0,0,-600,-466.979992,845)"/>
<path style="fill:none;stroke-width:0.011;stroke-linecap:round;stroke-linejoin:miter;stroke:rgb(0%,0%,0%);stroke-opacity:1;stroke-miterlimit:10;" d="M 1.205598 1.402201 L 1.185898 1.402201 " transform="matrix(600,0,0,-600,-466.979992,845)"/>
<path style="fill:none;stroke-width:0.011;stroke-linecap:round;stroke-linejoin:miter;stroke:rgb(0%,0%,0%);stroke-opacity:1;stroke-miterlimit:10;" d="M 1.185898 1.402201 L 1.176002 1.392298 " transform="matrix(600,0,0,-600,-466.979992,845)"/>
<path style=" stroke:none;fill-rule:evenodd;fill:rgb(0%,0%,0%);fill-opacity:1;" d="M 261 593 C 261 569 225 569 225 593 C 225 617 261 617 261 593 "/>
<path style=" stroke:none;fill-rule:evenodd;fill:rgb(0%,0%,0%);fill-opacity:1;" d="M 321 593 C 321 569 285 569 285 593 C 285 617 321 617 321 593 "/>
<path style=" stroke:none;fill-rule:evenodd;fill:rgb(0%,0%,0%);fill-opacity:1;" d="M 381 593 C 381 569 345 569 345 593 C 345 617 381 617 381 593 "/>
<path style=" stroke:none;fill-rule:evenodd;fill:rgb(0%,0%,0%);fill-opacity:1;" d="M 381 251 C 381 227 345 227 345 251 C 345 275 381 275 381 251 "/>
<path style=" stroke:none;fill-rule:evenodd;fill:rgb(0%,0%,0%);fill-opacity:1;" d="M 261 251 C 261 227 225 227 225 251 C 225 275 261 275 261 251 "/>
<path style=" stroke:none;fill-rule:evenodd;fill:rgb(0%,0%,0%);fill-opacity:1;" d="M 186 416 C 186 364 108 364 108 416 C 108 468 186 468 186 416 "/>
<path style=" stroke:none;fill-rule:evenodd;fill:rgb(0%,0%,0%);fill-opacity:1;" d="M 498 416 C 498 364 420 364 420 416 C 420 468 498 468 498 416 "/>
<path style="fill:none;stroke-width:0.06;stroke-linecap:round;stroke-linejoin:miter;stroke:rgb(0%,0%,0%);stroke-opacity:1;stroke-miterlimit:10;" d="M 1.1333 0.195 L 1.1333 0.135 " transform="matrix(600,0,0,-600,-466.979992,845)"/>
<path style="fill:none;stroke-width:0.06;stroke-linecap:round;stroke-linejoin:miter;stroke:rgb(0%,0%,0%);stroke-opacity:1;stroke-miterlimit:10;" d="M 1.2333 0.135 L 1.2333 0.195 " transform="matrix(600,0,0,-600,-466.979992,845)"/>
<path style="fill:none;stroke-width:0.06;stroke-linecap:round;stroke-linejoin:miter;stroke:rgb(0%,0%,0%);stroke-opacity:1;stroke-miterlimit:10;" d="M 1.3333 0.195 L 1.3333 0.135 " transform="matrix(600,0,0,-600,-466.979992,845)"/>
<path style="fill:none;stroke-width:0.06;stroke-linecap:round;stroke-linejoin:miter;stroke:rgb(0%,0%,0%);stroke-opacity:1;stroke-miterlimit:10;" d="M 1.4333 0.135 L 1.4333 0.195 " transform="matrix(600,0,0,-600,-466.979992,845)"/>
<path style=" stroke:none;fill-rule:evenodd;fill:rgb(100%,100%,100%);fill-opacity:1;" d="M 217.800781 746 C 217.800781 739.601562 208.199219 739.601562 208.199219 746 C 208.199219 752.398438 217.800781 752.398438 217.800781 746 "/>
<path style=" stroke:none;fill-rule:evenodd;fill:rgb(100%,100%,100%);fill-opacity:1;" d="M 277.800781 746 C 277.800781 739.601562 268.199219 739.601562 268.199219 746 C 268.199219 752.398438 277.800781 752.398438 277.800781 746 "/>
<path style=" stroke:none;fill-rule:evenodd;fill:rgb(100%,100%,100%);fill-opacity:1;" d="M 337.800781 746 C 337.800781 739.601562 328.199219 739.601562 328.199219 746 C 328.199219 752.398438 337.800781 752.398438 337.800781 746 "/>
<path style=" stroke:none;fill-rule:evenodd;fill:rgb(100%,100%,100%);fill-opacity:1;" d="M 397.800781 746 C 397.800781 739.601562 388.199219 739.601562 388.199219 746 C 388.199219 752.398438 397.800781 752.398438 397.800781 746 "/>
<path style=" stroke:none;fill-rule:evenodd;fill:rgb(100%,100%,100%);fill-opacity:1;" d="M 367.800781 593 C 367.800781 586.601562 358.199219 586.601562 358.199219 593 C 358.199219 599.398438 367.800781 599.398438 367.800781 593 "/>
<path style=" stroke:none;fill-rule:evenodd;fill:rgb(100%,100%,100%);fill-opacity:1;" d="M 307.800781 593 C 307.800781 586.601562 298.199219 586.601562 298.199219 593 C 298.199219 599.398438 307.800781 599.398438 307.800781 593 "/>
<path style=" stroke:none;fill-rule:evenodd;fill:rgb(100%,100%,100%);fill-opacity:1;" d="M 247.800781 593 C 247.800781 586.601562 238.199219 586.601562 238.199219 593 C 238.199219 599.398438 247.800781 599.398438 247.800781 593 "/>
<path style=" stroke:none;fill-rule:evenodd;fill:rgb(100%,100%,100%);fill-opacity:1;" d="M 247.800781 251 C 247.800781 244.601562 238.199219 244.601562 238.199219 251 C 238.199219 257.398438 247.800781 257.398438 247.800781 251 "/>
<path style=" stroke:none;fill-rule:evenodd;fill:rgb(100%,100%,100%);fill-opacity:1;" d="M 367.800781 251 C 367.800781 244.601562 358.199219 244.601562 358.199219 251 C 358.199219 257.398438 367.800781 257.398438 367.800781 251 "/>
<path style=" stroke:none;fill-rule:evenodd;fill:rgb(100%,100%,100%);fill-opacity:1;" d="M 463.800781 416 C 463.800781 409.601562 454.199219 409.601562 454.199219 416 C 454.199219 422.398438 463.800781 422.398438 463.800781 416 "/>
<path style=" stroke:none;fill-rule:evenodd;fill:rgb(100%,100%,100%);fill-opacity:1;" d="M 151.800781 416 C 151.800781 409.601562 142.199219 409.601562 142.199219 416 C 142.199219 422.398438 151.800781 422.398438 151.800781 416 "/>
<path style=" stroke:none;fill-rule:evenodd;fill:rgb(100%,100%,100%);fill-opacity:1;" d="M 97.800781 746 C 97.800781 739.601562 88.199219 739.601562 88.199219 746 C 88.199219 752.398438 97.800781 752.398438 97.800781 746 "/>
<path style=" stroke:none;fill-rule:evenodd;fill:rgb(100%,100%,100%);fill-opacity:1;" d="M 517.800781 746 C 517.800781 739.601562 508.199219 739.601562 508.199219 746 C 508.199219 752.398438 517.800781 752.398438 517.800781 746 "/>
<path style=" stroke:none;fill-rule:evenodd;fill:rgb(100%,100%,100%);fill-opacity:1;" d="M 517.800781 176 C 517.800781 169.601562 508.199219 169.601562 508.199219 176 C 508.199219 182.398438 517.800781 182.398438 517.800781 176 "/>
<path style=" stroke:none;fill-rule:evenodd;fill:rgb(100%,100%,100%);fill-opacity:1;" d="M 97.800781 176 C 97.800781 169.601562 88.199219 169.601562 88.199219 176 C 88.199219 182.398438 97.800781 182.398438 97.800781 176 "/>
</g>
</svg>
