<?xml version="1.0" encoding="UTF-8"?>
<svg xmlns="http://www.w3.org/2000/svg" xmlns:xlink="http://www.w3.org/1999/xlink" width="2405pt" height="1559pt" viewBox="0 0 2405 1559" version="1.1">
<g id="surface1">
<path style="fill:none;stroke-width:0.01;stroke-linecap:round;stroke-linejoin:miter;stroke:rgb(0%,0%,0%);stroke-opacity:1;stroke-miterlimit:10;" d="M 0.176 0.015 L 0.176 2.464603 " transform="matrix(600,0,0,-600,-102.600002,1565)"/>
<path style="fill:none;stroke-width:0.01;stroke-linecap:round;stroke-linejoin:miter;stroke:rgb(0%,0%,0%);stroke-opacity:1;stroke-miterlimit:10;" d="M 0.176 2.464603 L 4.162999 2.464603 " transform="matrix(600,0,0,-600,-102.600002,1565)"/>
<path style="fill:none;stroke-width:0.01;stroke-linecap:round;stroke-linejoin:miter;stroke:rgb(0%,0%,0%);stroke-opacity:1;stroke-miterlimit:10;" d="M 4.162999 2.464603 L 4.162999 0.015 " transform="matrix(600,0,0,-600,-102.600002,1565)"/>
<path style="fill:none;stroke-width:0.01;stroke-linecap:round;stroke-linejoin:miter;stroke:rgb(0%,0%,0%);stroke-opacity:1;stroke-miterlimit:10;" d="M 4.162999 0.015 L 0.176 0.015 " transform="matrix(600,0,0,-600,-102.600002,1565)"/>
<path style="fill:none;stroke-width:0.0051;stroke-linecap:round;stroke-linejoin:miter;stroke:rgb(0%,0%,0%);stroke-opacity:1;stroke-miterlimit:10;" d="M 0.176 2.415 L 0.176 2.591797 " transform="matrix(600,0,0,-600,-102.600002,1565)"/>
<path style="fill:none;stroke-width:0.0051;stroke-linecap:round;stroke-linejoin:miter;stroke:rgb(0%,0%,0%);stroke-opacity:1;stroke-miterlimit:10;" d="M 0.176 2.515 L 0.278298 2.504798 " transform="matrix(600,0,0,-600,-102.600002,1565)"/>
<path style="fill:none;stroke-width:0.0051;stroke-linecap:round;stroke-linejoin:miter;stroke:rgb(0%,0%,0%);stroke-opacity:1;stroke-miterlimit:10;" d="M 0.278298 2.502402 L 0.176 2.515 " transform="matrix(600,0,0,-600,-102.600002,1565)"/>
<path style="fill:none;stroke-width:0.0051;stroke-linecap:round;stroke-linejoin:miter;stroke:rgb(0%,0%,0%);stroke-opacity:1;stroke-miterlimit:10;" d="M 0.176 2.515 L 0.278298 2.525202 " transform="matrix(600,0,0,-600,-102.600002,1565)"/>
<path style="fill:none;stroke-width:0.0051;stroke-linecap:round;stroke-linejoin:miter;stroke:rgb(0%,0%,0%);stroke-opacity:1;stroke-miterlimit:10;" d="M 0.278298 2.527598 L 0.278298 2.502402 " transform="matrix(600,0,0,-600,-102.600002,1565)"/>
<path style="fill:none;stroke-width:0.0051;stroke-linecap:round;stroke-linejoin:miter;stroke:rgb(0%,0%,0%);stroke-opacity:1;stroke-miterlimit:10;" d="M 0.278298 2.509902 L 0.176 2.515 " transform="matrix(600,0,0,-600,-102.600002,1565)"/>
<path style="fill:none;stroke-width:0.0051;stroke-linecap:round;stroke-linejoin:miter;stroke:rgb(0%,0%,0%);stroke-opacity:1;stroke-miterlimit:10;" d="M 0.176 2.515 L 0.278298 2.520098 " transform="matrix(600,0,0,-600,-102.600002,1565)"/>
<path style="fill:none;stroke-width:0.0051;stroke-linecap:round;stroke-linejoin:miter;stroke:rgb(0%,0%,0%);stroke-opacity:1;stroke-miterlimit:10;" d="M 0.278298 2.527598 L 0.176 2.515 " transform="matrix(600,0,0,-600,-102.600002,1565)"/>
<path style="fill:none;stroke-width:0.0051;stroke-linecap:round;stroke-linejoin:miter;stroke:rgb(0%,0%,0%);stroke-opacity:1;stroke-miterlimit:10;" d="M 0.176 2.515 L 4.176 2.515 " transform="matrix(600,0,0,-600,-102.600002,1565)"/>
<path style="fill:none;stroke-width:0.0051;stroke-linecap:round;stroke-linejoin:miter;stroke:rgb(0%,0%,0%);stroke-opacity:1;stroke-miterlimit:10;" d="M 4.176 2.515 L 4.073598 2.504798 " transform="matrix(600,0,0,-600,-102.600002,1565)"/>
<path style="fill:none;stroke-width:0.0051;stroke-linecap:round;stroke-linejoin:miter;stroke:rgb(0%,0%,0%);stroke-opacity:1;stroke-miterlimit:10;" d="M 4.073598 2.502402 L 4.176 2.515 " transform="matrix(600,0,0,-600,-102.600002,1565)"/>
<path style="fill:none;stroke-width:0.0051;stroke-linecap:round;stroke-linejoin:miter;stroke:rgb(0%,0%,0%);stroke-opacity:1;stroke-miterlimit:10;" d="M 4.176 2.515 L 4.073598 2.525202 " transform="matrix(600,0,0,-600,-102.600002,1565)"/>
<path style="fill:none;stroke-width:0.0051;stroke-linecap:round;stroke-linejoin:miter;stroke:rgb(0%,0%,0%);stroke-opacity:1;stroke-miterlimit:10;" d="M 4.073598 2.527598 L 4.073598 2.502402 " transform="matrix(600,0,0,-600,-102.600002,1565)"/>
<path style="fill:none;stroke-width:0.0051;stroke-linecap:round;stroke-linejoin:miter;stroke:rgb(0%,0%,0%);stroke-opacity:1;stroke-miterlimit:10;" d="M 4.073598 2.509902 L 4.176 2.515 " transform="matrix(600,0,0,-600,-102.600002,1565)"/>
<path style="fill:none;stroke-width:0.0051;stroke-linecap:round;stroke-linejoin:miter;stroke:rgb(0%,0%,0%);stroke-opacity:1;stroke-miterlimit:10;" d="M 4.176 2.515 L 4.073598 2.520098 " transform="matrix(600,0,0,-600,-102.600002,1565)"/>
<path style="fill:none;stroke-width:0.0051;stroke-linecap:round;stroke-linejoin:miter;stroke:rgb(0%,0%,0%);stroke-opacity:1;stroke-miterlimit:10;" d="M 4.073598 2.527598 L 4.176 2.515 " transform="matrix(600,0,0,-600,-102.600002,1565)"/>
<path style="fill:none;stroke-width:0.0051;stroke-linecap:round;stroke-linejoin:miter;stroke:rgb(0%,0%,0%);stroke-opacity:1;stroke-miterlimit:10;" d="M 4.176 2.591797 L 4.176 2.415 " transform="matrix(600,0,0,-600,-102.600002,1565)"/>
<path style="fill:none;stroke-width:0.011;stroke-linecap:round;stroke-linejoin:miter;stroke:rgb(0%,0%,0%);stroke-opacity:1;stroke-miterlimit:10;" d="M 2.301397 2.553001 L 2.301397 2.562799 " transform="matrix(600,0,0,-600,-102.600002,1565)"/>
<path style="fill:none;stroke-width:0.011;stroke-linecap:round;stroke-linejoin:miter;stroke:rgb(0%,0%,0%);stroke-opacity:1;stroke-miterlimit:10;" d="M 2.301397 2.562799 L 2.291501 2.572598 " transform="matrix(600,0,0,-600,-102.600002,1565)"/>
<path style="fill:none;stroke-width:0.011;stroke-linecap:round;stroke-linejoin:miter;stroke:rgb(0%,0%,0%);stroke-opacity:1;stroke-miterlimit:10;" d="M 2.291501 2.572598 L 2.262003 2.572598 " transform="matrix(600,0,0,-600,-102.600002,1565)"/>
<path style="fill:none;stroke-width:0.011;stroke-linecap:round;stroke-linejoin:miter;stroke:rgb(0%,0%,0%);stroke-opacity:1;stroke-miterlimit:10;" d="M 2.262003 2.572598 L 2.262003 2.553001 " transform="matrix(600,0,0,-600,-102.600002,1565)"/>
<path style="fill:none;stroke-width:0.011;stroke-linecap:round;stroke-linejoin:miter;stroke:rgb(0%,0%,0%);stroke-opacity:1;stroke-miterlimit:10;" d="M 2.262003 2.553001 L 2.271898 2.543099 " transform="matrix(600,0,0,-600,-102.600002,1565)"/>
<path style="fill:none;stroke-width:0.011;stroke-linecap:round;stroke-linejoin:miter;stroke:rgb(0%,0%,0%);stroke-opacity:1;stroke-miterlimit:10;" d="M 2.271898 2.543099 L 2.291501 2.543099 " transform="matrix(600,0,0,-600,-102.600002,1565)"/>
<path style="fill:none;stroke-width:0.011;stroke-linecap:round;stroke-linejoin:miter;stroke:rgb(0%,0%,0%);stroke-opacity:1;stroke-miterlimit:10;" d="M 2.291501 2.543099 L 2.301397 2.553001 " transform="matrix(600,0,0,-600,-102.600002,1565)"/>
<path style="fill:none;stroke-width:0.011;stroke-linecap:round;stroke-linejoin:miter;stroke:rgb(0%,0%,0%);stroke-opacity:1;stroke-miterlimit:10;" d="M 2.281703 2.592298 L 2.262003 2.572598 " transform="matrix(600,0,0,-600,-102.600002,1565)"/>
<path style="fill:none;stroke-width:0.011;stroke-linecap:round;stroke-linejoin:miter;stroke:rgb(0%,0%,0%);stroke-opacity:1;stroke-miterlimit:10;" d="M 2.281703 2.592298 L 2.301397 2.602201 " transform="matrix(600,0,0,-600,-102.600002,1565)"/>
<path style="fill:none;stroke-width:0.011;stroke-linecap:round;stroke-linejoin:miter;stroke:rgb(0%,0%,0%);stroke-opacity:1;stroke-miterlimit:10;" d="M 2.2396 2.553001 L 2.2396 2.543099 " transform="matrix(600,0,0,-600,-102.600002,1565)"/>
<path style="fill:none;stroke-width:0.011;stroke-linecap:round;stroke-linejoin:miter;stroke:rgb(0%,0%,0%);stroke-opacity:1;stroke-miterlimit:10;" d="M 2.2396 2.543099 L 2.229802 2.543099 " transform="matrix(600,0,0,-600,-102.600002,1565)"/>
<path style="fill:none;stroke-width:0.011;stroke-linecap:round;stroke-linejoin:miter;stroke:rgb(0%,0%,0%);stroke-opacity:1;stroke-miterlimit:10;" d="M 2.229802 2.543099 L 2.229802 2.553001 " transform="matrix(600,0,0,-600,-102.600002,1565)"/>
<path style="fill:none;stroke-width:0.011;stroke-linecap:round;stroke-linejoin:miter;stroke:rgb(0%,0%,0%);stroke-opacity:1;stroke-miterlimit:10;" d="M 2.229802 2.553001 L 2.2396 2.553001 " transform="matrix(600,0,0,-600,-102.600002,1565)"/>
<path style="fill:none;stroke-width:0.011;stroke-linecap:round;stroke-linejoin:miter;stroke:rgb(0%,0%,0%);stroke-opacity:1;stroke-miterlimit:10;" d="M 2.204698 2.543099 L 2.165297 2.543099 " transform="matrix(600,0,0,-600,-102.600002,1565)"/>
<path style="fill:none;stroke-width:0.011;stroke-linecap:round;stroke-linejoin:miter;stroke:rgb(0%,0%,0%);stroke-opacity:1;stroke-miterlimit:10;" d="M 2.184997 2.543099 L 2.184997 2.602201 " transform="matrix(600,0,0,-600,-102.600002,1565)"/>
<path style="fill:none;stroke-width:0.011;stroke-linecap:round;stroke-linejoin:miter;stroke:rgb(0%,0%,0%);stroke-opacity:1;stroke-miterlimit:10;" d="M 2.184997 2.602201 L 2.165297 2.5825 " transform="matrix(600,0,0,-600,-102.600002,1565)"/>
<path style="fill:none;stroke-width:0.011;stroke-linecap:round;stroke-linejoin:miter;stroke:rgb(0%,0%,0%);stroke-opacity:1;stroke-miterlimit:10;" d="M 2.140199 2.592298 L 2.100902 2.553001 " transform="matrix(600,0,0,-600,-102.600002,1565)"/>
<path style="fill:none;stroke-width:0.011;stroke-linecap:round;stroke-linejoin:miter;stroke:rgb(0%,0%,0%);stroke-opacity:1;stroke-miterlimit:10;" d="M 2.100902 2.553001 L 2.110701 2.543099 " transform="matrix(600,0,0,-600,-102.600002,1565)"/>
<path style="fill:none;stroke-width:0.011;stroke-linecap:round;stroke-linejoin:miter;stroke:rgb(0%,0%,0%);stroke-opacity:1;stroke-miterlimit:10;" d="M 2.110701 2.543099 L 2.130401 2.543099 " transform="matrix(600,0,0,-600,-102.600002,1565)"/>
<path style="fill:none;stroke-width:0.011;stroke-linecap:round;stroke-linejoin:miter;stroke:rgb(0%,0%,0%);stroke-opacity:1;stroke-miterlimit:10;" d="M 2.130401 2.543099 L 2.140199 2.553001 " transform="matrix(600,0,0,-600,-102.600002,1565)"/>
<path style="fill:none;stroke-width:0.011;stroke-linecap:round;stroke-linejoin:miter;stroke:rgb(0%,0%,0%);stroke-opacity:1;stroke-miterlimit:10;" d="M 2.140199 2.553001 L 2.140199 2.592298 " transform="matrix(600,0,0,-600,-102.600002,1565)"/>
<path style="fill:none;stroke-width:0.011;stroke-linecap:round;stroke-linejoin:miter;stroke:rgb(0%,0%,0%);stroke-opacity:1;stroke-miterlimit:10;" d="M 2.140199 2.592298 L 2.130401 2.602201 " transform="matrix(600,0,0,-600,-102.600002,1565)"/>
<path style="fill:none;stroke-width:0.011;stroke-linecap:round;stroke-linejoin:miter;stroke:rgb(0%,0%,0%);stroke-opacity:1;stroke-miterlimit:10;" d="M 2.130401 2.602201 L 2.110701 2.602201 " transform="matrix(600,0,0,-600,-102.600002,1565)"/>
<path style="fill:none;stroke-width:0.011;stroke-linecap:round;stroke-linejoin:miter;stroke:rgb(0%,0%,0%);stroke-opacity:1;stroke-miterlimit:10;" d="M 2.110701 2.602201 L 2.100902 2.592298 " transform="matrix(600,0,0,-600,-102.600002,1565)"/>
<path style="fill:none;stroke-width:0.011;stroke-linecap:round;stroke-linejoin:miter;stroke:rgb(0%,0%,0%);stroke-opacity:1;stroke-miterlimit:10;" d="M 2.100902 2.592298 L 2.100902 2.553001 " transform="matrix(600,0,0,-600,-102.600002,1565)"/>
<path style="fill:none;stroke-width:0.011;stroke-linecap:round;stroke-linejoin:miter;stroke:rgb(0%,0%,0%);stroke-opacity:1;stroke-miterlimit:10;" d="M 2.075798 2.543099 L 2.036397 2.543099 " transform="matrix(600,0,0,-600,-102.600002,1565)"/>
<path style="fill:none;stroke-width:0.011;stroke-linecap:round;stroke-linejoin:miter;stroke:rgb(0%,0%,0%);stroke-opacity:1;stroke-miterlimit:10;" d="M 2.056098 2.543099 L 2.056098 2.602201 " transform="matrix(600,0,0,-600,-102.600002,1565)"/>
<path style="fill:none;stroke-width:0.011;stroke-linecap:round;stroke-linejoin:miter;stroke:rgb(0%,0%,0%);stroke-opacity:1;stroke-miterlimit:10;" d="M 2.056098 2.602201 L 2.036397 2.5825 " transform="matrix(600,0,0,-600,-102.600002,1565)"/>
<path style="fill:none;stroke-width:0.052;stroke-linecap:round;stroke-linejoin:miter;stroke:rgb(0%,0%,0%);stroke-opacity:1;stroke-miterlimit:10;" d="M 1.026 0.988997 L 1.026 1.041003 " transform="matrix(600,0,0,-600,-102.600002,1565)"/>
<path style="fill:none;stroke-width:0.052;stroke-linecap:round;stroke-linejoin:miter;stroke:rgb(0%,0%,0%);stroke-opacity:1;stroke-miterlimit:10;" d="M 1.126 1.041003 L 1.126 0.988997 " transform="matrix(600,0,0,-600,-102.600002,1565)"/>
<path style="fill:none;stroke-width:0.052;stroke-linecap:round;stroke-linejoin:miter;stroke:rgb(0%,0%,0%);stroke-opacity:1;stroke-miterlimit:10;" d="M 1.226 0.988997 L 1.226 1.041003 " transform="matrix(600,0,0,-600,-102.600002,1565)"/>
<path style="fill:none;stroke-width:0.052;stroke-linecap:round;stroke-linejoin:miter;stroke:rgb(0%,0%,0%);stroke-opacity:1;stroke-miterlimit:10;" d="M 1.326 1.041003 L 1.326 0.988997 " transform="matrix(600,0,0,-600,-102.600002,1565)"/>
<path style="fill:none;stroke-width:0.052;stroke-linecap:round;stroke-linejoin:miter;stroke:rgb(0%,0%,0%);stroke-opacity:1;stroke-miterlimit:10;" d="M 1.426 0.988997 L 1.426 1.041003 " transform="matrix(600,0,0,-600,-102.600002,1565)"/>
<path style="fill:none;stroke-width:0.052;stroke-linecap:round;stroke-linejoin:miter;stroke:rgb(0%,0%,0%);stroke-opacity:1;stroke-miterlimit:10;" d="M 1.526 1.041003 L 1.526 0.988997 " transform="matrix(600,0,0,-600,-102.600002,1565)"/>
<path style="fill:none;stroke-width:0.052;stroke-linecap:round;stroke-linejoin:miter;stroke:rgb(0%,0%,0%);stroke-opacity:1;stroke-miterlimit:10;" d="M 1.626 0.988997 L 1.626 1.041003 " transform="matrix(600,0,0,-600,-102.600002,1565)"/>
<path style="fill:none;stroke-width:0.052;stroke-linecap:round;stroke-linejoin:miter;stroke:rgb(0%,0%,0%);stroke-opacity:1;stroke-miterlimit:10;" d="M 1.726 1.041003 L 1.726 0.988997 " transform="matrix(600,0,0,-600,-102.600002,1565)"/>
<path style="fill:none;stroke-width:0.052;stroke-linecap:round;stroke-linejoin:miter;stroke:rgb(0%,0%,0%);stroke-opacity:1;stroke-miterlimit:10;" d="M 1.826 0.988997 L 1.826 1.041003 " transform="matrix(600,0,0,-600,-102.600002,1565)"/>
<path style="fill:none;stroke-width:0.052;stroke-linecap:round;stroke-linejoin:miter;stroke:rgb(0%,0%,0%);stroke-opacity:1;stroke-miterlimit:10;" d="M 1.926 1.041003 L 1.926 0.988997 " transform="matrix(600,0,0,-600,-102.600002,1565)"/>
<path style="fill:none;stroke-width:0.052;stroke-linecap:round;stroke-linejoin:miter;stroke:rgb(0%,0%,0%);stroke-opacity:1;stroke-miterlimit:10;" d="M 2.026 0.988997 L 2.026 1.041003 " transform="matrix(600,0,0,-600,-102.600002,1565)"/>
<path style="fill:none;stroke-width:0.052;stroke-linecap:round;stroke-linejoin:miter;stroke:rgb(0%,0%,0%);stroke-opacity:1;stroke-miterlimit:10;" d="M 2.126 1.041003 L 2.126 0.988997 " transform="matrix(600,0,0,-600,-102.600002,1565)"/>
<path style="fill:none;stroke-width:0.052;stroke-linecap:round;stroke-linejoin:miter;stroke:rgb(0%,0%,0%);stroke-opacity:1;stroke-miterlimit:10;" d="M 2.226 0.988997 L 2.226 1.041003 " transform="matrix(600,0,0,-600,-102.600002,1565)"/>
<path style="fill:none;stroke-width:0.052;stroke-linecap:round;stroke-linejoin:miter;stroke:rgb(0%,0%,0%);stroke-opacity:1;stroke-miterlimit:10;" d="M 2.326 1.041003 L 2.326 0.988997 " transform="matrix(600,0,0,-600,-102.600002,1565)"/>
<path style="fill:none;stroke-width:0.052;stroke-linecap:round;stroke-linejoin:miter;stroke:rgb(0%,0%,0%);stroke-opacity:1;stroke-miterlimit:10;" d="M 2.326 1.288997 L 2.326 1.341003 " transform="matrix(600,0,0,-600,-102.600002,1565)"/>
<path style="fill:none;stroke-width:0.052;stroke-linecap:round;stroke-linejoin:miter;stroke:rgb(0%,0%,0%);stroke-opacity:1;stroke-miterlimit:10;" d="M 2.226 1.341003 L 2.226 1.288997 " transform="matrix(600,0,0,-600,-102.600002,1565)"/>
<path style="fill:none;stroke-width:0.052;stroke-linecap:round;stroke-linejoin:miter;stroke:rgb(0%,0%,0%);stroke-opacity:1;stroke-miterlimit:10;" d="M 2.126 1.288997 L 2.126 1.341003 " transform="matrix(600,0,0,-600,-102.600002,1565)"/>
<path style="fill:none;stroke-width:0.052;stroke-linecap:round;stroke-linejoin:miter;stroke:rgb(0%,0%,0%);stroke-opacity:1;stroke-miterlimit:10;" d="M 2.026 1.341003 L 2.026 1.288997 " transform="matrix(600,0,0,-600,-102.600002,1565)"/>
<path style="fill:none;stroke-width:0.052;stroke-linecap:round;stroke-linejoin:miter;stroke:rgb(0%,0%,0%);stroke-opacity:1;stroke-miterlimit:10;" d="M 1.926 1.288997 L 1.926 1.341003 " transform="matrix(600,0,0,-600,-102.600002,1565)"/>
<path style="fill:none;stroke-width:0.052;stroke-linecap:round;stroke-linejoin:miter;stroke:rgb(0%,0%,0%);stroke-opacity:1;stroke-miterlimit:10;" d="M 1.826 1.341003 L 1.826 1.288997 " transform="matrix(600,0,0,-600,-102.600002,1565)"/>
<path style="fill:none;stroke-width:0.052;stroke-linecap:round;stroke-linejoin:miter;stroke:rgb(0%,0%,0%);stroke-opacity:1;stroke-miterlimit:10;" d="M 1.726 1.288997 L 1.726 1.341003 " transform="matrix(600,0,0,-600,-102.600002,1565)"/>
<path style="fill:none;stroke-width:0.052;stroke-linecap:round;stroke-linejoin:miter;stroke:rgb(0%,0%,0%);stroke-opacity:1;stroke-miterlimit:10;" d="M 1.626 1.341003 L 1.626 1.288997 " transform="matrix(600,0,0,-600,-102.600002,1565)"/>
<path style="fill:none;stroke-width:0.052;stroke-linecap:round;stroke-linejoin:miter;stroke:rgb(0%,0%,0%);stroke-opacity:1;stroke-miterlimit:10;" d="M 1.526 1.288997 L 1.526 1.341003 " transform="matrix(600,0,0,-600,-102.600002,1565)"/>
<path style="fill:none;stroke-width:0.052;stroke-linecap:round;stroke-linejoin:miter;stroke:rgb(0%,0%,0%);stroke-opacity:1;stroke-miterlimit:10;" d="M 1.426 1.341003 L 1.426 1.288997 " transform="matrix(600,0,0,-600,-102.600002,1565)"/>
<path style="fill:none;stroke-width:0.052;stroke-linecap:round;stroke-linejoin:miter;stroke:rgb(0%,0%,0%);stroke-opacity:1;stroke-miterlimit:10;" d="M 1.326 1.288997 L 1.326 1.341003 " transform="matrix(600,0,0,-600,-102.600002,1565)"/>
<path style="fill:none;stroke-width:0.052;stroke-linecap:round;stroke-linejoin:miter;stroke:rgb(0%,0%,0%);stroke-opacity:1;stroke-miterlimit:10;" d="M 1.226 1.341003 L 1.226 1.288997 " transform="matrix(600,0,0,-600,-102.600002,1565)"/>
<path style="fill:none;stroke-width:0.052;stroke-linecap:round;stroke-linejoin:miter;stroke:rgb(0%,0%,0%);stroke-opacity:1;stroke-miterlimit:10;" d="M 1.126 1.288997 L 1.126 1.341003 " transform="matrix(600,0,0,-600,-102.600002,1565)"/>
<path style="fill:none;stroke-width:0.052;stroke-linecap:round;stroke-linejoin:miter;stroke:rgb(0%,0%,0%);stroke-opacity:1;stroke-miterlimit:10;" d="M 1.026 1.341003 L 1.026 1.288997 " transform="matrix(600,0,0,-600,-102.600002,1565)"/>
<path style="fill:none;stroke-width:0.052;stroke-linecap:round;stroke-linejoin:miter;stroke:rgb(0%,0%,0%);stroke-opacity:1;stroke-miterlimit:10;" d="M 0.452003 1.815 L 0.399997 1.815 " transform="matrix(600,0,0,-600,-102.600002,1565)"/>
<path style="fill:none;stroke-width:0.052;stroke-linecap:round;stroke-linejoin:miter;stroke:rgb(0%,0%,0%);stroke-opacity:1;stroke-miterlimit:10;" d="M 0.399997 1.915 L 0.452003 1.915 " transform="matrix(600,0,0,-600,-102.600002,1565)"/>
<path style="fill:none;stroke-width:0.052;stroke-linecap:round;stroke-linejoin:miter;stroke:rgb(0%,0%,0%);stroke-opacity:1;stroke-miterlimit:10;" d="M 0.452003 2.015 L 0.399997 2.015 " transform="matrix(600,0,0,-600,-102.600002,1565)"/>
<path style="fill:none;stroke-width:0.052;stroke-linecap:round;stroke-linejoin:miter;stroke:rgb(0%,0%,0%);stroke-opacity:1;stroke-miterlimit:10;" d="M 0.640499 2.271699 L 0.640499 2.323698 " transform="matrix(600,0,0,-600,-102.600002,1565)"/>
<path style="fill:none;stroke-width:0.052;stroke-linecap:round;stroke-linejoin:miter;stroke:rgb(0%,0%,0%);stroke-opacity:1;stroke-miterlimit:10;" d="M 0.740499 2.323698 L 0.740499 2.271699 " transform="matrix(600,0,0,-600,-102.600002,1565)"/>
<path style="fill:none;stroke-width:0.052;stroke-linecap:round;stroke-linejoin:miter;stroke:rgb(0%,0%,0%);stroke-opacity:1;stroke-miterlimit:10;" d="M 0.840499 2.271699 L 0.840499 2.323698 " transform="matrix(600,0,0,-600,-102.600002,1565)"/>
<path style="fill:none;stroke-width:0.052;stroke-linecap:round;stroke-linejoin:miter;stroke:rgb(0%,0%,0%);stroke-opacity:1;stroke-miterlimit:10;" d="M 0.940499 2.323698 L 0.940499 2.271699 " transform="matrix(600,0,0,-600,-102.600002,1565)"/>
<path style="fill:none;stroke-width:0.052;stroke-linecap:round;stroke-linejoin:miter;stroke:rgb(0%,0%,0%);stroke-opacity:1;stroke-miterlimit:10;" d="M 1.040499 2.271699 L 1.040499 2.323698 " transform="matrix(600,0,0,-600,-102.600002,1565)"/>
<path style="fill:none;stroke-width:0.052;stroke-linecap:round;stroke-linejoin:miter;stroke:rgb(0%,0%,0%);stroke-opacity:1;stroke-miterlimit:10;" d="M 1.140499 2.323698 L 1.140499 2.271699 " transform="matrix(600,0,0,-600,-102.600002,1565)"/>
<path style="fill:none;stroke-width:0.052;stroke-linecap:round;stroke-linejoin:miter;stroke:rgb(0%,0%,0%);stroke-opacity:1;stroke-miterlimit:10;" d="M 1.240499 2.271699 L 1.240499 2.323698 " transform="matrix(600,0,0,-600,-102.600002,1565)"/>
<path style="fill:none;stroke-width:0.052;stroke-linecap:round;stroke-linejoin:miter;stroke:rgb(0%,0%,0%);stroke-opacity:1;stroke-miterlimit:10;" d="M 1.340499 2.323698 L 1.340499 2.271699 " transform="matrix(600,0,0,-600,-102.600002,1565)"/>
<path style="fill:none;stroke-width:0.052;stroke-linecap:round;stroke-linejoin:miter;stroke:rgb(0%,0%,0%);stroke-opacity:1;stroke-miterlimit:10;" d="M 1.440499 2.271699 L 1.440499 2.323698 " transform="matrix(600,0,0,-600,-102.600002,1565)"/>
<path style="fill:none;stroke-width:0.052;stroke-linecap:round;stroke-linejoin:miter;stroke:rgb(0%,0%,0%);stroke-opacity:1;stroke-miterlimit:10;" d="M 1.540499 2.323698 L 1.540499 2.271699 " transform="matrix(600,0,0,-600,-102.600002,1565)"/>
<path style="fill:none;stroke-width:0.052;stroke-linecap:round;stroke-linejoin:miter;stroke:rgb(0%,0%,0%);stroke-opacity:1;stroke-miterlimit:10;" d="M 1.640499 2.271699 L 1.640499 2.323698 " transform="matrix(600,0,0,-600,-102.600002,1565)"/>
<path style="fill:none;stroke-width:0.052;stroke-linecap:round;stroke-linejoin:miter;stroke:rgb(0%,0%,0%);stroke-opacity:1;stroke-miterlimit:10;" d="M 1.740499 2.323698 L 1.740499 2.271699 " transform="matrix(600,0,0,-600,-102.600002,1565)"/>
<path style="fill:none;stroke-width:0.052;stroke-linecap:round;stroke-linejoin:miter;stroke:rgb(0%,0%,0%);stroke-opacity:1;stroke-miterlimit:10;" d="M 1.840499 2.271699 L 1.840499 2.323698 " transform="matrix(600,0,0,-600,-102.600002,1565)"/>
<path style="fill:none;stroke-width:0.052;stroke-linecap:round;stroke-linejoin:miter;stroke:rgb(0%,0%,0%);stroke-opacity:1;stroke-miterlimit:10;" d="M 1.940499 2.323698 L 1.940499 2.271699 " transform="matrix(600,0,0,-600,-102.600002,1565)"/>
<path style="fill:none;stroke-width:0.052;stroke-linecap:round;stroke-linejoin:miter;stroke:rgb(0%,0%,0%);stroke-opacity:1;stroke-miterlimit:10;" d="M 2.040499 2.271699 L 2.040499 2.323698 " transform="matrix(600,0,0,-600,-102.600002,1565)"/>
<path style="fill:none;stroke-width:0.052;stroke-linecap:round;stroke-linejoin:miter;stroke:rgb(0%,0%,0%);stroke-opacity:1;stroke-miterlimit:10;" d="M 2.140499 2.323698 L 2.140499 2.271699 " transform="matrix(600,0,0,-600,-102.600002,1565)"/>
<path style=" stroke:none;fill-rule:evenodd;fill:rgb(0%,0%,0%);fill-opacity:1;" d="M 1402.800781 386 C 1402.800781 359.601562 1363.199219 359.601562 1363.199219 386 C 1363.199219 412.398438 1402.800781 412.398438 1402.800781 386 "/>
<path style=" stroke:none;fill-rule:evenodd;fill:rgb(0%,0%,0%);fill-opacity:1;" d="M 982.800781 386 C 982.800781 359.601562 943.199219 359.601562 943.199219 386 C 943.199219 412.398438 982.800781 412.398438 982.800781 386 "/>
<path style=" stroke:none;fill-rule:evenodd;fill:rgb(0%,0%,0%);fill-opacity:1;" d="M 1612.800781 776 C 1612.800781 749.601562 1573.199219 749.601562 1573.199219 776 C 1573.199219 802.398438 1612.800781 802.398438 1612.800781 776 "/>
<path style=" stroke:none;fill-rule:evenodd;fill:rgb(0%,0%,0%);fill-opacity:1;" d="M 1402.800781 806 C 1402.800781 779.601562 1363.199219 779.601562 1363.199219 806 C 1363.199219 832.398438 1402.800781 832.398438 1402.800781 806 "/>
<path style=" stroke:none;fill-rule:evenodd;fill:rgb(0%,0%,0%);fill-opacity:1;" d="M 1402.800781 956 C 1402.800781 929.601562 1363.199219 929.601562 1363.199219 956 C 1363.199219 982.398438 1402.800781 982.398438 1402.800781 956 "/>
<path style=" stroke:none;fill-rule:evenodd;fill:rgb(0%,0%,0%);fill-opacity:1;" d="M 1612.800781 956 C 1612.800781 929.601562 1573.199219 929.601562 1573.199219 956 C 1573.199219 982.398438 1612.800781 982.398438 1612.800781 956 "/>
<path style=" stroke:none;fill-rule:evenodd;fill:rgb(0%,0%,0%);fill-opacity:1;" d="M 1129.800781 1166 C 1129.800781 1139.601562 1090.199219 1139.601562 1090.199219 1166 C 1090.199219 1192.398438 1129.800781 1192.398438 1129.800781 1166 "/>
<path style=" stroke:none;fill-rule:evenodd;fill:rgb(0%,0%,0%);fill-opacity:1;" d="M 1015.800781 1166 C 1015.800781 1139.601562 976.199219 1139.601562 976.199219 1166 C 976.199219 1192.398438 1015.800781 1192.398438 1015.800781 1166 "/>
<path style=" stroke:none;fill-rule:evenodd;fill:rgb(0%,0%,0%);fill-opacity:1;" d="M 1042.5 1346 C 1042.5 1320 1003.5 1320 1003.5 1346 C 1003.5 1372 1042.5 1372 1042.5 1346 "/>
<path style=" stroke:none;fill-rule:evenodd;fill:rgb(0%,0%,0%);fill-opacity:1;" d="M 1042.5 1406 C 1042.5 1380 1003.5 1380 1003.5 1406 C 1003.5 1432 1042.5 1432 1042.5 1406 "/>
<path style=" stroke:none;fill-rule:evenodd;fill:rgb(0%,0%,0%);fill-opacity:1;" d="M 1132.5 1406 C 1132.5 1380 1093.5 1380 1093.5 1406 C 1093.5 1432 1132.5 1432 1132.5 1406 "/>
<path style=" stroke:none;fill-rule:evenodd;fill:rgb(0%,0%,0%);fill-opacity:1;" d="M 1132.5 1346 C 1132.5 1320 1093.5 1320 1093.5 1346 C 1093.5 1372 1132.5 1372 1132.5 1346 "/>
<path style=" stroke:none;fill-rule:evenodd;fill:rgb(0%,0%,0%);fill-opacity:1;" d="M 952.5 596 C 952.5 570 913.5 570 913.5 596 C 913.5 622 952.5 622 952.5 596 "/>
<path style=" stroke:none;fill-rule:evenodd;fill:rgb(0%,0%,0%);fill-opacity:1;" d="M 892.5 596 C 892.5 570 853.5 570 853.5 596 C 853.5 622 892.5 622 892.5 596 "/>
<path style=" stroke:none;fill-rule:evenodd;fill:rgb(0%,0%,0%);fill-opacity:1;" d="M 1855.199219 286.804688 L 1842.195312 273.800781 L 1823.804688 273.800781 L 1810.800781 286.804688 L 1810.800781 305.195312 L 1823.804688 318.199219 L 1842.195312 318.199219 L 1855.199219 305.195312 L 1855.199219 286.804688 "/>
<path style=" stroke:none;fill-rule:evenodd;fill:rgb(0%,0%,0%);fill-opacity:1;" d="M 1915.199219 286.804688 L 1902.195312 273.800781 L 1883.804688 273.800781 L 1870.800781 286.804688 L 1870.800781 305.195312 L 1883.804688 318.199219 L 1902.195312 318.199219 L 1915.199219 305.195312 L 1915.199219 286.804688 "/>
<path style=" stroke:none;fill-rule:evenodd;fill:rgb(0%,0%,0%);fill-opacity:1;" d="M 1975.199219 286.804688 L 1962.195312 273.800781 L 1943.804688 273.800781 L 1930.800781 286.804688 L 1930.800781 305.195312 L 1943.804688 318.199219 L 1962.195312 318.199219 L 1975.199219 305.195312 L 1975.199219 286.804688 "/>
<path style=" stroke:none;fill-rule:evenodd;fill:rgb(0%,0%,0%);fill-opacity:1;" d="M 2035.199219 286.804688 L 2022.195312 273.800781 L 2003.804688 273.800781 L 1990.800781 286.804688 L 1990.800781 305.195312 L 2003.804688 318.199219 L 2022.195312 318.199219 L 2035.199219 305.195312 L 2035.199219 286.804688 "/>
<path style=" stroke:none;fill-rule:evenodd;fill:rgb(0%,0%,0%);fill-opacity:1;" d="M 2095.199219 286.804688 L 2082.195312 273.800781 L 2063.804688 273.800781 L 2050.800781 286.804688 L 2050.800781 305.195312 L 2063.804688 318.199219 L 2082.195312 318.199219 L 2095.199219 305.195312 L 2095.199219 286.804688 "/>
<path style=" stroke:none;fill-rule:evenodd;fill:rgb(0%,0%,0%);fill-opacity:1;" d="M 2095.199219 226.804688 L 2082.195312 213.800781 L 2063.804688 213.800781 L 2050.800781 226.804688 L 2050.800781 245.195312 L 2063.804688 258.199219 L 2082.195312 258.199219 L 2095.199219 245.195312 L 2095.199219 226.804688 "/>
<path style=" stroke:none;fill-rule:evenodd;fill:rgb(0%,0%,0%);fill-opacity:1;" d="M 2035.199219 226.804688 L 2022.195312 213.800781 L 2003.804688 213.800781 L 1990.800781 226.804688 L 1990.800781 245.195312 L 2003.804688 258.199219 L 2022.195312 258.199219 L 2035.199219 245.195312 L 2035.199219 226.804688 "/>
<path style=" stroke:none;fill-rule:evenodd;fill:rgb(0%,0%,0%);fill-opacity:1;" d="M 1975.199219 226.804688 L 1962.195312 213.800781 L 1943.804688 213.800781 L 1930.800781 226.804688 L 1930.800781 245.195312 L 1943.804688 258.199219 L 1962.195312 258.199219 L 1975.199219 245.195312 L 1975.199219 226.804688 "/>
<path style=" stroke:none;fill-rule:evenodd;fill:rgb(0%,0%,0%);fill-opacity:1;" d="M 1915.199219 226.804688 L 1902.195312 213.800781 L 1883.804688 213.800781 L 1870.800781 226.804688 L 1870.800781 245.195312 L 1883.804688 258.199219 L 1902.195312 258.199219 L 1915.199219 245.195312 L 1915.199219 226.804688 "/>
<path style=" stroke:none;fill-rule:evenodd;fill:rgb(0%,0%,0%);fill-opacity:1;" d="M 1855.199219 226.804688 L 1842.195312 213.800781 L 1823.804688 213.800781 L 1810.800781 226.804688 L 1810.800781 245.195312 L 1823.804688 258.199219 L 1842.195312 258.199219 L 1855.199219 245.195312 L 1855.199219 226.804688 "/>
<path style="fill:none;stroke-width:0.06;stroke-linecap:round;stroke-linejoin:miter;stroke:rgb(0%,0%,0%);stroke-opacity:1;stroke-miterlimit:10;" d="M 0.576 0.395 L 0.576 0.335 " transform="matrix(600,0,0,-600,-102.600002,1565)"/>
<path style="fill:none;stroke-width:0.06;stroke-linecap:round;stroke-linejoin:miter;stroke:rgb(0%,0%,0%);stroke-opacity:1;stroke-miterlimit:10;" d="M 0.676 0.335 L 0.676 0.395 " transform="matrix(600,0,0,-600,-102.600002,1565)"/>
<path style="fill:none;stroke-width:0.06;stroke-linecap:round;stroke-linejoin:miter;stroke:rgb(0%,0%,0%);stroke-opacity:1;stroke-miterlimit:10;" d="M 0.776 0.395 L 0.776 0.335 " transform="matrix(600,0,0,-600,-102.600002,1565)"/>
<path style="fill:none;stroke-width:0.06;stroke-linecap:round;stroke-linejoin:miter;stroke:rgb(0%,0%,0%);stroke-opacity:1;stroke-miterlimit:10;" d="M 0.876 0.335 L 0.876 0.395 " transform="matrix(600,0,0,-600,-102.600002,1565)"/>
<path style="fill:none;stroke-width:0.06;stroke-linecap:round;stroke-linejoin:miter;stroke:rgb(0%,0%,0%);stroke-opacity:1;stroke-miterlimit:10;" d="M 0.456 0.665 L 0.396 0.665 " transform="matrix(600,0,0,-600,-102.600002,1565)"/>
<path style="fill:none;stroke-width:0.06;stroke-linecap:round;stroke-linejoin:miter;stroke:rgb(0%,0%,0%);stroke-opacity:1;stroke-miterlimit:10;" d="M 0.396 0.765 L 0.456 0.765 " transform="matrix(600,0,0,-600,-102.600002,1565)"/>
<path style="fill:none;stroke-width:0.06;stroke-linecap:round;stroke-linejoin:miter;stroke:rgb(0%,0%,0%);stroke-opacity:1;stroke-miterlimit:10;" d="M 0.456 0.865 L 0.396 0.865 " transform="matrix(600,0,0,-600,-102.600002,1565)"/>
<path style="fill:none;stroke-width:0.06;stroke-linecap:round;stroke-linejoin:miter;stroke:rgb(0%,0%,0%);stroke-opacity:1;stroke-miterlimit:10;" d="M 0.396 1.115 L 0.456 1.115 " transform="matrix(600,0,0,-600,-102.600002,1565)"/>
<path style="fill:none;stroke-width:0.06;stroke-linecap:round;stroke-linejoin:miter;stroke:rgb(0%,0%,0%);stroke-opacity:1;stroke-miterlimit:10;" d="M 0.456 1.215 L 0.396 1.215 " transform="matrix(600,0,0,-600,-102.600002,1565)"/>
<path style="fill:none;stroke-width:0.06;stroke-linecap:round;stroke-linejoin:miter;stroke:rgb(0%,0%,0%);stroke-opacity:1;stroke-miterlimit:10;" d="M 0.396 1.315 L 0.456 1.315 " transform="matrix(600,0,0,-600,-102.600002,1565)"/>
<path style="fill:none;stroke-width:0.06;stroke-linecap:round;stroke-linejoin:miter;stroke:rgb(0%,0%,0%);stroke-opacity:1;stroke-miterlimit:10;" d="M 0.456 1.565 L 0.396 1.565 " transform="matrix(600,0,0,-600,-102.600002,1565)"/>
<path style="fill:none;stroke-width:0.06;stroke-linecap:round;stroke-linejoin:miter;stroke:rgb(0%,0%,0%);stroke-opacity:1;stroke-miterlimit:10;" d="M 0.396 1.665 L 0.456 1.665 " transform="matrix(600,0,0,-600,-102.600002,1565)"/>
<path style="fill:none;stroke-width:0.06;stroke-linecap:round;stroke-linejoin:miter;stroke:rgb(0%,0%,0%);stroke-opacity:1;stroke-miterlimit:10;" d="M 1.326 0.395 L 1.326 0.335 " transform="matrix(600,0,0,-600,-102.600002,1565)"/>
<path style="fill:none;stroke-width:0.06;stroke-linecap:round;stroke-linejoin:miter;stroke:rgb(0%,0%,0%);stroke-opacity:1;stroke-miterlimit:10;" d="M 1.426 0.335 L 1.426 0.395 " transform="matrix(600,0,0,-600,-102.600002,1565)"/>
<path style="fill:none;stroke-width:0.06;stroke-linecap:round;stroke-linejoin:miter;stroke:rgb(0%,0%,0%);stroke-opacity:1;stroke-miterlimit:10;" d="M 1.526 0.395 L 1.526 0.335 " transform="matrix(600,0,0,-600,-102.600002,1565)"/>
<path style="fill:none;stroke-width:0.06;stroke-linecap:round;stroke-linejoin:miter;stroke:rgb(0%,0%,0%);stroke-opacity:1;stroke-miterlimit:10;" d="M 1.626 0.335 L 1.626 0.395 " transform="matrix(600,0,0,-600,-102.600002,1565)"/>
<path style="fill:none;stroke-width:0.06;stroke-linecap:round;stroke-linejoin:miter;stroke:rgb(0%,0%,0%);stroke-opacity:1;stroke-miterlimit:10;" d="M 2.476 0.395 L 2.476 0.335 " transform="matrix(600,0,0,-600,-102.600002,1565)"/>
<path style="fill:none;stroke-width:0.06;stroke-linecap:round;stroke-linejoin:miter;stroke:rgb(0%,0%,0%);stroke-opacity:1;stroke-miterlimit:10;" d="M 2.576 0.335 L 2.576 0.395 " transform="matrix(600,0,0,-600,-102.600002,1565)"/>
<path style="fill:none;stroke-width:0.06;stroke-linecap:round;stroke-linejoin:miter;stroke:rgb(0%,0%,0%);stroke-opacity:1;stroke-miterlimit:10;" d="M 2.676 0.395 L 2.676 0.335 " transform="matrix(600,0,0,-600,-102.600002,1565)"/>
<path style="fill:none;stroke-width:0.06;stroke-linecap:round;stroke-linejoin:miter;stroke:rgb(0%,0%,0%);stroke-opacity:1;stroke-miterlimit:10;" d="M 2.776 0.335 L 2.776 0.395 " transform="matrix(600,0,0,-600,-102.600002,1565)"/>
<path style="fill:none;stroke-width:0.06;stroke-linecap:round;stroke-linejoin:miter;stroke:rgb(0%,0%,0%);stroke-opacity:1;stroke-miterlimit:10;" d="M 2.876 0.395 L 2.876 0.335 " transform="matrix(600,0,0,-600,-102.600002,1565)"/>
<path style="fill:none;stroke-width:0.06;stroke-linecap:round;stroke-linejoin:miter;stroke:rgb(0%,0%,0%);stroke-opacity:1;stroke-miterlimit:10;" d="M 2.976 0.335 L 2.976 0.395 " transform="matrix(600,0,0,-600,-102.600002,1565)"/>
<path style="fill:none;stroke-width:0.06;stroke-linecap:round;stroke-linejoin:miter;stroke:rgb(0%,0%,0%);stroke-opacity:1;stroke-miterlimit:10;" d="M 3.526 0.395 L 3.526 0.335 " transform="matrix(600,0,0,-600,-102.600002,1565)"/>
<path style="fill:none;stroke-width:0.06;stroke-linecap:round;stroke-linejoin:miter;stroke:rgb(0%,0%,0%);stroke-opacity:1;stroke-miterlimit:10;" d="M 3.626 0.335 L 3.626 0.395 " transform="matrix(600,0,0,-600,-102.600002,1565)"/>
<path style=" stroke:none;fill-rule:evenodd;fill:rgb(0%,0%,0%);fill-opacity:1;" d="M 2161.800781 702.800781 C 2161.800781 673.199219 2117.398438 673.199219 2117.398438 702.800781 C 2117.398438 732.398438 2161.800781 732.398438 2161.800781 702.800781 "/>
<path style=" stroke:none;fill-rule:evenodd;fill:rgb(0%,0%,0%);fill-opacity:1;" d="M 2268.601562 702.800781 C 2268.601562 673.199219 2224.199219 673.199219 2224.199219 702.800781 C 2224.199219 732.398438 2268.601562 732.398438 2268.601562 702.800781 "/>
<path style=" stroke:none;fill-rule:evenodd;fill:rgb(0%,0%,0%);fill-opacity:1;" d="M 2268.601562 549.199219 C 2268.601562 519.601562 2224.199219 519.601562 2224.199219 549.199219 C 2224.199219 578.800781 2268.601562 578.800781 2268.601562 549.199219 "/>
<path style=" stroke:none;fill-rule:evenodd;fill:rgb(0%,0%,0%);fill-opacity:1;" d="M 2161.800781 549.199219 C 2161.800781 519.601562 2117.398438 519.601562 2117.398438 549.199219 C 2117.398438 578.800781 2161.800781 578.800781 2161.800781 549.199219 "/>
<path style=" stroke:none;fill-rule:evenodd;fill:rgb(0%,0%,0%);fill-opacity:1;" d="M 1705.199219 446 C 1705.199219 416.398438 1660.800781 416.398438 1660.800781 446 C 1660.800781 475.601562 1705.199219 475.601562 1705.199219 446 "/>
<path style=" stroke:none;fill-rule:evenodd;fill:rgb(0%,0%,0%);fill-opacity:1;" d="M 1615.199219 386 C 1615.199219 356.398438 1570.800781 356.398438 1570.800781 386 C 1570.800781 415.601562 1615.199219 415.601562 1615.199219 386 "/>
<path style=" stroke:none;fill-rule:evenodd;fill:rgb(0%,0%,0%);fill-opacity:1;" d="M 1615.199219 686 C 1615.199219 656.398438 1570.800781 656.398438 1570.800781 686 C 1570.800781 715.601562 1615.199219 715.601562 1615.199219 686 "/>
<path style=" stroke:none;fill-rule:evenodd;fill:rgb(0%,0%,0%);fill-opacity:1;" d="M 1705.199219 686 C 1705.199219 656.398438 1660.800781 656.398438 1660.800781 686 C 1660.800781 715.601562 1705.199219 715.601562 1705.199219 686 "/>
<path style="fill:none;stroke-width:0.012;stroke-linecap:round;stroke-linejoin:miter;stroke:rgb(0%,0%,0%);stroke-opacity:1;stroke-miterlimit:10;" d="M 2.826 1.315 L 2.826 1.015 " transform="matrix(600,0,0,-600,-102.600002,1565)"/>
<path style="fill:none;stroke-width:0.012;stroke-linecap:round;stroke-linejoin:miter;stroke:rgb(0%,0%,0%);stroke-opacity:1;stroke-miterlimit:10;" d="M 2.676 1.265 L 2.676 0.615 " transform="matrix(600,0,0,-600,-102.600002,1565)"/>
<path style="fill:none;stroke-width:0.012;stroke-linecap:round;stroke-linejoin:miter;stroke:rgb(0%,0%,0%);stroke-opacity:1;stroke-miterlimit:10;" d="M 2.576 0.615 L 2.576 1.265 " transform="matrix(600,0,0,-600,-102.600002,1565)"/>
<path style="fill:none;stroke-width:0.012;stroke-linecap:round;stroke-linejoin:miter;stroke:rgb(0%,0%,0%);stroke-opacity:1;stroke-miterlimit:10;" d="M 2.476 1.265 L 2.476 1.015 " transform="matrix(600,0,0,-600,-102.600002,1565)"/>
<path style="fill:none;stroke-width:0.012;stroke-linecap:round;stroke-linejoin:miter;stroke:rgb(0%,0%,0%);stroke-opacity:1;stroke-miterlimit:10;" d="M 1.826 1.165 L 1.526 1.165 " transform="matrix(600,0,0,-600,-102.600002,1565)"/>
<path style="fill:none;stroke-width:0.012;stroke-linecap:round;stroke-linejoin:miter;stroke:rgb(0%,0%,0%);stroke-opacity:1;stroke-miterlimit:10;" d="M 1.926 1.515 L 1.976 1.465 " transform="matrix(600,0,0,-600,-102.600002,1565)"/>
<path style="fill:none;stroke-width:0.012;stroke-linecap:round;stroke-linejoin:miter;stroke:rgb(0%,0%,0%);stroke-opacity:1;stroke-miterlimit:10;" d="M 1.976 1.465 L 2.576 1.465 " transform="matrix(600,0,0,-600,-102.600002,1565)"/>
<path style="fill:none;stroke-width:0.012;stroke-linecap:round;stroke-linejoin:miter;stroke:rgb(0%,0%,0%);stroke-opacity:1;stroke-miterlimit:10;" d="M 2.676 1.565 L 2.026 1.565 " transform="matrix(600,0,0,-600,-102.600002,1565)"/>
<path style="fill:none;stroke-width:0.012;stroke-linecap:round;stroke-linejoin:miter;stroke:rgb(0%,0%,0%);stroke-opacity:1;stroke-miterlimit:10;" d="M 1.926 1.515 L 1.326 1.515 " transform="matrix(600,0,0,-600,-102.600002,1565)"/>
<path style="fill:none;stroke-width:0.012;stroke-linecap:round;stroke-linejoin:miter;stroke:rgb(0%,0%,0%);stroke-opacity:1;stroke-miterlimit:10;" d="M 1.426 1.665 L 1.426 1.865 " transform="matrix(600,0,0,-600,-102.600002,1565)"/>
<path style="fill:none;stroke-width:0.012;stroke-linecap:round;stroke-linejoin:miter;stroke:rgb(0%,0%,0%);stroke-opacity:1;stroke-miterlimit:10;" d="M 1.626 2.065 L 2.326 2.065 " transform="matrix(600,0,0,-600,-102.600002,1565)"/>
<path style="fill:none;stroke-width:0.012;stroke-linecap:round;stroke-linejoin:miter;stroke:rgb(0%,0%,0%);stroke-opacity:1;stroke-miterlimit:10;" d="M 2.476 1.965 L 1.776 1.965 " transform="matrix(600,0,0,-600,-102.600002,1565)"/>
<path style="fill:none;stroke-width:0.012;stroke-linecap:round;stroke-linejoin:miter;stroke:rgb(0%,0%,0%);stroke-opacity:1;stroke-miterlimit:10;" d="M 1.776 1.865 L 2.676 1.865 " transform="matrix(600,0,0,-600,-102.600002,1565)"/>
<path style="fill:none;stroke-width:0.012;stroke-linecap:round;stroke-linejoin:miter;stroke:rgb(0%,0%,0%);stroke-opacity:1;stroke-miterlimit:10;" d="M 2.676 1.765 L 2.126 1.765 " transform="matrix(600,0,0,-600,-102.600002,1565)"/>
<path style="fill:none;stroke-width:0.012;stroke-linecap:round;stroke-linejoin:miter;stroke:rgb(0%,0%,0%);stroke-opacity:1;stroke-miterlimit:10;" d="M 1.926 1.665 L 2.676 1.665 " transform="matrix(600,0,0,-600,-102.600002,1565)"/>
<path style="fill:none;stroke-width:0.012;stroke-linecap:round;stroke-linejoin:miter;stroke:rgb(0%,0%,0%);stroke-opacity:1;stroke-miterlimit:10;" d="M 3.426 1.465 L 3.426 1.965 " transform="matrix(600,0,0,-600,-102.600002,1565)"/>
<path style="fill:none;stroke-width:0.012;stroke-linecap:round;stroke-linejoin:miter;stroke:rgb(0%,0%,0%);stroke-opacity:1;stroke-miterlimit:10;" d="M 1.626 0.865 L 1.026 0.865 " transform="matrix(600,0,0,-600,-102.600002,1565)"/>
<path style="fill:none;stroke-width:0.012;stroke-linecap:round;stroke-linejoin:miter;stroke:rgb(0%,0%,0%);stroke-opacity:1;stroke-miterlimit:10;" d="M 0.826 1.015 L 0.826 1.515 " transform="matrix(600,0,0,-600,-102.600002,1565)"/>
<path style="fill:none;stroke-width:0.012;stroke-linecap:round;stroke-linejoin:miter;stroke:rgb(0%,0%,0%);stroke-opacity:1;stroke-miterlimit:10;" d="M 0.576 1.515 L 0.576 2.015 " transform="matrix(600,0,0,-600,-102.600002,1565)"/>
<path style="fill:none;stroke-width:0.012;stroke-linecap:round;stroke-linejoin:miter;stroke:rgb(0%,0%,0%);stroke-opacity:1;stroke-miterlimit:10;" d="M 1.626 0.515 L 2.176 0.515 " transform="matrix(600,0,0,-600,-102.600002,1565)"/>
<path style="fill:none;stroke-width:0.012;stroke-linecap:round;stroke-linejoin:miter;stroke:rgb(0%,0%,0%);stroke-opacity:1;stroke-miterlimit:10;" d="M 2.476 0.515 L 3.126 0.515 " transform="matrix(600,0,0,-600,-102.600002,1565)"/>
<path style=" stroke:none;fill-rule:evenodd;fill:rgb(0%,0%,0%);fill-opacity:1;" d="M 1794 1256 C 1794 1228 1752 1228 1752 1256 C 1752 1284 1794 1284 1794 1256 "/>
<path style=" stroke:none;fill-rule:evenodd;fill:rgb(0%,0%,0%);fill-opacity:1;" d="M 1524 1196 C 1524 1168 1482 1168 1482 1196 C 1482 1224 1524 1224 1524 1196 "/>
<path style=" stroke:none;fill-rule:evenodd;fill:rgb(0%,0%,0%);fill-opacity:1;" d="M 1464 1196 C 1464 1168 1422 1168 1422 1196 C 1422 1224 1464 1224 1464 1196 "/>
<path style=" stroke:none;fill-rule:evenodd;fill:rgb(0%,0%,0%);fill-opacity:1;" d="M 1404 1256 C 1404 1228 1362 1228 1362 1256 C 1362 1284 1404 1284 1404 1256 "/>
<path style=" stroke:none;fill-rule:evenodd;fill:rgb(0%,0%,0%);fill-opacity:1;" d="M 1224 1256 C 1224 1228 1182 1228 1182 1256 C 1182 1284 1224 1284 1224 1256 "/>
<path style=" stroke:none;fill-rule:evenodd;fill:rgb(0%,0%,0%);fill-opacity:1;" d="M 894 1256 C 894 1228 852 1228 852 1256 C 852 1284 894 1284 894 1256 "/>
<path style=" stroke:none;fill-rule:evenodd;fill:rgb(0%,0%,0%);fill-opacity:1;" d="M 894 1046 C 894 1018 852 1018 852 1046 C 852 1074 894 1074 894 1046 "/>
<path style=" stroke:none;fill-rule:evenodd;fill:rgb(0%,0%,0%);fill-opacity:1;" d="M 834 866 C 834 838 792 838 792 866 C 792 894 834 894 834 866 "/>
<path style=" stroke:none;fill-rule:evenodd;fill:rgb(0%,0%,0%);fill-opacity:1;" d="M 1014 866 C 1014 838 972 838 972 866 C 972 894 1014 894 1014 866 "/>
<path style=" stroke:none;fill-rule:evenodd;fill:rgb(0%,0%,0%);fill-opacity:1;" d="M 714 716 C 714 688 672 688 672 716 C 672 744 714 744 714 716 "/>
<path style=" stroke:none;fill-rule:evenodd;fill:rgb(0%,0%,0%);fill-opacity:1;" d="M 714 656 C 714 628 672 628 672 656 C 672 684 714 684 714 656 "/>
<path style=" stroke:none;fill-rule:evenodd;fill:rgb(0%,0%,0%);fill-opacity:1;" d="M 774 566 C 774 538 732 538 732 566 C 732 594 774 594 774 566 "/>
<path style=" stroke:none;fill-rule:evenodd;fill:rgb(0%,0%,0%);fill-opacity:1;" d="M 774 446 C 774 418 732 418 732 446 C 732 474 774 474 774 446 "/>
<path style=" stroke:none;fill-rule:evenodd;fill:rgb(0%,0%,0%);fill-opacity:1;" d="M 894 326 C 894 298 852 298 852 326 C 852 354 894 354 894 326 "/>
<path style=" stroke:none;fill-rule:evenodd;fill:rgb(0%,0%,0%);fill-opacity:1;" d="M 984 446 C 984 418 942 418 942 446 C 942 474 984 474 984 446 "/>
<path style=" stroke:none;fill-rule:evenodd;fill:rgb(0%,0%,0%);fill-opacity:1;" d="M 1074 566 C 1074 538 1032 538 1032 566 C 1032 594 1074 594 1074 566 "/>
<path style=" stroke:none;fill-rule:evenodd;fill:rgb(0%,0%,0%);fill-opacity:1;" d="M 1134 626 C 1134 598 1092 598 1092 626 C 1092 654 1134 654 1134 626 "/>
<path style=" stroke:none;fill-rule:evenodd;fill:rgb(0%,0%,0%);fill-opacity:1;" d="M 1194 506 C 1194 478 1152 478 1152 506 C 1152 534 1194 534 1194 506 "/>
<path style=" stroke:none;fill-rule:evenodd;fill:rgb(0%,0%,0%);fill-opacity:1;" d="M 1314 326 C 1314 298 1272 298 1272 326 C 1272 354 1314 354 1314 326 "/>
<path style=" stroke:none;fill-rule:evenodd;fill:rgb(0%,0%,0%);fill-opacity:1;" d="M 1524 446 C 1524 418 1482 418 1482 446 C 1482 474 1524 474 1524 446 "/>
<path style=" stroke:none;fill-rule:evenodd;fill:rgb(0%,0%,0%);fill-opacity:1;" d="M 1524 506 C 1524 478 1482 478 1482 506 C 1482 534 1524 534 1524 506 "/>
<path style=" stroke:none;fill-rule:evenodd;fill:rgb(0%,0%,0%);fill-opacity:1;" d="M 1524 566 C 1524 538 1482 538 1482 566 C 1482 594 1524 594 1524 566 "/>
<path style=" stroke:none;fill-rule:evenodd;fill:rgb(0%,0%,0%);fill-opacity:1;" d="M 1524 626 C 1524 598 1482 598 1482 626 C 1482 654 1524 654 1524 626 "/>
<path style=" stroke:none;fill-rule:evenodd;fill:rgb(0%,0%,0%);fill-opacity:1;" d="M 1464 686 C 1464 658 1422 658 1422 686 C 1422 714 1464 714 1464 686 "/>
<path style=" stroke:none;fill-rule:evenodd;fill:rgb(0%,0%,0%);fill-opacity:1;" d="M 1464 746 C 1464 718 1422 718 1422 746 C 1422 774 1464 774 1464 746 "/>
<path style=" stroke:none;fill-rule:evenodd;fill:rgb(0%,0%,0%);fill-opacity:1;" d="M 1464 806 C 1464 778 1422 778 1422 806 C 1422 834 1464 834 1464 806 "/>
<path style=" stroke:none;fill-rule:evenodd;fill:rgb(0%,0%,0%);fill-opacity:1;" d="M 1524 806 C 1524 778 1482 778 1482 806 C 1482 834 1524 834 1524 806 "/>
<path style=" stroke:none;fill-rule:evenodd;fill:rgb(0%,0%,0%);fill-opacity:1;" d="M 1974 686 C 1974 658 1932 658 1932 686 C 1932 714 1974 714 1974 686 "/>
<path style=" stroke:none;fill-rule:evenodd;fill:rgb(0%,0%,0%);fill-opacity:1;" d="M 1974 386 C 1974 358 1932 358 1932 386 C 1932 414 1974 414 1974 386 "/>
<path style=" stroke:none;fill-rule:evenodd;fill:rgb(0%,0%,0%);fill-opacity:1;" d="M 534 1046 C 534 1018 492 1018 492 1046 C 492 1074 534 1074 534 1046 "/>
<path style=" stroke:none;fill-rule:evenodd;fill:rgb(0%,0%,0%);fill-opacity:1;" d="M 414 956 C 414 928 372 928 372 956 C 372 984 414 984 414 956 "/>
<path style=" stroke:none;fill-rule:evenodd;fill:rgb(0%,0%,0%);fill-opacity:1;" d="M 414 656 C 414 628 372 628 372 656 C 372 684 414 684 414 656 "/>
<path style=" stroke:none;fill-rule:evenodd;fill:rgb(0%,0%,0%);fill-opacity:1;" d="M 264 656 C 264 628 222 628 222 656 C 222 684 264 684 264 656 "/>
<path style=" stroke:none;fill-rule:evenodd;fill:rgb(0%,0%,0%);fill-opacity:1;" d="M 264 356 C 264 328 222 328 222 356 C 222 384 264 384 264 356 "/>
<path style="fill:none;stroke-width:0.016;stroke-linecap:round;stroke-linejoin:miter;stroke:rgb(0%,0%,0%);stroke-opacity:1;stroke-miterlimit:10;" d="M 1.326 1.415 L 2.526 1.415 " transform="matrix(600,0,0,-600,-102.600002,1565)"/>
<path style="fill:none;stroke-width:0.016;stroke-linecap:round;stroke-linejoin:miter;stroke:rgb(0%,0%,0%);stroke-opacity:1;stroke-miterlimit:10;" d="M 2.526 1.415 L 2.576 1.365 " transform="matrix(600,0,0,-600,-102.600002,1565)"/>
<path style=" stroke:none;fill-rule:evenodd;fill:rgb(100%,100%,100%);fill-opacity:1;" d="M 877.800781 1256 C 877.800781 1249.601562 868.199219 1249.601562 868.199219 1256 C 868.199219 1262.398438 877.800781 1262.398438 877.800781 1256 "/>
<path style=" stroke:none;fill-rule:evenodd;fill:rgb(100%,100%,100%);fill-opacity:1;" d="M 877.800781 1046 C 877.800781 1039.601562 868.199219 1039.601562 868.199219 1046 C 868.199219 1052.398438 877.800781 1052.398438 877.800781 1046 "/>
<path style=" stroke:none;fill-rule:evenodd;fill:rgb(100%,100%,100%);fill-opacity:1;" d="M 1207.800781 1256 C 1207.800781 1249.601562 1198.199219 1249.601562 1198.199219 1256 C 1198.199219 1262.398438 1207.800781 1262.398438 1207.800781 1256 "/>
<path style=" stroke:none;fill-rule:evenodd;fill:rgb(100%,100%,100%);fill-opacity:1;" d="M 1387.800781 1256 C 1387.800781 1249.601562 1378.199219 1249.601562 1378.199219 1256 C 1378.199219 1262.398438 1387.800781 1262.398438 1387.800781 1256 "/>
<path style=" stroke:none;fill-rule:evenodd;fill:rgb(100%,100%,100%);fill-opacity:1;" d="M 1447.800781 1196 C 1447.800781 1189.601562 1438.199219 1189.601562 1438.199219 1196 C 1438.199219 1202.398438 1447.800781 1202.398438 1447.800781 1196 "/>
<path style=" stroke:none;fill-rule:evenodd;fill:rgb(100%,100%,100%);fill-opacity:1;" d="M 1507.800781 1196 C 1507.800781 1189.601562 1498.199219 1189.601562 1498.199219 1196 C 1498.199219 1202.398438 1507.800781 1202.398438 1507.800781 1196 "/>
<path style=" stroke:none;fill-rule:evenodd;fill:rgb(100%,100%,100%);fill-opacity:1;" d="M 1507.800781 806 C 1507.800781 799.601562 1498.199219 799.601562 1498.199219 806 C 1498.199219 812.398438 1507.800781 812.398438 1507.800781 806 "/>
<path style=" stroke:none;fill-rule:evenodd;fill:rgb(100%,100%,100%);fill-opacity:1;" d="M 1447.800781 806 C 1447.800781 799.601562 1438.199219 799.601562 1438.199219 806 C 1438.199219 812.398438 1447.800781 812.398438 1447.800781 806 "/>
<path style=" stroke:none;fill-rule:evenodd;fill:rgb(100%,100%,100%);fill-opacity:1;" d="M 1447.800781 746 C 1447.800781 739.601562 1438.199219 739.601562 1438.199219 746 C 1438.199219 752.398438 1447.800781 752.398438 1447.800781 746 "/>
<path style=" stroke:none;fill-rule:evenodd;fill:rgb(100%,100%,100%);fill-opacity:1;" d="M 1447.800781 686 C 1447.800781 679.601562 1438.199219 679.601562 1438.199219 686 C 1438.199219 692.398438 1447.800781 692.398438 1447.800781 686 "/>
<path style=" stroke:none;fill-rule:evenodd;fill:rgb(100%,100%,100%);fill-opacity:1;" d="M 697.800781 716 C 697.800781 709.601562 688.199219 709.601562 688.199219 716 C 688.199219 722.398438 697.800781 722.398438 697.800781 716 "/>
<path style=" stroke:none;fill-rule:evenodd;fill:rgb(100%,100%,100%);fill-opacity:1;" d="M 697.800781 656 C 697.800781 649.601562 688.199219 649.601562 688.199219 656 C 688.199219 662.398438 697.800781 662.398438 697.800781 656 "/>
<path style=" stroke:none;fill-rule:evenodd;fill:rgb(100%,100%,100%);fill-opacity:1;" d="M 877.800781 596 C 877.800781 589.601562 868.199219 589.601562 868.199219 596 C 868.199219 602.398438 877.800781 602.398438 877.800781 596 "/>
<path style=" stroke:none;fill-rule:evenodd;fill:rgb(100%,100%,100%);fill-opacity:1;" d="M 937.800781 596 C 937.800781 589.601562 928.199219 589.601562 928.199219 596 C 928.199219 602.398438 937.800781 602.398438 937.800781 596 "/>
<path style=" stroke:none;fill-rule:evenodd;fill:rgb(100%,100%,100%);fill-opacity:1;" d="M 1027.800781 1346 C 1027.800781 1339.601562 1018.199219 1339.601562 1018.199219 1346 C 1018.199219 1352.398438 1027.800781 1352.398438 1027.800781 1346 "/>
<path style=" stroke:none;fill-rule:evenodd;fill:rgb(100%,100%,100%);fill-opacity:1;" d="M 1027.800781 1406 C 1027.800781 1399.601562 1018.199219 1399.601562 1018.199219 1406 C 1018.199219 1412.398438 1027.800781 1412.398438 1027.800781 1406 "/>
<path style=" stroke:none;fill-rule:evenodd;fill:rgb(100%,100%,100%);fill-opacity:1;" d="M 1117.800781 1406 C 1117.800781 1399.601562 1108.199219 1399.601562 1108.199219 1406 C 1108.199219 1412.398438 1117.800781 1412.398438 1117.800781 1406 "/>
<path style=" stroke:none;fill-rule:evenodd;fill:rgb(100%,100%,100%);fill-opacity:1;" d="M 1117.800781 1346 C 1117.800781 1339.601562 1108.199219 1339.601562 1108.199219 1346 C 1108.199219 1352.398438 1117.800781 1352.398438 1117.800781 1346 "/>
<path style=" stroke:none;fill-rule:evenodd;fill:rgb(100%,100%,100%);fill-opacity:1;" d="M 517.800781 1046 C 517.800781 1039.601562 508.199219 1039.601562 508.199219 1046 C 508.199219 1052.398438 517.800781 1052.398438 517.800781 1046 "/>
<path style=" stroke:none;fill-rule:evenodd;fill:rgb(100%,100%,100%);fill-opacity:1;" d="M 817.800781 866 C 817.800781 859.601562 808.199219 859.601562 808.199219 866 C 808.199219 872.398438 817.800781 872.398438 817.800781 866 "/>
<path style=" stroke:none;fill-rule:evenodd;fill:rgb(100%,100%,100%);fill-opacity:1;" d="M 997.800781 866 C 997.800781 859.601562 988.199219 859.601562 988.199219 866 C 988.199219 872.398438 997.800781 872.398438 997.800781 866 "/>
<path style=" stroke:none;fill-rule:evenodd;fill:rgb(100%,100%,100%);fill-opacity:1;" d="M 1117.800781 626 C 1117.800781 619.601562 1108.199219 619.601562 1108.199219 626 C 1108.199219 632.398438 1117.800781 632.398438 1117.800781 626 "/>
<path style=" stroke:none;fill-rule:evenodd;fill:rgb(100%,100%,100%);fill-opacity:1;" d="M 1057.800781 566 C 1057.800781 559.601562 1048.199219 559.601562 1048.199219 566 C 1048.199219 572.398438 1057.800781 572.398438 1057.800781 566 "/>
<path style=" stroke:none;fill-rule:evenodd;fill:rgb(100%,100%,100%);fill-opacity:1;" d="M 1177.800781 506 C 1177.800781 499.601562 1168.199219 499.601562 1168.199219 506 C 1168.199219 512.398438 1177.800781 512.398438 1177.800781 506 "/>
<path style=" stroke:none;fill-rule:evenodd;fill:rgb(100%,100%,100%);fill-opacity:1;" d="M 967.800781 446 C 967.800781 439.601562 958.199219 439.601562 958.199219 446 C 958.199219 452.398438 967.800781 452.398438 967.800781 446 "/>
<path style=" stroke:none;fill-rule:evenodd;fill:rgb(100%,100%,100%);fill-opacity:1;" d="M 877.800781 326 C 877.800781 319.601562 868.199219 319.601562 868.199219 326 C 868.199219 332.398438 877.800781 332.398438 877.800781 326 "/>
<path style=" stroke:none;fill-rule:evenodd;fill:rgb(100%,100%,100%);fill-opacity:1;" d="M 1297.800781 326 C 1297.800781 319.601562 1288.199219 319.601562 1288.199219 326 C 1288.199219 332.398438 1297.800781 332.398438 1297.800781 326 "/>
<path style=" stroke:none;fill-rule:evenodd;fill:rgb(100%,100%,100%);fill-opacity:1;" d="M 1507.800781 446 C 1507.800781 439.601562 1498.199219 439.601562 1498.199219 446 C 1498.199219 452.398438 1507.800781 452.398438 1507.800781 446 "/>
<path style=" stroke:none;fill-rule:evenodd;fill:rgb(100%,100%,100%);fill-opacity:1;" d="M 1507.800781 506 C 1507.800781 499.601562 1498.199219 499.601562 1498.199219 506 C 1498.199219 512.398438 1507.800781 512.398438 1507.800781 506 "/>
<path style=" stroke:none;fill-rule:evenodd;fill:rgb(100%,100%,100%);fill-opacity:1;" d="M 1507.800781 566 C 1507.800781 559.601562 1498.199219 559.601562 1498.199219 566 C 1498.199219 572.398438 1507.800781 572.398438 1507.800781 566 "/>
<path style=" stroke:none;fill-rule:evenodd;fill:rgb(100%,100%,100%);fill-opacity:1;" d="M 1507.800781 626 C 1507.800781 619.601562 1498.199219 619.601562 1498.199219 626 C 1498.199219 632.398438 1507.800781 632.398438 1507.800781 626 "/>
<path style=" stroke:none;fill-rule:evenodd;fill:rgb(100%,100%,100%);fill-opacity:1;" d="M 1957.800781 686 C 1957.800781 679.601562 1948.199219 679.601562 1948.199219 686 C 1948.199219 692.398438 1957.800781 692.398438 1957.800781 686 "/>
<path style=" stroke:none;fill-rule:evenodd;fill:rgb(100%,100%,100%);fill-opacity:1;" d="M 1957.800781 386 C 1957.800781 379.601562 1948.199219 379.601562 1948.199219 386 C 1948.199219 392.398438 1957.800781 392.398438 1957.800781 386 "/>
<path style=" stroke:none;fill-rule:evenodd;fill:rgb(100%,100%,100%);fill-opacity:1;" d="M 1777.800781 1256 C 1777.800781 1249.601562 1768.199219 1249.601562 1768.199219 1256 C 1768.199219 1262.398438 1777.800781 1262.398438 1777.800781 1256 "/>
<path style=" stroke:none;fill-rule:evenodd;fill:rgb(100%,100%,100%);fill-opacity:1;" d="M 1597.800781 956 C 1597.800781 949.601562 1588.199219 949.601562 1588.199219 956 C 1588.199219 962.398438 1597.800781 962.398438 1597.800781 956 "/>
<path style=" stroke:none;fill-rule:evenodd;fill:rgb(100%,100%,100%);fill-opacity:1;" d="M 1387.800781 956 C 1387.800781 949.601562 1378.199219 949.601562 1378.199219 956 C 1378.199219 962.398438 1387.800781 962.398438 1387.800781 956 "/>
<path style=" stroke:none;fill-rule:evenodd;fill:rgb(100%,100%,100%);fill-opacity:1;" d="M 1297.800781 956 C 1297.800781 949.601562 1288.199219 949.601562 1288.199219 956 C 1288.199219 962.398438 1297.800781 962.398438 1297.800781 956 "/>
<path style=" stroke:none;fill-rule:evenodd;fill:rgb(100%,100%,100%);fill-opacity:1;" d="M 1237.800781 956 C 1237.800781 949.601562 1228.199219 949.601562 1228.199219 956 C 1228.199219 962.398438 1237.800781 962.398438 1237.800781 956 "/>
<path style=" stroke:none;fill-rule:evenodd;fill:rgb(100%,100%,100%);fill-opacity:1;" d="M 1177.800781 956 C 1177.800781 949.601562 1168.199219 949.601562 1168.199219 956 C 1168.199219 962.398438 1177.800781 962.398438 1177.800781 956 "/>
<path style=" stroke:none;fill-rule:evenodd;fill:rgb(100%,100%,100%);fill-opacity:1;" d="M 1117.800781 956 C 1117.800781 949.601562 1108.199219 949.601562 1108.199219 956 C 1108.199219 962.398438 1117.800781 962.398438 1117.800781 956 "/>
<path style=" stroke:none;fill-rule:evenodd;fill:rgb(100%,100%,100%);fill-opacity:1;" d="M 1057.800781 956 C 1057.800781 949.601562 1048.199219 949.601562 1048.199219 956 C 1048.199219 962.398438 1057.800781 962.398438 1057.800781 956 "/>
<path style=" stroke:none;fill-rule:evenodd;fill:rgb(100%,100%,100%);fill-opacity:1;" d="M 997.800781 956 C 997.800781 949.601562 988.199219 949.601562 988.199219 956 C 988.199219 962.398438 997.800781 962.398438 997.800781 956 "/>
<path style=" stroke:none;fill-rule:evenodd;fill:rgb(100%,100%,100%);fill-opacity:1;" d="M 937.800781 956 C 937.800781 949.601562 928.199219 949.601562 928.199219 956 C 928.199219 962.398438 937.800781 962.398438 937.800781 956 "/>
<path style=" stroke:none;fill-rule:evenodd;fill:rgb(100%,100%,100%);fill-opacity:1;" d="M 877.800781 956 C 877.800781 949.601562 868.199219 949.601562 868.199219 956 C 868.199219 962.398438 877.800781 962.398438 877.800781 956 "/>
<path style=" stroke:none;fill-rule:evenodd;fill:rgb(100%,100%,100%);fill-opacity:1;" d="M 817.800781 956 C 817.800781 949.601562 808.199219 949.601562 808.199219 956 C 808.199219 962.398438 817.800781 962.398438 817.800781 956 "/>
<path style=" stroke:none;fill-rule:evenodd;fill:rgb(100%,100%,100%);fill-opacity:1;" d="M 757.800781 956 C 757.800781 949.601562 748.199219 949.601562 748.199219 956 C 748.199219 962.398438 757.800781 962.398438 757.800781 956 "/>
<path style=" stroke:none;fill-rule:evenodd;fill:rgb(100%,100%,100%);fill-opacity:1;" d="M 697.800781 956 C 697.800781 949.601562 688.199219 949.601562 688.199219 956 C 688.199219 962.398438 697.800781 962.398438 697.800781 956 "/>
<path style=" stroke:none;fill-rule:evenodd;fill:rgb(100%,100%,100%);fill-opacity:1;" d="M 637.800781 956 C 637.800781 949.601562 628.199219 949.601562 628.199219 956 C 628.199219 962.398438 637.800781 962.398438 637.800781 956 "/>
<path style=" stroke:none;fill-rule:evenodd;fill:rgb(100%,100%,100%);fill-opacity:1;" d="M 577.800781 956 C 577.800781 949.601562 568.199219 949.601562 568.199219 956 C 568.199219 962.398438 577.800781 962.398438 577.800781 956 "/>
<path style=" stroke:none;fill-rule:evenodd;fill:rgb(100%,100%,100%);fill-opacity:1;" d="M 517.800781 956 C 517.800781 949.601562 508.199219 949.601562 508.199219 956 C 508.199219 962.398438 517.800781 962.398438 517.800781 956 "/>
<path style=" stroke:none;fill-rule:evenodd;fill:rgb(100%,100%,100%);fill-opacity:1;" d="M 397.800781 956 C 397.800781 949.601562 388.199219 949.601562 388.199219 956 C 388.199219 962.398438 397.800781 962.398438 397.800781 956 "/>
<path style=" stroke:none;fill-rule:evenodd;fill:rgb(100%,100%,100%);fill-opacity:1;" d="M 517.800781 776 C 517.800781 769.601562 508.199219 769.601562 508.199219 776 C 508.199219 782.398438 517.800781 782.398438 517.800781 776 "/>
<path style=" stroke:none;fill-rule:evenodd;fill:rgb(100%,100%,100%);fill-opacity:1;" d="M 577.800781 776 C 577.800781 769.601562 568.199219 769.601562 568.199219 776 C 568.199219 782.398438 577.800781 782.398438 577.800781 776 "/>
<path style=" stroke:none;fill-rule:evenodd;fill:rgb(100%,100%,100%);fill-opacity:1;" d="M 637.800781 776 C 637.800781 769.601562 628.199219 769.601562 628.199219 776 C 628.199219 782.398438 637.800781 782.398438 637.800781 776 "/>
<path style=" stroke:none;fill-rule:evenodd;fill:rgb(100%,100%,100%);fill-opacity:1;" d="M 697.800781 776 C 697.800781 769.601562 688.199219 769.601562 688.199219 776 C 688.199219 782.398438 697.800781 782.398438 697.800781 776 "/>
<path style=" stroke:none;fill-rule:evenodd;fill:rgb(100%,100%,100%);fill-opacity:1;" d="M 757.800781 776 C 757.800781 769.601562 748.199219 769.601562 748.199219 776 C 748.199219 782.398438 757.800781 782.398438 757.800781 776 "/>
<path style=" stroke:none;fill-rule:evenodd;fill:rgb(100%,100%,100%);fill-opacity:1;" d="M 817.800781 776 C 817.800781 769.601562 808.199219 769.601562 808.199219 776 C 808.199219 782.398438 817.800781 782.398438 817.800781 776 "/>
<path style=" stroke:none;fill-rule:evenodd;fill:rgb(100%,100%,100%);fill-opacity:1;" d="M 877.800781 776 C 877.800781 769.601562 868.199219 769.601562 868.199219 776 C 868.199219 782.398438 877.800781 782.398438 877.800781 776 "/>
<path style=" stroke:none;fill-rule:evenodd;fill:rgb(100%,100%,100%);fill-opacity:1;" d="M 937.800781 776 C 937.800781 769.601562 928.199219 769.601562 928.199219 776 C 928.199219 782.398438 937.800781 782.398438 937.800781 776 "/>
<path style=" stroke:none;fill-rule:evenodd;fill:rgb(100%,100%,100%);fill-opacity:1;" d="M 997.800781 776 C 997.800781 769.601562 988.199219 769.601562 988.199219 776 C 988.199219 782.398438 997.800781 782.398438 997.800781 776 "/>
<path style=" stroke:none;fill-rule:evenodd;fill:rgb(100%,100%,100%);fill-opacity:1;" d="M 1057.800781 776 C 1057.800781 769.601562 1048.199219 769.601562 1048.199219 776 C 1048.199219 782.398438 1057.800781 782.398438 1057.800781 776 "/>
<path style=" stroke:none;fill-rule:evenodd;fill:rgb(100%,100%,100%);fill-opacity:1;" d="M 1117.800781 776 C 1117.800781 769.601562 1108.199219 769.601562 1108.199219 776 C 1108.199219 782.398438 1117.800781 782.398438 1117.800781 776 "/>
<path style=" stroke:none;fill-rule:evenodd;fill:rgb(100%,100%,100%);fill-opacity:1;" d="M 1177.800781 776 C 1177.800781 769.601562 1168.199219 769.601562 1168.199219 776 C 1168.199219 782.398438 1177.800781 782.398438 1177.800781 776 "/>
<path style=" stroke:none;fill-rule:evenodd;fill:rgb(100%,100%,100%);fill-opacity:1;" d="M 1237.800781 776 C 1237.800781 769.601562 1228.199219 769.601562 1228.199219 776 C 1228.199219 782.398438 1237.800781 782.398438 1237.800781 776 "/>
<path style=" stroke:none;fill-rule:evenodd;fill:rgb(100%,100%,100%);fill-opacity:1;" d="M 1297.800781 776 C 1297.800781 769.601562 1288.199219 769.601562 1288.199219 776 C 1288.199219 782.398438 1297.800781 782.398438 1297.800781 776 "/>
<path style=" stroke:none;fill-rule:evenodd;fill:rgb(100%,100%,100%);fill-opacity:1;" d="M 1387.800781 806 C 1387.800781 799.601562 1378.199219 799.601562 1378.199219 806 C 1378.199219 812.398438 1387.800781 812.398438 1387.800781 806 "/>
<path style=" stroke:none;fill-rule:evenodd;fill:rgb(100%,100%,100%);fill-opacity:1;" d="M 1597.800781 776 C 1597.800781 769.601562 1588.199219 769.601562 1588.199219 776 C 1588.199219 782.398438 1597.800781 782.398438 1597.800781 776 "/>
<path style=" stroke:none;fill-rule:evenodd;fill:rgb(100%,100%,100%);fill-opacity:1;" d="M 1387.800781 386 C 1387.800781 379.601562 1378.199219 379.601562 1378.199219 386 C 1378.199219 392.398438 1387.800781 392.398438 1387.800781 386 "/>
<path style=" stroke:none;fill-rule:evenodd;fill:rgb(100%,100%,100%);fill-opacity:1;" d="M 1186.5 186.378906 C 1186.5 179.980469 1176.898438 179.980469 1176.898438 186.378906 C 1176.898438 192.78125 1186.5 192.78125 1186.5 186.378906 "/>
<path style=" stroke:none;fill-rule:evenodd;fill:rgb(100%,100%,100%);fill-opacity:1;" d="M 1126.5 186.378906 C 1126.5 179.980469 1116.898438 179.980469 1116.898438 186.378906 C 1116.898438 192.78125 1126.5 192.78125 1126.5 186.378906 "/>
<path style=" stroke:none;fill-rule:evenodd;fill:rgb(100%,100%,100%);fill-opacity:1;" d="M 1066.5 186.378906 C 1066.5 179.980469 1056.898438 179.980469 1056.898438 186.378906 C 1056.898438 192.78125 1066.5 192.78125 1066.5 186.378906 "/>
<path style=" stroke:none;fill-rule:evenodd;fill:rgb(100%,100%,100%);fill-opacity:1;" d="M 1006.5 186.378906 C 1006.5 179.980469 996.898438 179.980469 996.898438 186.378906 C 996.898438 192.78125 1006.5 192.78125 1006.5 186.378906 "/>
<path style=" stroke:none;fill-rule:evenodd;fill:rgb(100%,100%,100%);fill-opacity:1;" d="M 946.5 186.378906 C 946.5 179.980469 936.898438 179.980469 936.898438 186.378906 C 936.898438 192.78125 946.5 192.78125 946.5 186.378906 "/>
<path style=" stroke:none;fill-rule:evenodd;fill:rgb(100%,100%,100%);fill-opacity:1;" d="M 886.5 186.378906 C 886.5 179.980469 876.898438 179.980469 876.898438 186.378906 C 876.898438 192.78125 886.5 192.78125 886.5 186.378906 "/>
<path style=" stroke:none;fill-rule:evenodd;fill:rgb(100%,100%,100%);fill-opacity:1;" d="M 826.5 186.378906 C 826.5 179.980469 816.898438 179.980469 816.898438 186.378906 C 816.898438 192.78125 826.5 192.78125 826.5 186.378906 "/>
<path style=" stroke:none;fill-rule:evenodd;fill:rgb(100%,100%,100%);fill-opacity:1;" d="M 766.5 186.378906 C 766.5 179.980469 756.898438 179.980469 756.898438 186.378906 C 756.898438 192.78125 766.5 192.78125 766.5 186.378906 "/>
<path style=" stroke:none;fill-rule:evenodd;fill:rgb(100%,100%,100%);fill-opacity:1;" d="M 706.5 186.378906 C 706.5 179.980469 696.898438 179.980469 696.898438 186.378906 C 696.898438 192.78125 706.5 192.78125 706.5 186.378906 "/>
<path style=" stroke:none;fill-rule:evenodd;fill:rgb(100%,100%,100%);fill-opacity:1;" d="M 646.5 186.378906 C 646.5 179.980469 636.898438 179.980469 636.898438 186.378906 C 636.898438 192.78125 646.5 192.78125 646.5 186.378906 "/>
<path style=" stroke:none;fill-rule:evenodd;fill:rgb(100%,100%,100%);fill-opacity:1;" d="M 586.5 186.378906 C 586.5 179.980469 576.898438 179.980469 576.898438 186.378906 C 576.898438 192.78125 586.5 192.78125 586.5 186.378906 "/>
<path style=" stroke:none;fill-rule:evenodd;fill:rgb(100%,100%,100%);fill-opacity:1;" d="M 526.5 186.378906 C 526.5 179.980469 516.898438 179.980469 516.898438 186.378906 C 516.898438 192.78125 526.5 192.78125 526.5 186.378906 "/>
<path style=" stroke:none;fill-rule:evenodd;fill:rgb(100%,100%,100%);fill-opacity:1;" d="M 466.5 186.378906 C 466.5 179.980469 456.898438 179.980469 456.898438 186.378906 C 456.898438 192.78125 466.5 192.78125 466.5 186.378906 "/>
<path style=" stroke:none;fill-rule:evenodd;fill:rgb(100%,100%,100%);fill-opacity:1;" d="M 406.5 186.378906 C 406.5 179.980469 396.898438 179.980469 396.898438 186.378906 C 396.898438 192.78125 406.5 192.78125 406.5 186.378906 "/>
<path style=" stroke:none;fill-rule:evenodd;fill:rgb(100%,100%,100%);fill-opacity:1;" d="M 346.5 186.378906 C 346.5 179.980469 336.898438 179.980469 336.898438 186.378906 C 336.898438 192.78125 346.5 192.78125 346.5 186.378906 "/>
<path style=" stroke:none;fill-rule:evenodd;fill:rgb(100%,100%,100%);fill-opacity:1;" d="M 286.5 186.378906 C 286.5 179.980469 276.898438 179.980469 276.898438 186.378906 C 276.898438 192.78125 286.5 192.78125 286.5 186.378906 "/>
<path style=" stroke:none;fill-rule:evenodd;fill:rgb(100%,100%,100%);fill-opacity:1;" d="M 247.800781 356 C 247.800781 349.601562 238.199219 349.601562 238.199219 356 C 238.199219 362.398438 247.800781 362.398438 247.800781 356 "/>
<path style=" stroke:none;fill-rule:evenodd;fill:rgb(100%,100%,100%);fill-opacity:1;" d="M 157.800781 356 C 157.800781 349.601562 148.199219 349.601562 148.199219 356 C 148.199219 362.398438 157.800781 362.398438 157.800781 356 "/>
<path style=" stroke:none;fill-rule:evenodd;fill:rgb(100%,100%,100%);fill-opacity:1;" d="M 157.800781 416 C 157.800781 409.601562 148.199219 409.601562 148.199219 416 C 148.199219 422.398438 157.800781 422.398438 157.800781 416 "/>
<path style=" stroke:none;fill-rule:evenodd;fill:rgb(100%,100%,100%);fill-opacity:1;" d="M 157.800781 476 C 157.800781 469.601562 148.199219 469.601562 148.199219 476 C 148.199219 482.398438 157.800781 482.398438 157.800781 476 "/>
<path style=" stroke:none;fill-rule:evenodd;fill:rgb(100%,100%,100%);fill-opacity:1;" d="M 247.800781 656 C 247.800781 649.601562 238.199219 649.601562 238.199219 656 C 238.199219 662.398438 247.800781 662.398438 247.800781 656 "/>
<path style=" stroke:none;fill-rule:evenodd;fill:rgb(100%,100%,100%);fill-opacity:1;" d="M 397.800781 656 C 397.800781 649.601562 388.199219 649.601562 388.199219 656 C 388.199219 662.398438 397.800781 662.398438 397.800781 656 "/>
<path style=" stroke:none;fill-rule:evenodd;fill:rgb(100%,100%,100%);fill-opacity:1;" d="M 757.800781 566 C 757.800781 559.601562 748.199219 559.601562 748.199219 566 C 748.199219 572.398438 757.800781 572.398438 757.800781 566 "/>
<path style=" stroke:none;fill-rule:evenodd;fill:rgb(100%,100%,100%);fill-opacity:1;" d="M 757.800781 446 C 757.800781 439.601562 748.199219 439.601562 748.199219 446 C 748.199219 452.398438 757.800781 452.398438 757.800781 446 "/>
<path style=" stroke:none;fill-rule:evenodd;fill:rgb(100%,100%,100%);fill-opacity:1;" d="M 967.800781 386 C 967.800781 379.601562 958.199219 379.601562 958.199219 386 C 958.199219 392.398438 967.800781 392.398438 967.800781 386 "/>
<path style=" stroke:none;fill-rule:evenodd;fill:rgb(100%,100%,100%);fill-opacity:1;" d="M 1000.800781 1166 C 1000.800781 1159.601562 991.199219 1159.601562 991.199219 1166 C 991.199219 1172.398438 1000.800781 1172.398438 1000.800781 1166 "/>
<path style=" stroke:none;fill-rule:evenodd;fill:rgb(100%,100%,100%);fill-opacity:1;" d="M 1114.800781 1166 C 1114.800781 1159.601562 1105.199219 1159.601562 1105.199219 1166 C 1105.199219 1172.398438 1114.800781 1172.398438 1114.800781 1166 "/>
<path style=" stroke:none;fill-rule:evenodd;fill:rgb(100%,100%,100%);fill-opacity:1;" d="M 1597.800781 686 C 1597.800781 679.601562 1588.199219 679.601562 1588.199219 686 C 1588.199219 692.398438 1597.800781 692.398438 1597.800781 686 "/>
<path style=" stroke:none;fill-rule:evenodd;fill:rgb(100%,100%,100%);fill-opacity:1;" d="M 1687.800781 686 C 1687.800781 679.601562 1678.199219 679.601562 1678.199219 686 C 1678.199219 692.398438 1687.800781 692.398438 1687.800781 686 "/>
<path style=" stroke:none;fill-rule:evenodd;fill:rgb(100%,100%,100%);fill-opacity:1;" d="M 1687.800781 446 C 1687.800781 439.601562 1678.199219 439.601562 1678.199219 446 C 1678.199219 452.398438 1687.800781 452.398438 1687.800781 446 "/>
<path style=" stroke:none;fill-rule:evenodd;fill:rgb(100%,100%,100%);fill-opacity:1;" d="M 1597.800781 386 C 1597.800781 379.601562 1588.199219 379.601562 1588.199219 386 C 1588.199219 392.398438 1597.800781 392.398438 1597.800781 386 "/>
<path style=" stroke:none;fill-rule:evenodd;fill:rgb(100%,100%,100%);fill-opacity:1;" d="M 1837.800781 296 C 1837.800781 289.601562 1828.199219 289.601562 1828.199219 296 C 1828.199219 302.398438 1837.800781 302.398438 1837.800781 296 "/>
<path style=" stroke:none;fill-rule:evenodd;fill:rgb(100%,100%,100%);fill-opacity:1;" d="M 1897.800781 296 C 1897.800781 289.601562 1888.199219 289.601562 1888.199219 296 C 1888.199219 302.398438 1897.800781 302.398438 1897.800781 296 "/>
<path style=" stroke:none;fill-rule:evenodd;fill:rgb(100%,100%,100%);fill-opacity:1;" d="M 1957.800781 296 C 1957.800781 289.601562 1948.199219 289.601562 1948.199219 296 C 1948.199219 302.398438 1957.800781 302.398438 1957.800781 296 "/>
<path style=" stroke:none;fill-rule:evenodd;fill:rgb(100%,100%,100%);fill-opacity:1;" d="M 2017.800781 296 C 2017.800781 289.601562 2008.199219 289.601562 2008.199219 296 C 2008.199219 302.398438 2017.800781 302.398438 2017.800781 296 "/>
<path style=" stroke:none;fill-rule:evenodd;fill:rgb(100%,100%,100%);fill-opacity:1;" d="M 2077.800781 296 C 2077.800781 289.601562 2068.199219 289.601562 2068.199219 296 C 2068.199219 302.398438 2077.800781 302.398438 2077.800781 296 "/>
<path style=" stroke:none;fill-rule:evenodd;fill:rgb(100%,100%,100%);fill-opacity:1;" d="M 2077.800781 236 C 2077.800781 229.601562 2068.199219 229.601562 2068.199219 236 C 2068.199219 242.398438 2077.800781 242.398438 2077.800781 236 "/>
<path style=" stroke:none;fill-rule:evenodd;fill:rgb(100%,100%,100%);fill-opacity:1;" d="M 2017.800781 236 C 2017.800781 229.601562 2008.199219 229.601562 2008.199219 236 C 2008.199219 242.398438 2017.800781 242.398438 2017.800781 236 "/>
<path style=" stroke:none;fill-rule:evenodd;fill:rgb(100%,100%,100%);fill-opacity:1;" d="M 1957.800781 236 C 1957.800781 229.601562 1948.199219 229.601562 1948.199219 236 C 1948.199219 242.398438 1957.800781 242.398438 1957.800781 236 "/>
<path style=" stroke:none;fill-rule:evenodd;fill:rgb(100%,100%,100%);fill-opacity:1;" d="M 1897.800781 236 C 1897.800781 229.601562 1888.199219 229.601562 1888.199219 236 C 1888.199219 242.398438 1897.800781 242.398438 1897.800781 236 "/>
<path style=" stroke:none;fill-rule:evenodd;fill:rgb(100%,100%,100%);fill-opacity:1;" d="M 1837.800781 236 C 1837.800781 229.601562 1828.199219 229.601562 1828.199219 236 C 1828.199219 242.398438 1837.800781 242.398438 1837.800781 236 "/>
<path style=" stroke:none;fill-rule:evenodd;fill:rgb(100%,100%,100%);fill-opacity:1;" d="M 2144.398438 549.199219 C 2144.398438 542.800781 2134.800781 542.800781 2134.800781 549.199219 C 2134.800781 555.601562 2144.398438 555.601562 2144.398438 549.199219 "/>
<path style=" stroke:none;fill-rule:evenodd;fill:rgb(100%,100%,100%);fill-opacity:1;" d="M 2251.199219 549.199219 C 2251.199219 542.800781 2241.601562 542.800781 2241.601562 549.199219 C 2241.601562 555.601562 2251.199219 555.601562 2251.199219 549.199219 "/>
<path style=" stroke:none;fill-rule:evenodd;fill:rgb(100%,100%,100%);fill-opacity:1;" d="M 2251.199219 702.800781 C 2251.199219 696.398438 2241.601562 696.398438 2241.601562 702.800781 C 2241.601562 709.199219 2251.199219 709.199219 2251.199219 702.800781 "/>
<path style=" stroke:none;fill-rule:evenodd;fill:rgb(100%,100%,100%);fill-opacity:1;" d="M 2144.398438 702.800781 C 2144.398438 696.398438 2134.800781 696.398438 2134.800781 702.800781 C 2134.800781 709.199219 2144.398438 709.199219 2144.398438 702.800781 "/>
<path style=" stroke:none;fill-rule:evenodd;fill:rgb(100%,100%,100%);fill-opacity:1;" d="M 2077.800781 1346 C 2077.800781 1339.601562 2068.199219 1339.601562 2068.199219 1346 C 2068.199219 1352.398438 2077.800781 1352.398438 2077.800781 1346 "/>
<path style=" stroke:none;fill-rule:evenodd;fill:rgb(100%,100%,100%);fill-opacity:1;" d="M 2017.800781 1346 C 2017.800781 1339.601562 2008.199219 1339.601562 2008.199219 1346 C 2008.199219 1352.398438 2017.800781 1352.398438 2017.800781 1346 "/>
<path style=" stroke:none;fill-rule:evenodd;fill:rgb(100%,100%,100%);fill-opacity:1;" d="M 1687.800781 1346 C 1687.800781 1339.601562 1678.199219 1339.601562 1678.199219 1346 C 1678.199219 1352.398438 1687.800781 1352.398438 1687.800781 1346 "/>
<path style=" stroke:none;fill-rule:evenodd;fill:rgb(100%,100%,100%);fill-opacity:1;" d="M 1627.800781 1346 C 1627.800781 1339.601562 1618.199219 1339.601562 1618.199219 1346 C 1618.199219 1352.398438 1627.800781 1352.398438 1627.800781 1346 "/>
<path style=" stroke:none;fill-rule:evenodd;fill:rgb(100%,100%,100%);fill-opacity:1;" d="M 1567.800781 1346 C 1567.800781 1339.601562 1558.199219 1339.601562 1558.199219 1346 C 1558.199219 1352.398438 1567.800781 1352.398438 1567.800781 1346 "/>
<path style=" stroke:none;fill-rule:evenodd;fill:rgb(100%,100%,100%);fill-opacity:1;" d="M 1507.800781 1346 C 1507.800781 1339.601562 1498.199219 1339.601562 1498.199219 1346 C 1498.199219 1352.398438 1507.800781 1352.398438 1507.800781 1346 "/>
<path style=" stroke:none;fill-rule:evenodd;fill:rgb(100%,100%,100%);fill-opacity:1;" d="M 1447.800781 1346 C 1447.800781 1339.601562 1438.199219 1339.601562 1438.199219 1346 C 1438.199219 1352.398438 1447.800781 1352.398438 1447.800781 1346 "/>
<path style=" stroke:none;fill-rule:evenodd;fill:rgb(100%,100%,100%);fill-opacity:1;" d="M 1387.800781 1346 C 1387.800781 1339.601562 1378.199219 1339.601562 1378.199219 1346 C 1378.199219 1352.398438 1387.800781 1352.398438 1387.800781 1346 "/>
<path style=" stroke:none;fill-rule:evenodd;fill:rgb(100%,100%,100%);fill-opacity:1;" d="M 877.800781 1346 C 877.800781 1339.601562 868.199219 1339.601562 868.199219 1346 C 868.199219 1352.398438 877.800781 1352.398438 877.800781 1346 "/>
<path style=" stroke:none;fill-rule:evenodd;fill:rgb(100%,100%,100%);fill-opacity:1;" d="M 817.800781 1346 C 817.800781 1339.601562 808.199219 1339.601562 808.199219 1346 C 808.199219 1352.398438 817.800781 1352.398438 817.800781 1346 "/>
<path style=" stroke:none;fill-rule:evenodd;fill:rgb(100%,100%,100%);fill-opacity:1;" d="M 757.800781 1346 C 757.800781 1339.601562 748.199219 1339.601562 748.199219 1346 C 748.199219 1352.398438 757.800781 1352.398438 757.800781 1346 "/>
<path style=" stroke:none;fill-rule:evenodd;fill:rgb(100%,100%,100%);fill-opacity:1;" d="M 697.800781 1346 C 697.800781 1339.601562 688.199219 1339.601562 688.199219 1346 C 688.199219 1352.398438 697.800781 1352.398438 697.800781 1346 "/>
<path style=" stroke:none;fill-rule:evenodd;fill:rgb(100%,100%,100%);fill-opacity:1;" d="M 427.800781 1346 C 427.800781 1339.601562 418.199219 1339.601562 418.199219 1346 C 418.199219 1352.398438 427.800781 1352.398438 427.800781 1346 "/>
<path style=" stroke:none;fill-rule:evenodd;fill:rgb(100%,100%,100%);fill-opacity:1;" d="M 367.800781 1346 C 367.800781 1339.601562 358.199219 1339.601562 358.199219 1346 C 358.199219 1352.398438 367.800781 1352.398438 367.800781 1346 "/>
<path style=" stroke:none;fill-rule:evenodd;fill:rgb(100%,100%,100%);fill-opacity:1;" d="M 307.800781 1346 C 307.800781 1339.601562 298.199219 1339.601562 298.199219 1346 C 298.199219 1352.398438 307.800781 1352.398438 307.800781 1346 "/>
<path style=" stroke:none;fill-rule:evenodd;fill:rgb(100%,100%,100%);fill-opacity:1;" d="M 247.800781 1346 C 247.800781 1339.601562 238.199219 1339.601562 238.199219 1346 C 238.199219 1352.398438 247.800781 1352.398438 247.800781 1346 "/>
<path style=" stroke:none;fill-rule:evenodd;fill:rgb(100%,100%,100%);fill-opacity:1;" d="M 157.800781 1166 C 157.800781 1159.601562 148.199219 1159.601562 148.199219 1166 C 148.199219 1172.398438 157.800781 1172.398438 157.800781 1166 "/>
<path style=" stroke:none;fill-rule:evenodd;fill:rgb(100%,100%,100%);fill-opacity:1;" d="M 157.800781 1106 C 157.800781 1099.601562 148.199219 1099.601562 148.199219 1106 C 148.199219 1112.398438 157.800781 1112.398438 157.800781 1106 "/>
<path style=" stroke:none;fill-rule:evenodd;fill:rgb(100%,100%,100%);fill-opacity:1;" d="M 157.800781 1046 C 157.800781 1039.601562 148.199219 1039.601562 148.199219 1046 C 148.199219 1052.398438 157.800781 1052.398438 157.800781 1046 "/>
<path style=" stroke:none;fill-rule:evenodd;fill:rgb(100%,100%,100%);fill-opacity:1;" d="M 157.800781 896 C 157.800781 889.601562 148.199219 889.601562 148.199219 896 C 148.199219 902.398438 157.800781 902.398438 157.800781 896 "/>
<path style=" stroke:none;fill-rule:evenodd;fill:rgb(100%,100%,100%);fill-opacity:1;" d="M 157.800781 836 C 157.800781 829.601562 148.199219 829.601562 148.199219 836 C 148.199219 842.398438 157.800781 842.398438 157.800781 836 "/>
<path style=" stroke:none;fill-rule:evenodd;fill:rgb(100%,100%,100%);fill-opacity:1;" d="M 157.800781 776 C 157.800781 769.601562 148.199219 769.601562 148.199219 776 C 148.199219 782.398438 157.800781 782.398438 157.800781 776 "/>
<path style=" stroke:none;fill-rule:evenodd;fill:rgb(100%,100%,100%);fill-opacity:1;" d="M 157.800781 626 C 157.800781 619.601562 148.199219 619.601562 148.199219 626 C 148.199219 632.398438 157.800781 632.398438 157.800781 626 "/>
<path style=" stroke:none;fill-rule:evenodd;fill:rgb(100%,100%,100%);fill-opacity:1;" d="M 157.800781 566 C 157.800781 559.601562 148.199219 559.601562 148.199219 566 C 148.199219 572.398438 157.800781 572.398438 157.800781 566 "/>
<path style=" stroke:none;fill-rule:evenodd;fill:rgb(100%,100%,100%);fill-opacity:1;" d="M 109.320312 1485.621094 C 109.320312 1479.21875 99.71875 1479.21875 99.71875 1485.621094 C 99.71875 1492.019531 109.320312 1492.019531 109.320312 1485.621094 "/>
<path style=" stroke:none;fill-rule:evenodd;fill:rgb(100%,100%,100%);fill-opacity:1;" d="M 109.320312 186.378906 C 109.320312 179.980469 99.71875 179.980469 99.71875 186.378906 C 99.71875 192.78125 109.320312 192.78125 109.320312 186.378906 "/>
<path style=" stroke:none;fill-rule:evenodd;fill:rgb(100%,100%,100%);fill-opacity:1;" d="M 2306.21875 186.378906 C 2306.21875 179.980469 2296.621094 179.980469 2296.621094 186.378906 C 2296.621094 192.78125 2306.21875 192.78125 2306.21875 186.378906 "/>
<path style=" stroke:none;fill-rule:evenodd;fill:rgb(100%,100%,100%);fill-opacity:1;" d="M 2306.21875 1485.621094 C 2306.21875 1479.21875 2296.621094 1479.21875 2296.621094 1485.621094 C 2296.621094 1492.019531 2306.21875 1492.019531 2306.21875 1485.621094 "/>
</g>
</svg>
