<?xml version="1.0" encoding="UTF-8"?>
<svg xmlns="http://www.w3.org/2000/svg" xmlns:xlink="http://www.w3.org/1999/xlink" width="1138pt" height="1056pt" viewBox="0 0 1138 1056" version="1.1">
<g id="surface1">
<path style="fill:none;stroke-width:0.01;stroke-linecap:round;stroke-linejoin:miter;stroke:rgb(0%,0%,0%);stroke-opacity:1;stroke-miterlimit:10;" d="M 0.015 0.015 L 0.015 1.764603 " transform="matrix(600,0,0,-600,-6,1062)"/>
<path style="fill:none;stroke-width:0.01;stroke-linecap:round;stroke-linejoin:miter;stroke:rgb(0%,0%,0%);stroke-opacity:1;stroke-miterlimit:10;" d="M 0.015 1.764603 L 1.901999 1.764603 " transform="matrix(600,0,0,-600,-6,1062)"/>
<path style="fill:none;stroke-width:0.01;stroke-linecap:round;stroke-linejoin:miter;stroke:rgb(0%,0%,0%);stroke-opacity:1;stroke-miterlimit:10;" d="M 1.901999 1.764603 L 1.901999 0.015 " transform="matrix(600,0,0,-600,-6,1062)"/>
<path style="fill:none;stroke-width:0.01;stroke-linecap:round;stroke-linejoin:miter;stroke:rgb(0%,0%,0%);stroke-opacity:1;stroke-miterlimit:10;" d="M 1.901999 0.015 L 0.015 0.015 " transform="matrix(600,0,0,-600,-6,1062)"/>
<path style="fill:none;stroke-width:0.052;stroke-linecap:round;stroke-linejoin:miter;stroke:rgb(0%,0%,0%);stroke-opacity:1;stroke-miterlimit:10;" d="M 0.315 0.838997 L 0.315 0.891003 " transform="matrix(600,0,0,-600,-6,1062)"/>
<path style="fill:none;stroke-width:0.052;stroke-linecap:round;stroke-linejoin:miter;stroke:rgb(0%,0%,0%);stroke-opacity:1;stroke-miterlimit:10;" d="M 0.415 0.891003 L 0.415 0.838997 " transform="matrix(600,0,0,-600,-6,1062)"/>
<path style="fill:none;stroke-width:0.052;stroke-linecap:round;stroke-linejoin:miter;stroke:rgb(0%,0%,0%);stroke-opacity:1;stroke-miterlimit:10;" d="M 0.515 0.838997 L 0.515 0.891003 " transform="matrix(600,0,0,-600,-6,1062)"/>
<path style="fill:none;stroke-width:0.052;stroke-linecap:round;stroke-linejoin:miter;stroke:rgb(0%,0%,0%);stroke-opacity:1;stroke-miterlimit:10;" d="M 0.615 0.891003 L 0.615 0.838997 " transform="matrix(600,0,0,-600,-6,1062)"/>
<path style="fill:none;stroke-width:0.052;stroke-linecap:round;stroke-linejoin:miter;stroke:rgb(0%,0%,0%);stroke-opacity:1;stroke-miterlimit:10;" d="M 0.615 1.138997 L 0.615 1.191003 " transform="matrix(600,0,0,-600,-6,1062)"/>
<path style="fill:none;stroke-width:0.052;stroke-linecap:round;stroke-linejoin:miter;stroke:rgb(0%,0%,0%);stroke-opacity:1;stroke-miterlimit:10;" d="M 0.515 1.191003 L 0.515 1.138997 " transform="matrix(600,0,0,-600,-6,1062)"/>
<path style="fill:none;stroke-width:0.052;stroke-linecap:round;stroke-linejoin:miter;stroke:rgb(0%,0%,0%);stroke-opacity:1;stroke-miterlimit:10;" d="M 0.415 1.138997 L 0.415 1.191003 " transform="matrix(600,0,0,-600,-6,1062)"/>
<path style="fill:none;stroke-width:0.052;stroke-linecap:round;stroke-linejoin:miter;stroke:rgb(0%,0%,0%);stroke-opacity:1;stroke-miterlimit:10;" d="M 0.315 1.191003 L 0.315 1.138997 " transform="matrix(600,0,0,-600,-6,1062)"/>
<path style="fill:none;stroke-width:0.052;stroke-linecap:round;stroke-linejoin:miter;stroke:rgb(0%,0%,0%);stroke-opacity:1;stroke-miterlimit:10;" d="M 1.315 1.138997 L 1.315 1.191003 " transform="matrix(600,0,0,-600,-6,1062)"/>
<path style="fill:none;stroke-width:0.052;stroke-linecap:round;stroke-linejoin:miter;stroke:rgb(0%,0%,0%);stroke-opacity:1;stroke-miterlimit:10;" d="M 1.415 1.191003 L 1.415 1.138997 " transform="matrix(600,0,0,-600,-6,1062)"/>
<path style="fill:none;stroke-width:0.052;stroke-linecap:round;stroke-linejoin:miter;stroke:rgb(0%,0%,0%);stroke-opacity:1;stroke-miterlimit:10;" d="M 1.515 1.138997 L 1.515 1.191003 " transform="matrix(600,0,0,-600,-6,1062)"/>
<path style="fill:none;stroke-width:0.052;stroke-linecap:round;stroke-linejoin:miter;stroke:rgb(0%,0%,0%);stroke-opacity:1;stroke-miterlimit:10;" d="M 1.615 1.191003 L 1.615 1.138997 " transform="matrix(600,0,0,-600,-6,1062)"/>
<path style="fill:none;stroke-width:0.052;stroke-linecap:round;stroke-linejoin:miter;stroke:rgb(0%,0%,0%);stroke-opacity:1;stroke-miterlimit:10;" d="M 1.615 0.891003 L 1.615 0.838997 " transform="matrix(600,0,0,-600,-6,1062)"/>
<path style="fill:none;stroke-width:0.052;stroke-linecap:round;stroke-linejoin:miter;stroke:rgb(0%,0%,0%);stroke-opacity:1;stroke-miterlimit:10;" d="M 1.515 0.838997 L 1.515 0.891003 " transform="matrix(600,0,0,-600,-6,1062)"/>
<path style="fill:none;stroke-width:0.052;stroke-linecap:round;stroke-linejoin:miter;stroke:rgb(0%,0%,0%);stroke-opacity:1;stroke-miterlimit:10;" d="M 1.415 0.891003 L 1.415 0.838997 " transform="matrix(600,0,0,-600,-6,1062)"/>
<path style="fill:none;stroke-width:0.052;stroke-linecap:round;stroke-linejoin:miter;stroke:rgb(0%,0%,0%);stroke-opacity:1;stroke-miterlimit:10;" d="M 1.315 0.838997 L 1.315 0.891003 " transform="matrix(600,0,0,-600,-6,1062)"/>
<path style="fill:none;stroke-width:0.06;stroke-linecap:round;stroke-linejoin:miter;stroke:rgb(0%,0%,0%);stroke-opacity:1;stroke-miterlimit:10;" d="M 1.115 1.385 L 1.115 1.445 " transform="matrix(600,0,0,-600,-6,1062)"/>
<path style="fill:none;stroke-width:0.06;stroke-linecap:round;stroke-linejoin:miter;stroke:rgb(0%,0%,0%);stroke-opacity:1;stroke-miterlimit:10;" d="M 1.015 1.445 L 1.015 1.385 " transform="matrix(600,0,0,-600,-6,1062)"/>
<path style="fill:none;stroke-width:0.06;stroke-linecap:round;stroke-linejoin:miter;stroke:rgb(0%,0%,0%);stroke-opacity:1;stroke-miterlimit:10;" d="M 0.915 1.385 L 0.915 1.445 " transform="matrix(600,0,0,-600,-6,1062)"/>
<path style="fill:none;stroke-width:0.06;stroke-linecap:round;stroke-linejoin:miter;stroke:rgb(0%,0%,0%);stroke-opacity:1;stroke-miterlimit:10;" d="M 0.915 0.395 L 0.915 0.335 " transform="matrix(600,0,0,-600,-6,1062)"/>
<path style="fill:none;stroke-width:0.06;stroke-linecap:round;stroke-linejoin:miter;stroke:rgb(0%,0%,0%);stroke-opacity:1;stroke-miterlimit:10;" d="M 0.815 0.335 L 0.815 0.395 " transform="matrix(600,0,0,-600,-6,1062)"/>
<path style="fill:none;stroke-width:0.06;stroke-linecap:round;stroke-linejoin:miter;stroke:rgb(0%,0%,0%);stroke-opacity:1;stroke-miterlimit:10;" d="M 0.715 0.395 L 0.715 0.335 " transform="matrix(600,0,0,-600,-6,1062)"/>
<path style="fill:none;stroke-width:0.06;stroke-linecap:round;stroke-linejoin:miter;stroke:rgb(0%,0%,0%);stroke-opacity:1;stroke-miterlimit:10;" d="M 0.615 0.335 L 0.615 0.395 " transform="matrix(600,0,0,-600,-6,1062)"/>
<path style="fill:none;stroke-width:0.06;stroke-linecap:round;stroke-linejoin:miter;stroke:rgb(0%,0%,0%);stroke-opacity:1;stroke-miterlimit:10;" d="M 1.015 0.395 L 1.015 0.335 " transform="matrix(600,0,0,-600,-6,1062)"/>
<path style="fill:none;stroke-width:0.06;stroke-linecap:round;stroke-linejoin:miter;stroke:rgb(0%,0%,0%);stroke-opacity:1;stroke-miterlimit:10;" d="M 1.115 0.335 L 1.115 0.395 " transform="matrix(600,0,0,-600,-6,1062)"/>
<path style=" stroke:none;fill-rule:evenodd;fill:rgb(0%,0%,0%);fill-opacity:1;" d="M 798.601562 626.539062 L 789.460938 617.398438 L 776.539062 617.398438 L 767.398438 626.539062 L 767.398438 639.460938 L 776.539062 648.601562 L 789.460938 648.601562 L 798.601562 639.460938 L 798.601562 626.539062 "/>
<path style=" stroke:none;fill-rule:evenodd;fill:rgb(0%,0%,0%);fill-opacity:1;" d="M 858.601562 626.539062 L 849.460938 617.398438 L 836.539062 617.398438 L 827.398438 626.539062 L 827.398438 639.460938 L 836.539062 648.601562 L 849.460938 648.601562 L 858.601562 639.460938 L 858.601562 626.539062 "/>
<path style=" stroke:none;fill-rule:evenodd;fill:rgb(0%,0%,0%);fill-opacity:1;" d="M 708.601562 536.539062 L 699.460938 527.398438 L 686.539062 527.398438 L 677.398438 536.539062 L 677.398438 549.460938 L 686.539062 558.601562 L 699.460938 558.601562 L 708.601562 549.460938 L 708.601562 536.539062 "/>
<path style=" stroke:none;fill-rule:evenodd;fill:rgb(0%,0%,0%);fill-opacity:1;" d="M 708.601562 356.539062 L 699.460938 347.398438 L 686.539062 347.398438 L 677.398438 356.539062 L 677.398438 369.460938 L 686.539062 378.601562 L 699.460938 378.601562 L 708.601562 369.460938 L 708.601562 356.539062 "/>
<path style=" stroke:none;fill-rule:evenodd;fill:rgb(0%,0%,0%);fill-opacity:1;" d="M 798.601562 266.539062 L 789.460938 257.398438 L 776.539062 257.398438 L 767.398438 266.539062 L 767.398438 279.460938 L 776.539062 288.601562 L 789.460938 288.601562 L 798.601562 279.460938 L 798.601562 266.539062 "/>
<path style=" stroke:none;fill-rule:evenodd;fill:rgb(0%,0%,0%);fill-opacity:1;" d="M 798.601562 206.539062 L 789.460938 197.398438 L 776.539062 197.398438 L 767.398438 206.539062 L 767.398438 219.460938 L 776.539062 228.601562 L 789.460938 228.601562 L 798.601562 219.460938 L 798.601562 206.539062 "/>
<path style=" stroke:none;fill-rule:evenodd;fill:rgb(0%,0%,0%);fill-opacity:1;" d="M 918.601562 206.539062 L 909.460938 197.398438 L 896.539062 197.398438 L 887.398438 206.539062 L 887.398438 219.460938 L 896.539062 228.601562 L 909.460938 228.601562 L 918.601562 219.460938 L 918.601562 206.539062 "/>
<path style=" stroke:none;fill-rule:evenodd;fill:rgb(0%,0%,0%);fill-opacity:1;" d="M 918.601562 266.539062 L 909.460938 257.398438 L 896.539062 257.398438 L 887.398438 266.539062 L 887.398438 279.460938 L 896.539062 288.601562 L 909.460938 288.601562 L 918.601562 279.460938 L 918.601562 266.539062 "/>
<path style=" stroke:none;fill-rule:evenodd;fill:rgb(0%,0%,0%);fill-opacity:1;" d="M 1008.601562 266.539062 L 999.460938 257.398438 L 986.539062 257.398438 L 977.398438 266.539062 L 977.398438 279.460938 L 986.539062 288.601562 L 999.460938 288.601562 L 1008.601562 279.460938 L 1008.601562 266.539062 "/>
<path style=" stroke:none;fill-rule:evenodd;fill:rgb(0%,0%,0%);fill-opacity:1;" d="M 1008.601562 206.539062 L 999.460938 197.398438 L 986.539062 197.398438 L 977.398438 206.539062 L 977.398438 219.460938 L 986.539062 228.601562 L 999.460938 228.601562 L 1008.601562 219.460938 L 1008.601562 206.539062 "/>
<path style=" stroke:none;fill-rule:evenodd;fill:rgb(0%,0%,0%);fill-opacity:1;" d="M 408.601562 206.539062 L 399.460938 197.398438 L 386.539062 197.398438 L 377.398438 206.539062 L 377.398438 219.460938 L 386.539062 228.601562 L 399.460938 228.601562 L 408.601562 219.460938 L 408.601562 206.539062 "/>
<path style=" stroke:none;fill-rule:evenodd;fill:rgb(0%,0%,0%);fill-opacity:1;" d="M 408.601562 266.539062 L 399.460938 257.398438 L 386.539062 257.398438 L 377.398438 266.539062 L 377.398438 279.460938 L 386.539062 288.601562 L 399.460938 288.601562 L 408.601562 279.460938 L 408.601562 266.539062 "/>
<path style=" stroke:none;fill-rule:evenodd;fill:rgb(0%,0%,0%);fill-opacity:1;" d="M 318.601562 266.539062 L 309.460938 257.398438 L 296.539062 257.398438 L 287.398438 266.539062 L 287.398438 279.460938 L 296.539062 288.601562 L 309.460938 288.601562 L 318.601562 279.460938 L 318.601562 266.539062 "/>
<path style=" stroke:none;fill-rule:evenodd;fill:rgb(0%,0%,0%);fill-opacity:1;" d="M 318.601562 206.539062 L 309.460938 197.398438 L 296.539062 197.398438 L 287.398438 206.539062 L 287.398438 219.460938 L 296.539062 228.601562 L 309.460938 228.601562 L 318.601562 219.460938 L 318.601562 206.539062 "/>
<path style=" stroke:none;fill-rule:evenodd;fill:rgb(0%,0%,0%);fill-opacity:1;" d="M 198.601562 206.539062 L 189.460938 197.398438 L 176.539062 197.398438 L 167.398438 206.539062 L 167.398438 219.460938 L 176.539062 228.601562 L 189.460938 228.601562 L 198.601562 219.460938 L 198.601562 206.539062 "/>
<path style=" stroke:none;fill-rule:evenodd;fill:rgb(0%,0%,0%);fill-opacity:1;" d="M 198.601562 266.539062 L 189.460938 257.398438 L 176.539062 257.398438 L 167.398438 266.539062 L 167.398438 279.460938 L 176.539062 288.601562 L 189.460938 288.601562 L 198.601562 279.460938 L 198.601562 266.539062 "/>
<path style=" stroke:none;fill-rule:evenodd;fill:rgb(0%,0%,0%);fill-opacity:1;" d="M 108.601562 356.539062 L 99.460938 347.398438 L 86.539062 347.398438 L 77.398438 356.539062 L 77.398438 369.460938 L 86.539062 378.601562 L 99.460938 378.601562 L 108.601562 369.460938 L 108.601562 356.539062 "/>
<path style=" stroke:none;fill-rule:evenodd;fill:rgb(0%,0%,0%);fill-opacity:1;" d="M 108.601562 536.539062 L 99.460938 527.398438 L 86.539062 527.398438 L 77.398438 536.539062 L 77.398438 549.460938 L 86.539062 558.601562 L 99.460938 558.601562 L 108.601562 549.460938 L 108.601562 536.539062 "/>
<path style=" stroke:none;fill-rule:evenodd;fill:rgb(0%,0%,0%);fill-opacity:1;" d="M 198.601562 626.539062 L 189.460938 617.398438 L 176.539062 617.398438 L 167.398438 626.539062 L 167.398438 639.460938 L 176.539062 648.601562 L 189.460938 648.601562 L 198.601562 639.460938 L 198.601562 626.539062 "/>
<path style=" stroke:none;fill-rule:evenodd;fill:rgb(0%,0%,0%);fill-opacity:1;" d="M 258.601562 626.539062 L 249.460938 617.398438 L 236.539062 617.398438 L 227.398438 626.539062 L 227.398438 639.460938 L 236.539062 648.601562 L 249.460938 648.601562 L 258.601562 639.460938 L 258.601562 626.539062 "/>
<path style=" stroke:none;fill-rule:evenodd;fill:rgb(0%,0%,0%);fill-opacity:1;" d="M 156 963 C 156 928.207031 127.792969 900 93 900 C 58.207031 900 30 928.207031 30 963 C 30 997.792969 58.207031 1026 93 1026 C 127.792969 1026 156 997.792969 156 963 "/>
<path style=" stroke:none;fill-rule:evenodd;fill:rgb(0%,0%,0%);fill-opacity:1;" d="M 156 93 C 156 58.207031 127.792969 30 93 30 C 58.207031 30 30 58.207031 30 93 C 30 127.792969 58.207031 156 93 156 C 127.792969 156 156 127.792969 156 93 "/>
<path style=" stroke:none;fill-rule:evenodd;fill:rgb(0%,0%,0%);fill-opacity:1;" d="M 1116 93 C 1116 58.207031 1087.792969 30 1053 30 C 1018.207031 30 990 58.207031 990 93 C 990 127.792969 1018.207031 156 1053 156 C 1087.792969 156 1116 127.792969 1116 93 "/>
<path style=" stroke:none;fill-rule:evenodd;fill:rgb(0%,0%,0%);fill-opacity:1;" d="M 1116 963 C 1116 928.207031 1087.792969 900 1053 900 C 1018.207031 900 990 928.207031 990 963 C 990 997.792969 1018.207031 1026 1053 1026 C 1087.792969 1026 1116 997.792969 1116 963 "/>
<path style="fill:none;stroke-width:0.04;stroke-linecap:round;stroke-linejoin:miter;stroke:rgb(0%,0%,0%);stroke-opacity:1;stroke-miterlimit:10;" d="M 1.615 0.415 L 1.265 0.115 " transform="matrix(600,0,0,-600,-6,1062)"/>
<path style="fill:none;stroke-width:0.04;stroke-linecap:round;stroke-linejoin:miter;stroke:rgb(0%,0%,0%);stroke-opacity:1;stroke-miterlimit:10;" d="M 1.265 0.115 L 0.715 0.115 " transform="matrix(600,0,0,-600,-6,1062)"/>
<path style="fill:none;stroke-width:0.04;stroke-linecap:round;stroke-linejoin:miter;stroke:rgb(0%,0%,0%);stroke-opacity:1;stroke-miterlimit:10;" d="M 0.715 0.115 L 0.715 0.365 " transform="matrix(600,0,0,-600,-6,1062)"/>
<path style="fill:none;stroke-width:0.04;stroke-linecap:round;stroke-linejoin:miter;stroke:rgb(0%,0%,0%);stroke-opacity:1;stroke-miterlimit:10;" d="M 0.715 0.365 L 0.715 0.615 " transform="matrix(600,0,0,-600,-6,1062)"/>
<path style="fill:none;stroke-width:0.04;stroke-linecap:round;stroke-linejoin:miter;stroke:rgb(0%,0%,0%);stroke-opacity:1;stroke-miterlimit:10;" d="M 0.815 0.615 L 0.815 0.365 " transform="matrix(600,0,0,-600,-6,1062)"/>
<path style="fill:none;stroke-width:0.04;stroke-linecap:round;stroke-linejoin:miter;stroke:rgb(0%,0%,0%);stroke-opacity:1;stroke-miterlimit:10;" d="M 0.915 0.365 L 0.915 0.715 " transform="matrix(600,0,0,-600,-6,1062)"/>
<path style="fill:none;stroke-width:0.04;stroke-linecap:round;stroke-linejoin:miter;stroke:rgb(0%,0%,0%);stroke-opacity:1;stroke-miterlimit:10;" d="M 0.915 0.715 L 0.515 0.715 " transform="matrix(600,0,0,-600,-6,1062)"/>
<path style="fill:none;stroke-width:0.04;stroke-linecap:round;stroke-linejoin:miter;stroke:rgb(0%,0%,0%);stroke-opacity:1;stroke-miterlimit:10;" d="M 0.515 0.715 L 0.515 0.865 " transform="matrix(600,0,0,-600,-6,1062)"/>
<path style="fill:none;stroke-width:0.04;stroke-linecap:round;stroke-linejoin:miter;stroke:rgb(0%,0%,0%);stroke-opacity:1;stroke-miterlimit:10;" d="M 0.415 0.865 L 0.415 0.965 " transform="matrix(600,0,0,-600,-6,1062)"/>
<path style="fill:none;stroke-width:0.04;stroke-linecap:round;stroke-linejoin:miter;stroke:rgb(0%,0%,0%);stroke-opacity:1;stroke-miterlimit:10;" d="M 0.415 0.965 L 0.965 0.965 " transform="matrix(600,0,0,-600,-6,1062)"/>
<path style="fill:none;stroke-width:0.04;stroke-linecap:round;stroke-linejoin:miter;stroke:rgb(0%,0%,0%);stroke-opacity:1;stroke-miterlimit:10;" d="M 0.965 0.965 L 0.965 1.265 " transform="matrix(600,0,0,-600,-6,1062)"/>
<path style="fill:none;stroke-width:0.04;stroke-linecap:round;stroke-linejoin:miter;stroke:rgb(0%,0%,0%);stroke-opacity:1;stroke-miterlimit:10;" d="M 0.965 1.265 L 1.015 1.265 " transform="matrix(600,0,0,-600,-6,1062)"/>
<path style="fill:none;stroke-width:0.04;stroke-linecap:round;stroke-linejoin:miter;stroke:rgb(0%,0%,0%);stroke-opacity:1;stroke-miterlimit:10;" d="M 1.015 1.265 L 1.215 1.265 " transform="matrix(600,0,0,-600,-6,1062)"/>
<path style="fill:none;stroke-width:0.04;stroke-linecap:round;stroke-linejoin:miter;stroke:rgb(0%,0%,0%);stroke-opacity:1;stroke-miterlimit:10;" d="M 1.215 1.265 L 1.215 1.415 " transform="matrix(600,0,0,-600,-6,1062)"/>
<path style="fill:none;stroke-width:0.04;stroke-linecap:round;stroke-linejoin:miter;stroke:rgb(0%,0%,0%);stroke-opacity:1;stroke-miterlimit:10;" d="M 1.215 1.415 L 1.315 1.415 " transform="matrix(600,0,0,-600,-6,1062)"/>
<path style="fill:none;stroke-width:0.04;stroke-linecap:round;stroke-linejoin:miter;stroke:rgb(0%,0%,0%);stroke-opacity:1;stroke-miterlimit:10;" d="M 1.315 1.415 L 1.515 1.415 " transform="matrix(600,0,0,-600,-6,1062)"/>
<path style="fill:none;stroke-width:0.04;stroke-linecap:round;stroke-linejoin:miter;stroke:rgb(0%,0%,0%);stroke-opacity:1;stroke-miterlimit:10;" d="M 1.515 1.315 L 1.515 1.165 " transform="matrix(600,0,0,-600,-6,1062)"/>
<path style="fill:none;stroke-width:0.04;stroke-linecap:round;stroke-linejoin:miter;stroke:rgb(0%,0%,0%);stroke-opacity:1;stroke-miterlimit:10;" d="M 1.615 1.165 L 1.665 1.215 " transform="matrix(600,0,0,-600,-6,1062)"/>
<path style="fill:none;stroke-width:0.04;stroke-linecap:round;stroke-linejoin:miter;stroke:rgb(0%,0%,0%);stroke-opacity:1;stroke-miterlimit:10;" d="M 1.665 1.215 L 1.665 1.315 " transform="matrix(600,0,0,-600,-6,1062)"/>
<path style="fill:none;stroke-width:0.04;stroke-linecap:round;stroke-linejoin:miter;stroke:rgb(0%,0%,0%);stroke-opacity:1;stroke-miterlimit:10;" d="M 1.665 1.415 L 1.515 1.565 " transform="matrix(600,0,0,-600,-6,1062)"/>
<path style="fill:none;stroke-width:0.04;stroke-linecap:round;stroke-linejoin:miter;stroke:rgb(0%,0%,0%);stroke-opacity:1;stroke-miterlimit:10;" d="M 1.515 1.565 L 1.115 1.565 " transform="matrix(600,0,0,-600,-6,1062)"/>
<path style="fill:none;stroke-width:0.04;stroke-linecap:round;stroke-linejoin:miter;stroke:rgb(0%,0%,0%);stroke-opacity:1;stroke-miterlimit:10;" d="M 1.115 1.565 L 1.115 1.415 " transform="matrix(600,0,0,-600,-6,1062)"/>
<path style="fill:none;stroke-width:0.04;stroke-linecap:round;stroke-linejoin:miter;stroke:rgb(0%,0%,0%);stroke-opacity:1;stroke-miterlimit:10;" d="M 1.015 1.415 L 1.015 1.565 " transform="matrix(600,0,0,-600,-6,1062)"/>
<path style="fill:none;stroke-width:0.04;stroke-linecap:round;stroke-linejoin:miter;stroke:rgb(0%,0%,0%);stroke-opacity:1;stroke-miterlimit:10;" d="M 1.015 1.565 L 0.515 1.565 " transform="matrix(600,0,0,-600,-6,1062)"/>
<path style="fill:none;stroke-width:0.04;stroke-linecap:round;stroke-linejoin:miter;stroke:rgb(0%,0%,0%);stroke-opacity:1;stroke-miterlimit:10;" d="M 0.515 1.565 L 0.515 1.415 " transform="matrix(600,0,0,-600,-6,1062)"/>
<path style="fill:none;stroke-width:0.04;stroke-linecap:round;stroke-linejoin:miter;stroke:rgb(0%,0%,0%);stroke-opacity:1;stroke-miterlimit:10;" d="M 0.515 1.415 L 0.315 1.415 " transform="matrix(600,0,0,-600,-6,1062)"/>
<path style="fill:none;stroke-width:0.04;stroke-linecap:round;stroke-linejoin:miter;stroke:rgb(0%,0%,0%);stroke-opacity:1;stroke-miterlimit:10;" d="M 0.315 1.315 L 0.315 1.165 " transform="matrix(600,0,0,-600,-6,1062)"/>
<path style="fill:none;stroke-width:0.04;stroke-linecap:round;stroke-linejoin:miter;stroke:rgb(0%,0%,0%);stroke-opacity:1;stroke-miterlimit:10;" d="M 0.315 1.165 L 0.165 1.165 " transform="matrix(600,0,0,-600,-6,1062)"/>
<path style="fill:none;stroke-width:0.04;stroke-linecap:round;stroke-linejoin:miter;stroke:rgb(0%,0%,0%);stroke-opacity:1;stroke-miterlimit:10;" d="M 0.415 1.165 L 0.415 1.065 " transform="matrix(600,0,0,-600,-6,1062)"/>
<path style="fill:none;stroke-width:0.04;stroke-linecap:round;stroke-linejoin:miter;stroke:rgb(0%,0%,0%);stroke-opacity:1;stroke-miterlimit:10;" d="M 0.415 1.065 L 0.815 1.065 " transform="matrix(600,0,0,-600,-6,1062)"/>
<path style="fill:none;stroke-width:0.04;stroke-linecap:round;stroke-linejoin:miter;stroke:rgb(0%,0%,0%);stroke-opacity:1;stroke-miterlimit:10;" d="M 0.815 1.065 L 0.815 1.165 " transform="matrix(600,0,0,-600,-6,1062)"/>
<path style="fill:none;stroke-width:0.04;stroke-linecap:round;stroke-linejoin:miter;stroke:rgb(0%,0%,0%);stroke-opacity:1;stroke-miterlimit:10;" d="M 0.665 1.165 L 0.665 1.315 " transform="matrix(600,0,0,-600,-6,1062)"/>
<path style="fill:none;stroke-width:0.04;stroke-linecap:round;stroke-linejoin:miter;stroke:rgb(0%,0%,0%);stroke-opacity:1;stroke-miterlimit:10;" d="M 0.665 1.415 L 0.915 1.415 " transform="matrix(600,0,0,-600,-6,1062)"/>
<path style="fill:none;stroke-width:0.04;stroke-linecap:round;stroke-linejoin:miter;stroke:rgb(0%,0%,0%);stroke-opacity:1;stroke-miterlimit:10;" d="M 1.015 1.415 L 1.015 1.265 " transform="matrix(600,0,0,-600,-6,1062)"/>
<path style="fill:none;stroke-width:0.04;stroke-linecap:round;stroke-linejoin:miter;stroke:rgb(0%,0%,0%);stroke-opacity:1;stroke-miterlimit:10;" d="M 1.065 1.165 L 1.065 1.065 " transform="matrix(600,0,0,-600,-6,1062)"/>
<path style="fill:none;stroke-width:0.04;stroke-linecap:round;stroke-linejoin:miter;stroke:rgb(0%,0%,0%);stroke-opacity:1;stroke-miterlimit:10;" d="M 1.065 1.065 L 1.415 1.065 " transform="matrix(600,0,0,-600,-6,1062)"/>
<path style="fill:none;stroke-width:0.04;stroke-linecap:round;stroke-linejoin:miter;stroke:rgb(0%,0%,0%);stroke-opacity:1;stroke-miterlimit:10;" d="M 1.415 1.065 L 1.415 1.165 " transform="matrix(600,0,0,-600,-6,1062)"/>
<path style="fill:none;stroke-width:0.04;stroke-linecap:round;stroke-linejoin:miter;stroke:rgb(0%,0%,0%);stroke-opacity:1;stroke-miterlimit:10;" d="M 1.315 1.165 L 1.165 1.165 " transform="matrix(600,0,0,-600,-6,1062)"/>
<path style="fill:none;stroke-width:0.04;stroke-linecap:round;stroke-linejoin:miter;stroke:rgb(0%,0%,0%);stroke-opacity:1;stroke-miterlimit:10;" d="M 1.315 1.165 L 1.315 1.315 " transform="matrix(600,0,0,-600,-6,1062)"/>
<path style="fill:none;stroke-width:0.04;stroke-linecap:round;stroke-linejoin:miter;stroke:rgb(0%,0%,0%);stroke-opacity:1;stroke-miterlimit:10;" d="M 1.415 0.965 L 0.965 0.965 " transform="matrix(600,0,0,-600,-6,1062)"/>
<path style="fill:none;stroke-width:0.04;stroke-linecap:round;stroke-linejoin:miter;stroke:rgb(0%,0%,0%);stroke-opacity:1;stroke-miterlimit:10;" d="M 1.165 0.865 L 1.165 0.665 " transform="matrix(600,0,0,-600,-6,1062)"/>
<path style="fill:none;stroke-width:0.04;stroke-linecap:round;stroke-linejoin:miter;stroke:rgb(0%,0%,0%);stroke-opacity:1;stroke-miterlimit:10;" d="M 1.165 0.665 L 1.015 0.515 " transform="matrix(600,0,0,-600,-6,1062)"/>
<path style="fill:none;stroke-width:0.04;stroke-linecap:round;stroke-linejoin:miter;stroke:rgb(0%,0%,0%);stroke-opacity:1;stroke-miterlimit:10;" d="M 1.115 0.465 L 1.115 0.365 " transform="matrix(600,0,0,-600,-6,1062)"/>
<path style="fill:none;stroke-width:0.04;stroke-linecap:round;stroke-linejoin:miter;stroke:rgb(0%,0%,0%);stroke-opacity:1;stroke-miterlimit:10;" d="M 1.115 0.465 L 1.165 0.515 " transform="matrix(600,0,0,-600,-6,1062)"/>
<path style="fill:none;stroke-width:0.04;stroke-linecap:round;stroke-linejoin:miter;stroke:rgb(0%,0%,0%);stroke-opacity:1;stroke-miterlimit:10;" d="M 1.165 0.515 L 1.365 0.515 " transform="matrix(600,0,0,-600,-6,1062)"/>
<path style="fill:none;stroke-width:0.04;stroke-linecap:round;stroke-linejoin:miter;stroke:rgb(0%,0%,0%);stroke-opacity:1;stroke-miterlimit:10;" d="M 1.365 0.515 L 1.415 0.565 " transform="matrix(600,0,0,-600,-6,1062)"/>
<path style="fill:none;stroke-width:0.04;stroke-linecap:round;stroke-linejoin:miter;stroke:rgb(0%,0%,0%);stroke-opacity:1;stroke-miterlimit:10;" d="M 1.415 0.565 L 1.415 0.715 " transform="matrix(600,0,0,-600,-6,1062)"/>
<path style="fill:none;stroke-width:0.04;stroke-linecap:round;stroke-linejoin:miter;stroke:rgb(0%,0%,0%);stroke-opacity:1;stroke-miterlimit:10;" d="M 1.415 0.715 L 1.415 0.865 " transform="matrix(600,0,0,-600,-6,1062)"/>
<path style="fill:none;stroke-width:0.04;stroke-linecap:round;stroke-linejoin:miter;stroke:rgb(0%,0%,0%);stroke-opacity:1;stroke-miterlimit:10;" d="M 1.415 0.865 L 1.415 0.965 " transform="matrix(600,0,0,-600,-6,1062)"/>
<path style="fill:none;stroke-width:0.04;stroke-linecap:round;stroke-linejoin:miter;stroke:rgb(0%,0%,0%);stroke-opacity:1;stroke-miterlimit:10;" d="M 1.315 0.865 L 1.165 0.865 " transform="matrix(600,0,0,-600,-6,1062)"/>
<path style="fill:none;stroke-width:0.04;stroke-linecap:round;stroke-linejoin:miter;stroke:rgb(0%,0%,0%);stroke-opacity:1;stroke-miterlimit:10;" d="M 1.315 0.865 L 1.315 0.715 " transform="matrix(600,0,0,-600,-6,1062)"/>
<path style="fill:none;stroke-width:0.04;stroke-linecap:round;stroke-linejoin:miter;stroke:rgb(0%,0%,0%);stroke-opacity:1;stroke-miterlimit:10;" d="M 1.515 0.865 L 1.515 0.465 " transform="matrix(600,0,0,-600,-6,1062)"/>
<path style="fill:none;stroke-width:0.04;stroke-linecap:round;stroke-linejoin:miter;stroke:rgb(0%,0%,0%);stroke-opacity:1;stroke-miterlimit:10;" d="M 1.515 0.465 L 1.215 0.215 " transform="matrix(600,0,0,-600,-6,1062)"/>
<path style="fill:none;stroke-width:0.04;stroke-linecap:round;stroke-linejoin:miter;stroke:rgb(0%,0%,0%);stroke-opacity:1;stroke-miterlimit:10;" d="M 1.215 0.215 L 1.015 0.215 " transform="matrix(600,0,0,-600,-6,1062)"/>
<path style="fill:none;stroke-width:0.04;stroke-linecap:round;stroke-linejoin:miter;stroke:rgb(0%,0%,0%);stroke-opacity:1;stroke-miterlimit:10;" d="M 1.015 0.215 L 1.015 0.365 " transform="matrix(600,0,0,-600,-6,1062)"/>
<path style="fill:none;stroke-width:0.04;stroke-linecap:round;stroke-linejoin:miter;stroke:rgb(0%,0%,0%);stroke-opacity:1;stroke-miterlimit:10;" d="M 0.615 0.365 L 0.615 0.515 " transform="matrix(600,0,0,-600,-6,1062)"/>
<path style="fill:none;stroke-width:0.04;stroke-linecap:round;stroke-linejoin:miter;stroke:rgb(0%,0%,0%);stroke-opacity:1;stroke-miterlimit:10;" d="M 0.615 0.515 L 0.315 0.515 " transform="matrix(600,0,0,-600,-6,1062)"/>
<path style="fill:none;stroke-width:0.04;stroke-linecap:round;stroke-linejoin:miter;stroke:rgb(0%,0%,0%);stroke-opacity:1;stroke-miterlimit:10;" d="M 0.315 0.515 L 0.315 0.715 " transform="matrix(600,0,0,-600,-6,1062)"/>
<path style="fill:none;stroke-width:0.04;stroke-linecap:round;stroke-linejoin:miter;stroke:rgb(0%,0%,0%);stroke-opacity:1;stroke-miterlimit:10;" d="M 0.315 0.715 L 0.315 0.865 " transform="matrix(600,0,0,-600,-6,1062)"/>
<path style="fill:none;stroke-width:0.04;stroke-linecap:round;stroke-linejoin:miter;stroke:rgb(0%,0%,0%);stroke-opacity:1;stroke-miterlimit:10;" d="M 0.315 0.865 L 0.165 0.865 " transform="matrix(600,0,0,-600,-6,1062)"/>
<path style="fill:none;stroke-width:0.04;stroke-linecap:round;stroke-linejoin:miter;stroke:rgb(0%,0%,0%);stroke-opacity:1;stroke-miterlimit:10;" d="M 0.415 0.865 L 0.415 0.715 " transform="matrix(600,0,0,-600,-6,1062)"/>
<path style="fill:none;stroke-width:0.04;stroke-linecap:round;stroke-linejoin:miter;stroke:rgb(0%,0%,0%);stroke-opacity:1;stroke-miterlimit:10;" d="M 0.615 0.865 L 0.715 0.865 " transform="matrix(600,0,0,-600,-6,1062)"/>
<path style="fill:none;stroke-width:0.04;stroke-linecap:round;stroke-linejoin:miter;stroke:rgb(0%,0%,0%);stroke-opacity:1;stroke-miterlimit:10;" d="M 0.715 0.865 L 0.715 0.815 " transform="matrix(600,0,0,-600,-6,1062)"/>
<path style="fill:none;stroke-width:0.04;stroke-linecap:round;stroke-linejoin:miter;stroke:rgb(0%,0%,0%);stroke-opacity:1;stroke-miterlimit:10;" d="M 0.665 1.165 L 0.615 1.165 " transform="matrix(600,0,0,-600,-6,1062)"/>
<path style="fill:none;stroke-width:0.04;stroke-linecap:round;stroke-linejoin:miter;stroke:rgb(0%,0%,0%);stroke-opacity:1;stroke-miterlimit:10;" d="M 0.515 1.165 L 0.515 1.315 " transform="matrix(600,0,0,-600,-6,1062)"/>
<path style="fill:none;stroke-width:0.04;stroke-linecap:round;stroke-linejoin:miter;stroke:rgb(0%,0%,0%);stroke-opacity:1;stroke-miterlimit:10;" d="M 1.615 0.865 L 1.615 0.415 " transform="matrix(600,0,0,-600,-6,1062)"/>
<path style=" stroke:none;fill-rule:evenodd;fill:rgb(0%,0%,0%);fill-opacity:1;" d="M 622.800781 753 C 622.800781 726.601562 583.199219 726.601562 583.199219 753 C 583.199219 779.398438 622.800781 779.398438 622.800781 753 "/>
<path style=" stroke:none;fill-rule:evenodd;fill:rgb(0%,0%,0%);fill-opacity:1;" d="M 502.800781 693 C 502.800781 666.601562 463.199219 666.601562 463.199219 693 C 463.199219 719.398438 502.800781 719.398438 502.800781 693 "/>
<path style=" stroke:none;fill-rule:evenodd;fill:rgb(0%,0%,0%);fill-opacity:1;" d="M 442.800781 693 C 442.800781 666.601562 403.199219 666.601562 403.199219 693 C 403.199219 719.398438 442.800781 719.398438 442.800781 693 "/>
<path style=" stroke:none;fill-rule:evenodd;fill:rgb(0%,0%,0%);fill-opacity:1;" d="M 382.800781 753 C 382.800781 726.601562 343.199219 726.601562 343.199219 753 C 343.199219 779.398438 382.800781 779.398438 382.800781 753 "/>
<path style=" stroke:none;fill-rule:evenodd;fill:rgb(0%,0%,0%);fill-opacity:1;" d="M 442.800781 573 C 442.800781 546.601562 403.199219 546.601562 403.199219 573 C 403.199219 599.398438 442.800781 599.398438 442.800781 573 "/>
<path style=" stroke:none;fill-rule:evenodd;fill:rgb(0%,0%,0%);fill-opacity:1;" d="M 502.800781 423 C 502.800781 396.601562 463.199219 396.601562 463.199219 423 C 463.199219 449.398438 502.800781 449.398438 502.800781 423 "/>
<path style=" stroke:none;fill-rule:evenodd;fill:rgb(0%,0%,0%);fill-opacity:1;" d="M 502.800781 363 C 502.800781 336.601562 463.199219 336.601562 463.199219 363 C 463.199219 389.398438 502.800781 389.398438 502.800781 363 "/>
<path style=" stroke:none;fill-rule:evenodd;fill:rgb(0%,0%,0%);fill-opacity:1;" d="M 652.800781 363 C 652.800781 336.601562 613.199219 336.601562 613.199219 363 C 613.199219 389.398438 652.800781 389.398438 652.800781 363 "/>
<path style=" stroke:none;fill-rule:evenodd;fill:rgb(100%,100%,100%);fill-opacity:1;" d="M 367.800781 753 C 367.800781 746.601562 358.199219 746.601562 358.199219 753 C 358.199219 759.398438 367.800781 759.398438 367.800781 753 "/>
<path style=" stroke:none;fill-rule:evenodd;fill:rgb(100%,100%,100%);fill-opacity:1;" d="M 427.800781 693 C 427.800781 686.601562 418.199219 686.601562 418.199219 693 C 418.199219 699.398438 427.800781 699.398438 427.800781 693 "/>
<path style=" stroke:none;fill-rule:evenodd;fill:rgb(100%,100%,100%);fill-opacity:1;" d="M 487.800781 693 C 487.800781 686.601562 478.199219 686.601562 478.199219 693 C 478.199219 699.398438 487.800781 699.398438 487.800781 693 "/>
<path style=" stroke:none;fill-rule:evenodd;fill:rgb(100%,100%,100%);fill-opacity:1;" d="M 607.800781 753 C 607.800781 746.601562 598.199219 746.601562 598.199219 753 C 598.199219 759.398438 607.800781 759.398438 607.800781 753 "/>
<path style=" stroke:none;fill-rule:evenodd;fill:rgb(100%,100%,100%);fill-opacity:1;" d="M 787.800781 633 C 787.800781 626.601562 778.199219 626.601562 778.199219 633 C 778.199219 639.398438 787.800781 639.398438 787.800781 633 "/>
<path style=" stroke:none;fill-rule:evenodd;fill:rgb(100%,100%,100%);fill-opacity:1;" d="M 847.800781 633 C 847.800781 626.601562 838.199219 626.601562 838.199219 633 C 838.199219 639.398438 847.800781 639.398438 847.800781 633 "/>
<path style=" stroke:none;fill-rule:evenodd;fill:rgb(100%,100%,100%);fill-opacity:1;" d="M 847.800781 543 C 847.800781 536.601562 838.199219 536.601562 838.199219 543 C 838.199219 549.398438 847.800781 549.398438 847.800781 543 "/>
<path style=" stroke:none;fill-rule:evenodd;fill:rgb(100%,100%,100%);fill-opacity:1;" d="M 787.800781 543 C 787.800781 536.601562 778.199219 536.601562 778.199219 543 C 778.199219 549.398438 787.800781 549.398438 787.800781 543 "/>
<path style=" stroke:none;fill-rule:evenodd;fill:rgb(100%,100%,100%);fill-opacity:1;" d="M 697.800781 543 C 697.800781 536.601562 688.199219 536.601562 688.199219 543 C 688.199219 549.398438 697.800781 549.398438 697.800781 543 "/>
<path style=" stroke:none;fill-rule:evenodd;fill:rgb(100%,100%,100%);fill-opacity:1;" d="M 697.800781 363 C 697.800781 356.601562 688.199219 356.601562 688.199219 363 C 688.199219 369.398438 697.800781 369.398438 697.800781 363 "/>
<path style=" stroke:none;fill-rule:evenodd;fill:rgb(100%,100%,100%);fill-opacity:1;" d="M 637.800781 363 C 637.800781 356.601562 628.199219 356.601562 628.199219 363 C 628.199219 369.398438 637.800781 369.398438 637.800781 363 "/>
<path style=" stroke:none;fill-rule:evenodd;fill:rgb(100%,100%,100%);fill-opacity:1;" d="M 487.800781 363 C 487.800781 356.601562 478.199219 356.601562 478.199219 363 C 478.199219 369.398438 487.800781 369.398438 487.800781 363 "/>
<path style=" stroke:none;fill-rule:evenodd;fill:rgb(100%,100%,100%);fill-opacity:1;" d="M 487.800781 423 C 487.800781 416.601562 478.199219 416.601562 478.199219 423 C 478.199219 429.398438 487.800781 429.398438 487.800781 423 "/>
<path style=" stroke:none;fill-rule:evenodd;fill:rgb(100%,100%,100%);fill-opacity:1;" d="M 367.800781 363 C 367.800781 356.601562 358.199219 356.601562 358.199219 363 C 358.199219 369.398438 367.800781 369.398438 367.800781 363 "/>
<path style=" stroke:none;fill-rule:evenodd;fill:rgb(100%,100%,100%);fill-opacity:1;" d="M 307.800781 363 C 307.800781 356.601562 298.199219 356.601562 298.199219 363 C 298.199219 369.398438 307.800781 369.398438 307.800781 363 "/>
<path style=" stroke:none;fill-rule:evenodd;fill:rgb(100%,100%,100%);fill-opacity:1;" d="M 247.800781 363 C 247.800781 356.601562 238.199219 356.601562 238.199219 363 C 238.199219 369.398438 247.800781 369.398438 247.800781 363 "/>
<path style=" stroke:none;fill-rule:evenodd;fill:rgb(100%,100%,100%);fill-opacity:1;" d="M 187.800781 363 C 187.800781 356.601562 178.199219 356.601562 178.199219 363 C 178.199219 369.398438 187.800781 369.398438 187.800781 363 "/>
<path style=" stroke:none;fill-rule:evenodd;fill:rgb(100%,100%,100%);fill-opacity:1;" d="M 187.800781 273 C 187.800781 266.601562 178.199219 266.601562 178.199219 273 C 178.199219 279.398438 187.800781 279.398438 187.800781 273 "/>
<path style=" stroke:none;fill-rule:evenodd;fill:rgb(100%,100%,100%);fill-opacity:1;" d="M 187.800781 213 C 187.800781 206.601562 178.199219 206.601562 178.199219 213 C 178.199219 219.398438 187.800781 219.398438 187.800781 213 "/>
<path style=" stroke:none;fill-rule:evenodd;fill:rgb(100%,100%,100%);fill-opacity:1;" d="M 307.800781 213 C 307.800781 206.601562 298.199219 206.601562 298.199219 213 C 298.199219 219.398438 307.800781 219.398438 307.800781 213 "/>
<path style=" stroke:none;fill-rule:evenodd;fill:rgb(100%,100%,100%);fill-opacity:1;" d="M 307.800781 273 C 307.800781 266.601562 298.199219 266.601562 298.199219 273 C 298.199219 279.398438 307.800781 279.398438 307.800781 273 "/>
<path style=" stroke:none;fill-rule:evenodd;fill:rgb(100%,100%,100%);fill-opacity:1;" d="M 397.800781 273 C 397.800781 266.601562 388.199219 266.601562 388.199219 273 C 388.199219 279.398438 397.800781 279.398438 397.800781 273 "/>
<path style=" stroke:none;fill-rule:evenodd;fill:rgb(100%,100%,100%);fill-opacity:1;" d="M 397.800781 213 C 397.800781 206.601562 388.199219 206.601562 388.199219 213 C 388.199219 219.398438 397.800781 219.398438 397.800781 213 "/>
<path style=" stroke:none;fill-rule:evenodd;fill:rgb(100%,100%,100%);fill-opacity:1;" d="M 97.800781 363 C 97.800781 356.601562 88.199219 356.601562 88.199219 363 C 88.199219 369.398438 97.800781 369.398438 97.800781 363 "/>
<path style=" stroke:none;fill-rule:evenodd;fill:rgb(100%,100%,100%);fill-opacity:1;" d="M 97.800781 543 C 97.800781 536.601562 88.199219 536.601562 88.199219 543 C 88.199219 549.398438 97.800781 549.398438 97.800781 543 "/>
<path style=" stroke:none;fill-rule:evenodd;fill:rgb(100%,100%,100%);fill-opacity:1;" d="M 187.800781 543 C 187.800781 536.601562 178.199219 536.601562 178.199219 543 C 178.199219 549.398438 187.800781 549.398438 187.800781 543 "/>
<path style=" stroke:none;fill-rule:evenodd;fill:rgb(100%,100%,100%);fill-opacity:1;" d="M 247.800781 543 C 247.800781 536.601562 238.199219 536.601562 238.199219 543 C 238.199219 549.398438 247.800781 549.398438 247.800781 543 "/>
<path style=" stroke:none;fill-rule:evenodd;fill:rgb(100%,100%,100%);fill-opacity:1;" d="M 307.800781 543 C 307.800781 536.601562 298.199219 536.601562 298.199219 543 C 298.199219 549.398438 307.800781 549.398438 307.800781 543 "/>
<path style=" stroke:none;fill-rule:evenodd;fill:rgb(100%,100%,100%);fill-opacity:1;" d="M 367.800781 543 C 367.800781 536.601562 358.199219 536.601562 358.199219 543 C 358.199219 549.398438 367.800781 549.398438 367.800781 543 "/>
<path style=" stroke:none;fill-rule:evenodd;fill:rgb(100%,100%,100%);fill-opacity:1;" d="M 427.800781 573 C 427.800781 566.601562 418.199219 566.601562 418.199219 573 C 418.199219 579.398438 427.800781 579.398438 427.800781 573 "/>
<path style=" stroke:none;fill-rule:evenodd;fill:rgb(100%,100%,100%);fill-opacity:1;" d="M 247.800781 633 C 247.800781 626.601562 238.199219 626.601562 238.199219 633 C 238.199219 639.398438 247.800781 639.398438 247.800781 633 "/>
<path style=" stroke:none;fill-rule:evenodd;fill:rgb(100%,100%,100%);fill-opacity:1;" d="M 187.800781 633 C 187.800781 626.601562 178.199219 626.601562 178.199219 633 C 178.199219 639.398438 187.800781 639.398438 187.800781 633 "/>
<path style=" stroke:none;fill-rule:evenodd;fill:rgb(100%,100%,100%);fill-opacity:1;" d="M 787.800781 363 C 787.800781 356.601562 778.199219 356.601562 778.199219 363 C 778.199219 369.398438 787.800781 369.398438 787.800781 363 "/>
<path style=" stroke:none;fill-rule:evenodd;fill:rgb(100%,100%,100%);fill-opacity:1;" d="M 847.800781 363 C 847.800781 356.601562 838.199219 356.601562 838.199219 363 C 838.199219 369.398438 847.800781 369.398438 847.800781 363 "/>
<path style=" stroke:none;fill-rule:evenodd;fill:rgb(100%,100%,100%);fill-opacity:1;" d="M 907.800781 363 C 907.800781 356.601562 898.199219 356.601562 898.199219 363 C 898.199219 369.398438 907.800781 369.398438 907.800781 363 "/>
<path style=" stroke:none;fill-rule:evenodd;fill:rgb(100%,100%,100%);fill-opacity:1;" d="M 967.800781 363 C 967.800781 356.601562 958.199219 356.601562 958.199219 363 C 958.199219 369.398438 967.800781 369.398438 967.800781 363 "/>
<path style=" stroke:none;fill-rule:evenodd;fill:rgb(100%,100%,100%);fill-opacity:1;" d="M 997.800781 273 C 997.800781 266.601562 988.199219 266.601562 988.199219 273 C 988.199219 279.398438 997.800781 279.398438 997.800781 273 "/>
<path style=" stroke:none;fill-rule:evenodd;fill:rgb(100%,100%,100%);fill-opacity:1;" d="M 997.800781 213 C 997.800781 206.601562 988.199219 206.601562 988.199219 213 C 988.199219 219.398438 997.800781 219.398438 997.800781 213 "/>
<path style=" stroke:none;fill-rule:evenodd;fill:rgb(100%,100%,100%);fill-opacity:1;" d="M 907.800781 213 C 907.800781 206.601562 898.199219 206.601562 898.199219 213 C 898.199219 219.398438 907.800781 219.398438 907.800781 213 "/>
<path style=" stroke:none;fill-rule:evenodd;fill:rgb(100%,100%,100%);fill-opacity:1;" d="M 907.800781 273 C 907.800781 266.601562 898.199219 266.601562 898.199219 273 C 898.199219 279.398438 907.800781 279.398438 907.800781 273 "/>
<path style=" stroke:none;fill-rule:evenodd;fill:rgb(100%,100%,100%);fill-opacity:1;" d="M 787.800781 273 C 787.800781 266.601562 778.199219 266.601562 778.199219 273 C 778.199219 279.398438 787.800781 279.398438 787.800781 273 "/>
<path style=" stroke:none;fill-rule:evenodd;fill:rgb(100%,100%,100%);fill-opacity:1;" d="M 787.800781 213 C 787.800781 206.601562 778.199219 206.601562 778.199219 213 C 778.199219 219.398438 787.800781 219.398438 787.800781 213 "/>
<path style=" stroke:none;fill-rule:evenodd;fill:rgb(100%,100%,100%);fill-opacity:1;" d="M 907.800781 543 C 907.800781 536.601562 898.199219 536.601562 898.199219 543 C 898.199219 549.398438 907.800781 549.398438 907.800781 543 "/>
<path style=" stroke:none;fill-rule:evenodd;fill:rgb(100%,100%,100%);fill-opacity:1;" d="M 967.800781 543 C 967.800781 536.601562 958.199219 536.601562 958.199219 543 C 958.199219 549.398438 967.800781 549.398438 967.800781 543 "/>
<path style=" stroke:none;fill-rule:evenodd;fill:rgb(100%,100%,100%);fill-opacity:1;" d="M 667.800781 843 C 667.800781 836.601562 658.199219 836.601562 658.199219 843 C 658.199219 849.398438 667.800781 849.398438 667.800781 843 "/>
<path style=" stroke:none;fill-rule:evenodd;fill:rgb(100%,100%,100%);fill-opacity:1;" d="M 607.800781 843 C 607.800781 836.601562 598.199219 836.601562 598.199219 843 C 598.199219 849.398438 607.800781 849.398438 607.800781 843 "/>
<path style=" stroke:none;fill-rule:evenodd;fill:rgb(100%,100%,100%);fill-opacity:1;" d="M 547.800781 843 C 547.800781 836.601562 538.199219 836.601562 538.199219 843 C 538.199219 849.398438 547.800781 849.398438 547.800781 843 "/>
<path style=" stroke:none;fill-rule:evenodd;fill:rgb(100%,100%,100%);fill-opacity:1;" d="M 487.800781 843 C 487.800781 836.601562 478.199219 836.601562 478.199219 843 C 478.199219 849.398438 487.800781 849.398438 487.800781 843 "/>
<path style=" stroke:none;fill-rule:evenodd;fill:rgb(100%,100%,100%);fill-opacity:1;" d="M 427.800781 843 C 427.800781 836.601562 418.199219 836.601562 418.199219 843 C 418.199219 849.398438 427.800781 849.398438 427.800781 843 "/>
<path style=" stroke:none;fill-rule:evenodd;fill:rgb(100%,100%,100%);fill-opacity:1;" d="M 367.800781 843 C 367.800781 836.601562 358.199219 836.601562 358.199219 843 C 358.199219 849.398438 367.800781 849.398438 367.800781 843 "/>
<path style=" stroke:none;fill-rule:evenodd;fill:rgb(100%,100%,100%);fill-opacity:1;" d="M 547.800781 213 C 547.800781 206.601562 538.199219 206.601562 538.199219 213 C 538.199219 219.398438 547.800781 219.398438 547.800781 213 "/>
<path style=" stroke:none;fill-rule:evenodd;fill:rgb(100%,100%,100%);fill-opacity:1;" d="M 607.800781 213 C 607.800781 206.601562 598.199219 206.601562 598.199219 213 C 598.199219 219.398438 607.800781 219.398438 607.800781 213 "/>
<path style=" stroke:none;fill-rule:evenodd;fill:rgb(100%,100%,100%);fill-opacity:1;" d="M 667.800781 213 C 667.800781 206.601562 658.199219 206.601562 658.199219 213 C 658.199219 219.398438 667.800781 219.398438 667.800781 213 "/>
<path style=" stroke:none;fill-rule:evenodd;fill:rgb(100%,100%,100%);fill-opacity:1;" d="M 97.800781 963 C 97.800781 956.601562 88.199219 956.601562 88.199219 963 C 88.199219 969.398438 97.800781 969.398438 97.800781 963 "/>
<path style=" stroke:none;fill-rule:evenodd;fill:rgb(100%,100%,100%);fill-opacity:1;" d="M 97.800781 93 C 97.800781 86.601562 88.199219 86.601562 88.199219 93 C 88.199219 99.398438 97.800781 99.398438 97.800781 93 "/>
<path style=" stroke:none;fill-rule:evenodd;fill:rgb(100%,100%,100%);fill-opacity:1;" d="M 1057.800781 93 C 1057.800781 86.601562 1048.199219 86.601562 1048.199219 93 C 1048.199219 99.398438 1057.800781 99.398438 1057.800781 93 "/>
<path style=" stroke:none;fill-rule:evenodd;fill:rgb(100%,100%,100%);fill-opacity:1;" d="M 1057.800781 963 C 1057.800781 956.601562 1048.199219 956.601562 1048.199219 963 C 1048.199219 969.398438 1057.800781 969.398438 1057.800781 963 "/>
</g>
</svg>
