<?xml version="1.0" encoding="UTF-8"?>
<svg xmlns="http://www.w3.org/2000/svg" xmlns:xlink="http://www.w3.org/1999/xlink" width="1626pt" height="719pt" viewBox="0 0 1626 719" version="1.1">
<g id="surface1">
<path style="fill:none;stroke-width:0.01;stroke-linecap:round;stroke-linejoin:miter;stroke:rgb(0%,0%,0%);stroke-opacity:1;stroke-miterlimit:10;" d="M 0.7833 0.015 L 0.7833 1.065 " transform="matrix(600,0,0,-600,-466.979992,725)"/>
<path style="fill:none;stroke-width:0.01;stroke-linecap:round;stroke-linejoin:miter;stroke:rgb(0%,0%,0%);stroke-opacity:1;stroke-miterlimit:10;" d="M 0.7833 1.065 L 3.4833 1.065 " transform="matrix(600,0,0,-600,-466.979992,725)"/>
<path style="fill:none;stroke-width:0.01;stroke-linecap:round;stroke-linejoin:miter;stroke:rgb(0%,0%,0%);stroke-opacity:1;stroke-miterlimit:10;" d="M 3.470299 1.064603 L 3.470299 0.015 " transform="matrix(600,0,0,-600,-466.979992,725)"/>
<path style="fill:none;stroke-width:0.01;stroke-linecap:round;stroke-linejoin:miter;stroke:rgb(0%,0%,0%);stroke-opacity:1;stroke-miterlimit:10;" d="M 3.470299 0.015 L 0.7833 0.015 " transform="matrix(600,0,0,-600,-466.979992,725)"/>
<path style="fill:none;stroke-width:0.0051;stroke-linecap:round;stroke-linejoin:miter;stroke:rgb(0%,0%,0%);stroke-opacity:1;stroke-miterlimit:10;" d="M 0.7833 1.065 L 0.7833 1.191797 " transform="matrix(600,0,0,-600,-466.979992,725)"/>
<path style="fill:none;stroke-width:0.0051;stroke-linecap:round;stroke-linejoin:miter;stroke:rgb(0%,0%,0%);stroke-opacity:1;stroke-miterlimit:10;" d="M 0.7833 1.115 L 0.885702 1.125202 " transform="matrix(600,0,0,-600,-466.979992,725)"/>
<path style="fill:none;stroke-width:0.0051;stroke-linecap:round;stroke-linejoin:miter;stroke:rgb(0%,0%,0%);stroke-opacity:1;stroke-miterlimit:10;" d="M 0.885702 1.127598 L 0.885702 1.102402 " transform="matrix(600,0,0,-600,-466.979992,725)"/>
<path style="fill:none;stroke-width:0.0051;stroke-linecap:round;stroke-linejoin:miter;stroke:rgb(0%,0%,0%);stroke-opacity:1;stroke-miterlimit:10;" d="M 0.885702 1.102402 L 0.7833 1.115 " transform="matrix(600,0,0,-600,-466.979992,725)"/>
<path style="fill:none;stroke-width:0.0051;stroke-linecap:round;stroke-linejoin:miter;stroke:rgb(0%,0%,0%);stroke-opacity:1;stroke-miterlimit:10;" d="M 0.7833 1.115 L 0.885702 1.104798 " transform="matrix(600,0,0,-600,-466.979992,725)"/>
<path style="fill:none;stroke-width:0.0051;stroke-linecap:round;stroke-linejoin:miter;stroke:rgb(0%,0%,0%);stroke-opacity:1;stroke-miterlimit:10;" d="M 0.885702 1.109902 L 0.7833 1.115 " transform="matrix(600,0,0,-600,-466.979992,725)"/>
<path style="fill:none;stroke-width:0.0051;stroke-linecap:round;stroke-linejoin:miter;stroke:rgb(0%,0%,0%);stroke-opacity:1;stroke-miterlimit:10;" d="M 0.7833 1.115 L 0.885702 1.120098 " transform="matrix(600,0,0,-600,-466.979992,725)"/>
<path style="fill:none;stroke-width:0.0051;stroke-linecap:round;stroke-linejoin:miter;stroke:rgb(0%,0%,0%);stroke-opacity:1;stroke-miterlimit:10;" d="M 0.885702 1.127598 L 0.7833 1.115 " transform="matrix(600,0,0,-600,-466.979992,725)"/>
<path style="fill:none;stroke-width:0.0051;stroke-linecap:round;stroke-linejoin:miter;stroke:rgb(0%,0%,0%);stroke-opacity:1;stroke-miterlimit:10;" d="M 0.7833 1.115 L 3.4833 1.115 " transform="matrix(600,0,0,-600,-466.979992,725)"/>
<path style="fill:none;stroke-width:0.0051;stroke-linecap:round;stroke-linejoin:miter;stroke:rgb(0%,0%,0%);stroke-opacity:1;stroke-miterlimit:10;" d="M 3.4833 1.115 L 3.381002 1.104798 " transform="matrix(600,0,0,-600,-466.979992,725)"/>
<path style="fill:none;stroke-width:0.0051;stroke-linecap:round;stroke-linejoin:miter;stroke:rgb(0%,0%,0%);stroke-opacity:1;stroke-miterlimit:10;" d="M 3.381002 1.102402 L 3.4833 1.115 " transform="matrix(600,0,0,-600,-466.979992,725)"/>
<path style="fill:none;stroke-width:0.0051;stroke-linecap:round;stroke-linejoin:miter;stroke:rgb(0%,0%,0%);stroke-opacity:1;stroke-miterlimit:10;" d="M 3.4833 1.115 L 3.381002 1.125202 " transform="matrix(600,0,0,-600,-466.979992,725)"/>
<path style="fill:none;stroke-width:0.0051;stroke-linecap:round;stroke-linejoin:miter;stroke:rgb(0%,0%,0%);stroke-opacity:1;stroke-miterlimit:10;" d="M 3.381002 1.127598 L 3.381002 1.102402 " transform="matrix(600,0,0,-600,-466.979992,725)"/>
<path style="fill:none;stroke-width:0.0051;stroke-linecap:round;stroke-linejoin:miter;stroke:rgb(0%,0%,0%);stroke-opacity:1;stroke-miterlimit:10;" d="M 3.381002 1.109902 L 3.4833 1.115 " transform="matrix(600,0,0,-600,-466.979992,725)"/>
<path style="fill:none;stroke-width:0.0051;stroke-linecap:round;stroke-linejoin:miter;stroke:rgb(0%,0%,0%);stroke-opacity:1;stroke-miterlimit:10;" d="M 3.4833 1.115 L 3.381002 1.120098 " transform="matrix(600,0,0,-600,-466.979992,725)"/>
<path style="fill:none;stroke-width:0.0051;stroke-linecap:round;stroke-linejoin:miter;stroke:rgb(0%,0%,0%);stroke-opacity:1;stroke-miterlimit:10;" d="M 3.381002 1.127598 L 3.4833 1.115 " transform="matrix(600,0,0,-600,-466.979992,725)"/>
<path style="fill:none;stroke-width:0.0051;stroke-linecap:round;stroke-linejoin:miter;stroke:rgb(0%,0%,0%);stroke-opacity:1;stroke-miterlimit:10;" d="M 3.4833 1.065 L 3.4833 1.191797 " transform="matrix(600,0,0,-600,-466.979992,725)"/>
<path style="fill:none;stroke-width:0.011;stroke-linecap:round;stroke-linejoin:miter;stroke:rgb(0%,0%,0%);stroke-opacity:1;stroke-miterlimit:10;" d="M 2.258801 1.192298 L 2.258801 1.1825 " transform="matrix(600,0,0,-600,-466.979992,725)"/>
<path style="fill:none;stroke-width:0.011;stroke-linecap:round;stroke-linejoin:miter;stroke:rgb(0%,0%,0%);stroke-opacity:1;stroke-miterlimit:10;" d="M 2.258801 1.1825 L 2.248899 1.172598 " transform="matrix(600,0,0,-600,-466.979992,725)"/>
<path style="fill:none;stroke-width:0.011;stroke-linecap:round;stroke-linejoin:miter;stroke:rgb(0%,0%,0%);stroke-opacity:1;stroke-miterlimit:10;" d="M 2.248899 1.172598 L 2.229198 1.172598 " transform="matrix(600,0,0,-600,-466.979992,725)"/>
<path style="fill:none;stroke-width:0.011;stroke-linecap:round;stroke-linejoin:miter;stroke:rgb(0%,0%,0%);stroke-opacity:1;stroke-miterlimit:10;" d="M 2.229198 1.172598 L 2.2194 1.1825 " transform="matrix(600,0,0,-600,-466.979992,725)"/>
<path style="fill:none;stroke-width:0.011;stroke-linecap:round;stroke-linejoin:miter;stroke:rgb(0%,0%,0%);stroke-opacity:1;stroke-miterlimit:10;" d="M 2.2194 1.1825 L 2.2194 1.192298 " transform="matrix(600,0,0,-600,-466.979992,725)"/>
<path style="fill:none;stroke-width:0.011;stroke-linecap:round;stroke-linejoin:miter;stroke:rgb(0%,0%,0%);stroke-opacity:1;stroke-miterlimit:10;" d="M 2.2194 1.192298 L 2.229198 1.202201 " transform="matrix(600,0,0,-600,-466.979992,725)"/>
<path style="fill:none;stroke-width:0.011;stroke-linecap:round;stroke-linejoin:miter;stroke:rgb(0%,0%,0%);stroke-opacity:1;stroke-miterlimit:10;" d="M 2.229198 1.202201 L 2.248899 1.202201 " transform="matrix(600,0,0,-600,-466.979992,725)"/>
<path style="fill:none;stroke-width:0.011;stroke-linecap:round;stroke-linejoin:miter;stroke:rgb(0%,0%,0%);stroke-opacity:1;stroke-miterlimit:10;" d="M 2.248899 1.202201 L 2.258801 1.192298 " transform="matrix(600,0,0,-600,-466.979992,725)"/>
<path style="fill:none;stroke-width:0.011;stroke-linecap:round;stroke-linejoin:miter;stroke:rgb(0%,0%,0%);stroke-opacity:1;stroke-miterlimit:10;" d="M 2.248899 1.172598 L 2.258801 1.162799 " transform="matrix(600,0,0,-600,-466.979992,725)"/>
<path style="fill:none;stroke-width:0.011;stroke-linecap:round;stroke-linejoin:miter;stroke:rgb(0%,0%,0%);stroke-opacity:1;stroke-miterlimit:10;" d="M 2.258801 1.162799 L 2.258801 1.153001 " transform="matrix(600,0,0,-600,-466.979992,725)"/>
<path style="fill:none;stroke-width:0.011;stroke-linecap:round;stroke-linejoin:miter;stroke:rgb(0%,0%,0%);stroke-opacity:1;stroke-miterlimit:10;" d="M 2.258801 1.153001 L 2.248899 1.143099 " transform="matrix(600,0,0,-600,-466.979992,725)"/>
<path style="fill:none;stroke-width:0.011;stroke-linecap:round;stroke-linejoin:miter;stroke:rgb(0%,0%,0%);stroke-opacity:1;stroke-miterlimit:10;" d="M 2.248899 1.143099 L 2.229198 1.143099 " transform="matrix(600,0,0,-600,-466.979992,725)"/>
<path style="fill:none;stroke-width:0.011;stroke-linecap:round;stroke-linejoin:miter;stroke:rgb(0%,0%,0%);stroke-opacity:1;stroke-miterlimit:10;" d="M 2.229198 1.143099 L 2.2194 1.153001 " transform="matrix(600,0,0,-600,-466.979992,725)"/>
<path style="fill:none;stroke-width:0.011;stroke-linecap:round;stroke-linejoin:miter;stroke:rgb(0%,0%,0%);stroke-opacity:1;stroke-miterlimit:10;" d="M 2.2194 1.153001 L 2.2194 1.162799 " transform="matrix(600,0,0,-600,-466.979992,725)"/>
<path style="fill:none;stroke-width:0.011;stroke-linecap:round;stroke-linejoin:miter;stroke:rgb(0%,0%,0%);stroke-opacity:1;stroke-miterlimit:10;" d="M 2.2194 1.162799 L 2.229198 1.172598 " transform="matrix(600,0,0,-600,-466.979992,725)"/>
<path style="fill:none;stroke-width:0.011;stroke-linecap:round;stroke-linejoin:miter;stroke:rgb(0%,0%,0%);stroke-opacity:1;stroke-miterlimit:10;" d="M 2.194303 1.172598 L 2.194303 1.153001 " transform="matrix(600,0,0,-600,-466.979992,725)"/>
<path style="fill:none;stroke-width:0.011;stroke-linecap:round;stroke-linejoin:miter;stroke:rgb(0%,0%,0%);stroke-opacity:1;stroke-miterlimit:10;" d="M 2.194303 1.153001 L 2.184498 1.143099 " transform="matrix(600,0,0,-600,-466.979992,725)"/>
<path style="fill:none;stroke-width:0.011;stroke-linecap:round;stroke-linejoin:miter;stroke:rgb(0%,0%,0%);stroke-opacity:1;stroke-miterlimit:10;" d="M 2.184498 1.143099 L 2.164797 1.143099 " transform="matrix(600,0,0,-600,-466.979992,725)"/>
<path style="fill:none;stroke-width:0.011;stroke-linecap:round;stroke-linejoin:miter;stroke:rgb(0%,0%,0%);stroke-opacity:1;stroke-miterlimit:10;" d="M 2.164797 1.143099 L 2.154902 1.153001 " transform="matrix(600,0,0,-600,-466.979992,725)"/>
<path style="fill:none;stroke-width:0.011;stroke-linecap:round;stroke-linejoin:miter;stroke:rgb(0%,0%,0%);stroke-opacity:1;stroke-miterlimit:10;" d="M 2.154902 1.172598 L 2.174602 1.1825 " transform="matrix(600,0,0,-600,-466.979992,725)"/>
<path style="fill:none;stroke-width:0.011;stroke-linecap:round;stroke-linejoin:miter;stroke:rgb(0%,0%,0%);stroke-opacity:1;stroke-miterlimit:10;" d="M 2.174602 1.1825 L 2.184498 1.1825 " transform="matrix(600,0,0,-600,-466.979992,725)"/>
<path style="fill:none;stroke-width:0.011;stroke-linecap:round;stroke-linejoin:miter;stroke:rgb(0%,0%,0%);stroke-opacity:1;stroke-miterlimit:10;" d="M 2.184498 1.1825 L 2.194303 1.172598 " transform="matrix(600,0,0,-600,-466.979992,725)"/>
<path style="fill:none;stroke-width:0.011;stroke-linecap:round;stroke-linejoin:miter;stroke:rgb(0%,0%,0%);stroke-opacity:1;stroke-miterlimit:10;" d="M 2.154902 1.172598 L 2.154902 1.202201 " transform="matrix(600,0,0,-600,-466.979992,725)"/>
<path style="fill:none;stroke-width:0.011;stroke-linecap:round;stroke-linejoin:miter;stroke:rgb(0%,0%,0%);stroke-opacity:1;stroke-miterlimit:10;" d="M 2.154902 1.202201 L 2.194303 1.202201 " transform="matrix(600,0,0,-600,-466.979992,725)"/>
<path style="fill:none;stroke-width:0.011;stroke-linecap:round;stroke-linejoin:miter;stroke:rgb(0%,0%,0%);stroke-opacity:1;stroke-miterlimit:10;" d="M 2.132597 1.153001 L 2.132597 1.143099 " transform="matrix(600,0,0,-600,-466.979992,725)"/>
<path style="fill:none;stroke-width:0.011;stroke-linecap:round;stroke-linejoin:miter;stroke:rgb(0%,0%,0%);stroke-opacity:1;stroke-miterlimit:10;" d="M 2.132597 1.143099 L 2.122701 1.143099 " transform="matrix(600,0,0,-600,-466.979992,725)"/>
<path style="fill:none;stroke-width:0.011;stroke-linecap:round;stroke-linejoin:miter;stroke:rgb(0%,0%,0%);stroke-opacity:1;stroke-miterlimit:10;" d="M 2.122701 1.143099 L 2.122701 1.153001 " transform="matrix(600,0,0,-600,-466.979992,725)"/>
<path style="fill:none;stroke-width:0.011;stroke-linecap:round;stroke-linejoin:miter;stroke:rgb(0%,0%,0%);stroke-opacity:1;stroke-miterlimit:10;" d="M 2.122701 1.153001 L 2.132597 1.153001 " transform="matrix(600,0,0,-600,-466.979992,725)"/>
<path style="fill:none;stroke-width:0.011;stroke-linecap:round;stroke-linejoin:miter;stroke:rgb(0%,0%,0%);stroke-opacity:1;stroke-miterlimit:10;" d="M 2.097597 1.153001 L 2.087799 1.143099 " transform="matrix(600,0,0,-600,-466.979992,725)"/>
<path style="fill:none;stroke-width:0.011;stroke-linecap:round;stroke-linejoin:miter;stroke:rgb(0%,0%,0%);stroke-opacity:1;stroke-miterlimit:10;" d="M 2.087799 1.143099 L 2.068098 1.143099 " transform="matrix(600,0,0,-600,-466.979992,725)"/>
<path style="fill:none;stroke-width:0.011;stroke-linecap:round;stroke-linejoin:miter;stroke:rgb(0%,0%,0%);stroke-opacity:1;stroke-miterlimit:10;" d="M 2.068098 1.143099 L 2.0583 1.153001 " transform="matrix(600,0,0,-600,-466.979992,725)"/>
<path style="fill:none;stroke-width:0.011;stroke-linecap:round;stroke-linejoin:miter;stroke:rgb(0%,0%,0%);stroke-opacity:1;stroke-miterlimit:10;" d="M 2.0583 1.153001 L 2.0583 1.162799 " transform="matrix(600,0,0,-600,-466.979992,725)"/>
<path style="fill:none;stroke-width:0.011;stroke-linecap:round;stroke-linejoin:miter;stroke:rgb(0%,0%,0%);stroke-opacity:1;stroke-miterlimit:10;" d="M 2.0583 1.162799 L 2.068098 1.172598 " transform="matrix(600,0,0,-600,-466.979992,725)"/>
<path style="fill:none;stroke-width:0.011;stroke-linecap:round;stroke-linejoin:miter;stroke:rgb(0%,0%,0%);stroke-opacity:1;stroke-miterlimit:10;" d="M 2.068098 1.172598 L 2.087799 1.172598 " transform="matrix(600,0,0,-600,-466.979992,725)"/>
<path style="fill:none;stroke-width:0.011;stroke-linecap:round;stroke-linejoin:miter;stroke:rgb(0%,0%,0%);stroke-opacity:1;stroke-miterlimit:10;" d="M 2.087799 1.172598 L 2.097597 1.162799 " transform="matrix(600,0,0,-600,-466.979992,725)"/>
<path style="fill:none;stroke-width:0.011;stroke-linecap:round;stroke-linejoin:miter;stroke:rgb(0%,0%,0%);stroke-opacity:1;stroke-miterlimit:10;" d="M 2.097597 1.162799 L 2.097597 1.153001 " transform="matrix(600,0,0,-600,-466.979992,725)"/>
<path style="fill:none;stroke-width:0.011;stroke-linecap:round;stroke-linejoin:miter;stroke:rgb(0%,0%,0%);stroke-opacity:1;stroke-miterlimit:10;" d="M 2.087799 1.172598 L 2.097597 1.1825 " transform="matrix(600,0,0,-600,-466.979992,725)"/>
<path style="fill:none;stroke-width:0.011;stroke-linecap:round;stroke-linejoin:miter;stroke:rgb(0%,0%,0%);stroke-opacity:1;stroke-miterlimit:10;" d="M 2.097597 1.1825 L 2.097597 1.192298 " transform="matrix(600,0,0,-600,-466.979992,725)"/>
<path style="fill:none;stroke-width:0.011;stroke-linecap:round;stroke-linejoin:miter;stroke:rgb(0%,0%,0%);stroke-opacity:1;stroke-miterlimit:10;" d="M 2.097597 1.192298 L 2.087799 1.202201 " transform="matrix(600,0,0,-600,-466.979992,725)"/>
<path style="fill:none;stroke-width:0.011;stroke-linecap:round;stroke-linejoin:miter;stroke:rgb(0%,0%,0%);stroke-opacity:1;stroke-miterlimit:10;" d="M 2.087799 1.202201 L 2.068098 1.202201 " transform="matrix(600,0,0,-600,-466.979992,725)"/>
<path style="fill:none;stroke-width:0.011;stroke-linecap:round;stroke-linejoin:miter;stroke:rgb(0%,0%,0%);stroke-opacity:1;stroke-miterlimit:10;" d="M 2.068098 1.202201 L 2.0583 1.192298 " transform="matrix(600,0,0,-600,-466.979992,725)"/>
<path style="fill:none;stroke-width:0.011;stroke-linecap:round;stroke-linejoin:miter;stroke:rgb(0%,0%,0%);stroke-opacity:1;stroke-miterlimit:10;" d="M 2.0583 1.192298 L 2.0583 1.1825 " transform="matrix(600,0,0,-600,-466.979992,725)"/>
<path style="fill:none;stroke-width:0.011;stroke-linecap:round;stroke-linejoin:miter;stroke:rgb(0%,0%,0%);stroke-opacity:1;stroke-miterlimit:10;" d="M 2.0583 1.1825 L 2.068098 1.172598 " transform="matrix(600,0,0,-600,-466.979992,725)"/>
<path style="fill:none;stroke-width:0.011;stroke-linecap:round;stroke-linejoin:miter;stroke:rgb(0%,0%,0%);stroke-opacity:1;stroke-miterlimit:10;" d="M 2.033202 1.162799 L 2.0233 1.172598 " transform="matrix(600,0,0,-600,-466.979992,725)"/>
<path style="fill:none;stroke-width:0.011;stroke-linecap:round;stroke-linejoin:miter;stroke:rgb(0%,0%,0%);stroke-opacity:1;stroke-miterlimit:10;" d="M 2.0233 1.172598 L 1.993801 1.172598 " transform="matrix(600,0,0,-600,-466.979992,725)"/>
<path style="fill:none;stroke-width:0.011;stroke-linecap:round;stroke-linejoin:miter;stroke:rgb(0%,0%,0%);stroke-opacity:1;stroke-miterlimit:10;" d="M 1.993801 1.172598 L 1.993801 1.153001 " transform="matrix(600,0,0,-600,-466.979992,725)"/>
<path style="fill:none;stroke-width:0.011;stroke-linecap:round;stroke-linejoin:miter;stroke:rgb(0%,0%,0%);stroke-opacity:1;stroke-miterlimit:10;" d="M 1.993801 1.153001 L 2.003697 1.143099 " transform="matrix(600,0,0,-600,-466.979992,725)"/>
<path style="fill:none;stroke-width:0.011;stroke-linecap:round;stroke-linejoin:miter;stroke:rgb(0%,0%,0%);stroke-opacity:1;stroke-miterlimit:10;" d="M 2.003697 1.143099 L 2.0233 1.143099 " transform="matrix(600,0,0,-600,-466.979992,725)"/>
<path style="fill:none;stroke-width:0.011;stroke-linecap:round;stroke-linejoin:miter;stroke:rgb(0%,0%,0%);stroke-opacity:1;stroke-miterlimit:10;" d="M 2.0233 1.143099 L 2.033202 1.153001 " transform="matrix(600,0,0,-600,-466.979992,725)"/>
<path style="fill:none;stroke-width:0.011;stroke-linecap:round;stroke-linejoin:miter;stroke:rgb(0%,0%,0%);stroke-opacity:1;stroke-miterlimit:10;" d="M 2.033202 1.153001 L 2.033202 1.162799 " transform="matrix(600,0,0,-600,-466.979992,725)"/>
<path style="fill:none;stroke-width:0.011;stroke-linecap:round;stroke-linejoin:miter;stroke:rgb(0%,0%,0%);stroke-opacity:1;stroke-miterlimit:10;" d="M 2.013502 1.192298 L 1.993801 1.172598 " transform="matrix(600,0,0,-600,-466.979992,725)"/>
<path style="fill:none;stroke-width:0.011;stroke-linecap:round;stroke-linejoin:miter;stroke:rgb(0%,0%,0%);stroke-opacity:1;stroke-miterlimit:10;" d="M 2.013502 1.192298 L 2.033202 1.202201 " transform="matrix(600,0,0,-600,-466.979992,725)"/>
<path style=" stroke:none;fill-rule:evenodd;fill:rgb(0%,0%,0%);fill-opacity:1;" d="M 414 349.640625 C 414 281.640625 312 281.640625 312 349.640625 C 312 417.640625 414 417.640625 414 349.640625 "/>
<path style=" stroke:none;fill-rule:evenodd;fill:rgb(0%,0%,0%);fill-opacity:1;" d="M 303 278.78125 C 303 210.78125 201 210.78125 201 278.78125 C 201 346.78125 303 346.78125 303 278.78125 "/>
<path style=" stroke:none;fill-rule:evenodd;fill:rgb(0%,0%,0%);fill-opacity:1;" d="M 414 207.859375 C 414 139.859375 312 139.859375 312 207.859375 C 312 275.859375 414 275.859375 414 207.859375 "/>
<path style="fill:none;stroke-width:0.06;stroke-linecap:round;stroke-linejoin:miter;stroke:rgb(0%,0%,0%);stroke-opacity:1;stroke-miterlimit:10;" d="M 1.0133 0.415 L 0.9533 0.415 " transform="matrix(600,0,0,-600,-466.979992,725)"/>
<path style="fill:none;stroke-width:0.06;stroke-linecap:round;stroke-linejoin:miter;stroke:rgb(0%,0%,0%);stroke-opacity:1;stroke-miterlimit:10;" d="M 0.9533 0.515 L 1.0133 0.515 " transform="matrix(600,0,0,-600,-466.979992,725)"/>
<path style="fill:none;stroke-width:0.06;stroke-linecap:round;stroke-linejoin:miter;stroke:rgb(0%,0%,0%);stroke-opacity:1;stroke-miterlimit:10;" d="M 1.1833 0.295 L 1.1833 0.235 " transform="matrix(600,0,0,-600,-466.979992,725)"/>
<path style="fill:none;stroke-width:0.06;stroke-linecap:round;stroke-linejoin:miter;stroke:rgb(0%,0%,0%);stroke-opacity:1;stroke-miterlimit:10;" d="M 1.2833 0.235 L 1.2833 0.295 " transform="matrix(600,0,0,-600,-466.979992,725)"/>
<path style="fill:none;stroke-width:0.06;stroke-linecap:round;stroke-linejoin:miter;stroke:rgb(0%,0%,0%);stroke-opacity:1;stroke-miterlimit:10;" d="M 1.4833 0.295 L 1.4833 0.235 " transform="matrix(600,0,0,-600,-466.979992,725)"/>
<path style="fill:none;stroke-width:0.06;stroke-linecap:round;stroke-linejoin:miter;stroke:rgb(0%,0%,0%);stroke-opacity:1;stroke-miterlimit:10;" d="M 1.5833 0.235 L 1.5833 0.295 " transform="matrix(600,0,0,-600,-466.979992,725)"/>
<path style="fill:none;stroke-width:0.06;stroke-linecap:round;stroke-linejoin:miter;stroke:rgb(0%,0%,0%);stroke-opacity:1;stroke-miterlimit:10;" d="M 1.8833 0.295 L 1.8833 0.235 " transform="matrix(600,0,0,-600,-466.979992,725)"/>
<path style="fill:none;stroke-width:0.06;stroke-linecap:round;stroke-linejoin:miter;stroke:rgb(0%,0%,0%);stroke-opacity:1;stroke-miterlimit:10;" d="M 1.9833 0.235 L 1.9833 0.295 " transform="matrix(600,0,0,-600,-466.979992,725)"/>
<path style="fill:none;stroke-width:0.06;stroke-linecap:round;stroke-linejoin:miter;stroke:rgb(0%,0%,0%);stroke-opacity:1;stroke-miterlimit:10;" d="M 2.0833 0.295 L 2.0833 0.235 " transform="matrix(600,0,0,-600,-466.979992,725)"/>
<path style="fill:none;stroke-width:0.06;stroke-linecap:round;stroke-linejoin:miter;stroke:rgb(0%,0%,0%);stroke-opacity:1;stroke-miterlimit:10;" d="M 2.1833 0.235 L 2.1833 0.295 " transform="matrix(600,0,0,-600,-466.979992,725)"/>
<path style="fill:none;stroke-width:0.06;stroke-linecap:round;stroke-linejoin:miter;stroke:rgb(0%,0%,0%);stroke-opacity:1;stroke-miterlimit:10;" d="M 2.5833 0.295 L 2.5833 0.235 " transform="matrix(600,0,0,-600,-466.979992,725)"/>
<path style="fill:none;stroke-width:0.06;stroke-linecap:round;stroke-linejoin:miter;stroke:rgb(0%,0%,0%);stroke-opacity:1;stroke-miterlimit:10;" d="M 2.6833 0.235 L 2.6833 0.295 " transform="matrix(600,0,0,-600,-466.979992,725)"/>
<path style="fill:none;stroke-width:0.06;stroke-linecap:round;stroke-linejoin:miter;stroke:rgb(0%,0%,0%);stroke-opacity:1;stroke-miterlimit:10;" d="M 2.7833 0.295 L 2.7833 0.235 " transform="matrix(600,0,0,-600,-466.979992,725)"/>
<path style="fill:none;stroke-width:0.06;stroke-linecap:round;stroke-linejoin:miter;stroke:rgb(0%,0%,0%);stroke-opacity:1;stroke-miterlimit:10;" d="M 2.8833 0.235 L 2.8833 0.295 " transform="matrix(600,0,0,-600,-466.979992,725)"/>
<path style="fill:none;stroke-width:0.06;stroke-linecap:round;stroke-linejoin:miter;stroke:rgb(0%,0%,0%);stroke-opacity:1;stroke-miterlimit:10;" d="M 2.9833 0.295 L 2.9833 0.235 " transform="matrix(600,0,0,-600,-466.979992,725)"/>
<path style=" stroke:none;fill-rule:evenodd;fill:rgb(0%,0%,0%);fill-opacity:1;" d="M 1346.941406 294.140625 C 1346.941406 259.738281 1295.339844 259.738281 1295.339844 294.140625 C 1295.339844 328.539062 1346.941406 328.539062 1346.941406 294.140625 "/>
<path style=" stroke:none;fill-rule:evenodd;fill:rgb(0%,0%,0%);fill-opacity:1;" d="M 1287.898438 294.140625 C 1287.898438 259.738281 1236.300781 259.738281 1236.300781 294.140625 C 1236.300781 328.539062 1287.898438 328.539062 1287.898438 294.140625 "/>
<path style=" stroke:none;fill-rule:evenodd;fill:rgb(0%,0%,0%);fill-opacity:1;" d="M 1169.761719 294.140625 C 1169.761719 259.738281 1118.160156 259.738281 1118.160156 294.140625 C 1118.160156 328.539062 1169.761719 328.539062 1169.761719 294.140625 "/>
<path style=" stroke:none;fill-rule:evenodd;fill:rgb(0%,0%,0%);fill-opacity:1;" d="M 1110.71875 294.140625 C 1110.71875 259.738281 1059.121094 259.738281 1059.121094 294.140625 C 1059.121094 328.539062 1110.71875 328.539062 1110.71875 294.140625 "/>
<path style=" stroke:none;fill-rule:evenodd;fill:rgb(0%,0%,0%);fill-opacity:1;" d="M 1228.800781 176 C 1228.800781 141.601562 1177.199219 141.601562 1177.199219 176 C 1177.199219 210.398438 1228.800781 210.398438 1228.800781 176 "/>
<path style=" stroke:none;fill-rule:evenodd;fill:rgb(0%,0%,0%);fill-opacity:1;" d="M 802.320312 326 C 802.320312 299.601562 762.71875 299.601562 762.71875 326 C 762.71875 352.398438 802.320312 352.398438 802.320312 326 "/>
<path style=" stroke:none;fill-rule:evenodd;fill:rgb(0%,0%,0%);fill-opacity:1;" d="M 743.28125 326 C 743.28125 299.601562 703.679688 299.601562 703.679688 326 C 703.679688 352.398438 743.28125 352.398438 743.28125 326 "/>
<path style=" stroke:none;fill-rule:evenodd;fill:rgb(0%,0%,0%);fill-opacity:1;" d="M 743.28125 372.800781 C 743.28125 346.398438 703.679688 346.398438 703.679688 372.800781 C 703.679688 399.199219 743.28125 399.199219 743.28125 372.800781 "/>
<path style=" stroke:none;fill-rule:evenodd;fill:rgb(0%,0%,0%);fill-opacity:1;" d="M 802.320312 372.800781 C 802.320312 346.398438 762.71875 346.398438 762.71875 372.800781 C 762.71875 399.199219 802.320312 399.199219 802.320312 372.800781 "/>
<path style=" stroke:none;fill-rule:evenodd;fill:rgb(0%,0%,0%);fill-opacity:1;" d="M 934.199219 261.800781 C 934.199219 209.800781 856.199219 209.800781 856.199219 261.800781 C 856.199219 313.800781 934.199219 313.800781 934.199219 261.800781 "/>
<path style=" stroke:none;fill-rule:evenodd;fill:rgb(0%,0%,0%);fill-opacity:1;" d="M 649.800781 261.800781 C 649.800781 209.800781 571.800781 209.800781 571.800781 261.800781 C 571.800781 313.800781 649.800781 313.800781 649.800781 261.800781 "/>
<path style=" stroke:none;fill-rule:evenodd;fill:rgb(100%,100%,100%);fill-opacity:1;" d="M 728.28125 372.800781 C 728.28125 366.398438 718.679688 366.398438 718.679688 372.800781 C 718.679688 379.199219 728.28125 379.199219 728.28125 372.800781 "/>
<path style=" stroke:none;fill-rule:evenodd;fill:rgb(100%,100%,100%);fill-opacity:1;" d="M 787.320312 372.800781 C 787.320312 366.398438 777.71875 366.398438 777.71875 372.800781 C 777.71875 379.199219 787.320312 379.199219 787.320312 372.800781 "/>
<path style=" stroke:none;fill-rule:evenodd;fill:rgb(100%,100%,100%);fill-opacity:1;" d="M 787.320312 326 C 787.320312 319.601562 777.71875 319.601562 777.71875 326 C 777.71875 332.398438 787.320312 332.398438 787.320312 326 "/>
<path style=" stroke:none;fill-rule:evenodd;fill:rgb(100%,100%,100%);fill-opacity:1;" d="M 728.28125 326 C 728.28125 319.601562 718.679688 319.601562 718.679688 326 C 718.679688 332.398438 728.28125 332.398438 728.28125 326 "/>
<path style=" stroke:none;fill-rule:evenodd;fill:rgb(100%,100%,100%);fill-opacity:1;" d="M 127.800781 416 C 127.800781 409.601562 118.199219 409.601562 118.199219 416 C 118.199219 422.398438 127.800781 422.398438 127.800781 416 "/>
<path style=" stroke:none;fill-rule:evenodd;fill:rgb(100%,100%,100%);fill-opacity:1;" d="M 127.800781 476 C 127.800781 469.601562 118.199219 469.601562 118.199219 476 C 118.199219 482.398438 127.800781 482.398438 127.800781 476 "/>
<path style=" stroke:none;fill-rule:evenodd;fill:rgb(100%,100%,100%);fill-opacity:1;" d="M 247.800781 566 C 247.800781 559.601562 238.199219 559.601562 238.199219 566 C 238.199219 572.398438 247.800781 572.398438 247.800781 566 "/>
<path style=" stroke:none;fill-rule:evenodd;fill:rgb(100%,100%,100%);fill-opacity:1;" d="M 307.800781 566 C 307.800781 559.601562 298.199219 559.601562 298.199219 566 C 298.199219 572.398438 307.800781 572.398438 307.800781 566 "/>
<path style=" stroke:none;fill-rule:evenodd;fill:rgb(100%,100%,100%);fill-opacity:1;" d="M 427.800781 566 C 427.800781 559.601562 418.199219 559.601562 418.199219 566 C 418.199219 572.398438 427.800781 572.398438 427.800781 566 "/>
<path style=" stroke:none;fill-rule:evenodd;fill:rgb(100%,100%,100%);fill-opacity:1;" d="M 487.800781 566 C 487.800781 559.601562 478.199219 559.601562 478.199219 566 C 478.199219 572.398438 487.800781 572.398438 487.800781 566 "/>
<path style=" stroke:none;fill-rule:evenodd;fill:rgb(100%,100%,100%);fill-opacity:1;" d="M 667.800781 566 C 667.800781 559.601562 658.199219 559.601562 658.199219 566 C 658.199219 572.398438 667.800781 572.398438 667.800781 566 "/>
<path style=" stroke:none;fill-rule:evenodd;fill:rgb(100%,100%,100%);fill-opacity:1;" d="M 727.800781 566 C 727.800781 559.601562 718.199219 559.601562 718.199219 566 C 718.199219 572.398438 727.800781 572.398438 727.800781 566 "/>
<path style=" stroke:none;fill-rule:evenodd;fill:rgb(100%,100%,100%);fill-opacity:1;" d="M 787.800781 566 C 787.800781 559.601562 778.199219 559.601562 778.199219 566 C 778.199219 572.398438 787.800781 572.398438 787.800781 566 "/>
<path style=" stroke:none;fill-rule:evenodd;fill:rgb(100%,100%,100%);fill-opacity:1;" d="M 847.800781 566 C 847.800781 559.601562 838.199219 559.601562 838.199219 566 C 838.199219 572.398438 847.800781 572.398438 847.800781 566 "/>
<path style=" stroke:none;fill-rule:evenodd;fill:rgb(100%,100%,100%);fill-opacity:1;" d="M 1087.800781 566 C 1087.800781 559.601562 1078.199219 559.601562 1078.199219 566 C 1078.199219 572.398438 1087.800781 572.398438 1087.800781 566 "/>
<path style=" stroke:none;fill-rule:evenodd;fill:rgb(100%,100%,100%);fill-opacity:1;" d="M 1147.800781 566 C 1147.800781 559.601562 1138.199219 559.601562 1138.199219 566 C 1138.199219 572.398438 1147.800781 572.398438 1147.800781 566 "/>
<path style=" stroke:none;fill-rule:evenodd;fill:rgb(100%,100%,100%);fill-opacity:1;" d="M 1207.800781 566 C 1207.800781 559.601562 1198.199219 559.601562 1198.199219 566 C 1198.199219 572.398438 1207.800781 572.398438 1207.800781 566 "/>
<path style=" stroke:none;fill-rule:evenodd;fill:rgb(100%,100%,100%);fill-opacity:1;" d="M 1267.800781 566 C 1267.800781 559.601562 1258.199219 559.601562 1258.199219 566 C 1258.199219 572.398438 1267.800781 572.398438 1267.800781 566 "/>
<path style=" stroke:none;fill-rule:evenodd;fill:rgb(100%,100%,100%);fill-opacity:1;" d="M 1327.800781 566 C 1327.800781 559.601562 1318.199219 559.601562 1318.199219 566 C 1318.199219 572.398438 1327.800781 572.398438 1327.800781 566 "/>
<path style=" stroke:none;fill-rule:evenodd;fill:rgb(100%,100%,100%);fill-opacity:1;" d="M 1207.800781 294.140625 C 1207.800781 287.738281 1198.199219 287.738281 1198.199219 294.140625 C 1198.199219 300.539062 1207.800781 300.539062 1207.800781 294.140625 "/>
<path style=" stroke:none;fill-rule:evenodd;fill:rgb(100%,100%,100%);fill-opacity:1;" d="M 1089.71875 176 C 1089.71875 169.601562 1080.121094 169.601562 1080.121094 176 C 1080.121094 182.398438 1089.71875 182.398438 1089.71875 176 "/>
<path style=" stroke:none;fill-rule:evenodd;fill:rgb(100%,100%,100%);fill-opacity:1;" d="M 1089.71875 116.960938 C 1089.71875 110.558594 1080.121094 110.558594 1080.121094 116.960938 C 1080.121094 123.359375 1089.71875 123.359375 1089.71875 116.960938 "/>
<path style=" stroke:none;fill-rule:evenodd;fill:rgb(100%,100%,100%);fill-opacity:1;" d="M 1325.941406 116.960938 C 1325.941406 110.558594 1316.339844 110.558594 1316.339844 116.960938 C 1316.339844 123.359375 1325.941406 123.359375 1325.941406 116.960938 "/>
<path style=" stroke:none;fill-rule:evenodd;fill:rgb(100%,100%,100%);fill-opacity:1;" d="M 1325.941406 176 C 1325.941406 169.601562 1316.339844 169.601562 1316.339844 176 C 1316.339844 182.398438 1325.941406 182.398438 1325.941406 176 "/>
<path style=" stroke:none;fill-rule:evenodd;fill:rgb(100%,100%,100%);fill-opacity:1;" d="M 1207.800781 176 C 1207.800781 169.601562 1198.199219 169.601562 1198.199219 176 C 1198.199219 182.398438 1207.800781 182.398438 1207.800781 176 "/>
<path style=" stroke:none;fill-rule:evenodd;fill:rgb(100%,100%,100%);fill-opacity:1;" d="M 1148.761719 294.140625 C 1148.761719 287.738281 1139.160156 287.738281 1139.160156 294.140625 C 1139.160156 300.539062 1148.761719 300.539062 1148.761719 294.140625 "/>
<path style=" stroke:none;fill-rule:evenodd;fill:rgb(100%,100%,100%);fill-opacity:1;" d="M 1089.71875 294.140625 C 1089.71875 287.738281 1080.121094 287.738281 1080.121094 294.140625 C 1080.121094 300.539062 1089.71875 300.539062 1089.71875 294.140625 "/>
<path style=" stroke:none;fill-rule:evenodd;fill:rgb(100%,100%,100%);fill-opacity:1;" d="M 1266.898438 294.140625 C 1266.898438 287.738281 1257.300781 287.738281 1257.300781 294.140625 C 1257.300781 300.539062 1266.898438 300.539062 1266.898438 294.140625 "/>
<path style=" stroke:none;fill-rule:evenodd;fill:rgb(100%,100%,100%);fill-opacity:1;" d="M 1325.941406 294.140625 C 1325.941406 287.738281 1316.339844 287.738281 1316.339844 294.140625 C 1316.339844 300.539062 1325.941406 300.539062 1325.941406 294.140625 "/>
<path style=" stroke:none;fill-rule:evenodd;fill:rgb(100%,100%,100%);fill-opacity:1;" d="M 900 261.800781 C 900 255.398438 890.398438 255.398438 890.398438 261.800781 C 890.398438 268.199219 900 268.199219 900 261.800781 "/>
<path style=" stroke:none;fill-rule:evenodd;fill:rgb(100%,100%,100%);fill-opacity:1;" d="M 615.601562 261.800781 C 615.601562 255.398438 606 255.398438 606 261.800781 C 606 268.199219 615.601562 268.199219 615.601562 261.800781 "/>
<path style=" stroke:none;fill-rule:evenodd;fill:rgb(100%,100%,100%);fill-opacity:1;" d="M 367.800781 207.859375 C 367.800781 201.460938 358.199219 201.460938 358.199219 207.859375 C 358.199219 214.261719 367.800781 214.261719 367.800781 207.859375 "/>
<path style=" stroke:none;fill-rule:evenodd;fill:rgb(100%,100%,100%);fill-opacity:1;" d="M 256.800781 278.78125 C 256.800781 272.378906 247.199219 272.378906 247.199219 278.78125 C 247.199219 285.179688 256.800781 285.179688 256.800781 278.78125 "/>
<path style=" stroke:none;fill-rule:evenodd;fill:rgb(100%,100%,100%);fill-opacity:1;" d="M 367.800781 349.640625 C 367.800781 343.238281 358.199219 343.238281 358.199219 349.640625 C 358.199219 356.039062 367.800781 356.039062 367.800781 349.640625 "/>
<path style=" stroke:none;fill-rule:evenodd;fill:rgb(100%,100%,100%);fill-opacity:1;" d="M 97.800781 626 C 97.800781 619.601562 88.199219 619.601562 88.199219 626 C 88.199219 632.398438 97.800781 632.398438 97.800781 626 "/>
<path style=" stroke:none;fill-rule:evenodd;fill:rgb(100%,100%,100%);fill-opacity:1;" d="M 97.800781 176 C 97.800781 169.601562 88.199219 169.601562 88.199219 176 C 88.199219 182.398438 97.800781 182.398438 97.800781 176 "/>
<path style=" stroke:none;fill-rule:evenodd;fill:rgb(100%,100%,100%);fill-opacity:1;" d="M 1507.800781 176 C 1507.800781 169.601562 1498.199219 169.601562 1498.199219 176 C 1498.199219 182.398438 1507.800781 182.398438 1507.800781 176 "/>
<path style=" stroke:none;fill-rule:evenodd;fill:rgb(100%,100%,100%);fill-opacity:1;" d="M 1507.800781 626 C 1507.800781 619.601562 1498.199219 619.601562 1498.199219 626 C 1498.199219 632.398438 1507.800781 632.398438 1507.800781 626 "/>
</g>
</svg>
