<?xml version="1.0" encoding="UTF-8"?>
<svg xmlns="http://www.w3.org/2000/svg" xmlns:xlink="http://www.w3.org/1999/xlink" width="605pt" height="899pt" viewBox="0 0 605 899" version="1.1">
<g id="surface1">
<path style="fill:none;stroke-width:0.01;stroke-linecap:round;stroke-linejoin:miter;stroke:rgb(0%,0%,0%);stroke-opacity:1;stroke-miterlimit:10;" d="M 0.0333 0.015 L 0.0333 1.364603 " transform="matrix(600,0,0,-600,-16.98,905)"/>
<path style="fill:none;stroke-width:0.01;stroke-linecap:round;stroke-linejoin:miter;stroke:rgb(0%,0%,0%);stroke-opacity:1;stroke-miterlimit:10;" d="M 0.0333 1.364603 L 1.020299 1.364603 " transform="matrix(600,0,0,-600,-16.98,905)"/>
<path style="fill:none;stroke-width:0.01;stroke-linecap:round;stroke-linejoin:miter;stroke:rgb(0%,0%,0%);stroke-opacity:1;stroke-miterlimit:10;" d="M 1.020299 1.364603 L 1.020299 0.015 " transform="matrix(600,0,0,-600,-16.98,905)"/>
<path style="fill:none;stroke-width:0.01;stroke-linecap:round;stroke-linejoin:miter;stroke:rgb(0%,0%,0%);stroke-opacity:1;stroke-miterlimit:10;" d="M 1.020299 0.015 L 0.0333 0.015 " transform="matrix(600,0,0,-600,-16.98,905)"/>
<path style="fill:none;stroke-width:0.0051;stroke-linecap:round;stroke-linejoin:miter;stroke:rgb(0%,0%,0%);stroke-opacity:1;stroke-miterlimit:10;" d="M 0.0333 1.365 L 0.0333 1.491797 " transform="matrix(600,0,0,-600,-16.98,905)"/>
<path style="fill:none;stroke-width:0.0051;stroke-linecap:round;stroke-linejoin:miter;stroke:rgb(0%,0%,0%);stroke-opacity:1;stroke-miterlimit:10;" d="M 0.0333 1.415 L 0.135702 1.427598 " transform="matrix(600,0,0,-600,-16.98,905)"/>
<path style="fill:none;stroke-width:0.0051;stroke-linecap:round;stroke-linejoin:miter;stroke:rgb(0%,0%,0%);stroke-opacity:1;stroke-miterlimit:10;" d="M 0.135702 1.427598 L 0.135702 1.402402 " transform="matrix(600,0,0,-600,-16.98,905)"/>
<path style="fill:none;stroke-width:0.0051;stroke-linecap:round;stroke-linejoin:miter;stroke:rgb(0%,0%,0%);stroke-opacity:1;stroke-miterlimit:10;" d="M 0.135702 1.402402 L 0.0333 1.415 " transform="matrix(600,0,0,-600,-16.98,905)"/>
<path style="fill:none;stroke-width:0.0051;stroke-linecap:round;stroke-linejoin:miter;stroke:rgb(0%,0%,0%);stroke-opacity:1;stroke-miterlimit:10;" d="M 0.0333 1.415 L 0.135702 1.404798 " transform="matrix(600,0,0,-600,-16.98,905)"/>
<path style="fill:none;stroke-width:0.0051;stroke-linecap:round;stroke-linejoin:miter;stroke:rgb(0%,0%,0%);stroke-opacity:1;stroke-miterlimit:10;" d="M 0.135702 1.409902 L 0.0333 1.415 " transform="matrix(600,0,0,-600,-16.98,905)"/>
<path style="fill:none;stroke-width:0.0051;stroke-linecap:round;stroke-linejoin:miter;stroke:rgb(0%,0%,0%);stroke-opacity:1;stroke-miterlimit:10;" d="M 0.0333 1.415 L 0.135702 1.425202 " transform="matrix(600,0,0,-600,-16.98,905)"/>
<path style="fill:none;stroke-width:0.0051;stroke-linecap:round;stroke-linejoin:miter;stroke:rgb(0%,0%,0%);stroke-opacity:1;stroke-miterlimit:10;" d="M 0.135702 1.420098 L 0.0333 1.415 " transform="matrix(600,0,0,-600,-16.98,905)"/>
<path style="fill:none;stroke-width:0.0051;stroke-linecap:round;stroke-linejoin:miter;stroke:rgb(0%,0%,0%);stroke-opacity:1;stroke-miterlimit:10;" d="M 0.0333 1.415 L 1.0333 1.415 " transform="matrix(600,0,0,-600,-16.98,905)"/>
<path style="fill:none;stroke-width:0.0051;stroke-linecap:round;stroke-linejoin:miter;stroke:rgb(0%,0%,0%);stroke-opacity:1;stroke-miterlimit:10;" d="M 1.0333 1.415 L 0.931002 1.404798 " transform="matrix(600,0,0,-600,-16.98,905)"/>
<path style="fill:none;stroke-width:0.0051;stroke-linecap:round;stroke-linejoin:miter;stroke:rgb(0%,0%,0%);stroke-opacity:1;stroke-miterlimit:10;" d="M 0.931002 1.402402 L 1.0333 1.415 " transform="matrix(600,0,0,-600,-16.98,905)"/>
<path style="fill:none;stroke-width:0.0051;stroke-linecap:round;stroke-linejoin:miter;stroke:rgb(0%,0%,0%);stroke-opacity:1;stroke-miterlimit:10;" d="M 1.0333 1.415 L 0.931002 1.425202 " transform="matrix(600,0,0,-600,-16.98,905)"/>
<path style="fill:none;stroke-width:0.0051;stroke-linecap:round;stroke-linejoin:miter;stroke:rgb(0%,0%,0%);stroke-opacity:1;stroke-miterlimit:10;" d="M 0.931002 1.427598 L 0.931002 1.402402 " transform="matrix(600,0,0,-600,-16.98,905)"/>
<path style="fill:none;stroke-width:0.0051;stroke-linecap:round;stroke-linejoin:miter;stroke:rgb(0%,0%,0%);stroke-opacity:1;stroke-miterlimit:10;" d="M 0.931002 1.409902 L 1.0333 1.415 " transform="matrix(600,0,0,-600,-16.98,905)"/>
<path style="fill:none;stroke-width:0.0051;stroke-linecap:round;stroke-linejoin:miter;stroke:rgb(0%,0%,0%);stroke-opacity:1;stroke-miterlimit:10;" d="M 1.0333 1.415 L 0.931002 1.420098 " transform="matrix(600,0,0,-600,-16.98,905)"/>
<path style="fill:none;stroke-width:0.0051;stroke-linecap:round;stroke-linejoin:miter;stroke:rgb(0%,0%,0%);stroke-opacity:1;stroke-miterlimit:10;" d="M 0.931002 1.427598 L 1.0333 1.415 " transform="matrix(600,0,0,-600,-16.98,905)"/>
<path style="fill:none;stroke-width:0.0051;stroke-linecap:round;stroke-linejoin:miter;stroke:rgb(0%,0%,0%);stroke-opacity:1;stroke-miterlimit:10;" d="M 1.0333 1.365 L 1.0333 1.491797 " transform="matrix(600,0,0,-600,-16.98,905)"/>
<path style="fill:none;stroke-width:0.011;stroke-linecap:round;stroke-linejoin:miter;stroke:rgb(0%,0%,0%);stroke-opacity:1;stroke-miterlimit:10;" d="M 0.626503 1.472598 L 0.5872 1.472598 " transform="matrix(600,0,0,-600,-16.98,905)"/>
<path style="fill:none;stroke-width:0.011;stroke-linecap:round;stroke-linejoin:miter;stroke:rgb(0%,0%,0%);stroke-opacity:1;stroke-miterlimit:10;" d="M 0.5872 1.472598 L 0.616698 1.502201 " transform="matrix(600,0,0,-600,-16.98,905)"/>
<path style="fill:none;stroke-width:0.011;stroke-linecap:round;stroke-linejoin:miter;stroke:rgb(0%,0%,0%);stroke-opacity:1;stroke-miterlimit:10;" d="M 0.616698 1.502201 L 0.616698 1.443099 " transform="matrix(600,0,0,-600,-16.98,905)"/>
<path style="fill:none;stroke-width:0.011;stroke-linecap:round;stroke-linejoin:miter;stroke:rgb(0%,0%,0%);stroke-opacity:1;stroke-miterlimit:10;" d="M 0.564797 1.443099 L 0.564797 1.453001 " transform="matrix(600,0,0,-600,-16.98,905)"/>
<path style="fill:none;stroke-width:0.011;stroke-linecap:round;stroke-linejoin:miter;stroke:rgb(0%,0%,0%);stroke-opacity:1;stroke-miterlimit:10;" d="M 0.564797 1.453001 L 0.554902 1.453001 " transform="matrix(600,0,0,-600,-16.98,905)"/>
<path style="fill:none;stroke-width:0.011;stroke-linecap:round;stroke-linejoin:miter;stroke:rgb(0%,0%,0%);stroke-opacity:1;stroke-miterlimit:10;" d="M 0.554902 1.453001 L 0.554902 1.443099 " transform="matrix(600,0,0,-600,-16.98,905)"/>
<path style="fill:none;stroke-width:0.011;stroke-linecap:round;stroke-linejoin:miter;stroke:rgb(0%,0%,0%);stroke-opacity:1;stroke-miterlimit:10;" d="M 0.554902 1.443099 L 0.564797 1.443099 " transform="matrix(600,0,0,-600,-16.98,905)"/>
<path style="fill:none;stroke-width:0.011;stroke-linecap:round;stroke-linejoin:miter;stroke:rgb(0%,0%,0%);stroke-opacity:1;stroke-miterlimit:10;" d="M 0.529902 1.453001 L 0.519999 1.443099 " transform="matrix(600,0,0,-600,-16.98,905)"/>
<path style="fill:none;stroke-width:0.011;stroke-linecap:round;stroke-linejoin:miter;stroke:rgb(0%,0%,0%);stroke-opacity:1;stroke-miterlimit:10;" d="M 0.519999 1.443099 L 0.500299 1.443099 " transform="matrix(600,0,0,-600,-16.98,905)"/>
<path style="fill:none;stroke-width:0.011;stroke-linecap:round;stroke-linejoin:miter;stroke:rgb(0%,0%,0%);stroke-opacity:1;stroke-miterlimit:10;" d="M 0.500299 1.443099 L 0.490501 1.453001 " transform="matrix(600,0,0,-600,-16.98,905)"/>
<path style="fill:none;stroke-width:0.011;stroke-linecap:round;stroke-linejoin:miter;stroke:rgb(0%,0%,0%);stroke-opacity:1;stroke-miterlimit:10;" d="M 0.490501 1.472598 L 0.510201 1.4825 " transform="matrix(600,0,0,-600,-16.98,905)"/>
<path style="fill:none;stroke-width:0.011;stroke-linecap:round;stroke-linejoin:miter;stroke:rgb(0%,0%,0%);stroke-opacity:1;stroke-miterlimit:10;" d="M 0.510201 1.4825 L 0.519999 1.4825 " transform="matrix(600,0,0,-600,-16.98,905)"/>
<path style="fill:none;stroke-width:0.011;stroke-linecap:round;stroke-linejoin:miter;stroke:rgb(0%,0%,0%);stroke-opacity:1;stroke-miterlimit:10;" d="M 0.519999 1.4825 L 0.529902 1.472598 " transform="matrix(600,0,0,-600,-16.98,905)"/>
<path style="fill:none;stroke-width:0.011;stroke-linecap:round;stroke-linejoin:miter;stroke:rgb(0%,0%,0%);stroke-opacity:1;stroke-miterlimit:10;" d="M 0.529902 1.472598 L 0.529902 1.453001 " transform="matrix(600,0,0,-600,-16.98,905)"/>
<path style="fill:none;stroke-width:0.011;stroke-linecap:round;stroke-linejoin:miter;stroke:rgb(0%,0%,0%);stroke-opacity:1;stroke-miterlimit:10;" d="M 0.490501 1.472598 L 0.490501 1.502201 " transform="matrix(600,0,0,-600,-16.98,905)"/>
<path style="fill:none;stroke-width:0.011;stroke-linecap:round;stroke-linejoin:miter;stroke:rgb(0%,0%,0%);stroke-opacity:1;stroke-miterlimit:10;" d="M 0.490501 1.502201 L 0.529902 1.502201 " transform="matrix(600,0,0,-600,-16.98,905)"/>
<path style="fill:none;stroke-width:0.011;stroke-linecap:round;stroke-linejoin:miter;stroke:rgb(0%,0%,0%);stroke-opacity:1;stroke-miterlimit:10;" d="M 0.465403 1.492298 L 0.455598 1.502201 " transform="matrix(600,0,0,-600,-16.98,905)"/>
<path style="fill:none;stroke-width:0.011;stroke-linecap:round;stroke-linejoin:miter;stroke:rgb(0%,0%,0%);stroke-opacity:1;stroke-miterlimit:10;" d="M 0.455598 1.502201 L 0.435898 1.502201 " transform="matrix(600,0,0,-600,-16.98,905)"/>
<path style="fill:none;stroke-width:0.011;stroke-linecap:round;stroke-linejoin:miter;stroke:rgb(0%,0%,0%);stroke-opacity:1;stroke-miterlimit:10;" d="M 0.435898 1.502201 L 0.426002 1.492298 " transform="matrix(600,0,0,-600,-16.98,905)"/>
<path style="fill:none;stroke-width:0.011;stroke-linecap:round;stroke-linejoin:miter;stroke:rgb(0%,0%,0%);stroke-opacity:1;stroke-miterlimit:10;" d="M 0.465403 1.492298 L 0.465403 1.4825 " transform="matrix(600,0,0,-600,-16.98,905)"/>
<path style="fill:none;stroke-width:0.011;stroke-linecap:round;stroke-linejoin:miter;stroke:rgb(0%,0%,0%);stroke-opacity:1;stroke-miterlimit:10;" d="M 0.465403 1.4825 L 0.426002 1.443099 " transform="matrix(600,0,0,-600,-16.98,905)"/>
<path style="fill:none;stroke-width:0.011;stroke-linecap:round;stroke-linejoin:miter;stroke:rgb(0%,0%,0%);stroke-opacity:1;stroke-miterlimit:10;" d="M 0.426002 1.443099 L 0.465403 1.443099 " transform="matrix(600,0,0,-600,-16.98,905)"/>
<path style="fill:none;stroke-width:0.06;stroke-linecap:round;stroke-linejoin:miter;stroke:rgb(0%,0%,0%);stroke-opacity:1;stroke-miterlimit:10;" d="M 0.4333 0.135 L 0.4333 0.195 " transform="matrix(600,0,0,-600,-16.98,905)"/>
<path style="fill:none;stroke-width:0.06;stroke-linecap:round;stroke-linejoin:miter;stroke:rgb(0%,0%,0%);stroke-opacity:1;stroke-miterlimit:10;" d="M 0.5333 0.195 L 0.5333 0.135 " transform="matrix(600,0,0,-600,-16.98,905)"/>
<path style="fill:none;stroke-width:0.06;stroke-linecap:round;stroke-linejoin:miter;stroke:rgb(0%,0%,0%);stroke-opacity:1;stroke-miterlimit:10;" d="M 0.6333 0.135 L 0.6333 0.195 " transform="matrix(600,0,0,-600,-16.98,905)"/>
<path style="fill:none;stroke-width:0.06;stroke-linecap:round;stroke-linejoin:miter;stroke:rgb(0%,0%,0%);stroke-opacity:1;stroke-miterlimit:10;" d="M 0.5833 1.185 L 0.5833 1.245 " transform="matrix(600,0,0,-600,-16.98,905)"/>
<path style="fill:none;stroke-width:0.06;stroke-linecap:round;stroke-linejoin:miter;stroke:rgb(0%,0%,0%);stroke-opacity:1;stroke-miterlimit:10;" d="M 0.4833 1.245 L 0.4833 1.185 " transform="matrix(600,0,0,-600,-16.98,905)"/>
<path style="fill:none;stroke-width:0.0709;stroke-linecap:round;stroke-linejoin:miter;stroke:rgb(0%,0%,0%);stroke-opacity:1;stroke-miterlimit:10;" d="M 0.336503 0.981497 L 0.336503 0.910703 " transform="matrix(600,0,0,-600,-16.98,905)"/>
<path style="fill:none;stroke-width:0.0709;stroke-linecap:round;stroke-linejoin:miter;stroke:rgb(0%,0%,0%);stroke-opacity:1;stroke-miterlimit:10;" d="M 0.730201 0.910703 L 0.730201 0.981497 " transform="matrix(600,0,0,-600,-16.98,905)"/>
<path style="fill:none;stroke-width:0.0709;stroke-linecap:round;stroke-linejoin:miter;stroke:rgb(0%,0%,0%);stroke-opacity:1;stroke-miterlimit:10;" d="M 0.730201 0.391003 L 0.730201 0.320098 " transform="matrix(600,0,0,-600,-16.98,905)"/>
<path style="fill:none;stroke-width:0.0709;stroke-linecap:round;stroke-linejoin:miter;stroke:rgb(0%,0%,0%);stroke-opacity:1;stroke-miterlimit:10;" d="M 0.5333 0.320098 L 0.5333 0.391003 " transform="matrix(600,0,0,-600,-16.98,905)"/>
<path style="fill:none;stroke-width:0.0709;stroke-linecap:round;stroke-linejoin:miter;stroke:rgb(0%,0%,0%);stroke-opacity:1;stroke-miterlimit:10;" d="M 0.336503 0.391003 L 0.336503 0.320098 " transform="matrix(600,0,0,-600,-16.98,905)"/>
<path style=" stroke:none;fill-rule:evenodd;fill:rgb(100%,100%,100%);fill-opacity:1;" d="M 247.800781 806 C 247.800781 799.601562 238.199219 799.601562 238.199219 806 C 238.199219 812.398438 247.800781 812.398438 247.800781 806 "/>
<path style=" stroke:none;fill-rule:evenodd;fill:rgb(100%,100%,100%);fill-opacity:1;" d="M 307.800781 806 C 307.800781 799.601562 298.199219 799.601562 298.199219 806 C 298.199219 812.398438 307.800781 812.398438 307.800781 806 "/>
<path style=" stroke:none;fill-rule:evenodd;fill:rgb(100%,100%,100%);fill-opacity:1;" d="M 367.800781 806 C 367.800781 799.601562 358.199219 799.601562 358.199219 806 C 358.199219 812.398438 367.800781 812.398438 367.800781 806 "/>
<path style=" stroke:none;fill-rule:evenodd;fill:rgb(100%,100%,100%);fill-opacity:1;" d="M 337.800781 176 C 337.800781 169.601562 328.199219 169.601562 328.199219 176 C 328.199219 182.398438 337.800781 182.398438 337.800781 176 "/>
<path style=" stroke:none;fill-rule:evenodd;fill:rgb(100%,100%,100%);fill-opacity:1;" d="M 277.800781 176 C 277.800781 169.601562 268.199219 169.601562 268.199219 176 C 268.199219 182.398438 277.800781 182.398438 277.800781 176 "/>
<path style=" stroke:none;fill-rule:evenodd;fill:rgb(100%,100%,100%);fill-opacity:1;" d="M 189.71875 337.339844 C 189.71875 330.941406 180.121094 330.941406 180.121094 337.339844 C 180.121094 343.738281 189.71875 343.738281 189.71875 337.339844 "/>
<path style=" stroke:none;fill-rule:evenodd;fill:rgb(100%,100%,100%);fill-opacity:1;" d="M 425.941406 337.339844 C 425.941406 330.941406 416.339844 330.941406 416.339844 337.339844 C 416.339844 343.738281 425.941406 343.738281 425.941406 337.339844 "/>
<path style=" stroke:none;fill-rule:evenodd;fill:rgb(100%,100%,100%);fill-opacity:1;" d="M 425.941406 691.640625 C 425.941406 685.238281 416.339844 685.238281 416.339844 691.640625 C 416.339844 698.039062 425.941406 698.039062 425.941406 691.640625 "/>
<path style=" stroke:none;fill-rule:evenodd;fill:rgb(100%,100%,100%);fill-opacity:1;" d="M 307.800781 691.640625 C 307.800781 685.238281 298.199219 685.238281 298.199219 691.640625 C 298.199219 698.039062 307.800781 698.039062 307.800781 691.640625 "/>
<path style=" stroke:none;fill-rule:evenodd;fill:rgb(100%,100%,100%);fill-opacity:1;" d="M 189.71875 691.640625 C 189.71875 685.238281 180.121094 685.238281 180.121094 691.640625 C 180.121094 698.039062 189.71875 698.039062 189.71875 691.640625 "/>
<path style=" stroke:none;fill-rule:evenodd;fill:rgb(100%,100%,100%);fill-opacity:1;" d="M 97.800781 806 C 97.800781 799.601562 88.199219 799.601562 88.199219 806 C 88.199219 812.398438 97.800781 812.398438 97.800781 806 "/>
<path style=" stroke:none;fill-rule:evenodd;fill:rgb(100%,100%,100%);fill-opacity:1;" d="M 517.800781 806 C 517.800781 799.601562 508.199219 799.601562 508.199219 806 C 508.199219 812.398438 517.800781 812.398438 517.800781 806 "/>
<path style=" stroke:none;fill-rule:evenodd;fill:rgb(100%,100%,100%);fill-opacity:1;" d="M 517.800781 176 C 517.800781 169.601562 508.199219 169.601562 508.199219 176 C 508.199219 182.398438 517.800781 182.398438 517.800781 176 "/>
<path style=" stroke:none;fill-rule:evenodd;fill:rgb(100%,100%,100%);fill-opacity:1;" d="M 97.800781 176 C 97.800781 169.601562 88.199219 169.601562 88.199219 176 C 88.199219 182.398438 97.800781 182.398438 97.800781 176 "/>
</g>
</svg>
