G75*
G70*
%OFA0B0*%
%FSLAX24Y24*%
%IPPOS*%
%LPD*%
%AMOC8*
5,1,8,0,0,1.08239X$1,22.5*
%
%ADD10C,0.0100*%
%ADD11C,0.0050*%
%ADD12C,0.0060*%
%ADD13R,0.0200X0.0150*%
%ADD14C,0.0040*%
%ADD15C,0.0020*%
%ADD16C,0.0080*%
D10*
X000150Y000150D02*
X000150Y017646D01*
X019020Y017646D01*
X019020Y000150D01*
X000150Y000150D01*
X003550Y006850D02*
X003550Y007150D01*
X003550Y007450D01*
X003750Y007450D02*
X003750Y007150D01*
X003750Y006850D01*
X003450Y013550D02*
X003150Y013550D01*
X002850Y013550D01*
X002850Y013750D02*
X003150Y013750D01*
X003450Y013750D01*
X004850Y013750D02*
X005150Y013750D01*
X005450Y013750D01*
X005450Y013550D02*
X005150Y013550D01*
X004850Y013550D01*
X006350Y013550D02*
X006650Y013550D01*
X006950Y013550D01*
X006950Y013750D02*
X006650Y013750D01*
X006350Y013750D01*
X012850Y013750D02*
X013150Y013750D01*
X013450Y013750D01*
X013450Y013550D02*
X013150Y013550D01*
X012850Y013550D01*
X014850Y013550D02*
X015150Y013550D01*
X015450Y013550D01*
X015450Y013750D02*
X015150Y013750D01*
X014850Y013750D01*
X016350Y013750D02*
X016650Y013750D01*
X016950Y013750D01*
X016950Y013550D02*
X016650Y013550D01*
X016350Y013550D01*
X013750Y007450D02*
X013750Y007150D01*
X013750Y006850D01*
X013550Y006850D02*
X013550Y007150D01*
X013550Y007450D01*
D11*
X013500Y006225D02*
X013350Y006225D01*
X013275Y006150D01*
X013275Y005850D01*
X013350Y005775D01*
X013500Y005775D01*
X013575Y005850D01*
X013735Y005850D02*
X013735Y005925D01*
X013810Y006000D01*
X013961Y006000D01*
X014036Y005925D01*
X014036Y005850D01*
X013961Y005775D01*
X013810Y005775D01*
X013735Y005850D01*
X013810Y006000D02*
X013735Y006075D01*
X013735Y006150D01*
X013810Y006225D01*
X013961Y006225D01*
X014036Y006150D01*
X014036Y006075D01*
X013961Y006000D01*
X013575Y006150D02*
X013500Y006225D01*
X011703Y002945D02*
X011568Y002945D01*
X011568Y002675D01*
X011703Y002675D01*
X011748Y002720D01*
X011748Y002900D01*
X011703Y002945D01*
X011454Y002945D02*
X011454Y002675D01*
X011273Y002945D01*
X011273Y002675D01*
X011159Y002720D02*
X011159Y002810D01*
X011069Y002810D01*
X011159Y002720D02*
X011114Y002675D01*
X011024Y002675D01*
X010979Y002720D01*
X010979Y002900D01*
X011024Y002945D01*
X011114Y002945D01*
X011159Y002900D01*
X010570Y002675D02*
X010389Y002675D01*
X010480Y002675D02*
X010480Y002945D01*
X010389Y002855D01*
X010275Y002900D02*
X010275Y002720D01*
X010230Y002675D01*
X010140Y002675D01*
X010095Y002720D01*
X010095Y002900D01*
X010140Y002945D01*
X010230Y002945D01*
X010275Y002900D01*
X009686Y002900D02*
X009641Y002945D01*
X009551Y002945D01*
X009505Y002900D01*
X009391Y002900D02*
X009391Y002720D01*
X009346Y002675D01*
X009256Y002675D01*
X009211Y002720D01*
X009211Y002900D01*
X009256Y002945D01*
X009346Y002945D01*
X009391Y002900D01*
X009505Y002675D02*
X009686Y002855D01*
X009686Y002900D01*
X009686Y002675D02*
X009505Y002675D01*
X008802Y002720D02*
X008757Y002675D01*
X008667Y002675D01*
X008622Y002720D01*
X008667Y002810D02*
X008622Y002855D01*
X008622Y002900D01*
X008667Y002945D01*
X008757Y002945D01*
X008802Y002900D01*
X008757Y002810D02*
X008802Y002765D01*
X008802Y002720D01*
X008757Y002810D02*
X008667Y002810D01*
X008507Y002675D02*
X008327Y002675D01*
X008327Y002945D01*
X008507Y002945D01*
X008417Y002810D02*
X008327Y002810D01*
X008212Y002810D02*
X008212Y002900D01*
X008167Y002945D01*
X008032Y002945D01*
X008032Y002675D01*
X008032Y002765D02*
X008167Y002765D01*
X008212Y002810D01*
X008122Y002765D02*
X008212Y002675D01*
X007623Y002675D02*
X007533Y002765D01*
X007578Y002765D02*
X007443Y002765D01*
X007443Y002675D02*
X007443Y002945D01*
X007578Y002945D01*
X007623Y002900D01*
X007623Y002810D01*
X007578Y002765D01*
X007328Y002945D02*
X007148Y002945D01*
X007238Y002945D02*
X007238Y002675D01*
X007034Y002720D02*
X006989Y002675D01*
X006899Y002675D01*
X006854Y002720D01*
X006899Y002810D02*
X006989Y002810D01*
X007034Y002765D01*
X007034Y002720D01*
X006899Y002810D02*
X006854Y002855D01*
X006854Y002900D01*
X006899Y002945D01*
X006989Y002945D01*
X007034Y002900D01*
X006444Y002900D02*
X006399Y002945D01*
X006309Y002945D01*
X006264Y002900D01*
X006264Y002720D01*
X006309Y002675D01*
X006399Y002675D01*
X006444Y002720D01*
X006150Y002720D02*
X006105Y002675D01*
X006015Y002675D01*
X005970Y002720D01*
X005970Y002900D01*
X006015Y002945D01*
X006105Y002945D01*
X006150Y002900D01*
X005855Y002945D02*
X005855Y002765D01*
X005765Y002675D01*
X005675Y002765D01*
X005675Y002945D01*
X005366Y003395D02*
X005066Y003395D01*
X005366Y003695D01*
X005366Y003770D01*
X005291Y003845D01*
X005141Y003845D01*
X005066Y003770D01*
X004906Y003770D02*
X004906Y003620D01*
X004831Y003545D01*
X004605Y003545D01*
X004605Y003395D02*
X004605Y003845D01*
X004831Y003845D01*
X004906Y003770D01*
X004445Y003845D02*
X004295Y003845D01*
X004370Y003845D02*
X004370Y003470D01*
X004295Y003395D01*
X004220Y003395D01*
X004145Y003470D01*
X003735Y005775D02*
X003735Y005850D01*
X004036Y006150D01*
X004036Y006225D01*
X003735Y006225D01*
X003575Y006150D02*
X003500Y006225D01*
X003350Y006225D01*
X003275Y006150D01*
X003275Y005850D01*
X003350Y005775D01*
X003500Y005775D01*
X003575Y005850D01*
X003497Y009525D02*
X003347Y009525D01*
X003422Y009525D02*
X003422Y009975D01*
X003347Y009975D02*
X003497Y009975D01*
X003654Y009900D02*
X003654Y009600D01*
X003729Y009525D01*
X003879Y009525D01*
X003954Y009600D01*
X004115Y009525D02*
X004415Y009825D01*
X004415Y009900D01*
X004340Y009975D01*
X004190Y009975D01*
X004115Y009900D01*
X003954Y009900D02*
X003879Y009975D01*
X003729Y009975D01*
X003654Y009900D01*
X004115Y009525D02*
X004415Y009525D01*
X007579Y013575D02*
X007729Y013575D01*
X007804Y013650D01*
X007965Y013575D02*
X008265Y013875D01*
X008265Y013950D01*
X008190Y014025D01*
X008040Y014025D01*
X007965Y013950D01*
X007804Y013950D02*
X007729Y014025D01*
X007579Y014025D01*
X007504Y013950D01*
X007504Y013650D01*
X007579Y013575D01*
X007965Y013575D02*
X008265Y013575D01*
X009474Y012905D02*
X009624Y012905D01*
X009549Y012905D02*
X009549Y012530D01*
X009474Y012455D01*
X009399Y012455D01*
X009324Y012530D01*
X009784Y012455D02*
X009784Y012905D01*
X010009Y012905D01*
X010084Y012830D01*
X010084Y012680D01*
X010009Y012605D01*
X009784Y012605D01*
X010245Y012455D02*
X010545Y012455D01*
X010395Y012455D02*
X010395Y012905D01*
X010245Y012755D01*
X010239Y015175D02*
X010239Y015445D01*
X010354Y015445D02*
X010354Y015175D01*
X010489Y015175D01*
X010534Y015220D01*
X010534Y015400D01*
X010489Y015445D01*
X010354Y015445D01*
X010239Y015175D02*
X010059Y015445D01*
X010059Y015175D01*
X009944Y015220D02*
X009944Y015310D01*
X009854Y015310D01*
X009764Y015220D02*
X009809Y015175D01*
X009899Y015175D01*
X009944Y015220D01*
X009764Y015220D02*
X009764Y015400D01*
X009809Y015445D01*
X009899Y015445D01*
X009944Y015400D01*
X009355Y015400D02*
X009355Y015310D01*
X009310Y015265D01*
X009175Y015265D01*
X009175Y015175D02*
X009175Y015445D01*
X009310Y015445D01*
X009355Y015400D01*
X009265Y015265D02*
X009355Y015175D01*
X010943Y015175D02*
X011123Y015175D01*
X010943Y015175D02*
X010943Y015445D01*
X013004Y015150D02*
X013004Y014850D01*
X013079Y014775D01*
X013229Y014775D01*
X013304Y014850D01*
X013465Y014850D02*
X013540Y014775D01*
X013690Y014775D01*
X013765Y014850D01*
X013765Y015000D01*
X013690Y015075D01*
X013615Y015075D01*
X013465Y015000D01*
X013465Y015225D01*
X013765Y015225D01*
X013304Y015150D02*
X013229Y015225D01*
X013079Y015225D01*
X013004Y015150D01*
X014504Y015150D02*
X014504Y014850D01*
X014579Y014775D01*
X014729Y014775D01*
X014804Y014850D01*
X014965Y014850D02*
X015040Y014775D01*
X015190Y014775D01*
X015265Y014850D01*
X015265Y014925D01*
X015190Y015000D01*
X015115Y015000D01*
X015190Y015000D02*
X015265Y015075D01*
X015265Y015150D01*
X015190Y015225D01*
X015040Y015225D01*
X014965Y015150D01*
X014804Y015150D02*
X014729Y015225D01*
X014579Y015225D01*
X014504Y015150D01*
X017504Y013950D02*
X017504Y013650D01*
X017579Y013575D01*
X017729Y013575D01*
X017804Y013650D01*
X017965Y013575D02*
X018265Y013575D01*
X018115Y013575D02*
X018115Y014025D01*
X017965Y013875D01*
X017804Y013950D02*
X017729Y014025D01*
X017579Y014025D01*
X017504Y013950D01*
X014265Y009975D02*
X014265Y009525D01*
X014115Y009525D02*
X014415Y009525D01*
X014115Y009825D02*
X014265Y009975D01*
X013954Y009900D02*
X013879Y009975D01*
X013729Y009975D01*
X013654Y009900D01*
X013654Y009600D01*
X013729Y009525D01*
X013879Y009525D01*
X013954Y009600D01*
X013497Y009525D02*
X013347Y009525D01*
X013422Y009525D02*
X013422Y009975D01*
X013347Y009975D02*
X013497Y009975D01*
X005190Y014775D02*
X005190Y015225D01*
X004965Y015000D01*
X005265Y015000D01*
X004804Y014850D02*
X004729Y014775D01*
X004579Y014775D01*
X004504Y014850D01*
X004504Y015150D01*
X004579Y015225D01*
X004729Y015225D01*
X004804Y015150D01*
X003765Y015225D02*
X003615Y015150D01*
X003465Y015000D01*
X003690Y015000D01*
X003765Y014925D01*
X003765Y014850D01*
X003690Y014775D01*
X003540Y014775D01*
X003465Y014850D01*
X003465Y015000D01*
X003304Y014850D02*
X003229Y014775D01*
X003079Y014775D01*
X003004Y014850D01*
X003004Y015150D01*
X003079Y015225D01*
X003229Y015225D01*
X003304Y015150D01*
D12*
X003650Y014600D02*
X002650Y014600D01*
X002633Y014598D01*
X002616Y014594D01*
X002600Y014587D01*
X002586Y014577D01*
X002573Y014564D01*
X002563Y014550D01*
X002556Y014534D01*
X002552Y014517D01*
X002550Y014500D01*
X002550Y012800D01*
X002552Y012783D01*
X002556Y012766D01*
X002563Y012750D01*
X002573Y012736D01*
X002586Y012723D01*
X002600Y012713D01*
X002616Y012706D01*
X002633Y012702D01*
X002650Y012700D01*
X003650Y012700D01*
X003667Y012702D01*
X003684Y012706D01*
X003700Y012713D01*
X003714Y012723D01*
X003727Y012736D01*
X003737Y012750D01*
X003744Y012766D01*
X003748Y012783D01*
X003750Y012800D01*
X003750Y014500D01*
X003748Y014517D01*
X003744Y014534D01*
X003737Y014550D01*
X003727Y014564D01*
X003714Y014577D01*
X003700Y014587D01*
X003684Y014594D01*
X003667Y014598D01*
X003650Y014600D01*
X004550Y014500D02*
X004550Y012800D01*
X004552Y012783D01*
X004556Y012766D01*
X004563Y012750D01*
X004573Y012736D01*
X004586Y012723D01*
X004600Y012713D01*
X004616Y012706D01*
X004633Y012702D01*
X004650Y012700D01*
X005650Y012700D01*
X005667Y012702D01*
X005684Y012706D01*
X005700Y012713D01*
X005714Y012723D01*
X005727Y012736D01*
X005737Y012750D01*
X005744Y012766D01*
X005748Y012783D01*
X005750Y012800D01*
X005750Y014500D01*
X005748Y014517D01*
X005744Y014534D01*
X005737Y014550D01*
X005727Y014564D01*
X005714Y014577D01*
X005700Y014587D01*
X005684Y014594D01*
X005667Y014598D01*
X005650Y014600D01*
X004650Y014600D01*
X004633Y014598D01*
X004616Y014594D01*
X004600Y014587D01*
X004586Y014577D01*
X004573Y014564D01*
X004563Y014550D01*
X004556Y014534D01*
X004552Y014517D01*
X004550Y014500D01*
X005150Y013800D02*
X005150Y013750D01*
X005150Y013550D02*
X005150Y013500D01*
X006050Y012800D02*
X006050Y014500D01*
X006052Y014517D01*
X006056Y014534D01*
X006063Y014550D01*
X006073Y014564D01*
X006086Y014577D01*
X006100Y014587D01*
X006116Y014594D01*
X006133Y014598D01*
X006150Y014600D01*
X007150Y014600D01*
X007167Y014598D01*
X007184Y014594D01*
X007200Y014587D01*
X007214Y014577D01*
X007227Y014564D01*
X007237Y014550D01*
X007244Y014534D01*
X007248Y014517D01*
X007250Y014500D01*
X007250Y012800D01*
X007248Y012783D01*
X007244Y012766D01*
X007237Y012750D01*
X007227Y012736D01*
X007214Y012723D01*
X007200Y012713D01*
X007184Y012706D01*
X007167Y012702D01*
X007150Y012700D01*
X006150Y012700D01*
X006133Y012702D01*
X006116Y012706D01*
X006100Y012713D01*
X006086Y012723D01*
X006073Y012736D01*
X006063Y012750D01*
X006056Y012766D01*
X006052Y012783D01*
X006050Y012800D01*
X006650Y013500D02*
X006650Y013550D01*
X006650Y013750D02*
X006650Y013800D01*
X008650Y013900D02*
X008650Y014400D01*
X008900Y014650D01*
X009400Y014650D01*
X009650Y014400D01*
X009900Y014650D01*
X010400Y014650D01*
X010650Y014400D01*
X010900Y014650D01*
X011400Y014650D01*
X011650Y014400D01*
X011650Y013900D01*
X011400Y013650D01*
X010900Y013650D01*
X010650Y013900D01*
X010400Y013650D01*
X009900Y013650D01*
X009650Y013900D01*
X009400Y013650D01*
X008900Y013650D01*
X008650Y013900D01*
X009650Y013900D02*
X009650Y014400D01*
X010650Y014400D02*
X010650Y013900D01*
X012550Y014500D02*
X012550Y012800D01*
X012552Y012783D01*
X012556Y012766D01*
X012563Y012750D01*
X012573Y012736D01*
X012586Y012723D01*
X012600Y012713D01*
X012616Y012706D01*
X012633Y012702D01*
X012650Y012700D01*
X013650Y012700D01*
X013667Y012702D01*
X013684Y012706D01*
X013700Y012713D01*
X013714Y012723D01*
X013727Y012736D01*
X013737Y012750D01*
X013744Y012766D01*
X013748Y012783D01*
X013750Y012800D01*
X013750Y014500D01*
X013748Y014517D01*
X013744Y014534D01*
X013737Y014550D01*
X013727Y014564D01*
X013714Y014577D01*
X013700Y014587D01*
X013684Y014594D01*
X013667Y014598D01*
X013650Y014600D01*
X012650Y014600D01*
X012633Y014598D01*
X012616Y014594D01*
X012600Y014587D01*
X012586Y014577D01*
X012573Y014564D01*
X012563Y014550D01*
X012556Y014534D01*
X012552Y014517D01*
X012550Y014500D01*
X013150Y013800D02*
X013150Y013750D01*
X013150Y013550D02*
X013150Y013500D01*
X014550Y012800D02*
X014550Y014500D01*
X014552Y014517D01*
X014556Y014534D01*
X014563Y014550D01*
X014573Y014564D01*
X014586Y014577D01*
X014600Y014587D01*
X014616Y014594D01*
X014633Y014598D01*
X014650Y014600D01*
X015650Y014600D01*
X015667Y014598D01*
X015684Y014594D01*
X015700Y014587D01*
X015714Y014577D01*
X015727Y014564D01*
X015737Y014550D01*
X015744Y014534D01*
X015748Y014517D01*
X015750Y014500D01*
X015750Y012800D01*
X015748Y012783D01*
X015744Y012766D01*
X015737Y012750D01*
X015727Y012736D01*
X015714Y012723D01*
X015700Y012713D01*
X015684Y012706D01*
X015667Y012702D01*
X015650Y012700D01*
X014650Y012700D01*
X014633Y012702D01*
X014616Y012706D01*
X014600Y012713D01*
X014586Y012723D01*
X014573Y012736D01*
X014563Y012750D01*
X014556Y012766D01*
X014552Y012783D01*
X014550Y012800D01*
X015150Y013500D02*
X015150Y013550D01*
X015150Y013750D02*
X015150Y013800D01*
X016050Y014500D02*
X016050Y012800D01*
X016052Y012783D01*
X016056Y012766D01*
X016063Y012750D01*
X016073Y012736D01*
X016086Y012723D01*
X016100Y012713D01*
X016116Y012706D01*
X016133Y012702D01*
X016150Y012700D01*
X017150Y012700D01*
X017167Y012702D01*
X017184Y012706D01*
X017200Y012713D01*
X017214Y012723D01*
X017227Y012736D01*
X017237Y012750D01*
X017244Y012766D01*
X017248Y012783D01*
X017250Y012800D01*
X017250Y014500D01*
X017248Y014517D01*
X017244Y014534D01*
X017237Y014550D01*
X017227Y014564D01*
X017214Y014577D01*
X017200Y014587D01*
X017184Y014594D01*
X017167Y014598D01*
X017150Y014600D01*
X016150Y014600D01*
X016133Y014598D01*
X016116Y014594D01*
X016100Y014587D01*
X016086Y014577D01*
X016073Y014564D01*
X016063Y014550D01*
X016056Y014534D01*
X016052Y014517D01*
X016050Y014500D01*
X016650Y013800D02*
X016650Y013750D01*
X016650Y013550D02*
X016650Y013500D01*
X016650Y011300D02*
X016650Y009000D01*
X012650Y009000D01*
X012650Y009750D01*
X012689Y009752D01*
X012728Y009758D01*
X012766Y009767D01*
X012803Y009780D01*
X012839Y009797D01*
X012872Y009817D01*
X012904Y009841D01*
X012933Y009867D01*
X012959Y009896D01*
X012983Y009928D01*
X013003Y009961D01*
X013020Y009997D01*
X013033Y010034D01*
X013042Y010072D01*
X013048Y010111D01*
X013050Y010150D01*
X013048Y010189D01*
X013042Y010228D01*
X013033Y010266D01*
X013020Y010303D01*
X013003Y010339D01*
X012983Y010372D01*
X012959Y010404D01*
X012933Y010433D01*
X012904Y010459D01*
X012872Y010483D01*
X012839Y010503D01*
X012803Y010520D01*
X012766Y010533D01*
X012728Y010542D01*
X012689Y010548D01*
X012650Y010550D01*
X012650Y011300D01*
X016650Y011300D01*
X014500Y007650D02*
X012800Y007650D01*
X012783Y007648D01*
X012766Y007644D01*
X012750Y007637D01*
X012736Y007627D01*
X012723Y007614D01*
X012713Y007600D01*
X012706Y007584D01*
X012702Y007567D01*
X012700Y007550D01*
X012700Y006750D01*
X012702Y006733D01*
X012706Y006716D01*
X012713Y006700D01*
X012723Y006686D01*
X012736Y006673D01*
X012750Y006663D01*
X012766Y006656D01*
X012783Y006652D01*
X012800Y006650D01*
X014500Y006650D01*
X014517Y006652D01*
X014534Y006656D01*
X014550Y006663D01*
X014564Y006673D01*
X014577Y006686D01*
X014587Y006700D01*
X014594Y006716D01*
X014598Y006733D01*
X014600Y006750D01*
X014600Y007550D01*
X014598Y007567D01*
X014594Y007584D01*
X014587Y007600D01*
X014577Y007614D01*
X014564Y007627D01*
X014550Y007637D01*
X014534Y007644D01*
X014517Y007648D01*
X014500Y007650D01*
X013800Y007150D02*
X013750Y007150D01*
X013550Y007150D02*
X013500Y007150D01*
X011950Y009150D02*
X011350Y009150D01*
X011333Y009152D01*
X011316Y009156D01*
X011300Y009163D01*
X011286Y009173D01*
X011273Y009186D01*
X011263Y009200D01*
X011256Y009216D01*
X011252Y009233D01*
X011250Y009250D01*
X011250Y009400D01*
X011300Y009450D01*
X011300Y010850D01*
X011250Y010900D01*
X011250Y011050D01*
X011252Y011067D01*
X011256Y011084D01*
X011263Y011100D01*
X011273Y011114D01*
X011286Y011127D01*
X011300Y011137D01*
X011316Y011144D01*
X011333Y011148D01*
X011350Y011150D01*
X011950Y011150D01*
X011967Y011148D01*
X011984Y011144D01*
X012000Y011137D01*
X012014Y011127D01*
X012027Y011114D01*
X012037Y011100D01*
X012044Y011084D01*
X012048Y011067D01*
X012050Y011050D01*
X012050Y010900D01*
X012000Y010850D01*
X012000Y009450D01*
X012050Y009400D01*
X012050Y009250D01*
X012048Y009233D01*
X012044Y009216D01*
X012037Y009200D01*
X012027Y009186D01*
X012014Y009173D01*
X012000Y009163D01*
X011984Y009156D01*
X011967Y009152D01*
X011950Y009150D01*
X011400Y004150D02*
X010900Y004150D01*
X010650Y003900D01*
X010650Y003400D01*
X010900Y003150D01*
X011400Y003150D01*
X011650Y003400D01*
X011650Y003900D01*
X011400Y004150D01*
X010650Y003900D02*
X010400Y004150D01*
X009900Y004150D01*
X009650Y003900D01*
X009650Y003400D01*
X009900Y003150D01*
X010400Y003150D01*
X010650Y003400D01*
X009650Y003400D02*
X009400Y003150D01*
X008900Y003150D01*
X008650Y003400D01*
X008400Y003150D01*
X007900Y003150D01*
X007650Y003400D01*
X007400Y003150D01*
X006900Y003150D01*
X006650Y003400D01*
X006400Y003150D01*
X005900Y003150D01*
X005650Y003400D01*
X005650Y003900D01*
X005900Y004150D01*
X006400Y004150D01*
X006650Y003900D01*
X006900Y004150D01*
X007400Y004150D01*
X007650Y003900D01*
X007650Y003400D01*
X007650Y003900D02*
X007900Y004150D01*
X008400Y004150D01*
X008650Y003900D01*
X008900Y004150D01*
X009400Y004150D01*
X009650Y003900D01*
X008650Y003900D02*
X008650Y003400D01*
X008617Y002020D02*
X008617Y001680D01*
X008390Y002020D01*
X008390Y001680D01*
X008248Y001737D02*
X008248Y001964D01*
X008192Y002020D01*
X008078Y002020D01*
X008022Y001964D01*
X008022Y001737D01*
X008078Y001680D01*
X008192Y001680D01*
X008248Y001737D01*
X007880Y001737D02*
X007823Y001680D01*
X007710Y001680D01*
X007653Y001737D01*
X007653Y001964D01*
X007710Y002020D01*
X007823Y002020D01*
X007880Y001964D01*
X007143Y001964D02*
X007143Y001850D01*
X007087Y001793D01*
X006917Y001793D01*
X006917Y001680D02*
X006917Y002020D01*
X007087Y002020D01*
X007143Y001964D01*
X007030Y001793D02*
X007143Y001680D01*
X006775Y001793D02*
X006775Y002020D01*
X006775Y001793D02*
X006662Y001680D01*
X006548Y001793D01*
X006548Y002020D01*
X006407Y001907D02*
X006407Y001680D01*
X006407Y001850D02*
X006180Y001850D01*
X006180Y001907D02*
X006293Y002020D01*
X006407Y001907D01*
X006180Y001907D02*
X006180Y001680D01*
X006650Y003400D02*
X006650Y003900D01*
X008758Y002020D02*
X008985Y001680D01*
X008985Y002020D01*
X009127Y002020D02*
X009127Y001680D01*
X009353Y001680D01*
X009495Y001737D02*
X009552Y001680D01*
X009665Y001680D01*
X009722Y001737D01*
X009495Y001737D02*
X009495Y001964D01*
X009552Y002020D01*
X009665Y002020D01*
X009722Y001964D01*
X009863Y002020D02*
X010090Y002020D01*
X009977Y002020D02*
X009977Y001680D01*
X010231Y001737D02*
X010288Y001680D01*
X010402Y001680D01*
X010458Y001737D01*
X010458Y001964D01*
X010402Y002020D01*
X010288Y002020D01*
X010231Y001964D01*
X010231Y001737D01*
X010600Y001793D02*
X010770Y001793D01*
X010827Y001850D01*
X010827Y001964D01*
X010770Y002020D01*
X010600Y002020D01*
X010600Y001680D01*
X010713Y001793D02*
X010827Y001680D01*
X009353Y002020D02*
X009127Y002020D01*
X009127Y001850D02*
X009240Y001850D01*
X008758Y001680D02*
X008758Y002020D01*
X004500Y006650D02*
X002800Y006650D01*
X002783Y006652D01*
X002766Y006656D01*
X002750Y006663D01*
X002736Y006673D01*
X002723Y006686D01*
X002713Y006700D01*
X002706Y006716D01*
X002702Y006733D01*
X002700Y006750D01*
X002700Y007550D01*
X002702Y007567D01*
X002706Y007584D01*
X002713Y007600D01*
X002723Y007614D01*
X002736Y007627D01*
X002750Y007637D01*
X002766Y007644D01*
X002783Y007648D01*
X002800Y007650D01*
X004500Y007650D01*
X004517Y007648D01*
X004534Y007644D01*
X004550Y007637D01*
X004564Y007627D01*
X004577Y007614D01*
X004587Y007600D01*
X004594Y007584D01*
X004598Y007567D01*
X004600Y007550D01*
X004600Y006750D01*
X004598Y006733D01*
X004594Y006716D01*
X004587Y006700D01*
X004577Y006686D01*
X004564Y006673D01*
X004550Y006663D01*
X004534Y006656D01*
X004517Y006652D01*
X004500Y006650D01*
X003800Y007150D02*
X003750Y007150D01*
X003550Y007150D02*
X003500Y007150D01*
X002650Y009000D02*
X002650Y009750D01*
X002689Y009752D01*
X002728Y009758D01*
X002766Y009767D01*
X002803Y009780D01*
X002839Y009797D01*
X002872Y009817D01*
X002904Y009841D01*
X002933Y009867D01*
X002959Y009896D01*
X002983Y009928D01*
X003003Y009961D01*
X003020Y009997D01*
X003033Y010034D01*
X003042Y010072D01*
X003048Y010111D01*
X003050Y010150D01*
X003048Y010189D01*
X003042Y010228D01*
X003033Y010266D01*
X003020Y010303D01*
X003003Y010339D01*
X002983Y010372D01*
X002959Y010404D01*
X002933Y010433D01*
X002904Y010459D01*
X002872Y010483D01*
X002839Y010503D01*
X002803Y010520D01*
X002766Y010533D01*
X002728Y010542D01*
X002689Y010548D01*
X002650Y010550D01*
X002650Y011300D01*
X006650Y011300D01*
X006650Y009000D01*
X002650Y009000D01*
X002050Y009250D02*
X002050Y009400D01*
X002000Y009450D01*
X002000Y010850D01*
X002050Y010900D01*
X002050Y011050D01*
X002048Y011067D01*
X002044Y011084D01*
X002037Y011100D01*
X002027Y011114D01*
X002014Y011127D01*
X002000Y011137D01*
X001984Y011144D01*
X001967Y011148D01*
X001950Y011150D01*
X001350Y011150D01*
X001333Y011148D01*
X001316Y011144D01*
X001300Y011137D01*
X001286Y011127D01*
X001273Y011114D01*
X001263Y011100D01*
X001256Y011084D01*
X001252Y011067D01*
X001250Y011050D01*
X001250Y010900D01*
X001300Y010850D01*
X001300Y009450D01*
X001250Y009400D01*
X001250Y009250D01*
X001252Y009233D01*
X001256Y009216D01*
X001263Y009200D01*
X001273Y009186D01*
X001286Y009173D01*
X001300Y009163D01*
X001316Y009156D01*
X001333Y009152D01*
X001350Y009150D01*
X001950Y009150D01*
X001967Y009152D01*
X001984Y009156D01*
X002000Y009163D01*
X002014Y009173D01*
X002027Y009186D01*
X002037Y009200D01*
X002044Y009216D01*
X002048Y009233D01*
X002050Y009250D01*
X003150Y013500D02*
X003150Y013550D01*
X003150Y013750D02*
X003150Y013800D01*
X000500Y016150D02*
X000502Y016217D01*
X000508Y016285D01*
X000518Y016352D01*
X000532Y016418D01*
X000549Y016483D01*
X000571Y016547D01*
X000596Y016610D01*
X000625Y016671D01*
X000657Y016730D01*
X000693Y016787D01*
X000732Y016842D01*
X000774Y016895D01*
X000819Y016945D01*
X000867Y016992D01*
X000918Y017037D01*
X000971Y017078D01*
X001027Y017117D01*
X001085Y017152D01*
X001145Y017183D01*
X001206Y017211D01*
X001269Y017235D01*
X001333Y017256D01*
X001399Y017272D01*
X001465Y017285D01*
X001532Y017294D01*
X001599Y017299D01*
X001667Y017300D01*
X001734Y017297D01*
X001801Y017290D01*
X001868Y017279D01*
X001934Y017264D01*
X001999Y017246D01*
X002063Y017223D01*
X002125Y017197D01*
X002186Y017168D01*
X002244Y017134D01*
X002301Y017098D01*
X002356Y017058D01*
X002408Y017015D01*
X002457Y016969D01*
X002504Y016920D01*
X002548Y016869D01*
X002588Y016815D01*
X002626Y016759D01*
X002660Y016700D01*
X002690Y016640D01*
X002717Y016578D01*
X002741Y016515D01*
X002760Y016450D01*
X002776Y016385D01*
X002788Y016318D01*
X002796Y016251D01*
X002800Y016184D01*
X002800Y016116D01*
X002796Y016049D01*
X002788Y015982D01*
X002776Y015915D01*
X002760Y015850D01*
X002741Y015785D01*
X002717Y015722D01*
X002690Y015660D01*
X002660Y015600D01*
X002626Y015541D01*
X002588Y015485D01*
X002548Y015431D01*
X002504Y015380D01*
X002457Y015331D01*
X002408Y015285D01*
X002356Y015242D01*
X002301Y015202D01*
X002244Y015166D01*
X002186Y015132D01*
X002125Y015103D01*
X002063Y015077D01*
X001999Y015054D01*
X001934Y015036D01*
X001868Y015021D01*
X001801Y015010D01*
X001734Y015003D01*
X001667Y015000D01*
X001599Y015001D01*
X001532Y015006D01*
X001465Y015015D01*
X001399Y015028D01*
X001333Y015044D01*
X001269Y015065D01*
X001206Y015089D01*
X001145Y015117D01*
X001085Y015148D01*
X001027Y015183D01*
X000971Y015222D01*
X000918Y015263D01*
X000867Y015308D01*
X000819Y015355D01*
X000774Y015405D01*
X000732Y015458D01*
X000693Y015513D01*
X000657Y015570D01*
X000625Y015629D01*
X000596Y015690D01*
X000571Y015753D01*
X000549Y015817D01*
X000532Y015882D01*
X000518Y015948D01*
X000508Y016015D01*
X000502Y016083D01*
X000500Y016150D01*
X008680Y016180D02*
X008680Y016407D01*
X008793Y016520D01*
X008907Y016407D01*
X008907Y016180D01*
X009048Y016237D02*
X009105Y016180D01*
X009218Y016180D01*
X009275Y016237D01*
X009275Y016520D01*
X009417Y016520D02*
X009587Y016520D01*
X009643Y016464D01*
X009643Y016237D01*
X009587Y016180D01*
X009417Y016180D01*
X009417Y016520D01*
X009785Y016520D02*
X009898Y016520D01*
X009842Y016520D02*
X009842Y016180D01*
X009898Y016180D02*
X009785Y016180D01*
X010030Y016237D02*
X010087Y016180D01*
X010201Y016180D01*
X010257Y016237D01*
X010257Y016464D01*
X010201Y016520D01*
X010087Y016520D01*
X010030Y016464D01*
X010030Y016237D01*
X010767Y016180D02*
X010881Y016180D01*
X010824Y016180D02*
X010824Y016520D01*
X010767Y016520D02*
X010881Y016520D01*
X011013Y016520D02*
X011240Y016180D01*
X011240Y016520D01*
X011013Y016520D02*
X011013Y016180D01*
X009048Y016237D02*
X009048Y016520D01*
X008907Y016350D02*
X008680Y016350D01*
X016500Y016150D02*
X016502Y016217D01*
X016508Y016285D01*
X016518Y016352D01*
X016532Y016418D01*
X016549Y016483D01*
X016571Y016547D01*
X016596Y016610D01*
X016625Y016671D01*
X016657Y016730D01*
X016693Y016787D01*
X016732Y016842D01*
X016774Y016895D01*
X016819Y016945D01*
X016867Y016992D01*
X016918Y017037D01*
X016971Y017078D01*
X017027Y017117D01*
X017085Y017152D01*
X017145Y017183D01*
X017206Y017211D01*
X017269Y017235D01*
X017333Y017256D01*
X017399Y017272D01*
X017465Y017285D01*
X017532Y017294D01*
X017599Y017299D01*
X017667Y017300D01*
X017734Y017297D01*
X017801Y017290D01*
X017868Y017279D01*
X017934Y017264D01*
X017999Y017246D01*
X018063Y017223D01*
X018125Y017197D01*
X018186Y017168D01*
X018244Y017134D01*
X018301Y017098D01*
X018356Y017058D01*
X018408Y017015D01*
X018457Y016969D01*
X018504Y016920D01*
X018548Y016869D01*
X018588Y016815D01*
X018626Y016759D01*
X018660Y016700D01*
X018690Y016640D01*
X018717Y016578D01*
X018741Y016515D01*
X018760Y016450D01*
X018776Y016385D01*
X018788Y016318D01*
X018796Y016251D01*
X018800Y016184D01*
X018800Y016116D01*
X018796Y016049D01*
X018788Y015982D01*
X018776Y015915D01*
X018760Y015850D01*
X018741Y015785D01*
X018717Y015722D01*
X018690Y015660D01*
X018660Y015600D01*
X018626Y015541D01*
X018588Y015485D01*
X018548Y015431D01*
X018504Y015380D01*
X018457Y015331D01*
X018408Y015285D01*
X018356Y015242D01*
X018301Y015202D01*
X018244Y015166D01*
X018186Y015132D01*
X018125Y015103D01*
X018063Y015077D01*
X017999Y015054D01*
X017934Y015036D01*
X017868Y015021D01*
X017801Y015010D01*
X017734Y015003D01*
X017667Y015000D01*
X017599Y015001D01*
X017532Y015006D01*
X017465Y015015D01*
X017399Y015028D01*
X017333Y015044D01*
X017269Y015065D01*
X017206Y015089D01*
X017145Y015117D01*
X017085Y015148D01*
X017027Y015183D01*
X016971Y015222D01*
X016918Y015263D01*
X016867Y015308D01*
X016819Y015355D01*
X016774Y015405D01*
X016732Y015458D01*
X016693Y015513D01*
X016657Y015570D01*
X016625Y015629D01*
X016596Y015690D01*
X016571Y015753D01*
X016549Y015817D01*
X016532Y015882D01*
X016518Y015948D01*
X016508Y016015D01*
X016502Y016083D01*
X016500Y016150D01*
X016500Y001650D02*
X016502Y001717D01*
X016508Y001785D01*
X016518Y001852D01*
X016532Y001918D01*
X016549Y001983D01*
X016571Y002047D01*
X016596Y002110D01*
X016625Y002171D01*
X016657Y002230D01*
X016693Y002287D01*
X016732Y002342D01*
X016774Y002395D01*
X016819Y002445D01*
X016867Y002492D01*
X016918Y002537D01*
X016971Y002578D01*
X017027Y002617D01*
X017085Y002652D01*
X017145Y002683D01*
X017206Y002711D01*
X017269Y002735D01*
X017333Y002756D01*
X017399Y002772D01*
X017465Y002785D01*
X017532Y002794D01*
X017599Y002799D01*
X017667Y002800D01*
X017734Y002797D01*
X017801Y002790D01*
X017868Y002779D01*
X017934Y002764D01*
X017999Y002746D01*
X018063Y002723D01*
X018125Y002697D01*
X018186Y002668D01*
X018244Y002634D01*
X018301Y002598D01*
X018356Y002558D01*
X018408Y002515D01*
X018457Y002469D01*
X018504Y002420D01*
X018548Y002369D01*
X018588Y002315D01*
X018626Y002259D01*
X018660Y002200D01*
X018690Y002140D01*
X018717Y002078D01*
X018741Y002015D01*
X018760Y001950D01*
X018776Y001885D01*
X018788Y001818D01*
X018796Y001751D01*
X018800Y001684D01*
X018800Y001616D01*
X018796Y001549D01*
X018788Y001482D01*
X018776Y001415D01*
X018760Y001350D01*
X018741Y001285D01*
X018717Y001222D01*
X018690Y001160D01*
X018660Y001100D01*
X018626Y001041D01*
X018588Y000985D01*
X018548Y000931D01*
X018504Y000880D01*
X018457Y000831D01*
X018408Y000785D01*
X018356Y000742D01*
X018301Y000702D01*
X018244Y000666D01*
X018186Y000632D01*
X018125Y000603D01*
X018063Y000577D01*
X017999Y000554D01*
X017934Y000536D01*
X017868Y000521D01*
X017801Y000510D01*
X017734Y000503D01*
X017667Y000500D01*
X017599Y000501D01*
X017532Y000506D01*
X017465Y000515D01*
X017399Y000528D01*
X017333Y000544D01*
X017269Y000565D01*
X017206Y000589D01*
X017145Y000617D01*
X017085Y000648D01*
X017027Y000683D01*
X016971Y000722D01*
X016918Y000763D01*
X016867Y000808D01*
X016819Y000855D01*
X016774Y000905D01*
X016732Y000958D01*
X016693Y001013D01*
X016657Y001070D01*
X016625Y001129D01*
X016596Y001190D01*
X016571Y001253D01*
X016549Y001317D01*
X016532Y001382D01*
X016518Y001448D01*
X016508Y001515D01*
X016502Y001583D01*
X016500Y001650D01*
X000500Y001650D02*
X000502Y001717D01*
X000508Y001785D01*
X000518Y001852D01*
X000532Y001918D01*
X000549Y001983D01*
X000571Y002047D01*
X000596Y002110D01*
X000625Y002171D01*
X000657Y002230D01*
X000693Y002287D01*
X000732Y002342D01*
X000774Y002395D01*
X000819Y002445D01*
X000867Y002492D01*
X000918Y002537D01*
X000971Y002578D01*
X001027Y002617D01*
X001085Y002652D01*
X001145Y002683D01*
X001206Y002711D01*
X001269Y002735D01*
X001333Y002756D01*
X001399Y002772D01*
X001465Y002785D01*
X001532Y002794D01*
X001599Y002799D01*
X001667Y002800D01*
X001734Y002797D01*
X001801Y002790D01*
X001868Y002779D01*
X001934Y002764D01*
X001999Y002746D01*
X002063Y002723D01*
X002125Y002697D01*
X002186Y002668D01*
X002244Y002634D01*
X002301Y002598D01*
X002356Y002558D01*
X002408Y002515D01*
X002457Y002469D01*
X002504Y002420D01*
X002548Y002369D01*
X002588Y002315D01*
X002626Y002259D01*
X002660Y002200D01*
X002690Y002140D01*
X002717Y002078D01*
X002741Y002015D01*
X002760Y001950D01*
X002776Y001885D01*
X002788Y001818D01*
X002796Y001751D01*
X002800Y001684D01*
X002800Y001616D01*
X002796Y001549D01*
X002788Y001482D01*
X002776Y001415D01*
X002760Y001350D01*
X002741Y001285D01*
X002717Y001222D01*
X002690Y001160D01*
X002660Y001100D01*
X002626Y001041D01*
X002588Y000985D01*
X002548Y000931D01*
X002504Y000880D01*
X002457Y000831D01*
X002408Y000785D01*
X002356Y000742D01*
X002301Y000702D01*
X002244Y000666D01*
X002186Y000632D01*
X002125Y000603D01*
X002063Y000577D01*
X001999Y000554D01*
X001934Y000536D01*
X001868Y000521D01*
X001801Y000510D01*
X001734Y000503D01*
X001667Y000500D01*
X001599Y000501D01*
X001532Y000506D01*
X001465Y000515D01*
X001399Y000528D01*
X001333Y000544D01*
X001269Y000565D01*
X001206Y000589D01*
X001145Y000617D01*
X001085Y000648D01*
X001027Y000683D01*
X000971Y000722D01*
X000918Y000763D01*
X000867Y000808D01*
X000819Y000855D01*
X000774Y000905D01*
X000732Y000958D01*
X000693Y001013D01*
X000657Y001070D01*
X000625Y001129D01*
X000596Y001190D01*
X000571Y001253D01*
X000549Y001317D01*
X000532Y001382D01*
X000518Y001448D01*
X000508Y001515D01*
X000502Y001583D01*
X000500Y001650D01*
D13*
X001650Y009075D03*
X001650Y011225D03*
X011650Y011225D03*
X011650Y009075D03*
D14*
X011054Y010280D02*
X010821Y010280D01*
X011054Y010514D01*
X011054Y010572D01*
X010996Y010630D01*
X010879Y010630D01*
X010821Y010572D01*
X010695Y010572D02*
X010695Y010455D01*
X010637Y010397D01*
X010462Y010397D01*
X010579Y010397D02*
X010695Y010280D01*
X010462Y010280D02*
X010462Y010630D01*
X010637Y010630D01*
X010695Y010572D01*
X001054Y010280D02*
X000821Y010280D01*
X000938Y010280D02*
X000938Y010630D01*
X000821Y010514D01*
X000695Y010572D02*
X000695Y010455D01*
X000637Y010397D01*
X000462Y010397D01*
X000579Y010397D02*
X000695Y010280D01*
X000462Y010280D02*
X000462Y010630D01*
X000637Y010630D01*
X000695Y010572D01*
D15*
X001650Y015000D02*
X001650Y015100D01*
X001650Y017200D02*
X001650Y017300D01*
X001650Y002800D02*
X001650Y002700D01*
X001650Y000600D02*
X001650Y000500D01*
X017650Y000600D02*
X017650Y000500D01*
X017650Y002700D02*
X017650Y002800D01*
X017650Y015000D02*
X017650Y015100D01*
X017650Y017200D02*
X017650Y017300D01*
D16*
X017059Y016150D02*
X017061Y016198D01*
X017067Y016246D01*
X017077Y016293D01*
X017090Y016339D01*
X017108Y016384D01*
X017128Y016428D01*
X017153Y016470D01*
X017181Y016509D01*
X017211Y016546D01*
X017245Y016580D01*
X017282Y016612D01*
X017320Y016641D01*
X017361Y016666D01*
X017404Y016688D01*
X017449Y016706D01*
X017495Y016720D01*
X017542Y016731D01*
X017590Y016738D01*
X017638Y016741D01*
X017686Y016740D01*
X017734Y016735D01*
X017782Y016726D01*
X017828Y016714D01*
X017873Y016697D01*
X017917Y016677D01*
X017959Y016654D01*
X017999Y016627D01*
X018037Y016597D01*
X018072Y016564D01*
X018104Y016528D01*
X018134Y016490D01*
X018160Y016449D01*
X018182Y016406D01*
X018202Y016362D01*
X018217Y016317D01*
X018229Y016270D01*
X018237Y016222D01*
X018241Y016174D01*
X018241Y016126D01*
X018237Y016078D01*
X018229Y016030D01*
X018217Y015983D01*
X018202Y015938D01*
X018182Y015894D01*
X018160Y015851D01*
X018134Y015810D01*
X018104Y015772D01*
X018072Y015736D01*
X018037Y015703D01*
X017999Y015673D01*
X017959Y015646D01*
X017917Y015623D01*
X017873Y015603D01*
X017828Y015586D01*
X017782Y015574D01*
X017734Y015565D01*
X017686Y015560D01*
X017638Y015559D01*
X017590Y015562D01*
X017542Y015569D01*
X017495Y015580D01*
X017449Y015594D01*
X017404Y015612D01*
X017361Y015634D01*
X017320Y015659D01*
X017282Y015688D01*
X017245Y015720D01*
X017211Y015754D01*
X017181Y015791D01*
X017153Y015830D01*
X017128Y015872D01*
X017108Y015916D01*
X017090Y015961D01*
X017077Y016007D01*
X017067Y016054D01*
X017061Y016102D01*
X017059Y016150D01*
X001059Y016150D02*
X001061Y016198D01*
X001067Y016246D01*
X001077Y016293D01*
X001090Y016339D01*
X001108Y016384D01*
X001128Y016428D01*
X001153Y016470D01*
X001181Y016509D01*
X001211Y016546D01*
X001245Y016580D01*
X001282Y016612D01*
X001320Y016641D01*
X001361Y016666D01*
X001404Y016688D01*
X001449Y016706D01*
X001495Y016720D01*
X001542Y016731D01*
X001590Y016738D01*
X001638Y016741D01*
X001686Y016740D01*
X001734Y016735D01*
X001782Y016726D01*
X001828Y016714D01*
X001873Y016697D01*
X001917Y016677D01*
X001959Y016654D01*
X001999Y016627D01*
X002037Y016597D01*
X002072Y016564D01*
X002104Y016528D01*
X002134Y016490D01*
X002160Y016449D01*
X002182Y016406D01*
X002202Y016362D01*
X002217Y016317D01*
X002229Y016270D01*
X002237Y016222D01*
X002241Y016174D01*
X002241Y016126D01*
X002237Y016078D01*
X002229Y016030D01*
X002217Y015983D01*
X002202Y015938D01*
X002182Y015894D01*
X002160Y015851D01*
X002134Y015810D01*
X002104Y015772D01*
X002072Y015736D01*
X002037Y015703D01*
X001999Y015673D01*
X001959Y015646D01*
X001917Y015623D01*
X001873Y015603D01*
X001828Y015586D01*
X001782Y015574D01*
X001734Y015565D01*
X001686Y015560D01*
X001638Y015559D01*
X001590Y015562D01*
X001542Y015569D01*
X001495Y015580D01*
X001449Y015594D01*
X001404Y015612D01*
X001361Y015634D01*
X001320Y015659D01*
X001282Y015688D01*
X001245Y015720D01*
X001211Y015754D01*
X001181Y015791D01*
X001153Y015830D01*
X001128Y015872D01*
X001108Y015916D01*
X001090Y015961D01*
X001077Y016007D01*
X001067Y016054D01*
X001061Y016102D01*
X001059Y016150D01*
X001059Y001650D02*
X001061Y001698D01*
X001067Y001746D01*
X001077Y001793D01*
X001090Y001839D01*
X001108Y001884D01*
X001128Y001928D01*
X001153Y001970D01*
X001181Y002009D01*
X001211Y002046D01*
X001245Y002080D01*
X001282Y002112D01*
X001320Y002141D01*
X001361Y002166D01*
X001404Y002188D01*
X001449Y002206D01*
X001495Y002220D01*
X001542Y002231D01*
X001590Y002238D01*
X001638Y002241D01*
X001686Y002240D01*
X001734Y002235D01*
X001782Y002226D01*
X001828Y002214D01*
X001873Y002197D01*
X001917Y002177D01*
X001959Y002154D01*
X001999Y002127D01*
X002037Y002097D01*
X002072Y002064D01*
X002104Y002028D01*
X002134Y001990D01*
X002160Y001949D01*
X002182Y001906D01*
X002202Y001862D01*
X002217Y001817D01*
X002229Y001770D01*
X002237Y001722D01*
X002241Y001674D01*
X002241Y001626D01*
X002237Y001578D01*
X002229Y001530D01*
X002217Y001483D01*
X002202Y001438D01*
X002182Y001394D01*
X002160Y001351D01*
X002134Y001310D01*
X002104Y001272D01*
X002072Y001236D01*
X002037Y001203D01*
X001999Y001173D01*
X001959Y001146D01*
X001917Y001123D01*
X001873Y001103D01*
X001828Y001086D01*
X001782Y001074D01*
X001734Y001065D01*
X001686Y001060D01*
X001638Y001059D01*
X001590Y001062D01*
X001542Y001069D01*
X001495Y001080D01*
X001449Y001094D01*
X001404Y001112D01*
X001361Y001134D01*
X001320Y001159D01*
X001282Y001188D01*
X001245Y001220D01*
X001211Y001254D01*
X001181Y001291D01*
X001153Y001330D01*
X001128Y001372D01*
X001108Y001416D01*
X001090Y001461D01*
X001077Y001507D01*
X001067Y001554D01*
X001061Y001602D01*
X001059Y001650D01*
X017059Y001650D02*
X017061Y001698D01*
X017067Y001746D01*
X017077Y001793D01*
X017090Y001839D01*
X017108Y001884D01*
X017128Y001928D01*
X017153Y001970D01*
X017181Y002009D01*
X017211Y002046D01*
X017245Y002080D01*
X017282Y002112D01*
X017320Y002141D01*
X017361Y002166D01*
X017404Y002188D01*
X017449Y002206D01*
X017495Y002220D01*
X017542Y002231D01*
X017590Y002238D01*
X017638Y002241D01*
X017686Y002240D01*
X017734Y002235D01*
X017782Y002226D01*
X017828Y002214D01*
X017873Y002197D01*
X017917Y002177D01*
X017959Y002154D01*
X017999Y002127D01*
X018037Y002097D01*
X018072Y002064D01*
X018104Y002028D01*
X018134Y001990D01*
X018160Y001949D01*
X018182Y001906D01*
X018202Y001862D01*
X018217Y001817D01*
X018229Y001770D01*
X018237Y001722D01*
X018241Y001674D01*
X018241Y001626D01*
X018237Y001578D01*
X018229Y001530D01*
X018217Y001483D01*
X018202Y001438D01*
X018182Y001394D01*
X018160Y001351D01*
X018134Y001310D01*
X018104Y001272D01*
X018072Y001236D01*
X018037Y001203D01*
X017999Y001173D01*
X017959Y001146D01*
X017917Y001123D01*
X017873Y001103D01*
X017828Y001086D01*
X017782Y001074D01*
X017734Y001065D01*
X017686Y001060D01*
X017638Y001059D01*
X017590Y001062D01*
X017542Y001069D01*
X017495Y001080D01*
X017449Y001094D01*
X017404Y001112D01*
X017361Y001134D01*
X017320Y001159D01*
X017282Y001188D01*
X017245Y001220D01*
X017211Y001254D01*
X017181Y001291D01*
X017153Y001330D01*
X017128Y001372D01*
X017108Y001416D01*
X017090Y001461D01*
X017077Y001507D01*
X017067Y001554D01*
X017061Y001602D01*
X017059Y001650D01*
M02*
