G75*
G70*
%OFA0B0*%
%FSLAX24Y24*%
%IPPOS*%
%LPD*%
%AMOC8*
5,1,8,0,0,1.08239X$1,22.5*
%
%ADD10C,0.0600*%
%ADD11C,0.0680*%
%ADD12OC8,0.0600*%
%ADD13C,0.2180*%
%ADD14C,0.0740*%
D10*
X003150Y008390D02*
X003150Y008910D01*
X004150Y008910D02*
X004150Y008390D01*
X005150Y008390D02*
X005150Y008910D01*
X006150Y008910D02*
X006150Y008390D01*
X006150Y011390D02*
X006150Y011910D01*
X005150Y011910D02*
X005150Y011390D01*
X004150Y011390D02*
X004150Y011910D01*
X003150Y011910D02*
X003150Y011390D01*
X013150Y011390D02*
X013150Y011910D01*
X014150Y011910D02*
X014150Y011390D01*
X015150Y011390D02*
X015150Y011910D01*
X016150Y011910D02*
X016150Y011390D01*
X016150Y008910D02*
X016150Y008390D01*
X015150Y008390D02*
X015150Y008910D01*
X014150Y008910D02*
X014150Y008390D01*
X013150Y008390D02*
X013150Y008910D01*
D11*
X011150Y013850D02*
X011150Y014450D01*
X010150Y014450D02*
X010150Y013850D01*
X009150Y013850D02*
X009150Y014450D01*
X009150Y003950D02*
X009150Y003350D01*
X008150Y003350D02*
X008150Y003950D01*
X007150Y003950D02*
X007150Y003350D01*
X006150Y003350D02*
X006150Y003950D01*
X010150Y003950D02*
X010150Y003350D01*
X011150Y003350D02*
X011150Y003950D01*
D12*
X013150Y007150D03*
X014150Y007150D03*
X011650Y008650D03*
X011650Y011650D03*
X013150Y013150D03*
X013150Y014150D03*
X015150Y014150D03*
X015150Y013150D03*
X016650Y013150D03*
X016650Y014150D03*
X006650Y014150D03*
X006650Y013150D03*
X005150Y013150D03*
X005150Y014150D03*
X003150Y014150D03*
X003150Y013150D03*
X001650Y011650D03*
X001650Y008650D03*
X003150Y007150D03*
X004150Y007150D03*
D13*
X001650Y001650D03*
X001650Y016150D03*
X017650Y016150D03*
X017650Y001650D03*
D14*
X010150Y005150D03*
X008150Y006150D03*
X007150Y006150D03*
X006150Y005150D03*
X007150Y008150D03*
X008150Y010650D03*
X008150Y011650D03*
X010650Y011650D03*
M02*
